<svg id="Layer_4" data-name="Layer 4" xmlns="http://www.w3.org/2000/svg" viewBox="0 0 2050.87 575.08"><defs><style>.cls-1{fill:#8f2d56;}.cls-2{fill:#08b;}.cls-3{fill:#ffd166;}.cls-4{fill:#ef476f;}.cls-5{fill:#485b89;}.cls-6{fill:#16ac5b;}.cls-7{fill:#f78c6b;}.cls-8{fill:#263238;}</style></defs><title>mimo-name</title><path class="cls-1" d="M285,671.6h0a85.19,85.19,0,0,1-85-85v-405a85.25,85.25,0,0,1,85-85h0a85.25,85.25,0,0,1,85,85v405A85.25,85.25,0,0,1,285,671.6Z" transform="translate(-200 -96.52)"/><path class="cls-2" d="M566.2,582.9h0c-38.3,26.8-91.6,17.4-118.4-20.9L215.5,230.3c-26.8-38.3-17.4-91.6,20.9-118.4h0c38.3-26.8,91.6-17.4,118.4,20.9L587.1,464.6C613.8,502.9,604.4,556.1,566.2,582.9Z" transform="translate(-200 -96.52)"/><path class="cls-3" d="M798.5,111.8h0c38.3,26.8,47.7,80.1,20.9,118.4L587.1,561.9c-26.8,38.3-80.1,47.7-118.4,20.9h0C430.4,556,421,502.7,447.8,464.4L680.1,132.6C707,94.4,760.3,85,798.5,111.8Z" transform="translate(-200 -96.52)"/><path class="cls-4" d="M749.8,671.6h0a85.19,85.19,0,0,0,85-85v-405a85.25,85.25,0,0,0-85-85h0a85.25,85.25,0,0,0-85,85v405A85.25,85.25,0,0,0,749.8,671.6Z" transform="translate(-200 -96.52)"/><path class="cls-5" d="M314.8,102a20.94,20.94,0,0,0-2.3-.8c-.3-.1-.7-.2-1-.3a85.88,85.88,0,0,0-48.2-1.4c-.2.1-.4.1-.6.2l-3.2.9a28.27,28.27,0,0,0-3.1,1.1c-.2.1-.4.1-.5.2a85.51,85.51,0,0,0-38.7,28.8,5.55,5.55,0,0,1-.6.8,24.26,24.26,0,0,0-1.4,2,85.4,85.4,0,0,0,.4,96.9L370,451V181.6A85.39,85.39,0,0,0,314.8,102Z" transform="translate(-200 -96.52)"/><path class="cls-6" d="M587,464.6l-69.6-99.5-69.5,99.3c-26.8,38.3-17.4,91.6,20.9,118.4h0c36.6,25.7,87,18.1,114.7-16.1C606.6,538,609.2,496.2,587,464.6Z" transform="translate(-200 -96.52)"/><path class="cls-7" d="M829.3,151.7c-12.2-32.1-43.3-55.1-79.5-55.1h0a85.25,85.25,0,0,0-85,85V451L819.4,230.2a84.84,84.84,0,0,0,11-75.3c0-.1-.1-.3-.1-.4C830,153.6,829.7,152.6,829.3,151.7Z" transform="translate(-200 -96.52)"/><path class="cls-8" d="M1384.66,231.24a35.91,35.91,0,0,1,4.27,12.13,136.7,136.7,0,0,1,.67,15.72V508.45q0,31-17.07,36.39-8.54,2.7-21.57,2.7t-20.67-2.25q-7.64-2.24-11.68-5.39a20.2,20.2,0,0,1-6.29-9q-2.25-7.63-2.25-23.36V357q-11.24,13.93-32.8,44.25t-27.41,38l-8.09,10.56q-2.25,2.93-11,8.09a37.66,37.66,0,0,1-37.29.45q-8.32-4.72-11.91-9.21L1178,444.2q-9-11.22-35.49-47.85T1113.75,357V508.45a130.39,130.39,0,0,1-.67,15.5,32,32,0,0,1-4.27,11.46q-6.74,12.13-35,12.13-27.41,0-34.15-12.13a31.8,31.8,0,0,1-4.27-11.68,142.05,142.05,0,0,1-.67-16.17V258.2a130.56,130.56,0,0,1,.67-15.5,35.93,35.93,0,0,1,4.27-11.91q6.74-11.68,35-11.68a66.42,66.42,0,0,1,20.89,2.92q8.76,2.93,11.46,6.07l2.7,2.7,102,133.89q76.37-101.09,102-133.44,7.63-12.13,36.17-12.13T1384.66,231.24Z" transform="translate(-200 -96.52)"/><path class="cls-8" d="M1425.55,258.2a130.56,130.56,0,0,1,.67-15.5,35.93,35.93,0,0,1,4.27-11.91q6.29-12.13,35-12.13,31.44,0,37.29,16.62,2.24,7.64,2.25,23.36v249.8a129.65,129.65,0,0,1-.67,15.72,36.23,36.23,0,0,1-4.27,11.68q-6.3,12.13-35,12.13-31.45,0-36.84-17.07-2.7-7.18-2.7-22.91Z" transform="translate(-200 -96.52)"/><path class="cls-8" d="M1891,231.24a35.91,35.91,0,0,1,4.27,12.13,136.79,136.79,0,0,1,.67,15.72V508.45q0,31-17.07,36.39-8.54,2.7-21.57,2.7t-20.67-2.25Q1829,543,1825,539.9a20.2,20.2,0,0,1-6.29-9q-2.25-7.63-2.25-23.36V357q-11.23,13.93-32.8,44.25t-27.41,38l-8.09,10.56q-2.25,2.93-11,8.09a37.66,37.66,0,0,1-37.29.45q-8.32-4.72-11.91-9.21l-3.59-4.94q-9-11.22-35.49-47.85T1620.08,357V508.45a130.39,130.39,0,0,1-.67,15.5,32,32,0,0,1-4.27,11.46q-6.74,12.13-35,12.13-27.41,0-34.15-12.13a31.8,31.8,0,0,1-4.27-11.68,142.05,142.05,0,0,1-.67-16.17V258.2a130.56,130.56,0,0,1,.67-15.5,35.93,35.93,0,0,1,4.27-11.91q6.74-11.68,35-11.68a66.42,66.42,0,0,1,20.89,2.92q8.76,2.93,11.46,6.07l2.7,2.7,102,133.89q76.37-101.09,102-133.44,7.63-12.13,36.17-12.13T1891,231.24Z" transform="translate(-200 -96.52)"/><path class="cls-8" d="M2086.44,214.62q66.49,0,115.47,48.07t49,119.28q0,71.22-46.73,121.31t-115,50.09q-68.3,0-116.14-49.42t-47.85-117.71a180.93,180.93,0,0,1,13.48-69.86q13.48-32.57,35.94-54.59a168.29,168.29,0,0,1,51.67-34.59A150.79,150.79,0,0,1,2086.44,214.62ZM2004.67,384q0,40,25.83,64.92t57.73,24.94q31.9,0,57.51-24.26t25.61-65.15q0-40.88-25.83-65.6t-57.73-24.71q-31.91,0-57.51,24.94T2004.67,384Z" transform="translate(-200 -96.52)"/></svg>