<?xml version="1.0" encoding="utf-8"?>
<!-- Generator: Adobe Illustrator 21.1.0, SVG Export Plug-In . SVG Version: 6.00 Build 0)  -->
<svg version="1.1" id="Layer_4" xmlns="http://www.w3.org/2000/svg" xmlns:xlink="http://www.w3.org/1999/xlink" x="0px" y="0px"
	 viewBox="0 0 709.2 493.9" style="enable-background:new 0 0 709.2 493.9;" xml:space="preserve">
<style type="text/css">
	.st0{fill:#E4F2FC;}
	.st1{fill:#BDDDF4;}
	.st2{fill:#BDBDBD;}
	.st3{fill:#757576;}
	.st4{fill:#E0E0E0;}
	.st5{fill:#EEEEEE;}
	.st6{fill:#1FA153;}
	.st7{fill:#20AD5C;}
	.st8{fill:#F2D8C2;}
	.st9{fill:#F8DFC5;}
	.st10{fill:#4E352E;}
	.st11{fill:#3E2723;}
	.st12{fill:#010101;}
	.st13{fill:#F4C5BE;}
	.st14{fill:#F280AA;}
	.st15{fill:#FFFFFF;}
	.st16{fill:#EE4481;}
	.st17{fill:#F5F5F5;}
	.st18{fill:#F0B6AF;}
	.st19{fill:#E6CDBB;}
	.st20{fill:#A9A8A9;}
	.st21{fill:#95C8EC;}
	.st22{fill:#70B2E2;}
	.st23{fill:#E7C09C;}
	.st24{fill:#E0B999;}
	.st25{fill:#DDA38C;}
	.st26{fill:#D19A87;}
	.st27{opacity:0.3;}
	.st28{fill:#212121;}
	.st29{fill:#FFE081;}
	.st30{fill:#FFECB2;}
	.st31{fill:#57A0D7;}
	.st32{fill:#3D82C4;}
	.st33{fill:#6D4D42;}
	.st34{fill:#5E4137;}
	.st35{fill:#231714;}
	.st36{fill:#1A1212;}
	.st37{fill:#3374BA;}
	.st38{fill:#14499E;}
	.st39{opacity:0.5;fill:#FFFFFF;}
</style>
<g>
	<g>
		<circle class="st0" cx="353.6" cy="108.5" r="108.5"/>
		<path class="st1" d="M353.6,0v217c59.9,0,108.5-48.6,108.5-108.5S413.6,0,353.6,0z"/>
		<path class="st2" d="M353.9,166.4c-0.1,0-0.1,0-0.2,0c-21.1,0-38.1,4.8-38.1,10.8c0,0.4,0.1,0.7,0.2,1.1h0
			c4.9-2.3,10.4-3.5,16-3.5h10h11.8h13.2h11.2c5.1,0,9.8,1,14.1,2.9c0-0.1,0-0.3,0-0.4C392.2,171.2,375.1,166.4,353.9,166.4z"/>
		<path class="st3" d="M392.2,177.1c0,0.1,0,0.3,0,0.4c-4.3-1.8-9-2.9-14.1-2.9h-11.2h-13.2v-8.3c0.1,0,0.1,0,0.2,0
			C375.1,166.4,392.2,171.2,392.2,177.1z"/>
		<path class="st3" d="M394.5,178.7c8.2,4.3,14.5,11.8,17.6,21.2c2.6-1.7,5.1-3.4,7.5-5.3C412.3,185.7,403.7,180,394.5,178.7z"/>
		<path class="st2" d="M315.5,178.4c-10.6,0-20.4,5.7-28.7,15.6c2.8,2.2,5.7,4.3,8.8,6.2C299.2,190.4,306.5,182.7,315.5,178.4z"/>
		<path class="st4" d="M315.7,178.4c-0.1,0-0.1,0-0.2,0h0c-9,4.3-16.3,12-19.9,21.8c4,2.5,8.1,4.8,12.4,6.8c0.2-1.7,0.3-3.5,0.5-5.1
			C309.8,191.8,312,183.5,315.7,178.4z"/>
		<path class="st5" d="M341.9,174.7h-10c-5.6,0-11.1,1.3-16,3.5c0,0,0,0.1,0.1,0.1c0,0,0,0-0.1,0c0,0-0.1,0-0.1,0
			c-3.7,5.2-5.9,13.4-7.2,23.4c-0.2,1.7-0.4,3.4-0.5,5.1c4.1,1.9,8.3,3.5,12.6,4.9c0.3-10.8,3-20.3,7-26.9
			C331.5,178.5,336.6,174.7,341.9,174.7z"/>
		<path class="st6" d="M380.5,184.9c-0.3-0.5-0.6-1-0.9-1.5c-0.5-0.8-1-1.6-1.6-2.3c-3.1-4.1-6.9-6.4-11.1-6.4h-13.2h-11.8
			c-5.3,0-10.4,3.8-14.3,10.3c-4,6.6-6.7,16.1-7,26.9c10.4,3.3,21.5,5.1,33,5.1c0,0,0.1,0,0.1,0c11.5,0,22.6-1.8,33.1-5.2
			C386.5,200.9,384.2,191.5,380.5,184.9z"/>
		<path class="st4" d="M392.8,178.5c-0.3,0-0.6,0-0.9-0.1c0.1-0.3,0.2-0.6,0.3-0.9c-4.3-1.8-9-2.9-14.1-2.9h-11.2
			c4.2,0,8,2.3,11.1,6.4c0.6,0.7,1.1,1.5,1.6,2.3c0.6,0.4,1.2,0.8,1.9,1.2c-0.3,0.1-0.6,0.2-1,0.3c3.7,6.6,6,16.1,6.3,26.9
			c4.6-1.5,9-3.2,13.3-5.3c0,0,0,0,0-0.1C399,194.6,396.8,184.6,392.8,178.5z"/>
		<path class="st2" d="M394.5,178.7c-0.6-0.1-1.1-0.2-1.7-0.2c4,6.1,6.2,16.1,7.3,28c0,0,0,0,0,0.1c2-0.9,4-2,5.9-3
			c0.2-0.1,0.4-0.2,0.5-0.3c0.7-0.4,1.5-0.8,2.2-1.3c0.2-0.1,0.4-0.3,0.7-0.4c0.9-0.5,1.8-1.1,2.7-1.6c0,0,0,0,0,0
			C409,190.5,402.7,183,394.5,178.7z"/>
		<path class="st7" d="M353.7,174.7h-11.8c-5.3,0-10.4,3.8-14.3,10.3c-4,6.6-6.7,16.1-7,26.9c10.4,3.3,21.5,5.1,33,5.1
			c0,0,0.1,0,0.1,0v-29.1V174.7z"/>
		<path class="st2" d="M394.5,178.7c-0.6-0.1-1.1-0.2-1.7-0.2c-0.2-0.3-0.4-0.6-0.6-0.9C393,177.9,393.8,178.3,394.5,178.7z"/>
		<path class="st4" d="M392.8,178.5c-0.3,0-0.6,0-0.9-0.1c0.1-0.3,0.2-0.6,0.3-0.9C392.4,177.9,392.6,178.2,392.8,178.5z"/>
		<path class="st4" d="M381.5,184.6c-0.3,0.1-0.6,0.2-1,0.3c-0.3-0.5-0.6-1-0.9-1.5C380.2,183.8,380.9,184.2,381.5,184.6z"/>
		<path class="st5" d="M315.8,178.2c0,0,0,0.1,0.1,0.1c0,0,0,0-0.1,0L315.8,178.2L315.8,178.2L315.8,178.2z"/>
		<path class="st5" d="M315.8,178.3v0.1c0,0-0.1,0-0.1,0C315.8,178.3,315.8,178.3,315.8,178.3C315.8,178.3,315.8,178.2,315.8,178.3z
			"/>
		<path class="st4" d="M315.8,178.3c0,0-0.1,0.1-0.1,0.1c-0.1,0-0.1,0-0.2,0C315.6,178.3,315.7,178.3,315.8,178.3z"/>
		<path class="st8" d="M365.6,162.2v7.6c-3.8,0.7-7.8,1.1-11.8,1.1h-0.1v-18.7h5.8c1,0.5,2,1.2,2.8,2
			C364.3,156.3,365.6,159.1,365.6,162.2z"/>
		<path class="st8" d="M353.8,170.9L353.8,170.9h-0.1c-3.6,0-7.1-0.3-10.6-0.9v2.2c0,3.1,1.3,5.9,3.3,7.9c1.9,1.9,4.5,3.1,7.3,3.3
			c0.2,0,0.4,0,0.6,0c6.2,0,11.2-5,11.2-11.2v-2.4C361.8,170.5,357.8,170.9,353.8,170.9z"/>
		<path class="st9" d="M353.7,152.2v18.7h-0.1c-3.6,0-7.1-0.3-10.6-0.9v-7.8c0-4.4,2.5-8.1,6.1-10H353.7z"/>
		<path class="st9" d="M353.6,170.9L353.6,170.9c-33.3,0-60.5-27.2-60.5-60.5V74c0-33.3,27.2-60.5,60.5-60.5h0
			c33.3,0,60.5,27.2,60.5,60.5v36.5C414,143.7,386.8,170.9,353.6,170.9z"/>
		<path class="st8" d="M353.6,13.6L353.6,13.6l0,157.4h0c33.3,0,60.5-27.2,60.5-60.5V74C414,40.8,386.8,13.6,353.6,13.6z"/>
		<circle class="st9" cx="293.1" cy="97.5" r="10"/>
		<circle class="st8" cx="414" cy="97.5" r="10"/>
		<path class="st10" d="M403.7,40c-10.9-16-29.3-26.4-50.1-26.4h-0.1h-0.1c-9.7,0-18.9,2.3-27,6.3c-8.9,4.4-16.5,11-22.3,19
			c-6.6,9.7-11.2,22.5-11.2,35v11.6c0,0.9,0.2,1.8,0.7,2.6c0.9,1.7,2.7,2.9,4.8,2.9h0.3c0.5,0,0.9-0.1,1.3-0.2h0
			c2.4-0.6,4.1-2.7,4.1-5.3V71.8c0.5-2.6,2.9-4.6,5.6-4.6h5.4h0.4c5.4,0,10-3.4,10.9-7.8c0-0.1,0-0.2,0.1-0.3
			c1.1-5.9,6.5-10.6,12.6-10.6h14.4h36.9c6.9,0,12.5,5.6,12.5,12.5v6.9v17.6c0,2.4,1.5,4.4,3.6,5.1c0.6,0.2,1.2,0.3,1.8,0.3h0.3
			c2.1,0,3.9-1.2,4.8-2.9c0.4-0.8,0.6-1.6,0.6-2.6V73.9C414.2,61.3,410.3,49.6,403.7,40z"/>
		<path class="st11" d="M403.7,40c-10.9-16-29.3-26.4-50.1-26.4h-0.1v35h36.9c6.9,0,12.5,5.6,12.5,12.5v6.9v17.6
			c0,2.4,1.5,4.4,3.6,5.1c0.6,0.2,1.2,0.3,1.8,0.3h0.3c2.1,0,3.9-1.2,4.8-2.9c0.4-0.8,0.6-1.6,0.6-2.6V73.9
			C414.2,61.3,410.3,49.6,403.7,40z"/>
		<path class="st11" d="M391.1,78.3c0,0,4.6-0.2,4.3,6.4l-24.6-1c-0.2,0-0.3,0-0.3-0.1c0.1-2.9,0.2-3.2,0.3-6.1c0,0,0.1-0.1,0.3-0.1
			L391.1,78.3z"/>
		<path class="st10" d="M336.4,77.5c0.1,2.9,0.2,3.2,0.4,6.1c0,0-0.1,0.1-0.3,0.1l-24.6,1c-0.3-6.6,4.3-6.4,4.3-6.4l20-0.8
			C336.2,77.4,336.3,77.5,336.4,77.5z"/>
		<path class="st12" d="M382.9,89.3c4.8,0,8.7,3.6,8.7,8.1c0,4.5-3.9,8.1-8.7,8.1c-4.8,0-8.7-3.6-8.7-8.1
			C374.2,92.9,378.1,89.3,382.9,89.3z"/>
		<path class="st12" d="M324.2,89.3c4.8,0,8.7,3.6,8.7,8.1c0,4.5-3.9,8.1-8.7,8.1c-4.8,0-8.7-3.6-8.7-8.1
			C315.5,92.9,319.4,89.3,324.2,89.3z"/>
		<path class="st13" d="M363.6,115.7c-0.4-4.1-4.2-14.7-6.8-14.7h-3.2h-3.2c-2.5,0-6.4,10.6-6.8,14.7c-0.8,7.7,2.1,14,4.6,14h5.4
			h5.4C361.5,129.7,364.4,123.4,363.6,115.7z"/>
		<path class="st14" d="M371.1,140.6c0,0,0,0.3-1.2,0.6c0,0-0.1,0-0.2,0c-0.2,0.1-0.4,0.1-0.6,0.2c0,0,0,0,0,0c-0.1,0-0.2,0-0.4,0.1
			c0,0-0.1,0-0.1,0c-0.2,0.1-0.4,0.1-0.7,0.2c-0.1,0-0.2,0-0.2,0c-0.1,0-0.1,0-0.2,0c-0.4,0.1-0.9,0.2-1.4,0.2
			c-0.5,0.1-1,0.1-1.7,0.2c-0.3,0-0.6,0.1-0.9,0.1c-2.4,0.3-5.7,0.6-9.9,0.9c-0.2,0-0.3,0-0.5,0c-0.4,0-0.9,0.1-1.3,0.1
			c-0.5,0-1,0.1-1.5,0.1c-0.5,0-1,0.1-1.6,0.1c0,0-0.1,0-0.1,0c-1,0.1-2.1,0.1-3.3,0.2c-1.7,0.1-3.6,0.2-5.6,0.3
			c-0.6,0-1.1,0.1-1.7,0.1c-0.1,0-0.2,0-0.4,0c0,0-0.1,0-0.1,0c-0.4,0-1.2-0.1-1.5-0.4c-0.1-0.1,0.1,1.1,0.1,1.4
			c0.1,1.2,0.9,2.2,2.2,3c2.9,1.8,8.3,2.8,13.9,3c0.5,0,0.9,0,1.4,0c0.9,0,1.8,0,2.7,0c0.6,0,1.2-0.1,1.8-0.1
			c3.7-0.3,6.6-0.7,8.7-1.7C370.2,148,371.6,145.3,371.1,140.6z"/>
		<path class="st15" d="M369.7,141.2c-0.2,0.1-0.4,0.1-0.6,0.2c0,0,0,0,0,0c-0.1,0-0.2,0-0.4,0.1c0,0-0.1,0-0.1,0
			c-0.2,0.1-0.4,0.1-0.7,0.2c-0.1,0-0.2,0-0.2,0c-0.1,0-0.1,0-0.2,0c-0.4,0.1-0.9,0.2-1.4,0.2c-0.5,0.1-1,0.1-1.7,0.2
			c-0.3,0-0.6,0.1-0.9,0.1c-2.4,0.3-5.7,0.6-9.9,0.9c-0.2,0-0.3,0-0.5,0c-0.4,0-0.9,0.1-1.3,0.1c-0.5,0-1,0.1-1.5,0.1
			c-0.5,0-1,0.1-1.6,0.1c0,0-0.1,0-0.1,0c-1,0.1-2.1,0.1-3.3,0.2c-1.7,0.1-3.6,0.2-5.6,0.3c-0.6,0-1.1,0.1-1.7,0.1
			c-0.1,0-0.2,0-0.4,0c0.1,0.2,0.2,0.3,0.4,0.5c0.9,1.2,2.3,2,3.9,2h11.7h11.3c1.1,0,2.2-0.4,3-1.1c1.2-1,2-2.5,2-4.1
			c0-0.1,0-0.2,0-0.3C369.8,141.2,369.8,141.2,369.7,141.2z"/>
		<path class="st16" d="M371.1,140.5c0,0,0,0.3-1.2,0.6c0,0-0.1,0-0.2,0c-0.2,0.1-0.4,0.1-0.6,0.2c0,0,0,0,0,0c-0.1,0-0.2,0-0.4,0.1
			c0,0-0.1,0-0.1,0c-0.2,0.1-0.4,0.1-0.7,0.2c-0.1,0-0.2,0-0.2,0c-0.1,0-0.1,0-0.2,0c-0.4,0.1-0.9,0.2-1.4,0.2
			c-0.5,0.1-1,0.1-1.7,0.2c-0.3,0-0.6,0.1-0.9,0.1c-2.4,0.3-5.6,0.6-9.7,0.9v8c0.8,0,1.7,0,2.5,0c0.6,0,1.2-0.1,1.8-0.1
			c3.7-0.3,6.6-0.7,8.7-1.7C370.2,147.9,371.6,145.3,371.1,140.5z"/>
		<path class="st17" d="M369.7,141.2c-0.2,0.1-0.4,0.1-0.6,0.2c0,0,0,0,0,0c-0.1,0-0.2,0-0.4,0.1c0,0-0.1,0-0.1,0
			c-0.2,0.1-0.4,0.1-0.7,0.2c-0.1,0-0.2,0-0.2,0c-0.1,0-0.1,0-0.2,0c-0.4,0.1-0.9,0.2-1.4,0.2c-0.5,0.1-1,0.1-1.7,0.2
			c-0.3,0-0.6,0.1-0.9,0.1c-2.4,0.3-5.6,0.6-9.7,0.9v3.4h11.1c1.1,0,2.2-0.4,3-1.1c1.2-1,2-2.5,2-4.1c0-0.1,0-0.2,0-0.3
			C369.8,141.1,369.8,141.1,369.7,141.2z"/>
		<path class="st18" d="M363.6,115.7c-0.4-4.1-4.2-14.7-6.8-14.7h-3.1v28.7h5.3C361.5,129.7,364.4,123.3,363.6,115.7z"/>
		<path class="st19" d="M353.8,170.9L353.8,170.9l-0.1,12.5c0.2,0,0.4,0,0.6,0c6.2,0,11.2-5,11.2-11.2v-2.4
			C361.8,170.5,357.8,170.9,353.8,170.9z"/>
		<path class="st9" d="M304.2,75.8h30.4c6.6,0,12-5.4,12-12V48.5h-30.4c-6.6,0-12,5.4-12,12V75.8z"/>
		<path class="st10" d="M382.2,62.9H325c-5.2,0-9.5-4.3-9.5-9.5v-4.3c0-5.2,4.3-9.5,9.5-9.5h57.2c5.2,0,9.5,4.3,9.5,9.5v4.3
			C391.7,58.7,387.4,62.9,382.2,62.9z"/>
		<path class="st11" d="M382.2,62.9h-28.6V39.6h28.6c5.2,0,9.5,4.3,9.5,9.5v4.3C391.7,58.7,387.4,62.9,382.2,62.9z"/>
	</g>
	<path class="st2" d="M425.8,130.3H281.5c-4.9,0-9,4-9,9v41.5c19.9,22.2,48.7,36.2,80.9,36.2c32.4,0,61.4-14.2,81.3-36.7v-41.1
		C434.7,134.3,430.7,130.3,425.8,130.3z"/>
	<path class="st20" d="M426.1,130.3H354V217c32.3-0.1,61.3-14.2,81.1-36.7v-41.1C435.1,134.3,431,130.3,426.1,130.3z"/>
	<path class="st15" d="M353.7,182.1c2.2,0,3.9-4.6,3.9-10.2c0-5.7-1.7-10.2-3.9-10.2s-3.9,4.6-3.9,10.2
		C349.8,177.5,351.5,182.1,353.7,182.1"/>
	<path class="st15" d="M353.7,186.4c-2.7,0-4.9,1.4-4.9,3.2c0,1.8,2.2,3.2,4.9,3.2s4.9-1.4,4.9-3.2
		C358.6,187.8,356.4,186.4,353.7,186.4"/>
	<path class="st15" d="M340.1,166.4c-2.1,0.6-2.5,5.4-0.9,10.9c1.6,5.5,4.5,9.4,6.6,8.9c2.1-0.6,2.5-5.4,0.9-10.9
		C345.1,169.8,342.2,165.8,340.1,166.4"/>
	<path class="st15" d="M360.6,175.2c-1.6,5.5-1.1,10.3,0.9,10.9c2.1,0.6,5-3.4,6.6-8.9c1.6-5.5,1.1-10.3-0.9-10.9
		C365.1,165.8,362.2,169.8,360.6,175.2"/>
</g>
<g>
	<g>
		<circle class="st21" cx="224" cy="179.6" r="107.9"/>
		<path class="st22" d="M224,71.7v215.8c59.6,0,107.9-48.3,107.9-107.9S283.6,71.7,224,71.7z"/>
		<path class="st2" d="M224.3,237.1c-0.1,0-0.1,0-0.2,0c-20.9,0-37.9,4.8-37.9,10.7c0,0.4,0.1,0.7,0.2,1.1h0
			c4.9-2.3,10.3-3.5,15.9-3.5h10h11.8h13.1h11.1c5,0,9.7,1,14,2.8c0-0.1,0-0.3,0-0.4C262.4,241.9,245.3,237.1,224.3,237.1z"/>
		<path class="st3" d="M262.4,247.8c0,0.1,0,0.3,0,0.4c-4.3-1.8-9-2.8-14-2.8h-11.1h-13.1v-8.3c0.1,0,0.1,0,0.2,0
			C245.3,237.1,262.4,241.9,262.4,247.8z"/>
		<path class="st3" d="M264.7,249.4c8.2,4.3,14.4,11.7,17.5,21.1c2.6-1.7,5.1-3.4,7.5-5.3C282.4,256.3,273.8,250.7,264.7,249.4z"/>
		<path class="st2" d="M186.1,249.1c-10.5,0-20.3,5.7-28.6,15.5c2.8,2.2,5.7,4.3,8.7,6.2C169.9,261,177.1,253.3,186.1,249.1z"/>
		<path class="st4" d="M186.3,249.1c-0.1,0-0.1,0-0.2,0h0c-9,4.3-16.2,12-19.8,21.7c4,2.5,8.1,4.8,12.4,6.7c0.2-1.7,0.3-3.4,0.5-5.1
			C180.4,262.4,182.7,254.2,186.3,249.1z"/>
		<path class="st5" d="M212.4,245.4h-10c-5.6,0-11,1.3-15.9,3.5c0,0,0,0.1,0.1,0.1c0,0,0,0-0.1,0c0,0-0.1,0-0.1,0
			c-3.7,5.1-5.9,13.4-7.1,23.3c-0.2,1.6-0.4,3.3-0.5,5.1c4.1,1.9,8.3,3.5,12.6,4.9c0.3-10.8,3-20.2,6.9-26.8
			C202,249.2,207.1,245.4,212.4,245.4z"/>
		<path class="st6" d="M250.7,255.5c-0.3-0.5-0.6-1-0.9-1.5c-0.5-0.8-1-1.6-1.6-2.3c-3.1-4-6.9-6.3-11-6.3h-13.1h-11.8
			c-5.3,0-10.3,3.8-14.2,10.2c-4,6.6-6.6,16-6.9,26.8c10.3,3.3,21.4,5.1,32.8,5.1c0,0,0.1,0,0.1,0c11.5,0,22.5-1.8,32.9-5.1
			C256.7,271.5,254.4,262.2,250.7,255.5z"/>
		<path class="st4" d="M263,249.2c-0.3,0-0.6,0-0.9-0.1c0.1-0.3,0.2-0.6,0.2-0.9c-4.3-1.8-9-2.8-14-2.8h-11.1c4.1,0,7.9,2.3,11,6.3
			c0.6,0.7,1.1,1.5,1.6,2.3c0.6,0.4,1.2,0.8,1.9,1.2c-0.3,0.1-0.6,0.2-1,0.3c3.7,6.6,6,16,6.3,26.8c4.6-1.5,9-3.2,13.2-5.2
			c0,0,0,0,0-0.1C269.2,265.2,267,255.3,263,249.2z"/>
		<path class="st2" d="M264.7,249.4c-0.6-0.1-1.1-0.1-1.7-0.2c4,6.1,6.2,16,7.3,27.8c0,0,0,0,0,0.1c2-0.9,3.9-1.9,5.8-3
			c0.2-0.1,0.4-0.2,0.5-0.3c0.7-0.4,1.5-0.8,2.2-1.3c0.2-0.1,0.4-0.3,0.7-0.4c0.9-0.5,1.8-1.1,2.6-1.6c0,0,0,0,0,0
			C279,261.1,272.8,253.6,264.7,249.4z"/>
		<path class="st7" d="M224.1,245.4h-11.8c-5.3,0-10.3,3.8-14.2,10.2c-4,6.6-6.6,16-6.9,26.8c10.3,3.3,21.4,5.1,32.8,5.1
			c0,0,0.1,0,0.1,0v-28.9V245.4z"/>
		<path class="st2" d="M264.7,249.4c-0.6-0.1-1.1-0.1-1.7-0.2c-0.2-0.3-0.4-0.6-0.6-0.9C263.2,248.6,263.9,249,264.7,249.4z"/>
		<path class="st4" d="M263,249.2c-0.3,0-0.6,0-0.9-0.1c0.1-0.3,0.2-0.6,0.2-0.9C262.6,248.6,262.8,248.9,263,249.2z"/>
		<path class="st4" d="M251.7,255.3c-0.3,0.1-0.6,0.2-1,0.3c-0.3-0.5-0.6-1-0.9-1.5C250.5,254.4,251.1,254.8,251.7,255.3z"/>
		<path class="st5" d="M186.4,249c0,0,0,0.1,0.1,0.1c0,0,0,0-0.1,0L186.4,249L186.4,249L186.4,249z"/>
		<path class="st5" d="M186.4,249v0.1c0,0-0.1,0-0.1,0C186.4,249,186.4,249,186.4,249C186.4,249,186.4,249,186.4,249z"/>
		<path class="st4" d="M186.4,249c0,0-0.1,0.1-0.1,0.1c-0.1,0-0.1,0-0.2,0C186.2,249,186.3,249,186.4,249z"/>
		<path class="st8" d="M235.9,233v7.6c-3.8,0.7-7.7,1.1-11.8,1.1h-0.1v-18.6h5.7c1,0.5,2,1.2,2.8,2
			C234.7,227.1,235.9,229.9,235.9,233z"/>
		<path class="st8" d="M224.2,241.7L224.2,241.7h-0.1c-3.6,0-7.1-0.3-10.5-0.9v2.1c0,3.1,1.3,5.9,3.3,7.9c1.9,1.9,4.4,3.1,7.3,3.3
			c0.2,0,0.4,0,0.6,0c6.2,0,11.2-5,11.2-11.2v-2.4C232.1,241.3,228.2,241.7,224.2,241.7z"/>
		<path class="st9" d="M224.1,223.1v18.6h-0.1c-3.6,0-7.1-0.3-10.5-0.9V233c0-4.3,2.5-8.1,6.1-9.9H224.1z"/>
		<path class="st23" d="M224,241.7L224,241.7c-33.1,0-60.1-27.1-60.1-60.1v-36.3c0-33.1,27.1-60.1,60.1-60.1h0
			c33.1,0,60.1,27.1,60.1,60.1v36.3C284.1,214.6,257,241.7,224,241.7z"/>
		<path class="st24" d="M224,85.2L224,85.2l0,156.5h0c33.1,0,60.1-27.1,60.1-60.1v-36.3C284.1,112.2,257,85.2,224,85.2z"/>
		<circle class="st23" cx="163.8" cy="168.7" r="9.9"/>
		<circle class="st24" cx="284.1" cy="168.7" r="9.9"/>
		<path class="st10" d="M273.8,111.5C263,95.6,244.7,85.2,224,85.2H224h-0.1c-9.7,0-18.8,2.3-26.9,6.3c-8.8,4.4-16.4,10.9-22.1,18.9
			c-6.6,9.6-11.2,22.3-11.2,34.8v11.6c0,0.9,0.2,1.8,0.7,2.6c0.9,1.7,2.7,2.9,4.8,2.9h0.3c0.5,0,0.9-0.1,1.3-0.2h0
			c2.3-0.6,4.1-2.7,4.1-5.3v-13.6c0.5-2.6,2.9-4.5,5.6-4.5h5.4h0.4c5.4,0,9.9-3.4,10.8-7.8c0-0.1,0-0.2,0.1-0.3
			c1.1-5.9,6.4-10.5,12.5-10.5H224h36.6c6.9,0,12.4,5.6,12.4,12.4v6.8v17.5c0,2.4,1.5,4.4,3.6,5.1c0.6,0.2,1.2,0.3,1.8,0.3h0.3
			c2.1,0,3.9-1.2,4.8-2.9c0.4-0.8,0.6-1.6,0.6-2.6v-11.6C284.2,132.7,280.4,121.1,273.8,111.5z"/>
		<path class="st11" d="M273.8,111.5C263,95.6,244.7,85.2,224,85.2h0V120h36.6c6.9,0,12.4,5.6,12.4,12.4v6.8v17.5
			c0,2.4,1.5,4.4,3.6,5.1c0.6,0.2,1.2,0.3,1.8,0.3h0.3c2.1,0,3.9-1.2,4.8-2.9c0.4-0.8,0.6-1.6,0.6-2.6v-11.6
			C284.2,132.7,280.4,121.1,273.8,111.5z"/>
		<path class="st11" d="M261.3,149.5c0,0,4.6-0.2,4.3,6.4l-24.5-1c-0.2,0-0.3,0-0.3-0.1c0.1-2.9,0.2-3.2,0.3-6.1
			c0,0,0.1-0.1,0.3-0.1L261.3,149.5z"/>
		<path class="st10" d="M206.9,148.8c0.1,2.9,0.2,3.2,0.3,6.1c0,0-0.1,0.1-0.3,0.1l-24.5,1c-0.3-6.5,4.3-6.4,4.3-6.4l19.8-0.8
			C206.7,148.7,206.8,148.8,206.9,148.8z"/>
		<path class="st12" d="M253.2,160.5c4.8,0,8.7,3.6,8.7,8.1c0,4.4-3.9,8.1-8.7,8.1c-4.8,0-8.7-3.6-8.7-8.1
			C244.5,164.1,248.3,160.5,253.2,160.5z"/>
		<path class="st12" d="M194.8,160.5c4.8,0,8.7,3.6,8.7,8.1c0,4.4-3.9,8.1-8.7,8.1c-4.8,0-8.7-3.6-8.7-8.1
			C186.1,164.1,190,160.5,194.8,160.5z"/>
		<path class="st25" d="M233.9,186.8c-0.4-4.1-4.2-14.7-6.8-14.7H224h-3.2c-2.5,0-6.3,10.6-6.8,14.7c-0.8,7.6,2.1,13.9,4.6,13.9h5.4
			h5.4C231.9,200.7,234.7,194.4,233.9,186.8z"/>
		<path class="st14" d="M241.4,211.5c0,0,0,0.2-1.2,0.6c0,0-0.1,0-0.1,0c-0.2,0.1-0.4,0.1-0.6,0.2c0,0,0,0,0,0c-0.1,0-0.2,0-0.3,0.1
			c0,0-0.1,0-0.1,0c-0.2,0.1-0.4,0.1-0.7,0.1c-0.1,0-0.2,0-0.2,0c-0.1,0-0.1,0-0.2,0c-0.4,0.1-0.9,0.2-1.4,0.2
			c-0.5,0.1-1,0.1-1.7,0.2c-0.3,0-0.6,0.1-0.9,0.1c-2.4,0.3-5.7,0.6-9.9,0.9c-0.2,0-0.3,0-0.5,0c-0.4,0-0.9,0.1-1.3,0.1
			c-0.5,0-1,0.1-1.5,0.1c-0.5,0-1,0.1-1.6,0.1c0,0-0.1,0-0.1,0c-1,0.1-2.1,0.1-3.3,0.2c-1.7,0.1-3.6,0.2-5.6,0.3
			c-0.6,0-1.1,0.1-1.7,0.1c-0.1,0-0.2,0-0.4,0c0,0-0.1,0-0.1,0c-0.4,0-1.2-0.1-1.5-0.4c-0.1-0.1,0.1,1.1,0.1,1.4
			c0.1,1.2,0.9,2.1,2.2,3c2.9,1.8,8.3,2.8,13.8,3c0.5,0,0.9,0,1.4,0c0.9,0,1.8,0,2.7,0c0.6,0,1.2-0.1,1.8-0.1
			c3.7-0.3,6.6-0.7,8.7-1.7C240.5,218.9,241.9,216.2,241.4,211.5z"/>
		<path class="st15" d="M240.1,212.1c-0.2,0.1-0.4,0.1-0.6,0.2c0,0,0,0,0,0c-0.1,0-0.2,0-0.3,0.1c0,0-0.1,0-0.1,0
			c-0.2,0.1-0.4,0.1-0.7,0.1c-0.1,0-0.2,0-0.2,0c-0.1,0-0.1,0-0.2,0c-0.4,0.1-0.9,0.2-1.4,0.2c-0.5,0.1-1,0.1-1.7,0.2
			c-0.3,0-0.6,0.1-0.9,0.1c-2.4,0.3-5.7,0.6-9.9,0.9c-0.2,0-0.3,0-0.5,0c-0.4,0-0.9,0.1-1.3,0.1c-0.5,0-1,0.1-1.5,0.1
			c-0.5,0-1,0.1-1.6,0.1c0,0-0.1,0-0.1,0c-1,0.1-2.1,0.1-3.3,0.2c-1.7,0.1-3.6,0.2-5.6,0.3c-0.6,0-1.1,0.1-1.7,0.1
			c-0.1,0-0.2,0-0.4,0c0.1,0.2,0.2,0.3,0.4,0.5c0.9,1.2,2.3,2,3.9,2h11.7h11.3c1.1,0,2.2-0.4,3-1.1c1.2-1,2-2.5,2-4.1
			c0-0.1,0-0.2,0-0.3C240.2,212.1,240.1,212.1,240.1,212.1z"/>
		<path class="st16" d="M241.4,211.4c0,0,0,0.2-1.2,0.6c0,0-0.1,0-0.1,0c-0.2,0.1-0.4,0.1-0.6,0.2c0,0,0,0,0,0c-0.1,0-0.2,0-0.3,0.1
			c0,0-0.1,0-0.1,0c-0.2,0.1-0.4,0.1-0.7,0.1c-0.1,0-0.2,0-0.2,0c-0.1,0-0.1,0-0.2,0c-0.4,0.1-0.9,0.2-1.4,0.2
			c-0.5,0.1-1,0.1-1.7,0.2c-0.3,0-0.6,0.1-0.9,0.1c-2.4,0.3-5.6,0.6-9.7,0.9v8c0.8,0,1.7,0,2.5,0c0.6,0,1.2-0.1,1.8-0.1
			c3.7-0.3,6.6-0.7,8.7-1.7C240.5,218.8,241.9,216.2,241.4,211.4z"/>
		<path class="st17" d="M240.1,212.1c-0.2,0.1-0.4,0.1-0.6,0.2c0,0,0,0,0,0c-0.1,0-0.2,0-0.3,0.1c0,0-0.1,0-0.1,0
			c-0.2,0.1-0.4,0.1-0.7,0.1c-0.1,0-0.2,0-0.2,0c-0.1,0-0.1,0-0.2,0c-0.4,0.1-0.9,0.2-1.4,0.2c-0.5,0.1-1,0.1-1.7,0.2
			c-0.3,0-0.6,0.1-0.9,0.1c-2.4,0.3-5.6,0.6-9.7,0.9v3.4h11.1c1.1,0,2.2-0.4,3-1.1c1.2-1,2-2.5,2-4.1c0-0.1,0-0.2,0-0.3
			C240.2,212,240.1,212.1,240.1,212.1z"/>
		<path class="st26" d="M233.9,186.7c-0.4-4.1-4.2-14.7-6.8-14.7h-3.1v28.6h5.2C231.9,200.6,234.7,194.3,233.9,186.7z"/>
		<path class="st19" d="M224.2,241.7L224.2,241.7l-0.1,12.4c0.2,0,0.4,0,0.6,0c6.2,0,11.2-5,11.2-11.2v-2.4
			C232.1,241.3,228.2,241.7,224.2,241.7z"/>
		<g id="XMLID_1_" class="st27">
			<g>
				<path class="st15" d="M273.3,162.7c0,14.6-2.9,19.4-17.4,19.4c-9.4,0-15.8-0.6-19.9-8.3c-2.2-4.4-3.2-10.2-3.2-13
					c0-7.5,9.3-10.2,20.8-10.2C268.3,150.6,273.3,153.5,273.3,162.7z"/>
				<path class="st15" d="M215.5,160.9c0,2.8-1.1,8.6-3.3,13c-4.1,7.7-10.4,8.3-19.9,8.3c-14.5,0-17.4-4.8-17.4-19.4
					c0-9.2,5-12.1,19.7-12.1C206.2,150.6,215.5,153.3,215.5,160.9z"/>
			</g>
			<g>
			</g>
		</g>
		<path class="st28" d="M280.7,152.1c0-0.9-0.2-1-1.1-1.2c-5.6-0.7-18.2-2.6-23.9-2.6c-15.2,0-23.6,4.2-31.2,4.2h-1
			c-7.6,0-15.9-4.2-31.2-4.2c-5.7,0-18.3,1.9-23.9,2.6c-0.8,0.1-1.1,0.2-1.1,1.2c-0.1,1.9-0.1,3.7-0.1,5.7c0,0.7,0.3,0.9,0.7,0.9
			c1.7,0,2.7,2,3,3.8c0.6,3.5,1.3,7,2.1,10.3c2.6,10.2,8.7,11.1,19.6,11.1c14.3,0,19.7-3.2,24.8-16.5c1.4-3.5,1.5-7.2,6-7.2
			c0.4,0,0.7,0,1,0c4.5,0,4.6,3.7,6,7.2c5,13.4,10.5,16.5,24.8,16.5c10.9,0,17.1-0.8,19.6-11.1c0.8-3.4,1.5-6.9,2.1-10.3
			c0.4-1.8,1.3-3.8,3-3.8c0.3,0,0.7-0.2,0.7-0.9C280.8,155.9,280.8,154,280.7,152.1z M212.2,173.9c-4.1,7.7-10.5,8.3-19.9,8.3
			c-14.5,0-17.4-4.8-17.4-19.4c0-9.2,5-12.1,19.7-12.1c11.5,0,20.8,2.7,20.8,10.2C215.5,163.7,214.4,169.5,212.2,173.9z
			 M255.9,182.1c-9.4,0-15.8-0.6-19.9-8.3c-2.2-4.4-3.2-10.2-3.2-13c0-7.5,9.3-10.2,20.8-10.2c14.8,0,19.7,2.9,19.7,12.1
			C273.3,177.4,270.4,182.1,255.9,182.1z"/>
		<path class="st23" d="M174.9,145.2h32.3c6.6,0,12-5.4,12-12V132c0-6.6-5.4-12-12-12h-20.3c-6.6,0-12,5.4-12,12V145.2z"/>
	</g>
	<path class="st2" d="M295.8,201.3H152.3c-4.9,0-8.9,4-8.9,8.9v41.3c19.8,22.1,48.5,36,80.4,36c32.2,0,61.1-14.1,80.8-36.5v-40.8
		C304.7,205.3,300.7,201.3,295.8,201.3z"/>
	<path class="st20" d="M296.1,201.3h-71.7v86.2c32.1-0.1,60.9-14.1,80.6-36.5v-40.8C305,205.3,301,201.3,296.1,201.3z"/>
	<path class="st15" d="M224.1,252.8c2.1,0,3.9-4.6,3.9-10.2c0-5.6-1.7-10.2-3.9-10.2c-2.1,0-3.9,4.6-3.9,10.2
		C220.2,248.3,221.9,252.8,224.1,252.8"/>
	<path class="st15" d="M224.1,257.1c-2.7,0-4.9,1.4-4.9,3.2c0,1.8,2.2,3.2,4.9,3.2c2.7,0,4.9-1.4,4.9-3.2
		C228.9,258.5,226.8,257.1,224.1,257.1"/>
	<path class="st15" d="M210.6,237.2c-2.1,0.6-2.5,5.4-0.9,10.8c1.5,5.4,4.5,9.4,6.5,8.8c2.1-0.6,2.5-5.4,0.9-10.8
		C215.6,240.5,212.7,236.6,210.6,237.2"/>
	<path class="st15" d="M231,246c-1.5,5.4-1.1,10.3,0.9,10.8c2.1,0.6,5-3.4,6.5-8.8c1.5-5.4,1.1-10.3-0.9-10.8
		C235.5,236.6,232.5,240.5,231,246"/>
</g>
<g>
	<g>
		<circle class="st21" cx="484" cy="179.1" r="107.3"/>
		<path class="st22" d="M484,71.8v214.6c59.3,0,107.3-48.1,107.3-107.3S543.3,71.8,484,71.8z"/>
		<path class="st2" d="M484.3,236.4c-0.1,0-0.1,0-0.2,0c-20.8,0-37.7,4.8-37.7,10.7c0,0.4,0.1,0.7,0.2,1.1h0
			c4.9-2.3,10.3-3.5,15.9-3.5h9.9h11.7h13h11.1c5,0,9.7,1,13.9,2.8c0-0.1,0-0.3,0-0.4C522.2,241.2,505.2,236.4,484.3,236.4z"/>
		<path class="st3" d="M522.2,247.1c0,0.1,0,0.3,0,0.4c-4.2-1.8-8.9-2.8-13.9-2.8h-11.1h-13v-8.2c0.1,0,0.1,0,0.2,0
			C505.2,236.4,522.2,241.2,522.2,247.1z"/>
		<path class="st3" d="M524.5,248.6c8.1,4.2,14.3,11.7,17.4,21c2.6-1.6,5-3.4,7.5-5.2C542.1,255.5,533.6,249.9,524.5,248.6z"/>
		<path class="st2" d="M446.3,248.3c-10.4,0-20.2,5.7-28.4,15.4c2.8,2.2,5.7,4.2,8.7,6.1C430.2,260.2,437.4,252.5,446.3,248.3z"/>
		<path class="st4" d="M446.5,248.3c-0.1,0-0.1,0-0.2,0h0c-9,4.2-16.2,11.9-19.7,21.5c3.9,2.5,8,4.7,12.3,6.7
			c0.1-1.7,0.3-3.4,0.5-5.1C440.7,261.6,442.9,253.4,446.5,248.3z"/>
		<path class="st5" d="M472.4,244.6h-9.9c-5.6,0-11,1.2-15.9,3.5c0,0,0,0.1,0,0.1c0,0,0,0-0.1,0c0,0-0.1,0-0.1,0
			c-3.6,5.1-5.9,13.3-7.1,23.2c-0.2,1.6-0.4,3.3-0.5,5.1c4,1.9,8.2,3.5,12.5,4.9c0.3-10.7,3-20.1,6.9-26.6
			C462.1,248.4,467.2,244.6,472.4,244.6z"/>
		<path class="st6" d="M510.6,254.7c-0.3-0.5-0.6-1-0.9-1.5c-0.5-0.8-1-1.6-1.6-2.3c-3.1-4-6.9-6.3-11-6.3h-13h-11.7
			c-5.3,0-10.3,3.8-14.1,10.1c-3.9,6.6-6.6,15.9-6.9,26.6c10.3,3.3,21.2,5.1,32.6,5.1c0,0,0.1,0,0.1,0c11.4,0,22.4-1.8,32.7-5.1
			C516.6,270.6,514.3,261.3,510.6,254.7z"/>
		<path class="st4" d="M522.8,248.4c-0.3,0-0.6,0-0.9-0.1c0.1-0.3,0.2-0.6,0.2-0.9c-4.2-1.8-8.9-2.8-13.9-2.8h-11.1
			c4.1,0,7.9,2.3,11,6.3c0.6,0.7,1.1,1.5,1.6,2.3c0.6,0.4,1.2,0.8,1.8,1.2c-0.3,0.1-0.6,0.2-1,0.3c3.6,6.6,6,15.9,6.2,26.6
			c4.5-1.5,8.9-3.2,13.2-5.2c0,0,0,0,0-0.1C529,264.3,526.7,254.5,522.8,248.4z"/>
		<path class="st2" d="M524.5,248.6c-0.6-0.1-1.1-0.1-1.7-0.2c3.9,6.1,6.2,15.9,7.2,27.7c0,0,0,0,0,0.1c2-0.9,3.9-1.9,5.8-3
			c0.2-0.1,0.4-0.2,0.5-0.3c0.7-0.4,1.5-0.8,2.2-1.3c0.2-0.1,0.4-0.3,0.7-0.4c0.9-0.5,1.8-1.1,2.6-1.6c0,0,0,0,0,0
			C538.8,260.3,532.6,252.8,524.5,248.6z"/>
		<circle class="st29" cx="455.3" cy="103" r="20.2"/>
		<path class="st7" d="M484.1,244.6h-11.7c-5.3,0-10.3,3.8-14.1,10.1c-3.9,6.6-6.6,15.9-6.9,26.6c10.3,3.3,21.2,5.1,32.6,5.1
			c0,0,0.1,0,0.1,0v-28.8V244.6z"/>
		<path class="st2" d="M524.5,248.6c-0.6-0.1-1.1-0.1-1.7-0.2c-0.2-0.3-0.4-0.6-0.6-0.9C523,247.8,523.7,248.2,524.5,248.6z"/>
		<path class="st4" d="M522.8,248.4c-0.3,0-0.6,0-0.9-0.1c0.1-0.3,0.2-0.6,0.2-0.9C522.4,247.8,522.6,248.1,522.8,248.4z"/>
		<path class="st4" d="M511.6,254.4c-0.3,0.1-0.6,0.2-1,0.3c-0.3-0.5-0.6-1-0.9-1.5C510.4,253.6,511,254,511.6,254.4z"/>
		<path class="st5" d="M446.7,248.2c0,0,0,0.1,0,0.1c0,0,0,0-0.1,0L446.7,248.2L446.7,248.2L446.7,248.2z"/>
		<path class="st5" d="M446.6,248.2v0.1c0,0-0.1,0-0.1,0C446.6,248.2,446.6,248.2,446.6,248.2C446.6,248.2,446.6,248.2,446.6,248.2z
			"/>
		<path class="st4" d="M446.6,248.2c0,0,0,0.1-0.1,0.1c-0.1,0-0.1,0-0.2,0C446.4,248.2,446.5,248.2,446.6,248.2z"/>
		<path class="st8" d="M495.9,232.3v7.5c-3.8,0.7-7.7,1.1-11.7,1.1h0v-18.5h5.7c1,0.5,2,1.2,2.8,2
			C494.6,226.4,495.9,229.2,495.9,232.3z"/>
		<path class="st8" d="M484.2,240.9L484.2,240.9L484.2,240.9c-3.7,0-7.2-0.3-10.6-0.9v2.1c0,3.1,1.2,5.9,3.3,7.9
			c1.9,1.9,4.4,3.1,7.2,3.2c0.2,0,0.4,0,0.6,0c6.1,0,11.1-5,11.1-11.1v-2.4C492.1,240.5,488.2,240.9,484.2,240.9z"/>
		<path class="st9" d="M484.1,222.4v18.5h0c-3.6,0-7.1-0.3-10.5-0.9v-7.7c0-4.3,2.5-8,6-9.9H484.1z"/>
		<path class="st9" d="M484,240.9L484,240.9c-32.9,0-59.8-26.9-59.8-59.8V145c0-32.9,26.9-59.8,59.8-59.8h0
			c32.9,0,59.8,26.9,59.8,59.8v36.1C543.8,214,516.9,240.9,484,240.9z"/>
		<path class="st8" d="M484,85.2L484,85.2l0,155.7h0c32.9,0,59.8-26.9,59.8-59.8V145C543.8,112.1,516.9,85.2,484,85.2z"/>
		<circle class="st9" cx="424.2" cy="168.3" r="9.9"/>
		<circle class="st8" cx="543.8" cy="168.3" r="9.9"/>
		<path class="st11" d="M521.1,149.3c0,0,4.6-0.2,4.3,6.4l-24.4-1c-0.2,0-0.3,0-0.3-0.1c0.1-2.8,0.2-3.2,0.3-6c0,0,0.1-0.1,0.3-0.1
			L521.1,149.3z"/>
		<path class="st29" d="M467,148.5c0.1,2.8,0.2,3.2,0.3,6c0,0-0.1,0.1-0.3,0.1l-24.4,1c-0.3-6.5,4.3-6.4,4.3-6.4l19.7-0.8
			C466.8,148.5,466.9,148.5,467,148.5z"/>
		<path class="st12" d="M513,160.2c4.8,0,8.7,3.6,8.7,8c0,4.4-3.9,8-8.7,8c-4.8,0-8.6-3.6-8.6-8C504.4,163.8,508.2,160.2,513,160.2z
			"/>
		<path class="st12" d="M454.9,160.2c4.8,0,8.7,3.6,8.7,8c0,4.4-3.9,8-8.7,8c-4.8,0-8.7-3.6-8.7-8
			C446.3,163.8,450.2,160.2,454.9,160.2z"/>
		<path class="st14" d="M501.4,210.9c0,0,0,0.2-1.2,0.6c0,0-0.1,0-0.1,0c-0.2,0.1-0.4,0.1-0.6,0.2c0,0,0,0,0,0c-0.1,0-0.2,0-0.3,0.1
			c0,0-0.1,0-0.1,0c-0.2,0-0.4,0.1-0.7,0.1c-0.1,0-0.2,0-0.2,0c-0.1,0-0.1,0-0.2,0c-0.4,0.1-0.9,0.2-1.4,0.2c-0.5,0.1-1,0.1-1.6,0.2
			c-0.3,0-0.6,0.1-0.9,0.1c-2.4,0.3-5.6,0.6-9.8,0.9c-0.2,0-0.3,0-0.5,0c-0.4,0-0.9,0.1-1.3,0.1c-0.5,0-1,0.1-1.5,0.1
			c-0.5,0-1,0.1-1.5,0.1c0,0-0.1,0-0.1,0c-1,0.1-2.1,0.1-3.2,0.2c-1.7,0.1-3.6,0.2-5.5,0.3c-0.6,0-1.1,0-1.7,0.1c-0.1,0-0.2,0-0.4,0
			c0,0-0.1,0-0.1,0c-0.4,0-1.2-0.1-1.5-0.4c-0.1-0.1,0.1,1.1,0.1,1.4c0.1,1.1,0.9,2.1,2.2,3c2.9,1.8,8.2,2.8,13.7,3
			c0.5,0,0.9,0,1.4,0c0.9,0,1.8,0,2.7,0c0.6,0,1.2-0.1,1.8-0.1c3.7-0.3,6.6-0.7,8.6-1.6C500.5,218.2,501.9,215.6,501.4,210.9z"/>
		<path class="st15" d="M500,211.5c-0.2,0.1-0.4,0.1-0.6,0.2c0,0,0,0,0,0c-0.1,0-0.2,0-0.3,0.1c0,0-0.1,0-0.1,0
			c-0.2,0-0.4,0.1-0.7,0.1c-0.1,0-0.2,0-0.2,0c-0.1,0-0.1,0-0.2,0c-0.4,0.1-0.9,0.2-1.4,0.2c-0.5,0.1-1,0.1-1.6,0.2
			c-0.3,0-0.6,0.1-0.9,0.1c-2.4,0.3-5.6,0.6-9.8,0.9c-0.2,0-0.3,0-0.5,0c-0.4,0-0.9,0.1-1.3,0.1c-0.5,0-1,0.1-1.5,0.1
			c-0.5,0-1,0.1-1.5,0.1c0,0-0.1,0-0.1,0c-1,0.1-2.1,0.1-3.2,0.2c-1.7,0.1-3.6,0.2-5.5,0.3c-0.6,0-1.1,0-1.7,0.1c-0.1,0-0.2,0-0.4,0
			c0.1,0.2,0.2,0.3,0.4,0.5c0.9,1.2,2.3,2,3.9,2h11.6h11.2c1.1,0,2.2-0.4,3-1.1c1.2-1,2-2.5,2-4.1c0-0.1,0-0.2,0-0.3
			C500.1,211.5,500,211.5,500,211.5z"/>
		<path class="st16" d="M501.4,210.8c0,0,0,0.2-1.2,0.6c0,0-0.1,0-0.1,0c-0.2,0.1-0.4,0.1-0.6,0.2c0,0,0,0,0,0c-0.1,0-0.2,0-0.3,0.1
			c0,0-0.1,0-0.1,0c-0.2,0-0.4,0.1-0.7,0.1c-0.1,0-0.2,0-0.2,0c-0.1,0-0.1,0-0.2,0c-0.4,0.1-0.9,0.2-1.4,0.2c-0.5,0.1-1,0.1-1.6,0.2
			c-0.3,0-0.6,0.1-0.9,0.1c-2.4,0.3-5.5,0.6-9.6,0.9v7.9c0.8,0,1.7,0,2.5,0c0.6,0,1.2-0.1,1.8-0.1c3.7-0.3,6.6-0.7,8.6-1.6
			C500.5,218.2,501.9,215.5,501.4,210.8z"/>
		<path class="st17" d="M500,211.5c-0.2,0.1-0.4,0.1-0.6,0.2c0,0,0,0,0,0c-0.1,0-0.2,0-0.3,0.1c0,0-0.1,0-0.1,0
			c-0.2,0-0.4,0.1-0.7,0.1c-0.1,0-0.2,0-0.2,0c-0.1,0-0.1,0-0.2,0c-0.4,0.1-0.9,0.2-1.4,0.2c-0.5,0.1-1,0.1-1.6,0.2
			c-0.3,0-0.6,0.1-0.9,0.1c-2.4,0.3-5.5,0.6-9.6,0.9v3.4h11c1.1,0,2.2-0.4,3-1.1c1.2-1,2-2.5,2-4.1c0-0.1,0-0.2,0-0.3
			C500.1,211.4,500,211.4,500,211.5z"/>
		<path class="st19" d="M484.2,240.9L484.2,240.9l0,12.3c0.2,0,0.4,0,0.6,0c6.1,0,11.1-5,11.1-11.1v-2.4
			C492.1,240.5,488.2,240.9,484.2,240.9z"/>
		<g>
			<path class="st30" d="M454.9,126.6c20.7,31.7,47.7,28.7,73.6,31.5c8.5,0.9,15.2,0.9,15.2,0.9v-14c0-32.9-26.9-59.8-59.8-59.8h0
				c-32.9,0-59.8,26.9-59.8,59.8v13.5C441.6,152.7,451.1,144.3,454.9,126.6z"/>
		</g>
		<path class="st29" d="M486,85.2L486,85.2c-0.7,0-1.3,0-2,0.1v66c16.7,6.1,28.1,4.9,45.1,6.9c8.2,0.9,14.7,0.9,14.7,0.9v-14
			C543.8,112.1,517.8,85.2,486,85.2z"/>
		<path class="st13" d="M490.4,193c-0.2,0.7-1.5,1.9-2.4,1.9c0,0-1.5,0.3-4,0.3c-2.6,0-4-0.3-4-0.3c-0.9,0-2.2-1.2-2.4-1.9
			c-0.9-3.6,2.4-13.4,6.4-13.4C487.9,179.6,491.3,189.5,490.4,193z"/>
		<path class="st18" d="M484,179.6C484,179.6,484,179.6,484,179.6l0,15.6c0,0,0,0,0,0c2.5,0,4-0.3,4-0.3c0.9,0,2.2-1.2,2.4-1.9
			C491.3,189.5,487.9,179.6,484,179.6z"/>
	</g>
	<path class="st2" d="M555.4,200.7H412.7c-4.9,0-8.9,4-8.9,8.9v41.1c19.7,22,48.2,35.8,80,35.8c32,0,60.8-14,80.4-36.3v-40.6
		C564.3,204.7,560.3,200.7,555.4,200.7z"/>
	<path class="st20" d="M555.7,200.7h-71.4v85.8c31.9-0.1,60.6-14.1,80.2-36.3v-40.6C564.6,204.7,560.6,200.7,555.7,200.7z"/>
	<path class="st15" d="M484.1,252c2.1,0,3.9-4.5,3.9-10.1c0-5.6-1.7-10.1-3.9-10.1s-3.9,4.5-3.9,10.1
		C480.2,247.5,481.9,252,484.1,252"/>
	<path class="st15" d="M484.1,256.2c-2.7,0-4.8,1.4-4.8,3.2c0,1.8,2.2,3.2,4.8,3.2s4.8-1.4,4.8-3.2
		C488.9,257.7,486.8,256.2,484.1,256.2"/>
	<path class="st15" d="M470.7,236.4c-2.1,0.6-2.5,5.4-0.9,10.8c1.5,5.4,4.5,9.3,6.5,8.8c2.1-0.6,2.5-5.4,0.9-10.8
		C475.6,239.8,472.7,235.9,470.7,236.4"/>
	<path class="st15" d="M491,245.2c-1.5,5.4-1.1,10.2,0.9,10.8c2.1,0.6,5-3.4,6.5-8.8c1.5-5.4,1.1-10.2-0.9-10.8
		C495.4,235.9,492.5,239.8,491,245.2"/>
</g>
<g>
	<g>
		<circle class="st31" cx="585.6" cy="308.5" r="123.6"/>
		<path class="st32" d="M585.6,184.9v247.1c68.2,0,123.6-55.3,123.6-123.6S653.9,184.9,585.6,184.9z"/>
		<path class="st2" d="M586,374.4c-0.1,0-0.2,0-0.2,0c-24,0-43.4,5.5-43.4,12.3c0,0.4,0.1,0.9,0.2,1.3h0c5.6-2.6,11.8-4,18.3-4h11.4
			h13.5h15h12.7c5.8,0,11.2,1.2,16.1,3.3c0-0.2,0-0.3,0-0.5C629.6,379.9,610,374.4,586,374.4z"/>
		<path class="st3" d="M629.6,386.7c0,0.2,0,0.3,0,0.5c-4.9-2.1-10.3-3.3-16.1-3.3h-12.7h-15v-9.5c0.1,0,0.2,0,0.2,0
			C610,374.4,629.6,379.9,629.6,386.7z"/>
		<path class="st3" d="M632.2,388.4c9.3,4.9,16.5,13.4,20,24.2c2.9-1.9,5.8-3.9,8.6-6C652.4,396.4,642.7,389.9,632.2,388.4z"/>
		<path class="st2" d="M542.2,388.1c-12,0-23.2,6.5-32.7,17.7c3.2,2.5,6.5,4.9,10,7.1C523.6,401.8,531.9,393,542.2,388.1z"/>
		<path class="st4" d="M542.5,388.1c-0.1,0-0.1,0-0.2,0h0c-10.3,4.9-18.6,13.7-22.7,24.8c4.5,2.9,9.3,5.5,14.1,7.7
			c0.2-2,0.4-3.9,0.6-5.8C535.7,403.4,538.3,394,542.5,388.1z"/>
		<path class="st5" d="M572.3,383.9h-11.4c-6.4,0-12.6,1.4-18.3,4c0,0.1,0,0.1,0.1,0.2c0,0,0,0-0.1,0c0,0-0.1,0-0.1,0
			c-4.2,5.9-6.8,15.3-8.2,26.7c-0.2,1.9-0.4,3.8-0.6,5.8c4.7,2.2,9.5,4,14.4,5.6c0.4-12.3,3.4-23.1,7.9-30.7
			C560.4,388.2,566.2,383.9,572.3,383.9z"/>
		<path class="st6" d="M616.2,395.5c-0.3-0.6-0.7-1.2-1-1.7c-0.6-0.9-1.2-1.8-1.8-2.6c-3.6-4.6-7.9-7.3-12.7-7.3h-15h-13.5
			c-6.1,0-11.9,4.4-16.2,11.7c-4.5,7.6-7.6,18.3-7.9,30.7c11.8,3.8,24.5,5.8,37.6,5.8c0,0,0.1,0,0.1,0c13.1,0,25.8-2.1,37.7-5.9
			C623.1,413.8,620.4,403.1,616.2,395.5z"/>
		<path class="st4" d="M630.3,388.2c-0.3,0-0.7-0.1-1-0.1c0.2-0.3,0.2-0.7,0.3-1c-4.9-2.1-10.3-3.3-16.1-3.3h-12.7
			c4.7,0,9.1,2.6,12.7,7.3c0.6,0.8,1.3,1.7,1.8,2.6c0.7,0.4,1.4,0.9,2.1,1.4c-0.4,0.1-0.7,0.2-1.1,0.3c4.2,7.6,6.9,18.3,7.2,30.7
			c5.2-1.7,10.3-3.7,15.2-6c0,0,0-0.1,0-0.1C637.4,406.5,634.8,395.2,630.3,388.2z"/>
		<path class="st2" d="M632.2,388.4c-0.6-0.1-1.3-0.2-1.9-0.2c4.5,7,7.1,18.3,8.3,31.9c0,0,0,0,0,0.1c2.3-1.1,4.5-2.2,6.7-3.4
			c0.2-0.1,0.4-0.2,0.6-0.3c0.8-0.5,1.7-1,2.5-1.5c0.3-0.1,0.5-0.3,0.8-0.4c1-0.6,2-1.2,3-1.9c0,0,0,0,0,0
			C648.7,401.9,641.5,393.3,632.2,388.4z"/>
		<path class="st7" d="M585.7,383.9h-13.5c-6.1,0-11.9,4.4-16.2,11.7c-4.5,7.6-7.6,18.3-7.9,30.7c11.8,3.8,24.5,5.8,37.6,5.8
			c0,0,0.1,0,0.1,0v-33.1V383.9z"/>
		<path class="st2" d="M632.2,388.4c-0.6-0.1-1.3-0.2-1.9-0.2c-0.2-0.4-0.5-0.7-0.7-1.1C630.4,387.5,631.3,388,632.2,388.4z"/>
		<path class="st4" d="M630.3,388.2c-0.3,0-0.7-0.1-1-0.1c0.2-0.3,0.2-0.7,0.3-1C629.8,387.5,630,387.8,630.3,388.2z"/>
		<path class="st4" d="M617.4,395.2c-0.4,0.1-0.7,0.2-1.1,0.3c-0.3-0.6-0.7-1.2-1-1.7C615.9,394.2,616.7,394.7,617.4,395.2z"/>
		<path class="st5" d="M542.6,387.9c0,0.1,0,0.1,0.1,0.2c0,0,0,0-0.1,0L542.6,387.9L542.6,387.9L542.6,387.9z"/>
		<path class="st5" d="M542.6,387.9v0.1c0,0-0.1,0-0.1,0C542.5,388,542.5,388,542.6,387.9C542.6,387.9,542.6,387.9,542.6,387.9z"/>
		<path class="st4" d="M542.6,387.9c0,0-0.1,0.1-0.1,0.1c-0.1,0-0.1,0-0.2,0C542.3,388,542.4,388,542.6,387.9z"/>
		<path class="st8" d="M599.3,369.7v8.7c-4.4,0.9-8.8,1.3-13.5,1.3h-0.1v-21.3h6.6c1.2,0.6,2.3,1.4,3.2,2.3
			C597.8,362.9,599.3,366.1,599.3,369.7z"/>
		<path class="st8" d="M585.8,379.6L585.8,379.6h-0.1c-4.1,0-8.1-0.4-12-1v2.5c0,3.5,1.4,6.7,3.8,9.1c2.1,2.2,5.1,3.6,8.3,3.7
			c0.2,0,0.5,0,0.7,0c7.1,0,12.8-5.7,12.8-12.8v-2.7C594.9,379.2,590.4,379.6,585.8,379.6z"/>
		<path class="st9" d="M585.7,358.3v21.3h-0.1c-4.1,0-8.1-0.4-12-1v-8.9c0-5,2.8-9.3,7-11.4H585.7z"/>
		<path class="st9" d="M585.6,379.6L585.6,379.6c-37.9,0-68.9-31-68.9-68.9v-41.5c0-37.9,31-68.9,68.9-68.9h0
			c37.9,0,68.9,31,68.9,68.9v41.5C654.4,348.6,623.4,379.6,585.6,379.6z"/>
		<path class="st8" d="M585.6,200.3L585.6,200.3l0,179.3h0c37.9,0,68.9-31,68.9-68.9v-41.5C654.4,231.3,623.4,200.3,585.6,200.3z"/>
		<circle class="st9" cx="516.7" cy="296" r="11.4"/>
		<circle class="st8" cx="654.4" cy="296" r="11.4"/>
		<path class="st33" d="M545.9,240.6c1.3-6.7,16.3-0.4,23.3-0.4h16.4h42c7.9,0,14.2,6.4,14.2,14.2v7.8v20.1c0,2.7,1.7,5,4.1,5.9
			c0.7,0.2,1.4,0.4,2.1,0.4h0.3c2.4,0,4.5-1.3,5.5-3.3c0.5-0.9,0.7-1.9,0.7-2.9v-13.2c0-14.3-4.4-27.6-11.9-38.6
			c-12.4-18.2-33.3-30.1-57-30.1h-0.1h-0.1c-11.1,0-21.5,2.6-30.8,7.2c-10.1,5-18.8,12.5-25.4,21.6c-7.5,11-12.8,25.6-12.8,39.9
			v13.2c0,1.1,0.3,2.1,0.8,3c1,1.9,3.1,3.3,5.5,3.3h0.3c0.5,0,1.1-0.1,1.5-0.2h0c2.7-0.7,4.7-3.1,4.7-6v-15.6c0.6-3,4-9.4,7.1-9.4"
			/>
		<path class="st34" d="M642.6,230.4c-12.4-18.2-33.3-30.1-57-30.1h-0.1v39.8h42c7.9,0,14.2,6.4,14.2,14.2v7.8v20.1
			c0,2.7,1.7,5,4.1,5.9c0.7,0.2,1.4,0.4,2.1,0.4h0.3c2.4,0,4.5-1.3,5.5-3.3c0.5-0.9,0.7-1.9,0.7-2.9v-13.2
			C654.6,254.8,650.2,241.5,642.6,230.4z"/>
		<path class="st34" d="M628.3,268.3c0,0,5.3-0.2,4.9,7.3l-28-1.1c-0.2,0-0.4-0.1-0.4-0.1c0.1-3.3,0.3-3.7,0.4-7
			c0,0,0.1-0.1,0.4-0.1L628.3,268.3z"/>
		<path class="st33" d="M566,267.5c0.1,3.3,0.3,3.7,0.4,7c0,0-0.1,0.1-0.4,0.1l-28.1,1.1c-0.4-7.5,4.9-7.3,4.9-7.3l22.7-0.9
			C565.8,267.4,565.9,267.4,566,267.5z"/>
		<path class="st12" d="M619,286.6c5.5,0,10,4.1,10,9.3c0,5.1-4.5,9.2-10,9.2s-10-4.2-10-9.2C609,290.8,613.5,286.6,619,286.6z"/>
		<path class="st12" d="M552.1,286.6c5.5,0,10,4.1,10,9.3c0,5.1-4.5,9.2-10,9.2c-5.5,0-10-4.2-10-9.2
			C542.2,290.8,546.6,286.6,552.1,286.6z"/>
		<path class="st13" d="M597,316.7c-0.5-4.7-4.8-16.8-7.7-16.8h-3.7h-3.7c-2.9,0-7.3,12.1-7.7,16.8c-0.9,8.7,2.4,15.9,5.3,15.9h6.2
			h6.2C594.6,332.7,597.9,325.5,597,316.7z"/>
		<path class="st14" d="M605.6,345c0,0,0,0.3-1.4,0.7c-0.1,0-0.1,0-0.2,0c-0.2,0.1-0.5,0.1-0.7,0.2c0,0,0,0,0,0
			c-0.1,0-0.3,0.1-0.4,0.1c-0.1,0-0.1,0-0.2,0c-0.2,0.1-0.5,0.1-0.8,0.2c-0.1,0-0.2,0-0.3,0c-0.1,0-0.1,0-0.2,0
			c-0.5,0.1-1,0.2-1.6,0.3c-0.6,0.1-1.2,0.2-1.9,0.3c-0.3,0-0.7,0.1-1.1,0.1c-2.8,0.3-6.5,0.7-11.3,1.1c-0.2,0-0.4,0-0.6,0
			c-0.5,0-1,0.1-1.5,0.1c-0.6,0-1.1,0.1-1.7,0.1c-0.6,0-1.2,0.1-1.8,0.1c0,0-0.1,0-0.1,0c-1.2,0.1-2.4,0.1-3.7,0.2
			c-2,0.1-4.1,0.2-6.4,0.3c-0.6,0-1.3,0.1-2,0.1c-0.1,0-0.3,0-0.4,0c0,0-0.1,0-0.1,0c-0.4,0-1.4-0.1-1.7-0.4
			c-0.1-0.1,0.1,1.2,0.1,1.6c0.1,1.3,1,2.5,2.5,3.4c3.3,2.1,9.5,3.2,15.8,3.4c0.5,0,1.1,0,1.6,0c1,0,2.1,0,3.1,0
			c0.7,0,1.4-0.1,2.1-0.1c4.2-0.3,7.5-0.8,10-1.9C604.5,353.5,606.1,350.5,605.6,345z"/>
		<path class="st15" d="M604,345.8c-0.2,0.1-0.5,0.1-0.7,0.2c0,0,0,0,0,0c-0.1,0-0.3,0.1-0.4,0.1c-0.1,0-0.1,0-0.2,0
			c-0.2,0.1-0.5,0.1-0.8,0.2c-0.1,0-0.2,0-0.3,0c-0.1,0-0.1,0-0.2,0c-0.5,0.1-1,0.2-1.6,0.3c-0.6,0.1-1.2,0.2-1.9,0.3
			c-0.3,0-0.7,0.1-1.1,0.1c-2.8,0.3-6.5,0.7-11.3,1.1c-0.2,0-0.4,0-0.6,0c-0.5,0-1,0.1-1.5,0.1c-0.6,0-1.1,0.1-1.7,0.1
			c-0.6,0-1.2,0.1-1.8,0.1c0,0-0.1,0-0.1,0c-1.2,0.1-2.4,0.1-3.7,0.2c-2,0.1-4.1,0.2-6.4,0.3c-0.6,0-1.3,0.1-2,0.1
			c-0.1,0-0.3,0-0.4,0c0.1,0.2,0.3,0.4,0.4,0.6c1.1,1.4,2.6,2.3,4.4,2.3h13.3h12.9c1.3,0,2.5-0.5,3.4-1.3c1.4-1.1,2.3-2.9,2.3-4.7
			c0-0.1,0-0.2,0-0.3C604.1,345.7,604,345.7,604,345.8z"/>
		<path class="st16" d="M605.6,344.9c0,0,0,0.3-1.4,0.7c-0.1,0-0.1,0-0.2,0c-0.2,0.1-0.5,0.1-0.7,0.2c0,0,0,0,0,0
			c-0.1,0-0.3,0.1-0.4,0.1c-0.1,0-0.1,0-0.2,0c-0.2,0.1-0.5,0.1-0.8,0.2c-0.1,0-0.2,0-0.3,0c-0.1,0-0.1,0-0.2,0
			c-0.5,0.1-1,0.2-1.6,0.3c-0.6,0.1-1.2,0.2-1.9,0.3c-0.3,0-0.7,0.1-1.1,0.1c-2.7,0.3-6.4,0.7-11.1,1v9.1c1,0,1.9,0,2.9,0
			c0.7,0,1.4-0.1,2.1-0.1c4.2-0.3,7.5-0.8,10-1.9C604.5,353.4,606.1,350.4,605.6,344.9z"/>
		<path class="st17" d="M604,345.7c-0.2,0.1-0.5,0.1-0.7,0.2c0,0,0,0,0,0c-0.1,0-0.3,0.1-0.4,0.1c-0.1,0-0.1,0-0.2,0
			c-0.2,0.1-0.5,0.1-0.8,0.2c-0.1,0-0.2,0-0.3,0c-0.1,0-0.1,0-0.2,0c-0.5,0.1-1,0.2-1.6,0.3c-0.6,0.1-1.2,0.2-1.9,0.3
			c-0.3,0-0.7,0.1-1.1,0.1c-2.7,0.3-6.4,0.7-11.1,1v3.9h12.7c1.3,0,2.5-0.5,3.4-1.3c1.4-1.1,2.3-2.9,2.3-4.7c0-0.1,0-0.2,0-0.3
			C604.1,345.7,604,345.7,604,345.7z"/>
		<path class="st18" d="M597,316.7c-0.5-4.7-4.8-16.8-7.7-16.8h-3.5v32.7h6C594.6,332.6,597.9,325.4,597,316.7z"/>
		<path class="st19" d="M585.8,379.6L585.8,379.6l-0.1,14.2c0.2,0,0.5,0,0.7,0c7.1,0,12.8-5.7,12.8-12.8v-2.7
			C594.9,379.2,590.4,379.6,585.8,379.6z"/>
		<path class="st33" d="M553.1,219.2c0,16.9,14.6,30.6,32.6,30.6c18,0,32.6-13.7,32.6-30.6c0-16.9-14.6-30.6-32.6-30.6
			C567.7,188.6,553.1,202.3,553.1,219.2z"/>
		<path class="st33" d="M524.3,231.8c0,12.5,11.5,22.6,25.8,22.6c14.3,0,25.8-10.1,25.8-22.6c0-12.5-11.5-22.6-25.8-22.6
			C535.8,209.2,524.3,219.3,524.3,231.8z"/>
		<path class="st34" d="M603.2,232c0,10.1,9.4,18.3,20.9,18.3c11.5,0,20.9-8.2,20.9-18.3c0-10.1-9.4-18.3-20.9-18.3
			C612.6,213.7,603.2,221.9,603.2,232z"/>
		<circle class="st33" cx="525.7" cy="249.8" r="14.5"/>
		<path class="st34" d="M625,245.9c0,8.2,6.6,14.8,14.8,14.8c8.2,0,14.8-6.6,14.8-14.8c0-8.2-6.6-14.8-14.8-14.8
			C631.6,231.1,625,237.7,625,245.9z"/>
		<path class="st34" d="M585.7,188.6v61.2c18,0,32.6-13.7,32.6-30.6C618.3,202.3,603.7,188.6,585.7,188.6z"/>
		<circle class="st33" cx="554.6" cy="215.7" r="14.5"/>
		<circle class="st33" cx="531.9" cy="239.4" r="14.5"/>
		<circle class="st33" cx="519.8" cy="262.8" r="8.9"/>
		<path class="st34" d="M602,216.4c0,8.2,6.6,14.8,14.8,14.8c8.2,0,14.8-6.6,14.8-14.8c0-8.2-6.6-14.8-14.8-14.8
			C608.7,201.6,602,208.2,602,216.4z"/>
		<path class="st34" d="M621.3,239.5c0,8.2,6.6,14.8,14.8,14.8c8.2,0,14.8-6.6,14.8-14.8c0-8.2-6.6-14.8-14.8-14.8
			C627.9,224.7,621.3,231.3,621.3,239.5z"/>
		<path class="st34" d="M639.8,259.2c0,5.1,4.1,9.2,9.2,9.2c5.1,0,9.2-4.1,9.2-9.2c0-5.1-4.1-9.2-9.2-9.2
			C643.9,250,639.8,254.1,639.8,259.2z"/>
	</g>
	<path class="st2" d="M667.8,333.3H503.5c-5.6,0-10.2,4.6-10.2,10.2v47.3c22.6,25.3,55.5,41.2,92.1,41.2c36.9,0,70-16.2,92.6-41.8
		v-46.8C678,337.9,673.4,333.3,667.8,333.3z"/>
	<path class="st20" d="M668.2,333.3H586v98.7c36.8-0.1,69.8-16.2,92.4-41.8v-46.8C678.4,337.9,673.8,333.3,668.2,333.3z"/>
	<path class="st15" d="M585.7,392.4c2.5,0,4.5-5.2,4.5-11.7c0-6.4-2-11.7-4.5-11.7s-4.5,5.2-4.5,11.7
		C581.2,387.1,583.2,392.4,585.7,392.4"/>
	<path class="st15" d="M585.7,397.2c-3.1,0-5.6,1.6-5.6,3.7c0,2,2.5,3.7,5.6,3.7c3.1,0,5.6-1.6,5.6-3.7
		C591.2,398.9,588.7,397.2,585.7,397.2"/>
	<path class="st15" d="M570.2,374.4c-2.4,0.6-2.8,6.2-1.1,12.4c1.8,6.2,5.1,10.7,7.5,10.1c2.4-0.6,2.9-6.2,1.1-12.4
		C576,378.3,572.6,373.8,570.2,374.4"/>
	<path class="st15" d="M593.6,384.5c-1.8,6.2-1.3,11.8,1.1,12.4c2.4,0.6,5.7-3.9,7.5-10.1c1.8-6.2,1.3-11.8-1.1-12.4
		C598.7,373.8,595.4,378.3,593.6,384.5"/>
</g>
<g>
	<g>
		<circle class="st21" cx="123.5" cy="308.3" r="123.5"/>
		<path class="st22" d="M123.5,184.9v246.9c68.2,0,123.5-55.3,123.5-123.5S191.7,184.9,123.5,184.9z"/>
		<path class="st2" d="M123.8,374.2c-0.1,0-0.2,0-0.2,0c-24,0-43.4,5.5-43.4,12.3c0,0.4,0.1,0.9,0.2,1.3h0c5.6-2.6,11.8-4,18.2-4
			h11.4h13.5h15h12.7c5.8,0,11.2,1.2,16,3.3c0-0.2,0-0.3,0-0.5C167.4,379.7,147.9,374.2,123.8,374.2z"/>
		<path class="st3" d="M167.4,386.5c0,0.2,0,0.3,0,0.5c-4.9-2.1-10.3-3.3-16-3.3h-12.7h-15v-9.5c0.1,0,0.2,0,0.2,0
			C147.9,374.2,167.4,379.7,167.4,386.5z"/>
		<path class="st3" d="M170,388.2c9.3,4.9,16.4,13.4,20,24.1c2.9-1.9,5.8-3.9,8.6-6C190.2,396.2,180.5,389.7,170,388.2z"/>
		<path class="st2" d="M80.1,387.9c-12,0-23.2,6.5-32.7,17.7c3.2,2.5,6.5,4.9,10,7.1C61.5,401.6,69.8,392.8,80.1,387.9z"/>
		<path class="st4" d="M80.3,387.9c-0.1,0-0.1,0-0.2,0h0c-10.3,4.9-18.6,13.7-22.7,24.8c4.5,2.9,9.2,5.4,14.1,7.7
			c0.2-2,0.4-3.9,0.6-5.8C73.6,403.2,76.1,393.8,80.3,387.9z"/>
		<path class="st5" d="M110.1,383.7H98.7c-6.4,0-12.6,1.4-18.2,4c0,0.1,0,0.1,0.1,0.2c0,0,0,0-0.1,0c0,0-0.1,0-0.1,0
			c-4.2,5.9-6.8,15.3-8.2,26.7c-0.2,1.9-0.4,3.8-0.6,5.8c4.6,2.2,9.5,4,14.4,5.6c0.4-12.3,3.4-23.1,7.9-30.6
			C98.3,388,104,383.7,110.1,383.7z"/>
		<path class="st6" d="M154,395.3c-0.3-0.6-0.7-1.2-1-1.7c-0.6-0.9-1.2-1.8-1.8-2.6c-3.6-4.6-7.9-7.3-12.6-7.3h-15h-13.5
			c-6.1,0-11.8,4.3-16.2,11.7c-4.5,7.6-7.6,18.3-7.9,30.6c11.8,3.8,24.4,5.8,37.5,5.8c0,0,0.1,0,0.1,0c13.1,0,25.8-2.1,37.6-5.9
			C160.9,413.6,158.2,402.8,154,395.3z"/>
		<path class="st4" d="M168.1,388c-0.3,0-0.7-0.1-1-0.1c0.2-0.3,0.2-0.7,0.3-1c-4.9-2.1-10.3-3.3-16-3.3h-12.7
			c4.7,0,9.1,2.6,12.6,7.3c0.6,0.8,1.3,1.7,1.8,2.6c0.7,0.4,1.4,0.9,2.1,1.4c-0.4,0.1-0.7,0.2-1.1,0.3c4.2,7.6,6.9,18.3,7.2,30.6
			c5.2-1.7,10.3-3.7,15.1-6c0,0,0-0.1,0-0.1C175.2,406.3,172.6,395,168.1,388z"/>
		<path class="st2" d="M170,388.2c-0.6-0.1-1.3-0.2-1.9-0.2c4.5,7,7.1,18.3,8.3,31.8c0,0,0,0,0,0.1c2.3-1.1,4.5-2.2,6.7-3.4
			c0.2-0.1,0.4-0.2,0.6-0.3c0.8-0.5,1.7-1,2.5-1.5c0.3-0.1,0.5-0.3,0.8-0.4c1-0.6,2-1.2,3-1.9c0,0,0,0,0,0
			C186.4,401.7,179.3,393.1,170,388.2z"/>
		<path class="st7" d="M123.6,383.7h-13.5c-6.1,0-11.8,4.3-16.2,11.7c-4.5,7.6-7.6,18.3-7.9,30.6c11.8,3.8,24.4,5.8,37.5,5.8
			c0,0,0.1,0,0.1,0v-33.1V383.7z"/>
		<path class="st2" d="M170,388.2c-0.6-0.1-1.3-0.2-1.9-0.2c-0.2-0.4-0.5-0.7-0.7-1.1C168.2,387.3,169.1,387.8,170,388.2z"/>
		<path class="st4" d="M168.1,388c-0.3,0-0.7-0.1-1-0.1c0.2-0.3,0.2-0.7,0.3-1C167.6,387.3,167.8,387.6,168.1,388z"/>
		<path class="st4" d="M155.2,395c-0.4,0.1-0.7,0.2-1.1,0.3c-0.3-0.6-0.7-1.2-1-1.7C153.8,394,154.5,394.5,155.2,395z"/>
		<path class="st5" d="M80.5,387.7c0,0.1,0,0.1,0.1,0.2c0,0,0,0-0.1,0L80.5,387.7L80.5,387.7L80.5,387.7z"/>
		<path class="st5" d="M80.4,387.7v0.1c0,0-0.1,0-0.1,0C80.4,387.8,80.4,387.8,80.4,387.7C80.4,387.7,80.4,387.7,80.4,387.7z"/>
		<path class="st4" d="M80.4,387.7c0,0-0.1,0.1-0.1,0.1c-0.1,0-0.1,0-0.2,0C80.2,387.8,80.3,387.8,80.4,387.7z"/>
		<path class="st8" d="M137.1,369.5v8.6c-4.4,0.9-8.8,1.3-13.4,1.3h-0.1v-21.3h6.6c1.2,0.6,2.3,1.4,3.2,2.3
			C135.6,362.7,137.1,366,137.1,369.5z"/>
		<path class="st8" d="M123.6,379.4L123.6,379.4h-0.1c-4.1,0-8.1-0.4-12-1v2.5c0,3.5,1.4,6.7,3.8,9c2.1,2.2,5.1,3.6,8.3,3.7
			c0.2,0,0.5,0,0.7,0c7.1,0,12.8-5.7,12.8-12.8v-2.7C132.7,379,128.2,379.4,123.6,379.4z"/>
		<path class="st9" d="M123.6,358.1v21.3h-0.1c-4.1,0-8.1-0.4-12-1v-8.9c0-5,2.8-9.3,7-11.4H123.6z"/>
		<path class="st23" d="M123.4,379.4L123.4,379.4c-37.8,0-68.8-31-68.8-68.8v-41.5c0-37.8,31-68.8,68.8-68.8h0
			c37.8,0,68.8,31,68.8,68.8v41.5C192.2,348.5,161.2,379.4,123.4,379.4z"/>
		<path class="st24" d="M123.4,200.3L123.4,200.3l0,179.1h0c37.8,0,68.8-31,68.8-68.8v-41.5C192.2,231.3,161.2,200.3,123.4,200.3z"
			/>
		<circle class="st23" cx="54.6" cy="295.9" r="11.4"/>
		<circle class="st24" cx="192.2" cy="295.9" r="11.4"/>
		<path class="st11" d="M166.1,274c0,0,5.3-0.2,4.9,7.3l-28-1.1c-0.2,0-0.4-0.1-0.4-0.1c0.1-3.3,0.3-3.7,0.4-7c0,0,0.1-0.1,0.4-0.1
			L166.1,274z"/>
		<path class="st35" d="M103.8,273.1c0.1,3.3,0.3,3.7,0.4,7c0,0-0.1,0.1-0.4,0.1l-28,1.1c-0.4-7.5,4.9-7.3,4.9-7.3l22.7-0.9
			C103.7,273.1,103.8,273.1,103.8,273.1z"/>
		<path class="st12" d="M156.8,286.5c5.5,0,10,4.1,10,9.3c0,5.1-4.5,9.2-10,9.2c-5.5,0-10-4.2-10-9.2
			C146.9,290.7,151.3,286.5,156.8,286.5z"/>
		<path class="st12" d="M90,286.5c5.5,0,10,4.1,10,9.3c0,5.1-4.5,9.2-10,9.2c-5.5,0-10-4.2-10-9.2C80,290.7,84.5,286.5,90,286.5z"/>
		<path class="st14" d="M143.4,344.8c0,0,0,0.3-1.4,0.7c-0.1,0-0.1,0-0.2,0c-0.2,0.1-0.5,0.1-0.7,0.2c0,0,0,0,0,0
			c-0.1,0-0.3,0.1-0.4,0.1c-0.1,0-0.1,0-0.2,0c-0.2,0.1-0.5,0.1-0.8,0.2c-0.1,0-0.2,0-0.3,0c-0.1,0-0.1,0-0.2,0
			c-0.5,0.1-1,0.2-1.6,0.3c-0.6,0.1-1.2,0.2-1.9,0.3c-0.3,0-0.7,0.1-1.1,0.1c-2.8,0.3-6.5,0.7-11.3,1.1c-0.2,0-0.4,0-0.6,0
			c-0.5,0-1,0.1-1.5,0.1c-0.6,0-1.1,0.1-1.7,0.1c-0.6,0-1.2,0.1-1.8,0.1c0,0-0.1,0-0.1,0c-1.2,0.1-2.4,0.1-3.7,0.2
			c-2,0.1-4.1,0.2-6.4,0.3c-0.6,0-1.3,0.1-2,0.1c-0.1,0-0.3,0-0.4,0c0,0-0.1,0-0.1,0c-0.4,0-1.4-0.1-1.7-0.4
			c-0.1-0.1,0.1,1.2,0.1,1.6c0.1,1.3,1,2.5,2.5,3.4c3.3,2.1,9.5,3.2,15.8,3.4c0.5,0,1.1,0,1.6,0c1,0,2.1,0,3.1,0
			c0.7,0,1.4-0.1,2.1-0.1c4.2-0.3,7.5-0.8,10-1.9C142.4,353.3,144,350.3,143.4,344.8z"/>
		<path class="st15" d="M141.8,345.6c-0.2,0.1-0.5,0.1-0.7,0.2c0,0,0,0,0,0c-0.1,0-0.3,0.1-0.4,0.1c-0.1,0-0.1,0-0.2,0
			c-0.2,0.1-0.5,0.1-0.8,0.2c-0.1,0-0.2,0-0.3,0c-0.1,0-0.1,0-0.2,0c-0.5,0.1-1,0.2-1.6,0.3c-0.6,0.1-1.2,0.2-1.9,0.3
			c-0.3,0-0.7,0.1-1.1,0.1c-2.8,0.3-6.5,0.7-11.3,1.1c-0.2,0-0.4,0-0.6,0c-0.5,0-1,0.1-1.5,0.1c-0.6,0-1.1,0.1-1.7,0.1
			c-0.6,0-1.2,0.1-1.8,0.1c0,0-0.1,0-0.1,0c-1.2,0.1-2.4,0.1-3.7,0.2c-2,0.1-4.1,0.2-6.4,0.3c-0.6,0-1.3,0.1-2,0.1
			c-0.1,0-0.3,0-0.4,0c0.1,0.2,0.3,0.4,0.4,0.6c1.1,1.4,2.6,2.3,4.4,2.3h13.3h12.9c1.3,0,2.5-0.5,3.4-1.3c1.4-1.1,2.3-2.9,2.3-4.7
			c0-0.1,0-0.2,0-0.3C141.9,345.6,141.9,345.6,141.8,345.6z"/>
		<path class="st16" d="M143.4,344.8c0,0,0,0.3-1.4,0.7c-0.1,0-0.1,0-0.2,0c-0.2,0.1-0.5,0.1-0.7,0.2c0,0,0,0,0,0
			c-0.1,0-0.3,0.1-0.4,0.1c-0.1,0-0.1,0-0.2,0c-0.2,0.1-0.5,0.1-0.8,0.2c-0.1,0-0.2,0-0.3,0c-0.1,0-0.1,0-0.2,0
			c-0.5,0.1-1,0.2-1.6,0.3c-0.6,0.1-1.2,0.2-1.9,0.3c-0.3,0-0.7,0.1-1.1,0.1c-2.7,0.3-6.4,0.7-11.1,1v9.1c1,0,1.9,0,2.9,0
			c0.7,0,1.4-0.1,2.1-0.1c4.2-0.3,7.5-0.8,10-1.9C142.4,353.2,144,350.2,143.4,344.8z"/>
		<path class="st17" d="M141.8,345.5c-0.2,0.1-0.5,0.1-0.7,0.2c0,0,0,0,0,0c-0.1,0-0.3,0.1-0.4,0.1c-0.1,0-0.1,0-0.2,0
			c-0.2,0.1-0.5,0.1-0.8,0.2c-0.1,0-0.2,0-0.3,0c-0.1,0-0.1,0-0.2,0c-0.5,0.1-1,0.2-1.6,0.3c-0.6,0.1-1.2,0.2-1.9,0.3
			c-0.3,0-0.7,0.1-1.1,0.1c-2.7,0.3-6.4,0.7-11.1,1v3.9h12.7c1.3,0,2.5-0.5,3.4-1.3c1.4-1.1,2.3-2.9,2.3-4.7c0-0.1,0-0.2,0-0.3
			C141.9,345.5,141.9,345.5,141.8,345.5z"/>
		<path class="st19" d="M123.6,379.4L123.6,379.4l-0.1,14.2c0.2,0,0.5,0,0.7,0c7.1,0,12.8-5.7,12.8-12.8v-2.7
			C132.7,379,128.2,379.4,123.6,379.4z"/>
		<g>
			<path class="st35" d="M90,247.9c23.8,36.5,54.9,33,84.7,36.2c9.8,1.1,17.5,1.1,17.5,1.1v-16.1c0-37.8-31-68.8-68.8-68.8h0
				c-37.8,0-68.8,31-68.8,68.8v15.5C74.6,277.9,85.6,268.3,90,247.9z"/>
		</g>
		<path class="st36" d="M125.7,200.3L125.7,200.3c-0.8,0-1.5,0-2.3,0.1v75.9c19.2,7,32.3,5.7,51.9,7.9c9.5,1.1,16.9,1.1,16.9,1.1
			v-16.1C192.2,231.3,162.3,200.3,125.7,200.3z"/>
		<path class="st25" d="M130.7,324.3c-0.2,0.8-1.7,2.2-2.8,2.2c0,0-1.7,0.3-4.6,0.3c-3,0-4.6-0.3-4.6-0.3c-1.1,0-2.6-1.4-2.8-2.2
			c-1-4.1,2.8-15.5,7.4-15.5C127.9,308.9,131.8,320.2,130.7,324.3z"/>
		<path class="st26" d="M123.4,308.9C123.4,308.9,123.4,308.9,123.4,308.9l0,18c0,0,0,0,0,0c2.9,0,4.6-0.3,4.6-0.3
			c1.1,0,2.6-1.4,2.8-2.2C131.8,320.2,127.9,308.9,123.4,308.9z"/>
		<path class="st36" d="M189.4,338h-0.8c-1.6,0-2.8-1.3-2.8-2.8v-51.1c0-1.6,1.3-2.8,2.8-2.8h0.8c1.6,0,2.8,1.3,2.8,2.8v51.1
			C192.2,336.7,190.9,338,189.4,338z"/>
		<path class="st35" d="M58.2,338h-0.8c-1.6,0-2.8-1.3-2.8-2.8v-56.8c0-1.6,1.3-2.8,2.8-2.8h0.8c1.6,0,2.8,1.3,2.8,2.8v56.8
			C61.1,336.7,59.8,338,58.2,338z"/>
	</g>
	<path class="st2" d="M205.6,333.2H41.4c-5.6,0-10.2,4.6-10.2,10.2v47.3c22.6,25.3,55.5,41.2,92.1,41.2c36.8,0,69.9-16.1,92.5-41.7
		v-46.8C215.8,337.7,211.2,333.2,205.6,333.2z"/>
	<path class="st20" d="M205.9,333.2h-82.1v98.7c36.7-0.1,69.7-16.2,92.3-41.7v-46.8C216.1,337.7,211.6,333.2,205.9,333.2z"/>
	<path class="st15" d="M123.5,392.2c2.5,0,4.4-5.2,4.4-11.7c0-6.4-2-11.7-4.4-11.7c-2.5,0-4.4,5.2-4.4,11.7
		C119.1,386.9,121,392.2,123.5,392.2"/>
	<path class="st15" d="M123.5,397c-3.1,0-5.6,1.6-5.6,3.7c0,2,2.5,3.7,5.6,3.7c3.1,0,5.6-1.6,5.6-3.7
		C129.1,398.7,126.6,397,123.5,397"/>
	<path class="st15" d="M108.1,374.2c-2.4,0.6-2.8,6.2-1.1,12.4c1.8,6.2,5.1,10.7,7.5,10.1c2.4-0.6,2.8-6.2,1.1-12.4
		C113.8,378.1,110.5,373.6,108.1,374.2"/>
	<path class="st15" d="M131.4,384.3c-1.8,6.2-1.3,11.8,1.1,12.4c2.4,0.6,5.7-3.9,7.5-10.1c1.8-6.2,1.3-11.8-1.1-12.4
		C136.6,373.6,133.2,378.1,131.4,384.3"/>
</g>
<g>
	<g>
		<circle class="st37" cx="353.6" cy="348.5" r="145.4"/>
		<path class="st38" d="M353.6,203.1v290.8c80.3,0,145.4-65.1,145.4-145.4S433.9,203.1,353.6,203.1z"/>
		<path class="st2" d="M354,426c-0.1,0-0.2,0-0.3,0c-28.2,0-51.1,6.5-51.1,14.4c0,0.5,0.1,1,0.3,1.5h0c6.6-3.1,13.9-4.8,21.5-4.8
			h13.4h15.9h17.7h15c6.8,0,13.1,1.4,18.9,3.8c0-0.2,0-0.4,0-0.6C405.3,432.5,382.3,426,354,426z"/>
		<path class="st3" d="M405.3,440.5c0,0.2,0,0.4,0,0.6c-5.7-2.5-12.1-3.8-18.9-3.8h-15h-17.7V426c0.1,0,0.2,0,0.3,0
			C382.3,426,405.3,432.5,405.3,440.5z"/>
		<path class="st3" d="M408.4,442.5c11,5.7,19.4,15.8,23.6,28.4c3.5-2.2,6.8-4.6,10.1-7.1C432.2,451.9,420.8,444.3,408.4,442.5z"/>
		<path class="st2" d="M302.6,442.1c-14.2,0-27.3,7.7-38.5,20.9c3.8,3,7.7,5.7,11.8,8.3C280.7,458.3,290.4,447.9,302.6,442.1z"/>
		<path class="st4" d="M302.8,442.1c-0.1,0-0.2,0-0.3,0h0c-12.1,5.7-21.9,16.1-26.7,29.2c5.3,3.4,10.9,6.4,16.6,9.1
			c0.2-2.3,0.4-4.6,0.7-6.9C294.9,460.1,297.9,449,302.8,442.1z"/>
		<path class="st5" d="M337.9,437.2h-13.4c-7.6,0-14.9,1.7-21.5,4.8c0,0.1,0,0.1,0.1,0.2c0,0-0.1,0-0.1,0c-0.1,0-0.1,0-0.1,0
			c-4.9,6.9-8,18-9.6,31.4c-0.3,2.2-0.5,4.5-0.7,6.9c5.5,2.5,11.1,4.8,16.9,6.6c0.4-14.5,4-27.2,9.3-36.1
			C324,442.3,330.8,437.2,337.9,437.2z"/>
		<path class="st6" d="M389.6,450.8c-0.4-0.7-0.8-1.4-1.2-2c-0.7-1.1-1.4-2.1-2.2-3.1c-4.2-5.4-9.3-8.5-14.9-8.5h-17.7h-15.9
			c-7.1,0-13.9,5.1-19.1,13.7c-5.3,8.9-8.9,21.5-9.3,36.1c13.9,4.4,28.8,6.8,44.2,6.8c0,0,0.1,0,0.1,0c15.5,0,30.3-2.4,44.3-6.9
			C397.7,472.4,394.6,459.7,389.6,450.8z"/>
		<path class="st4" d="M406.1,442.3c-0.4-0.1-0.8-0.1-1.2-0.1c0.2-0.4,0.3-0.8,0.3-1.2c-5.7-2.5-12.1-3.8-18.9-3.8h-15
			c5.6,0,10.7,3.1,14.9,8.5c0.8,1,1.5,2,2.2,3.1c0.8,0.5,1.7,1.1,2.5,1.6c-0.4,0.1-0.9,0.2-1.3,0.4c4.9,8.9,8.1,21.5,8.4,36.1
			c6.1-2,12.1-4.3,17.8-7.1c0,0,0-0.1,0-0.1C414.5,463.8,411.5,450.5,406.1,442.3z"/>
		<path class="st2" d="M408.4,442.5c-0.8-0.1-1.5-0.2-2.3-0.3c5.3,8.2,8.4,21.6,9.8,37.5c0,0,0,0,0,0.1c2.7-1.3,5.3-2.6,7.9-4
			c0.2-0.1,0.5-0.3,0.7-0.4c1-0.6,2-1.1,3-1.7c0.3-0.2,0.6-0.3,0.9-0.5c1.2-0.7,2.4-1.5,3.6-2.2c0,0,0,0,0,0
			C427.8,458.4,419.4,448.3,408.4,442.5z"/>
		<path class="st7" d="M353.8,437.2h-15.9c-7.1,0-13.9,5.1-19.1,13.7c-5.3,8.9-8.9,21.5-9.3,36.1c13.9,4.4,28.8,6.8,44.2,6.8
			c0,0,0.1,0,0.1,0v-39V437.2z"/>
		<path class="st2" d="M408.4,442.5c-0.8-0.1-1.5-0.2-2.3-0.3c-0.3-0.4-0.6-0.9-0.9-1.3C406.4,441.5,407.4,442,408.4,442.5z"/>
		<path class="st4" d="M406.1,442.3c-0.4-0.1-0.8-0.1-1.2-0.1c0.2-0.4,0.3-0.8,0.3-1.2C405.6,441.4,405.9,441.9,406.1,442.3z"/>
		<path class="st4" d="M391,450.5c-0.4,0.1-0.9,0.2-1.3,0.4c-0.4-0.7-0.8-1.4-1.2-2C389.3,449.3,390.1,449.9,391,450.5z"/>
		<path class="st5" d="M303,442c0,0.1,0,0.1,0.1,0.2c0,0-0.1,0-0.1,0L303,442L303,442L303,442z"/>
		<path class="st5" d="M303,442v0.2c-0.1,0-0.1,0-0.1,0C302.9,442.1,302.9,442,303,442C303,442,303,442,303,442z"/>
		<path class="st4" d="M303,442c0,0.1-0.1,0.1-0.1,0.2c-0.1,0-0.2,0-0.3,0C302.7,442.1,302.8,442,303,442z"/>
		<path class="st8" d="M369.7,420.5v10.2c-5.1,1-10.4,1.5-15.8,1.5h-0.1v-25.1h7.7c1.4,0.7,2.7,1.6,3.8,2.7
			C368,412.5,369.7,416.3,369.7,420.5z"/>
		<path class="st8" d="M353.8,432.2L353.8,432.2h-0.1c-4.8,0-9.6-0.4-14.2-1.2v2.9c0,4.2,1.7,7.9,4.4,10.6c2.5,2.5,6,4.2,9.8,4.4
			c0.3,0,0.6,0,0.8,0c8.3,0,15.1-6.7,15.1-15.1v-3.2C364.5,431.6,359.2,432.2,353.8,432.2z"/>
		<path class="st9" d="M353.8,407.1v25.1h-0.1c-4.8,0-9.6-0.4-14.2-1.2v-10.5c0-5.8,3.3-10.9,8.2-13.4H353.8z"/>
		<path class="st9" d="M353.5,432.2L353.5,432.2c-44.6,0-81-36.5-81-81v-48.9c0-44.6,36.5-81,81-81h0c44.6,0,81,36.5,81,81v48.9
			C434.6,395.7,398.1,432.2,353.5,432.2z"/>
		<path class="st8" d="M353.5,221.3L353.5,221.3l0,210.9h0c44.6,0,81-36.5,81-81v-48.9C434.6,257.7,398.1,221.3,353.5,221.3z"/>
		<circle class="st9" cx="272.5" cy="333.8" r="13.4"/>
		<circle class="st8" cx="434.6" cy="333.8" r="13.4"/>
		<path class="st10" d="M420.7,256.7c-14.6-21.4-39.2-35.4-67.1-35.4h-0.1h-0.1c-13,0-25.3,3.1-36.2,8.5
			c-11.9,5.9-22.2,14.7-29.8,25.4c-8.9,13-15.1,30.1-15.1,47v15.6c0,1.3,0.3,2.4,0.9,3.5c1.2,2.3,3.6,3.8,6.4,3.8h0.4
			c0.6,0,1.2-0.1,1.8-0.2h0c3.2-0.8,5.5-3.7,5.5-7.1v-18.4c0.7-3.5,3.8-6.1,7.5-6.1h7.3h0.5c7.3,0,13.4-4.6,14.6-10.5
			c0-0.2,0.1-0.3,0.1-0.4c1.5-7.9,8.7-14.2,16.9-14.2h19.2h49.4c9.2,0,16.7,7.5,16.7,16.7v9.2v23.6c0,3.2,2,5.9,4.9,6.9
			c0.8,0.3,1.6,0.4,2.5,0.4h0.4c2.8,0,5.2-1.6,6.5-3.9c0.5-1,0.9-2.2,0.9-3.4v-15.6C434.7,285.3,429.6,269.6,420.7,256.7z"/>
		<path class="st11" d="M420.7,256.7c-14.6-21.4-39.2-35.4-67.1-35.4h-0.1v46.9h49.4c9.2,0,16.7,7.5,16.7,16.7v9.2v23.6
			c0,3.2,2,5.9,4.9,6.9c0.8,0.3,1.6,0.4,2.5,0.4h0.4c2.8,0,5.2-1.6,6.5-3.9c0.5-1,0.9-2.2,0.9-3.4v-15.6
			C434.7,285.3,429.6,269.6,420.7,256.7z"/>
		<path class="st11" d="M403.8,301.3c0,0,6.2-0.2,5.8,8.6l-33-1.3c-0.3,0-0.5-0.1-0.5-0.1c0.2-3.9,0.3-4.3,0.5-8.2
			c0-0.1,0.2-0.1,0.5-0.1L403.8,301.3z"/>
		<path class="st10" d="M330.5,300.2c0.2,3.8,0.3,4.3,0.5,8.2c0,0-0.2,0.1-0.5,0.1l-33,1.3c-0.4-8.8,5.8-8.6,5.8-8.6l26.7-1.1
			C330.3,300.2,330.5,300.2,330.5,300.2z"/>
		<path class="st12" d="M392.9,322.8c6.5,0,11.7,4.9,11.7,10.9c0,6-5.2,10.9-11.7,10.9c-6.5,0-11.7-4.9-11.7-10.9
			C381.2,327.7,386.4,322.8,392.9,322.8z"/>
		<path class="st12" d="M314.2,322.8c6.5,0,11.7,4.9,11.7,10.9c0,6-5.2,10.9-11.7,10.9c-6.5,0-11.7-4.9-11.7-10.9
			C302.5,327.7,307.7,322.8,314.2,322.8z"/>
		<g>
			<path class="st28" d="M353.3,313.3c0.1,0,0.2,0,0.3,0h0.2c9.4,0,19.9-1.5,38.9-1.5c7.2,0,23.1,0.2,30.1,0.9
				c1,0.1,1.3,0.2,1.3,1.1c0.2,1.8,0.1,10.3,0.1,12.3c0,0.7-2.3,0.9-2.7,0.9h-0.3v-3.7c0-4.6-3.8-8.4-8.4-8.4h-43.5
				c-3.4,0-6.3,2-7.6,4.9c-0.4-0.4-1.9-1.5-7.8-1.6c-0.2,0-0.4,0-0.5,0c-7,0.1-7.9,1.7-7.9,1.7l-0.3,0.1c-1.3-3-4.3-5.1-7.7-5.1
				h-43.5c-4.6,0-8.4,3.8-8.4,8.4v3.7h0c-0.4,0-2.6-0.2-2.6-0.9c0-1.9,0-10.5,0.1-12.3c0-0.9,0.3-1,1.3-1.1c7-0.7,22.9-0.9,30.1-0.9
				C333.4,311.9,343.9,313.3,353.3,313.3z"/>
			<path class="st39" d="M421.1,323.4v13.4c0,4.6-3.8,8.4-8.4,8.4h-43.5c-4.6,0-8.4-3.8-8.4-8.4v-13.4c0-4.6,3.8-8.4,8.4-8.4h43.5
				C417.4,315,421.1,318.8,421.1,323.4z"/>
			<path class="st39" d="M345.8,323.4v13.4c0,4.6-3.8,8.4-8.4,8.4h-43.5c-4.6,0-8.4-3.8-8.4-8.4v-13.4c0-4.6,3.7-8.4,8.4-8.4h43.5
				C342.1,315,345.8,318.8,345.8,323.4z"/>
		</g>
		<path class="st13" d="M367,358.2c-0.6-5.5-5.7-19.8-9.1-19.8h-4.4h-4.4c-3.4,0-8.6,14.3-9.1,19.8c-1,10.3,2.8,18.7,6.2,18.7h7.3
			h7.3C364.2,376.9,368,368.4,367,358.2z"/>
		<path class="st14" d="M377.1,391.4c0,0,0,0.3-1.7,0.8c-0.1,0-0.1,0-0.2,0.1c-0.3,0.1-0.5,0.1-0.9,0.2c0,0,0,0-0.1,0
			c-0.2,0-0.3,0.1-0.5,0.1c-0.1,0-0.1,0-0.2,0c-0.3,0.1-0.6,0.1-0.9,0.2c-0.1,0-0.2,0-0.3,0c-0.1,0-0.2,0.1-0.2,0.1
			c-0.6,0.1-1.2,0.2-1.9,0.3c-0.7,0.1-1.4,0.2-2.2,0.3c-0.4,0.1-0.8,0.1-1.2,0.2c-3.3,0.4-7.6,0.8-13.3,1.3c-0.2,0-0.4,0-0.7,0.1
			c-0.6,0.1-1.2,0.1-1.8,0.1c-0.7,0-1.3,0.1-2,0.1c-0.7,0-1.4,0.1-2.1,0.1c-0.1,0-0.1,0-0.1,0c-1.4,0.1-2.9,0.2-4.4,0.2
			c-2.3,0.1-4.8,0.3-7.5,0.4c-0.8,0-1.5,0.1-2.3,0.1c-0.2,0-0.3,0-0.5,0c-0.1,0-0.1,0-0.2,0c-0.5,0-1.6-0.2-2-0.5
			c-0.1-0.1,0.1,1.5,0.2,1.9c0.1,1.6,1.2,2.9,3,4c3.9,2.4,11.1,3.8,18.6,4.1c0.6,0,1.3,0,1.9,0c1.2,0,2.4,0,3.6,0
			c0.8,0,1.6-0.1,2.4-0.1c5-0.4,8.9-1,11.7-2.2C375.9,401.4,377.8,397.9,377.1,391.4z"/>
		<path class="st15" d="M375.2,392.3c-0.3,0.1-0.5,0.1-0.9,0.2c0,0,0,0-0.1,0c-0.2,0-0.3,0.1-0.5,0.1c-0.1,0-0.1,0-0.2,0
			c-0.3,0.1-0.6,0.1-0.9,0.2c-0.1,0-0.2,0-0.3,0c-0.1,0-0.2,0.1-0.2,0.1c-0.6,0.1-1.2,0.2-1.9,0.3c-0.7,0.1-1.4,0.2-2.2,0.3
			c-0.4,0.1-0.8,0.1-1.2,0.2c-3.3,0.4-7.6,0.8-13.3,1.3c-0.2,0-0.4,0-0.7,0.1c-0.6,0.1-1.2,0.1-1.8,0.1c-0.7,0-1.3,0.1-2,0.1
			c-0.7,0-1.4,0.1-2.1,0.1c-0.1,0-0.1,0-0.1,0c-1.4,0.1-2.9,0.2-4.4,0.2c-2.3,0.1-4.8,0.3-7.5,0.4c-0.8,0-1.5,0.1-2.3,0.1
			c-0.2,0-0.3,0-0.5,0c0.2,0.2,0.3,0.5,0.5,0.7c1.3,1.6,3.1,2.7,5.2,2.7h15.7h15.2c1.5,0,2.9-0.6,4.1-1.5c1.6-1.3,2.7-3.4,2.7-5.5
			c0-0.1,0-0.2,0-0.4C375.4,392.3,375.3,392.3,375.2,392.3z"/>
		<path class="st16" d="M377.1,391.4c0,0,0,0.3-1.7,0.8c-0.1,0-0.1,0-0.2,0.1c-0.3,0.1-0.5,0.1-0.9,0.2c0,0,0,0-0.1,0
			c-0.2,0-0.3,0.1-0.5,0.1c-0.1,0-0.1,0-0.2,0c-0.3,0.1-0.6,0.1-0.9,0.2c-0.1,0-0.2,0-0.3,0c-0.1,0-0.2,0.1-0.2,0.1
			c-0.6,0.1-1.2,0.2-1.9,0.3c-0.7,0.1-1.4,0.2-2.2,0.3c-0.4,0.1-0.8,0.1-1.2,0.2c-3.2,0.4-7.5,0.8-13,1.2v10.8c1.1,0,2.3,0,3.4,0
			c0.8,0,1.6-0.1,2.4-0.1c5-0.4,8.9-1,11.7-2.2C375.9,401.3,377.8,397.8,377.1,391.4z"/>
		<path class="st17" d="M375.2,392.3c-0.3,0.1-0.5,0.1-0.9,0.2c0,0,0,0-0.1,0c-0.2,0-0.3,0.1-0.5,0.1c-0.1,0-0.1,0-0.2,0
			c-0.3,0.1-0.6,0.1-0.9,0.2c-0.1,0-0.2,0-0.3,0c-0.1,0-0.2,0.1-0.2,0.1c-0.6,0.1-1.2,0.2-1.9,0.3c-0.7,0.1-1.4,0.2-2.2,0.3
			c-0.4,0.1-0.8,0.1-1.2,0.2c-3.2,0.4-7.5,0.8-13,1.2v4.6h14.9c1.5,0,2.9-0.6,4.1-1.5c1.6-1.3,2.7-3.4,2.7-5.5c0-0.1,0-0.2,0-0.4
			C375.4,392.2,375.3,392.2,375.2,392.3z"/>
		<path class="st18" d="M367,358.1c-0.6-5.5-5.7-19.8-9.1-19.8h-4.2v38.5h7.1C364.2,376.9,368,368.4,367,358.1z"/>
		<path class="st19" d="M353.8,432.2L353.8,432.2l-0.1,16.7c0.3,0,0.6,0,0.8,0c8.3,0,15.1-6.7,15.1-15.1v-3.2
			C364.5,431.6,359.2,432.2,353.8,432.2z"/>
	</g>
	<path class="st2" d="M450.3,377.7H257c-6.6,0-12,5.4-12,12v55.7c26.6,29.8,65.3,48.5,108.4,48.5c43.4,0,82.3-19,108.9-49.1v-55
		C462.3,383.1,456.9,377.7,450.3,377.7z"/>
	<path class="st20" d="M450.7,377.7h-96.7v116.2c43.3-0.1,82.1-19.1,108.7-49.1v-55C462.7,383.1,457.3,377.7,450.7,377.7z"/>
	<path class="st15" d="M353.7,447.2c2.9,0,5.2-6.1,5.2-13.7c0-7.6-2.3-13.7-5.2-13.7c-2.9,0-5.2,6.1-5.2,13.7
		C348.4,441,350.8,447.2,353.7,447.2"/>
	<path class="st15" d="M353.7,452.9c-3.6,0-6.6,1.9-6.6,4.3c0,2.4,2.9,4.3,6.6,4.3c3.6,0,6.6-1.9,6.6-4.3
		C360.2,454.8,357.3,452.9,353.7,452.9"/>
	<path class="st15" d="M335.5,426.1c-2.8,0.8-3.4,7.3-1.3,14.6c2.1,7.3,6,12.6,8.8,11.9c2.8-0.8,3.4-7.3,1.3-14.6
		C342.3,430.6,338.3,425.3,335.5,426.1"/>
	<path class="st15" d="M363,437.9c-2.1,7.3-1.5,13.8,1.3,14.6c2.8,0.8,6.7-4.6,8.8-11.9c2.1-7.3,1.5-13.8-1.3-14.6
		C369,425.3,365.1,430.6,363,437.9"/>
</g>
</svg>
