<?xml version="1.0" encoding="utf-8"?>
<!-- Generator: Adobe Illustrator 21.1.0, SVG Export Plug-In . SVG Version: 6.00 Build 0)  -->
<svg version="1.1" xmlns="http://www.w3.org/2000/svg" xmlns:xlink="http://www.w3.org/1999/xlink" x="0px" y="0px"
	 viewBox="0 0 1370.4 835" style="enable-background:new 0 0 1370.4 835;" xml:space="preserve">
<style type="text/css">
	.st0{fill:#9E9E9E;}
	.st1{fill:#767677;}
	.st2{fill:#BDBDBD;}
	.st3{fill:#F2F2F2;}
	.st4{fill:#378F43;}
	.st5{fill:#FFFFFF;}
	.st6{fill:#EB2227;}
	.st7{fill:#FCEE21;}
	.st8{fill:#FAAF42;}
	.st9{fill:#652F8F;}
	.st10{fill:#8CC541;}
	.st11{fill:#29ABE2;}
	.st12{fill:#95C8EC;}
	.st13{fill:#70B2E2;}
	.st14{fill:#D0D8DC;}
	.st15{fill:#B0BEC5;}
	.st16{fill:#66BB6A;}
	.st17{fill:#42A047;}
	.st18{fill:#37474F;}
	.st19{fill:#263238;}
	.st20{fill:#546E7A;}
	.st21{fill:#455B65;}
	.st22{fill:#14499E;}
	.st23{fill:#2B66B1;}
	.st24{fill:#616262;}
	.st25{fill:#434343;}
	.st26{fill:#E0E0E0;}
	.st27{fill:#3374BA;}
</style>
<g id="pc">
	<rect x="568.6" y="611.2" class="st0" width="85.4" height="120.8"/>
	<rect x="638.6" y="611.2" class="st1" width="70" height="120.8"/>
	<path class="st2" d="M647.9,775.9H482c-14.2,0-25.7-11.6-25.7-25.7v0c0-14.2,11.6-25.7,25.7-25.7h165.9c14.2,0,25.7,11.6,25.7,25.7
		v0C673.6,764.3,662,775.9,647.9,775.9z"/>
	<path class="st0" d="M638.6,776.7h156.1c14.4,0,26.2-11.8,26.2-26.2v0c0-14.4-11.8-26.2-26.2-26.2H638.6V776.7z"/>
	<path class="st2" d="M718.7,628.2H190c-16.5,0-30-13.5-30-30V30c0-16.5,13.5-30,30-30h528.7c16.5,0,30,13.5,30,30v568.2
		C748.7,614.8,735.2,628.2,718.7,628.2z"/>
	<path class="st0" d="M1087.2,628.2H638.6V0h448.6c16.5,0,30,13.5,30,30v568.2C1117.2,614.8,1103.7,628.2,1087.2,628.2z"/>
	<path class="st3" d="M1042.6,599H234.6c-16.5,0-30-13.5-30-30V81.1c0-16.5,13.5-30,30-30h807.9c16.5,0,30,13.5,30,30V569
		C1072.6,585.5,1059.1,599,1042.6,599z"/>
	<rect x="204.6" y="70.9" class="st4" width="121.7" height="303.1"/>
	<path class="st5" d="M326.3,599h-91.7c-16.6,0-30-13.4-30-30V314.1h121.7V599z"/>
	<path class="st5" d="M1015.6,339.3H381.3c-16.5,0-30-13.5-30-30V143.8c0-16.5,13.5-30,30-30h634.3c16.5,0,30,13.5,30,30v165.4
		C1045.6,325.8,1032.1,339.3,1015.6,339.3z"/>
	<path class="st5" d="M674,572.9H368.3c-6.6,0-12-5.4-12-12V381.7c0-6.6,5.4-12,12-12H674c6.6,0,12,5.4,12,12v179.2
		C686,567.5,680.6,572.9,674,572.9z"/>
	<path class="st5" d="M1033.6,572.9h-313c-6.6,0-12-5.4-12-12V382.7c0-6.6,5.4-12,12-12h313c6.6,0,12,5.4,12,12v178.2
		C1045.6,567.5,1040.2,572.9,1033.6,572.9z"/>
	<circle class="st6" cx="519.7" cy="478.4" r="75.9"/>
	<path class="st7" d="M519.7,402.5v151.7c41.9,0,75.9-34,75.9-75.9C595.6,436.5,561.6,402.5,519.7,402.5z"/>
	<path class="st8" d="M573.3,424.7L466,532c29.6,29.6,77.7,29.6,107.3,0C602.9,502.4,602.9,454.3,573.3,424.7z"/>
	
		<ellipse transform="matrix(0.7071 -0.7071 0.7071 0.7071 -82.8293 756.7331)" class="st9" cx="872" cy="478.4" rx="75.9" ry="75.9"/>
	<path class="st10" d="M818.4,532l107.3-107.3c-29.6-29.6-77.7-29.6-107.3,0C788.8,454.3,788.8,502.4,818.4,532z"/>
	<path class="st11" d="M872,402.5v151.7c41.9,0,75.9-34,75.9-75.9C947.9,436.5,913.9,402.5,872,402.5z"/>
	<path class="st11" d="M1042.6,29.3H234.6c-16.5,0-30,13.5-30,30v34h867.9v-34C1072.6,42.8,1059.1,29.3,1042.6,29.3z"/>
</g>
<g id="can">
	<path class="st12" d="M1174.1,835h-251c-6.6,0-12-5.4-12-12V400.3c0-6.6,5.4-12,12-12h251c6.6,0,12,5.4,12,12V823
		C1186.1,829.6,1180.7,835,1174.1,835z"/>
	<path class="st13" d="M1134.9,835h211.7c6.6,0,12-5.4,12-12V399.4c0-6.6-5.4-12-12-12h-211.7V835z"/>
	<path class="st14" d="M1142.9,406.6H910.2c-6.6,0-12-5.4-12-12v-22.2c0-6.6,5.4-12,12-12h232.7c6.6,0,12,5.4,12,12v22.2
		C1154.9,401.2,1149.5,406.6,1142.9,406.6z"/>
	<path class="st15" d="M1134.9,406.6h223.5c6.6,0,12-5.4,12-12v-22.2c0-6.6-5.4-12-12-12h-223.5V406.6z"/>
	<path class="st16" d="M1018.4,392.8h-89.7c-11,0-20-9-20-20v-12.4h109.7c6.6,0,12,5.4,12,12v8.4
		C1030.4,387.4,1025,392.8,1018.4,392.8z"/>
	<path class="st17" d="M1292.5,379.6h45.8c8.9,0,16.2-7.3,16.2-16.2v-2.9h-62c-4.5,0-8.1,3.6-8.1,8.1v2.9
		C1284.4,376,1288.1,379.6,1292.5,379.6z"/>
	<rect x="1123.7" y="360.5" class="st17" width="201.9" height="46.2"/>
	<rect x="926.8" y="360.5" class="st16" width="207.5" height="46.2"/>
	<path class="st14" d="M1115.4,406.6h-47.7v-3.8c0-5.5,4.5-10,10-10h27.7c5.5,0,10,4.5,10,10V406.6z"/>
	<path class="st17" d="M962.7,461.4h-23.9c-6.6,0-12-5.4-12-12v-42.8h35.9c6.6,0,12,5.4,12,12v30.8
		C974.7,456,969.3,461.4,962.7,461.4z"/>
	<path class="st17" d="M957.3,451.7h90.5c11,0,20-9,20-20v-25.1H957.3c-6.6,0-12,5.4-12,12v21.1
		C945.3,446.3,950.7,451.7,957.3,451.7z"/>
	<path class="st17" d="M964.3,507.4h40c11,0,20-9,20-20v-34.8c0-6.6-5.4-12-12-12h-48c-6.6,0-12,5.4-12,12v42.8
		C952.3,502,957.7,507.4,964.3,507.4z"/>
	<path class="st17" d="M1162.4,440.5h-27c-11,0-20-9-20-20v-13.9h47V440.5z"/>
	<path class="st4" d="M1305.6,440.5h-171.4v-33.9h191.4v13.9C1325.6,431.5,1316.6,440.5,1305.6,440.5z"/>
	<path class="st4" d="M1209.9,555.4h-28.6c-11,0-20-9-20-20v-89.9c0-6.6,5.4-12,12-12h44.6c6.6,0,12,5.4,12,12v89.9
		C1229.9,546.4,1220.9,555.4,1209.9,555.4z"/>
	<path class="st4" d="M1271,581.4h-39.3c-11,0-20-9-20-20V429c0-6.6,5.4-12,12-12h55.3c6.6,0,12,5.4,12,12v132.4
		C1291,572.4,1282,581.4,1271,581.4z"/>
	<circle class="st18" cx="945.3" cy="482.9" r="29.4"/>
	<circle class="st19" cx="1325.6" cy="482.9" r="29.4"/>
	<path class="st20" d="M937.9,611.2L937.9,611.2c-6.3,0-11.5-5.2-11.5-11.5V494.4c0-6.3,5.2-11.5,11.5-11.5l0,0
		c6.3,0,11.5,5.2,11.5,11.5v105.4C949.3,606.1,944.2,611.2,937.9,611.2z"/>
	<path class="st20" d="M1150.6,611.2H938.2c-6.5,0-11.8-5.3-11.8-11.8l0,0c0-6.5,5.3-11.8,11.8-11.8h212.5c6.5,0,11.8,5.3,11.8,11.8
		l0,0C1162.4,605.9,1157.1,611.2,1150.6,611.2z"/>
	<path class="st21" d="M1134.3,611.2h197.3c6.5,0,11.8-5.3,11.8-11.8l0,0c0-6.5-5.3-11.8-11.8-11.8h-197.3V611.2z"/>
	<path class="st21" d="M1331.8,611.2L1331.8,611.2c-6.3,0-11.5-5.2-11.5-11.5V495.4c0-6.3,5.2-11.5,11.5-11.5l0,0
		c6.3,0,11.5,5.2,11.5,11.5v104.3C1343.3,606.1,1338.1,611.2,1331.8,611.2z"/>
</g>
<g id="brush">
	<path class="st22" d="M11.7,528.6L11.7,528.6c-10.7-10.7-10.7-28.3,0-39l123.8-123.8c10.7-10.7,28.3-10.7,39,0l0,0
		c10.7,10.7,10.7,28.3,0,39L50.7,528.6C40,539.4,22.4,539.4,11.7,528.6z"/>
	<path class="st23" d="M11.7,528.6L11.7,528.6c-10.7-10.7-10.7-28.3,0-39l123.8-123.8c10.7-10.7,28.3-10.7,39,0l0,0L11.7,528.6z"/>
	<path class="st24" d="M157.5,395l-45-45c-11.7-11.7-11.7-30.8,0-42.4l89.2-89.2c11.7-11.7,30.8-11.7,42.4,0l45,45
		c11.7,11.7,11.7,30.8,0,42.4L200,395C188.3,406.7,169.2,406.7,157.5,395z"/>
	<path class="st25" d="M188.4,425.9l-37-37l131.7-131.7l37,37c11.7,11.7,11.7,30.8,0,42.4l-89.2,89.2
		C219.2,437.6,200.1,437.6,188.4,425.9z"/>
	
		<rect x="113.2" y="318.1" transform="matrix(0.7071 0.7071 -0.7071 0.7071 280.1375 -20.0744)" class="st26" width="102.2" height="20.1"/>
	
		<rect x="176.2" y="371.2" transform="matrix(0.7071 0.7071 -0.7071 0.7071 333.3058 -42.0975)" class="st2" width="82.6" height="20.1"/>
	<path class="st27" d="M168.1,405.6l-55.5-55.5c-11.7-11.7-11.7-30.7,0-42.4l8.5-8.5l76.8,76.8L168.1,405.6z"/>
	<path class="st23" d="M151.4,388.9l37.2,37.2c11.7,11.7,30.7,11.7,42.4,0l8.5-8.5l-58.4-58.4L151.4,388.9z"/>
	<path class="st17" d="M243.4,358.6l8.8,8.8c10.3,10.3,27,10.3,37.3,0l33.2-33.2c10.3-10.3,10.3-27,0-37.3l-8.8-8.8
		c-10.3-10.3-27-10.3-37.3,0l-33.2,33.2C233.1,331.5,233.1,348.3,243.4,358.6z"/>
	<path class="st16" d="M178.4,272.3L178.4,272.3c-8.4-8.4-8.4-22.2,0-30.6l23.4-23.4c11.7-11.7,30.8-11.7,42.4,0l9.3,9.3L209,272.3
		C200.6,280.7,186.8,280.7,178.4,272.3z"/>
	
		<rect x="224.2" y="240" transform="matrix(0.7071 0.7071 -0.7071 0.7071 259.9254 -105.3222)" class="st16" width="65.7" height="42.2"/>
	
		<rect x="260" y="270.9" transform="matrix(0.7071 0.7071 -0.7071 0.7071 290.7808 -118.1029)" class="st17" width="56" height="42.2"/>
	<path class="st24" d="M240.9,318.1L202,279.3l20.1-20.1c3.9-3.9,10.2-3.9,14.1,0l22.3,22.3c5.3,5.3,5.3,13.8,0,19.1L240.9,318.1z"
		/>
	<path class="st25" d="M231.6,308.8l12.2,12.2l20.1-20.1c3.9-3.9,3.9-10.2,0-14.1l-5.1-5.1L231.6,308.8z"/>
</g>
</svg>
