<?xml version="1.0" encoding="utf-8"?>
<!-- Generator: Adobe Illustrator 21.1.0, SVG Export Plug-In . SVG Version: 6.00 Build 0)  -->
<svg version="1.1" id="Layer_7" xmlns="http://www.w3.org/2000/svg" xmlns:xlink="http://www.w3.org/1999/xlink" x="0px" y="0px"
	 viewBox="0 0 665.5 701.4" style="enable-background:new 0 0 665.5 701.4;" xml:space="preserve">
<style type="text/css">
	.st0{fill:#E0E0E0;}
	.st1{fill:#BDBDBD;}
	.st2{fill:#3374BA;}
	.st3{fill:#EEEEEE;}
	.st4{fill:#57A0D7;}
	.st5{fill:#2B66B1;}
	.st6{fill:#14499E;}
	.st7{fill:#E4F2FC;}
</style>
<g id="XMLID_11_">
	<g>
		<path class="st0" d="M210.4,663.6c0,6.8-5.5,12.4-12.4,12.4c-3.4,0-6.5-1.4-8.7-3.6c-2.2-2.2-3.6-5.3-3.6-8.8V582
			c0-6.8,5.6-12.4,12.4-12.4c6.8,0,12.4,5.5,12.4,12.4V663.6z"/>
		<path class="st1" d="M495.9,123.9c0-6.8,5.6-12.4,12.4-12.4c3.4,0,6.5,1.4,8.8,3.6c2.2,2.2,3.6,5.3,3.6,8.7v22.5
			c0,6.8-5.5,12.4-12.4,12.4c-6.8,0-12.4-5.5-12.4-12.4V123.9z"/>
		<path class="st1" d="M578.7,472.6h-96.4c-6.8,0-12.4-5.5-12.4-12.4c0-6.8,5.5-12.4,12.4-12.4h96.4c6.8,0,12.4,5.5,12.4,12.4
			c0,3.4-1.4,6.5-3.6,8.7C585.2,471.2,582.1,472.6,578.7,472.6z"/>
		<path class="st0" d="M109.3,628.7c6.8,0,12.4,5.5,12.4,12.4v22.5c0,6.8-5.5,12.4-12.4,12.4c-3.4,0-6.5-1.4-8.7-3.6
			c-2.2-2.2-3.6-5.3-3.6-8.8v-22.5C97,634.2,102.5,628.7,109.3,628.7z"/>
		<path class="st0" d="M118.1,115.1c2.2,2.2,3.6,5.3,3.6,8.7v22.5c0,6.8-5.5,12.4-12.4,12.4c-6.8,0-12.4-5.5-12.4-12.4v-22.5
			c0-6.8,5.6-12.4,12.4-12.4C112.8,111.5,115.9,112.9,118.1,115.1z"/>
		<path class="st1" d="M407.3,663.6V582c0-6.8,5.6-12.4,12.4-12.4c6.8,0,12.4,5.5,12.4,12.4v81.6c0,6.8-5.5,12.4-12.4,12.4
			c-3.4,0-6.5-1.4-8.7-3.6C408.7,670.1,407.3,667,407.3,663.6z"/>
		<path class="st2" d="M343.4,493.3v7.8c0,6.8-5.5,12.4-12.4,12.4c-3.4,0-6.5-1.4-8.7-3.6c-2.2-2.2-3.6-5.3-3.6-8.8v-7.8
			c0-6.8,5.6-12.4,12.4-12.4C337.8,480.9,343.4,486.5,343.4,493.3z"/>
		<path class="st0" d="M33.1,428.3c-6.8,0-12.4-5.5-12.4-12.4c0-3.4,1.4-6.5,3.6-8.8c2.2-2.2,5.3-3.6,8.8-3.6h126
			c6.8,0,12.4,5.5,12.4,12.4c0,6.8-5.5,12.4-12.4,12.4H33.1z"/>
		<path class="st0" d="M185.6,205.5v-81.6c0-6.8,5.6-12.4,12.4-12.4c3.4,0,6.5,1.4,8.8,3.6c2.2,2.2,3.6,5.3,3.6,8.7v81.6
			c0,6.8-5.5,12.4-12.4,12.4C191.2,217.9,185.6,212.4,185.6,205.5z"/>
		<path class="st1" d="M469.9,327.2c0-6.8,5.5-12.4,12.4-12.4h96.4c6.8,0,12.4,5.5,12.4,12.4c0,3.4-1.4,6.5-3.6,8.7
			c-2.2,2.2-5.3,3.6-8.8,3.6h-96.4C475.4,339.6,469.9,334.1,469.9,327.2z"/>
		<path class="st3" d="M210.4,582c0-6.8-5.5-12.4-12.4-12.4c-6.8,0-12.4,5.5-12.4,12.4v81.6c0,3.4,1.4,6.5,3.6,8.8
			c2.2,2.2,5.3,3.6,8.7,3.6c6.8,0,12.4-5.5,12.4-12.4V582z M185.6,123.9v81.6c0,6.8,5.6,12.4,12.4,12.4c6.8,0,12.4-5.5,12.4-12.4
			v-81.6c0-3.4-1.4-6.5-3.6-8.7c-2.2-2.2-5.3-3.6-8.8-3.6C191.2,111.5,185.6,117,185.6,123.9z M33.1,561.3h52.1
			c6.8,0,12.4-5.5,12.4-12.4c0-6.8-5.5-12.4-12.4-12.4H33.1c-3.4,0-6.5,1.4-8.8,3.6c-2.2,2.2-3.6,5.3-3.6,8.8
			C20.7,555.7,26.2,561.3,33.1,561.3z M33.1,516.9h81.6c6.8,0,12.4-5.5,12.4-12.4c0-6.8-5.5-12.4-12.4-12.4H33.1
			c-3.4,0-6.5,1.4-8.8,3.6c-2.2,2.2-3.6,5.3-3.6,8.8C20.7,511.4,26.2,516.9,33.1,516.9z M127.1,282.9c0-6.8-5.5-12.4-12.4-12.4H33.1
			c-3.4,0-6.5,1.4-8.8,3.6c-2.2,2.2-3.6,5.3-3.6,8.8c0,6.8,5.5,12.4,12.4,12.4h81.6C121.5,295.3,127.1,289.7,127.1,282.9z
			 M121.7,123.9c0-3.4-1.4-6.5-3.6-8.7c-2.2-2.2-5.3-3.6-8.8-3.6c-6.8,0-12.4,5.5-12.4,12.4v22.5c0,6.8,5.6,12.4,12.4,12.4
			c6.8,0,12.4-5.5,12.4-12.4V123.9z M109.3,628.7c-6.8,0-12.4,5.5-12.4,12.4v22.5c0,3.4,1.4,6.5,3.6,8.8c2.2,2.2,5.3,3.6,8.7,3.6
			c6.8,0,12.4-5.5,12.4-12.4v-22.5C121.7,634.2,116.2,628.7,109.3,628.7z M141.3,611.5v52.1c0,3.4,1.4,6.5,3.6,8.8
			c2.2,2.2,5.3,3.6,8.7,3.6c6.8,0,12.4-5.5,12.4-12.4v-52.1c0-6.8-5.5-12.4-12.4-12.4C146.9,599.1,141.3,604.7,141.3,611.5z
			 M141.3,123.9V176c0,6.8,5.6,12.4,12.4,12.4c6.8,0,12.4-5.5,12.4-12.4v-52.1c0-3.4-1.4-6.5-3.6-8.7c-2.2-2.2-5.3-3.6-8.8-3.6
			C146.9,111.5,141.3,117,141.3,123.9z M274.3,501.1c0,3.4,1.4,6.5,3.6,8.8c2.2,2.2,5.3,3.6,8.7,3.6c6.8,0,12.4-5.5,12.4-12.4v-7.8
			c0-6.8-5.5-12.4-12.4-12.4c-6.8,0-12.4,5.5-12.4,12.4V501.1z M254.7,567.2c0-6.8-5.5-12.4-12.4-12.4c-6.8,0-12.4,5.5-12.4,12.4
			v96.4c0,3.4,1.4,6.5,3.6,8.8c2.2,2.2,5.3,3.6,8.7,3.6c6.8,0,12.4-5.5,12.4-12.4V567.2z M254.7,123.9c0-3.4-1.4-6.5-3.6-8.7
			c-2.2-2.2-5.3-3.6-8.8-3.6c-6.8,0-12.4,5.5-12.4,12.4v96.4c0,6.8,5.6,12.4,12.4,12.4c6.8,0,12.4-5.5,12.4-12.4V123.9z
			 M299.1,123.9c0-3.4-1.4-6.5-3.6-8.7c-2.2-2.2-5.3-3.6-8.8-3.6c-6.8,0-12.4,5.5-12.4,12.4v126c0,6.8,5.6,12.4,12.4,12.4
			c6.8,0,12.4-5.5,12.4-12.4V123.9z M0,553.6V234.4C0,152.8,66.2,86.6,147.8,86.6h159.6v614.7H147.8C66.2,701.4,0,635.2,0,553.6z
			 M274.3,537.6v126c0,3.4,1.4,6.5,3.6,8.8c2.2,2.2,5.3,3.6,8.7,3.6c6.8,0,12.4-5.5,12.4-12.4v-126c0-6.8-5.5-12.4-12.4-12.4
			C279.8,525.3,274.3,530.8,274.3,537.6z M20.7,593.2c0,6.8,5.5,12.4,12.4,12.4h22.5c6.8,0,12.4-5.5,12.4-12.4
			c0-6.8-5.5-12.4-12.4-12.4H33.1c-3.4,0-6.5,1.4-8.8,3.6C22.1,586.7,20.7,589.8,20.7,593.2z M20.7,371.6c0,6.8,5.5,12.4,12.4,12.4
			h126c6.8,0,12.4-5.5,12.4-12.4c0-6.8-5.5-12.4-12.4-12.4h-126c-3.4,0-6.5,1.4-8.8,3.6C22.1,365.1,20.7,368.2,20.7,371.6z
			 M20.7,460.2c0,6.8,5.5,12.4,12.4,12.4h96.4c6.8,0,12.4-5.5,12.4-12.4c0-6.8-5.5-12.4-12.4-12.4H33.1c-3.4,0-6.5,1.4-8.8,3.6
			C22.1,453.7,20.7,456.8,20.7,460.2z M20.7,238.6c0,6.8,5.5,12.4,12.4,12.4h52.1c6.8,0,12.4-5.5,12.4-12.4
			c0-6.8-5.5-12.4-12.4-12.4H33.1c-3.4,0-6.5,1.4-8.8,3.6C22.1,232.1,20.7,235.2,20.7,238.6z M20.7,327.2c0,6.8,5.5,12.4,12.4,12.4
			h96.4c6.8,0,12.4-5.5,12.4-12.4c0-6.8-5.5-12.4-12.4-12.4H33.1c-3.4,0-6.5,1.4-8.8,3.6C22.1,320.7,20.7,323.8,20.7,327.2z
			 M20.7,194.3c0,6.8,5.5,12.4,12.4,12.4h22.5c6.8,0,12.4-5.5,12.4-12.4c0-6.8-5.5-12.4-12.4-12.4H33.1c-3.4,0-6.5,1.4-8.8,3.6
			C22.1,187.7,20.7,190.8,20.7,194.3z M20.7,415.9c0,6.8,5.5,12.4,12.4,12.4h126c6.8,0,12.4-5.5,12.4-12.4c0-6.8-5.5-12.4-12.4-12.4
			h-126c-3.4,0-6.5,1.4-8.8,3.6C22.1,409.4,20.7,412.5,20.7,415.9z"/>
		<path class="st0" d="M33.1,251c-6.8,0-12.4-5.5-12.4-12.4c0-3.4,1.4-6.5,3.6-8.8c2.2-2.2,5.3-3.6,8.8-3.6h52.1
			c6.8,0,12.4,5.5,12.4,12.4c0,6.8-5.5,12.4-12.4,12.4H33.1z"/>
		<path class="st1" d="M578.7,428.3h-126c-6.8,0-12.4-5.5-12.4-12.4c0-6.8,5.5-12.4,12.4-12.4h126c6.8,0,12.4,5.5,12.4,12.4
			c0,3.4-1.4,6.5-3.6,8.7C585.2,426.9,582.1,428.3,578.7,428.3z"/>
		<path class="st0" d="M277.9,672.4c-2.2-2.2-3.6-5.3-3.6-8.8v-126c0-6.8,5.6-12.4,12.4-12.4c6.8,0,12.4,5.5,12.4,12.4v126
			c0,6.8-5.5,12.4-12.4,12.4C283.3,676,280.2,674.6,277.9,672.4z"/>
		<path class="st0" d="M343.4,501.1v-7.8c0-6.8-5.5-12.4-12.4-12.4c-6.8,0-12.4,5.5-12.4,12.4v7.8c0,3.4,1.4,6.5,3.6,8.8
			c2.2,2.2,5.3,3.6,8.7,3.6C337.8,513.4,343.4,507.9,343.4,501.1z M343.4,123.9c0-3.4-1.4-6.5-3.6-8.7c-2.2-2.2-5.3-3.6-8.8-3.6
			c-6.8,0-12.4,5.5-12.4,12.4v126c0,6.8,5.6,12.4,12.4,12.4c6.8,0,12.4-5.5,12.4-12.4V123.9z M343.4,537.6c0-6.8-5.5-12.4-12.4-12.4
			c-6.8,0-12.4,5.5-12.4,12.4v126c0,3.4,1.4,6.5,3.6,8.8c2.2,2.2,5.3,3.6,8.7,3.6c6.8,0,12.4-5.5,12.4-12.4V537.6z M526.6,561.3
			h52.1c3.4,0,6.5-1.4,8.8-3.6c2.2-2.2,3.6-5.3,3.6-8.7c0-6.8-5.5-12.4-12.4-12.4h-52.1c-6.8,0-12.4,5.5-12.4,12.4
			C514.2,555.7,519.8,561.3,526.6,561.3z M452.7,428.3h126c3.4,0,6.5-1.4,8.8-3.6c2.2-2.2,3.6-5.3,3.6-8.7c0-6.8-5.5-12.4-12.4-12.4
			h-126c-6.8,0-12.4,5.5-12.4,12.4C440.4,422.7,445.9,428.3,452.7,428.3z M482.3,314.9c-6.8,0-12.4,5.5-12.4,12.4
			c0,6.8,5.5,12.4,12.4,12.4h96.4c3.4,0,6.5-1.4,8.8-3.6c2.2-2.2,3.6-5.3,3.6-8.7c0-6.8-5.5-12.4-12.4-12.4H482.3z M451.6,611.5
			v52.1c0,3.4,1.4,6.5,3.6,8.8c2.2,2.2,5.3,3.6,8.7,3.6c6.8,0,12.4-5.5,12.4-12.4v-52.1c0-6.8-5.5-12.4-12.4-12.4
			C457.2,599.1,451.6,604.7,451.6,611.5z M451.6,123.9V176c0,6.8,5.6,12.4,12.4,12.4c6.8,0,12.4-5.5,12.4-12.4v-52.1
			c0-3.4-1.4-6.5-3.6-8.7c-2.2-2.2-5.3-3.6-8.8-3.6C457.2,111.5,451.6,117,451.6,123.9z M440.4,371.6c0,6.8,5.5,12.4,12.4,12.4h126
			c3.4,0,6.5-1.4,8.8-3.6c2.2-2.2,3.6-5.3,3.6-8.7c0-6.8-5.5-12.4-12.4-12.4h-126C445.9,359.2,440.4,364.7,440.4,371.6z
			 M556.2,181.9c-6.8,0-12.4,5.5-12.4,12.4c0,6.8,5.5,12.4,12.4,12.4h22.5c3.4,0,6.5-1.4,8.8-3.6c2.2-2.2,3.6-5.3,3.6-8.7
			c0-6.8-5.5-12.4-12.4-12.4H556.2z M497.1,516.9h81.6c3.4,0,6.5-1.4,8.8-3.6c2.2-2.2,3.6-5.3,3.6-8.7c0-6.8-5.5-12.4-12.4-12.4
			h-81.6c-6.8,0-12.4,5.5-12.4,12.4C484.7,511.4,490.2,516.9,497.1,516.9z M526.6,226.2c-6.8,0-12.4,5.5-12.4,12.4
			c0,6.8,5.5,12.4,12.4,12.4h52.1c3.4,0,6.5-1.4,8.8-3.6c2.2-2.2,3.6-5.3,3.6-8.7c0-6.8-5.5-12.4-12.4-12.4H526.6z M508.3,628.7
			c-6.8,0-12.4,5.5-12.4,12.4v22.5c0,3.4,1.4,6.5,3.6,8.8c2.2,2.2,5.3,3.6,8.7,3.6c6.8,0,12.4-5.5,12.4-12.4v-22.5
			C520.7,634.2,515.2,628.7,508.3,628.7z M508.3,111.5c-6.8,0-12.4,5.5-12.4,12.4v22.5c0,6.8,5.6,12.4,12.4,12.4
			c6.8,0,12.4-5.5,12.4-12.4v-22.5c0-3.4-1.4-6.5-3.6-8.7C514.8,112.9,511.8,111.5,508.3,111.5z M482.3,472.6h96.4
			c3.4,0,6.5-1.4,8.8-3.6c2.2-2.2,3.6-5.3,3.6-8.7c0-6.8-5.5-12.4-12.4-12.4h-96.4c-6.8,0-12.4,5.5-12.4,12.4
			C469.9,467.1,475.4,472.6,482.3,472.6z M497.1,270.5c-6.8,0-12.4,5.5-12.4,12.4c0,6.8,5.5,12.4,12.4,12.4h81.6
			c3.4,0,6.5-1.4,8.8-3.6c2.2-2.2,3.6-5.3,3.6-8.7c0-6.8-5.5-12.4-12.4-12.4H497.1z M407.3,582v81.6c0,3.4,1.4,6.5,3.6,8.8
			c2.2,2.2,5.3,3.6,8.7,3.6c6.8,0,12.4-5.5,12.4-12.4V582c0-6.8-5.5-12.4-12.4-12.4C412.8,569.6,407.3,575.1,407.3,582z
			 M407.3,123.9v81.6c0,6.8,5.6,12.4,12.4,12.4c6.8,0,12.4-5.5,12.4-12.4v-81.6c0-3.4-1.4-6.5-3.6-8.7c-2.2-2.2-5.3-3.6-8.8-3.6
			C412.8,111.5,407.3,117,407.3,123.9z M307.4,86.6H467c81.6,0,147.8,66.2,147.8,147.8v319.2c0,81.6-66.2,147.8-147.8,147.8H307.4
			V86.6z M363,567.2v96.4c0,3.4,1.4,6.5,3.6,8.8c2.2,2.2,5.3,3.6,8.7,3.6c6.8,0,12.4-5.5,12.4-12.4v-96.4c0-6.8-5.5-12.4-12.4-12.4
			C368.5,554.8,363,560.4,363,567.2z M363,123.9v96.4c0,6.8,5.6,12.4,12.4,12.4c6.8,0,12.4-5.5,12.4-12.4v-96.4
			c0-3.4-1.4-6.5-3.6-8.7c-2.2-2.2-5.3-3.6-8.8-3.6C368.5,111.5,363,117,363,123.9z M591.1,593.2c0-6.8-5.5-12.4-12.4-12.4h-22.5
			c-6.8,0-12.4,5.5-12.4,12.4c0,6.8,5.5,12.4,12.4,12.4h22.5c3.4,0,6.5-1.4,8.8-3.6C589.7,599.7,591.1,596.6,591.1,593.2z"/>
		<path class="st0" d="M33.1,472.6c-6.8,0-12.4-5.5-12.4-12.4c0-3.4,1.4-6.5,3.6-8.8c2.2-2.2,5.3-3.6,8.8-3.6h96.4
			c6.8,0,12.4,5.5,12.4,12.4c0,6.8-5.5,12.4-12.4,12.4H33.1z"/>
		<path class="st0" d="M299.1,123.9v126c0,6.8-5.5,12.4-12.4,12.4c-6.8,0-12.4-5.5-12.4-12.4v-126c0-6.8,5.6-12.4,12.4-12.4
			c3.4,0,6.5,1.4,8.8,3.6C297.7,117.4,299.1,120.5,299.1,123.9z"/>
		<path class="st0" d="M85.1,561.3H33.1c-6.8,0-12.4-5.5-12.4-12.4c0-3.4,1.4-6.5,3.6-8.8c2.2-2.2,5.3-3.6,8.8-3.6h52.1
			c6.8,0,12.4,5.5,12.4,12.4C97.5,555.7,92,561.3,85.1,561.3z"/>
		<path class="st0" d="M33.1,206.6c-6.8,0-12.4-5.5-12.4-12.4c0-3.4,1.4-6.5,3.6-8.8c2.2-2.2,5.3-3.6,8.8-3.6h22.5
			c6.8,0,12.4,5.5,12.4,12.4c0,6.8-5.5,12.4-12.4,12.4H33.1z"/>
		<path class="st0" d="M33.1,383.9c-6.8,0-12.4-5.5-12.4-12.4c0-3.4,1.4-6.5,3.6-8.8c2.2-2.2,5.3-3.6,8.8-3.6h126
			c6.8,0,12.4,5.5,12.4,12.4c0,6.8-5.5,12.4-12.4,12.4H33.1z"/>
		<path class="st0" d="M254.7,663.6c0,6.8-5.5,12.4-12.4,12.4c-3.4,0-6.5-1.4-8.7-3.6c-2.2-2.2-3.6-5.3-3.6-8.8v-96.4
			c0-6.8,5.6-12.4,12.4-12.4c6.8,0,12.4,5.5,12.4,12.4V663.6z"/>
		<path class="st1" d="M578.7,561.3h-52.1c-6.8,0-12.4-5.5-12.4-12.4c0-6.8,5.5-12.4,12.4-12.4h52.1c6.8,0,12.4,5.5,12.4,12.4
			c0,3.4-1.4,6.5-3.6,8.7C585.2,559.9,582.1,561.3,578.7,561.3z"/>
		<path class="st1" d="M363,567.2c0-6.8,5.6-12.4,12.4-12.4c6.8,0,12.4,5.5,12.4,12.4v96.4c0,6.8-5.5,12.4-12.4,12.4
			c-3.4,0-6.5-1.4-8.7-3.6c-2.2-2.2-3.6-5.3-3.6-8.8V567.2z"/>
		<path class="st1" d="M514.2,238.6c0-6.8,5.5-12.4,12.4-12.4h52.1c6.8,0,12.4,5.5,12.4,12.4c0,3.4-1.4,6.5-3.6,8.7
			c-2.2,2.2-5.3,3.6-8.8,3.6h-52.1C519.8,251,514.2,245.4,514.2,238.6z"/>
		<path class="st1" d="M484.7,282.9c0-6.8,5.5-12.4,12.4-12.4h81.6c6.8,0,12.4,5.5,12.4,12.4c0,3.4-1.4,6.5-3.6,8.7
			c-2.2,2.2-5.3,3.6-8.8,3.6h-81.6C490.2,295.3,484.7,289.7,484.7,282.9z"/>
		<path class="st0" d="M141.3,176v-52.1c0-6.8,5.6-12.4,12.4-12.4c3.4,0,6.5,1.4,8.8,3.6c2.2,2.2,3.6,5.3,3.6,8.7V176
			c0,6.8-5.5,12.4-12.4,12.4C146.9,188.3,141.3,182.8,141.3,176z"/>
		<path class="st1" d="M343.4,663.6c0,6.8-5.5,12.4-12.4,12.4c-3.4,0-6.5-1.4-8.7-3.6c-2.2-2.2-3.6-5.3-3.6-8.8v-126
			c0-6.8,5.6-12.4,12.4-12.4c6.8,0,12.4,5.5,12.4,12.4V663.6z"/>
		<path class="st0" d="M141.3,611.5c0-6.8,5.6-12.4,12.4-12.4c6.8,0,12.4,5.5,12.4,12.4v52.1c0,6.8-5.5,12.4-12.4,12.4
			c-3.4,0-6.5-1.4-8.7-3.6c-2.2-2.2-3.6-5.3-3.6-8.8V611.5z"/>
		<path class="st1" d="M451.6,611.5c0-6.8,5.6-12.4,12.4-12.4c6.8,0,12.4,5.5,12.4,12.4v52.1c0,6.8-5.5,12.4-12.4,12.4
			c-3.4,0-6.5-1.4-8.7-3.6c-2.2-2.2-3.6-5.3-3.6-8.8V611.5z"/>
		<path class="st0" d="M33.1,295.3c-6.8,0-12.4-5.5-12.4-12.4c0-3.4,1.4-6.5,3.6-8.8c2.2-2.2,5.3-3.6,8.8-3.6h81.6
			c6.8,0,12.4,5.5,12.4,12.4c0,6.8-5.5,12.4-12.4,12.4H33.1z"/>
		<path class="st1" d="M495.9,663.6v-22.5c0-6.8,5.6-12.4,12.4-12.4c6.8,0,12.4,5.5,12.4,12.4v22.5c0,6.8-5.5,12.4-12.4,12.4
			c-3.4,0-6.5-1.4-8.7-3.6C497.3,670.1,495.9,667,495.9,663.6z"/>
		<path class="st0" d="M230,220.3v-96.4c0-6.8,5.6-12.4,12.4-12.4c3.4,0,6.5,1.4,8.8,3.6c2.2,2.2,3.6,5.3,3.6,8.7v96.4
			c0,6.8-5.5,12.4-12.4,12.4C235.5,232.7,230,227.1,230,220.3z"/>
		<path class="st1" d="M578.7,580.9c6.8,0,12.4,5.5,12.4,12.4c0,3.4-1.4,6.5-3.6,8.7c-2.2,2.2-5.3,3.6-8.8,3.6h-22.5
			c-6.8,0-12.4-5.5-12.4-12.4c0-6.8,5.5-12.4,12.4-12.4H578.7z"/>
		<path class="st1" d="M343.4,123.9v126c0,6.8-5.5,12.4-12.4,12.4c-6.8,0-12.4-5.5-12.4-12.4v-126c0-6.8,5.6-12.4,12.4-12.4
			c3.4,0,6.5,1.4,8.8,3.6C342,117.4,343.4,120.5,343.4,123.9z"/>
		<path class="st1" d="M543.8,194.3c0-6.8,5.5-12.4,12.4-12.4h22.5c6.8,0,12.4,5.5,12.4,12.4c0,3.4-1.4,6.5-3.6,8.7
			c-2.2,2.2-5.3,3.6-8.8,3.6h-22.5C549.3,206.6,543.8,201.1,543.8,194.3z"/>
		<path class="st1" d="M407.3,123.9c0-6.8,5.6-12.4,12.4-12.4c3.4,0,6.5,1.4,8.8,3.6c2.2,2.2,3.6,5.3,3.6,8.7v81.6
			c0,6.8-5.5,12.4-12.4,12.4c-6.8,0-12.4-5.5-12.4-12.4V123.9z"/>
		<path class="st1" d="M452.7,383.9c-6.8,0-12.4-5.5-12.4-12.4c0-6.8,5.5-12.4,12.4-12.4h126c6.8,0,12.4,5.5,12.4,12.4
			c0,3.4-1.4,6.5-3.6,8.7c-2.2,2.2-5.3,3.6-8.8,3.6H452.7z"/>
		<path class="st0" d="M33.1,516.9c-6.8,0-12.4-5.5-12.4-12.4c0-3.4,1.4-6.5,3.6-8.8c2.2-2.2,5.3-3.6,8.8-3.6h81.6
			c6.8,0,12.4,5.5,12.4,12.4c0,6.8-5.5,12.4-12.4,12.4H33.1z"/>
		<path class="st1" d="M451.6,123.9c0-6.8,5.6-12.4,12.4-12.4c3.4,0,6.5,1.4,8.8,3.6c2.2,2.2,3.6,5.3,3.6,8.7V176
			c0,6.8-5.5,12.4-12.4,12.4c-6.8,0-12.4-5.5-12.4-12.4V123.9z"/>
		<path class="st0" d="M33.1,339.6c-6.8,0-12.4-5.5-12.4-12.4c0-3.4,1.4-6.5,3.6-8.8c2.2-2.2,5.3-3.6,8.8-3.6h96.4
			c6.8,0,12.4,5.5,12.4,12.4c0,6.8-5.5,12.4-12.4,12.4H33.1z"/>
		<path class="st1" d="M578.7,516.9h-81.6c-6.8,0-12.4-5.5-12.4-12.4c0-6.8,5.5-12.4,12.4-12.4h81.6c6.8,0,12.4,5.5,12.4,12.4
			c0,3.4-1.4,6.5-3.6,8.7C585.2,515.6,582.1,516.9,578.7,516.9z"/>
		<path class="st1" d="M363,220.3v-96.4c0-6.8,5.6-12.4,12.4-12.4c3.4,0,6.5,1.4,8.8,3.6c2.2,2.2,3.6,5.3,3.6,8.7v96.4
			c0,6.8-5.5,12.4-12.4,12.4C368.5,232.7,363,227.1,363,220.3z"/>
		<path class="st4" d="M274.3,501.1v-7.8c0-6.8,5.6-12.4,12.4-12.4c6.8,0,12.4,5.5,12.4,12.4v7.8c0,6.8-5.5,12.4-12.4,12.4
			c-3.4,0-6.5-1.4-8.7-3.6C275.7,507.6,274.3,504.5,274.3,501.1z"/>
		<path class="st0" d="M33.1,605.6c-6.8,0-12.4-5.5-12.4-12.4c0-3.4,1.4-6.5,3.6-8.8c2.2-2.2,5.3-3.6,8.8-3.6h22.5
			c6.8,0,12.4,5.5,12.4,12.4c0,6.8-5.5,12.4-12.4,12.4H33.1z"/>
	</g>
	<g>
	</g>
</g>
<g>
	<g>
		<g>
			<path class="st5" d="M531.9,370.3l-24.3-59.5l-34.7,54.1c-1.6-0.1-3-1.1-4-2.4c-1-1.3-1.5-3.1-1.3-5l7.8-85.3l7.8-85.3
				c0.2-1.9,1-3.5,2.2-4.7s2.7-1.8,4.3-1.6l29.5,2.7l29.5,2.7c1.6,0.1,3,1.1,4,2.4c1,1.3,1.5,3.1,1.3,5l-7.8,85.3l-7.8,85.3
				c-0.2,1.9-1,3.5-2.2,4.7C535,369.8,533.5,370.5,531.9,370.3z"/>
			<path class="st6" d="M619.1,361.3l-39.2-50.9l-19,61.4c-1.6,0.3-3.2-0.2-4.5-1.2s-2.2-2.6-2.6-4.5l-15.2-84.3l-15.2-84.3
				c-0.3-1.9,0-3.7,0.9-5.1c0.8-1.4,2.2-2.4,3.8-2.7l29.1-5.2l29.1-5.2c1.6-0.3,3.2,0.2,4.5,1.2c1.3,1,2.2,2.6,2.6,4.5l15.2,84.3
				l15.2,84.3c0.3,1.9,0,3.7-0.9,5.1C622.1,360,620.7,361,619.1,361.3z"/>
		</g>
		<g>
			<polygon class="st2" points="657.1,134.5 665.5,119.8 657.1,105.1 661.5,88.8 649.5,76.8 649.5,59.9 634.8,51.4 630.5,35.1 
				614.1,30.7 605.6,16.1 588.7,16.1 576.7,4.1 560.4,8.5 545.7,0 531.1,8.5 514.7,4.1 502.8,16.1 485.8,16.1 477.4,30.7 461,35.1 
				456.6,51.4 442,59.9 442,76.8 430,88.8 434.4,105.1 425.9,119.8 434.4,134.5 430,150.8 442,162.8 442,179.7 456.6,188.2 
				461,204.5 477.4,208.9 485.8,223.6 502.8,223.6 514.7,235.5 531.1,231.2 545.7,239.6 560.4,231.2 576.7,235.5 588.7,223.6 
				605.6,223.6 614.1,208.9 630.5,204.5 634.8,188.2 649.5,179.7 649.5,162.8 661.5,150.8 			"/>
			<polygon class="st7" points="638.2,132 645.2,119.8 638.2,107.6 641.8,94.1 631.9,84.1 631.9,70.1 619.7,63 616.1,49.5 
				602.5,45.8 595.5,33.7 581.4,33.7 571.5,23.7 557.9,27.4 545.7,20.3 533.6,27.4 520,23.7 510.1,33.7 496,33.7 489,45.8 
				475.4,49.5 471.8,63 459.6,70.1 459.6,84.1 449.7,94.1 453.3,107.6 446.3,119.8 453.3,132 449.7,145.6 459.6,155.5 459.6,169.5 
				471.8,176.6 475.4,190.1 489,193.8 496,205.9 510.1,205.9 520,215.9 533.6,212.2 545.7,219.3 557.9,212.2 571.5,215.9 
				581.4,205.9 595.5,205.9 602.5,193.8 616.1,190.1 619.7,176.6 631.9,169.5 631.9,155.5 641.8,145.6 			"/>
		</g>
	</g>
	<g>
		<path class="st2" d="M596.6,175.1h-52.9v-6.6c2.5-1.1,5.1-2.1,7.7-3c2.6-0.9,5.2-1.6,7.9-2.2V93.2l0.6-9c-2.9,0.9-5.8,1.5-8.9,1.8
			c-3.1,0.3-6.2,0.4-9.5,0.3l-0.8-5.7c5.4-1.4,11.3-3.4,17.7-5.8c6.4-2.4,12.3-5.3,17.7-8.6h5.2v97.1c2.5,0.6,5.1,1.4,7.6,2.2
			c2.5,0.9,5.1,1.9,7.6,3V175.1z"/>
	</g>
	<g>
		<path class="st2" d="M510.5,99.2h-10.9l-0.2,13.5h-6.2l0.2-13.5h-7.1l0.4-5.5h6.8l0.1-11h-6.8l0.4-5.5h6.5l0.2-13.6h6.2l-0.1,13.6
			h10.9l0.2-13.6h6.2l-0.2,13.6h6.9l-0.7,5.5h-6.4l-0.1,11h6.7l-0.7,5.5h-6.1l-0.2,13.5h-6.2L510.5,99.2z M499.6,93.7h10.9l0.1-11
			h-10.9L499.6,93.7z"/>
	</g>
</g>
</svg>
