<?xml version="1.0" encoding="utf-8"?>
<!-- Generator: Adobe Illustrator 21.1.0, SVG Export Plug-In . SVG Version: 6.00 Build 0)  -->
<svg version="1.1" id="Layer_4" xmlns="http://www.w3.org/2000/svg" xmlns:xlink="http://www.w3.org/1999/xlink" x="0px" y="0px"
	 viewBox="0 0 1920 1080" style="enable-background:new 0 0 1920 1080;" xml:space="preserve">
<style type="text/css">
	.st0{fill:#0789BC;}
	.st1{fill:#EF4870;}
	.st2{fill:#273339;}
	.st3{fill:#15AC5B;}
	.st4{fill:#FFD168;}
	.st5{fill:#902E57;}
</style>
<g>
	<path class="st0" d="M1490.5,394l-197.2,197.2l-206.7-206.7c-4.7-4.7-12.3-4.7-17,0l-15.8,15.8L890.5,236.8v30l163.4,163.4
		l15.8-15.8c4.7-4.7,12.3-4.7,17,0l206.7,206.7l6.5-6.5c0.1-0.1,0.1-0.1,0.2-0.2L1490.5,424V394z"/>
	<path class="st1" d="M1490.5,566.3l-20-20c-4.7-4.7-12.3-4.7-17,0l-15.8,15.8l-163.9-163.9c-4.7-4.7-12.3-4.7-17,0l-162.3,162.3
		l-64.8-64.8c-4.7-4.7-12.3-4.7-17,0L890.5,618v30l122.3-122.3c4.7-4.7,12.3-4.7,17,0l64.8,64.8l162.3-162.3c4.7-4.7,12.3-4.7,17,0
		l163.9,163.9l15.8-15.8c4.7-4.7,12.3-4.7,17,0l20,20V566.3z"/>
	<path class="st2" d="M900.5,743.9L900.5,743.9c-5.5,0-10-4.5-10-10v-580c0-5.5,4.5-10,10-10l0,0c5.5,0,10,4.5,10,10v580
		C910.5,739.4,906,743.9,900.5,743.9z"/>
	<path class="st2" d="M890.5,733.9L890.5,733.9c0-5.5,4.5-10,10-10h580c5.5,0,10,4.5,10,10v0c0,5.5-4.5,10-10,10h-580
		C895,743.9,890.5,739.4,890.5,733.9z"/>
	<g>
		<path class="st3" d="M1035,517.9c-58.6-162.1-237.5-245.9-399.6-187.3c-22.4,8.1-43.4,18.6-62.7,30.9l0.8,1.2
			c-0.1,0-0.1,0.1-0.2,0.1l5.4,8.4c-92.3,59.1-134.9,176.1-96,283.5c25.2,69.7,59.5,114.6,106.6,132.7c-25.2-23.4-45.3-53-57.8-87.5
			c-42-116,18.1-244.1,134.1-286c116-42,244.1,18.1,286,134.1c36.2,100.1-3.6,209.2-89.7,264.2l15.3,23.9
			c-136,87.2-314,55.6-412.5-68.1c71,136.9,234.1,203.3,383,149.4C1009.7,858.8,1093.6,679.9,1035,517.9z"/>
		<path class="st0" d="M876.7,834.7c-0.1,0-0.1,0.1-0.2,0.1l-5.9-9.1c-14.8,9.4-30.8,17.4-47.9,23.6
			c-124.6,45.1-262.1-19.4-307.1-144c-38.8-107.4,3.7-224.4,96-283.5l-5.4-8.4c0.1,0,0.1-0.1,0.2-0.1l-33.3-51.9
			c-145.1,93-187.2,286.1-94.2,431.1S765,979.7,910,886.7L876.7,834.7z"/>
		<path class="st4" d="M771.3,313.3C599.8,296.9,447.4,422.7,431,594.2l11.1,1.1c0,0,0,0,0,0l87.6,9.6
			c4.9-79.6,68.6-152.5,148.4-181.4c107.1-38.7,225.3,16.7,264,123.8c11.6,32.1,14.8,65.2,10.6,96.9l88.5,8.5c0,0,0,0,0,0l11.1,1.1
			C1068.6,482.1,942.9,329.7,771.3,313.3z"/>
		<path class="st5" d="M794.8,424l27-101.6C786,312.9,749.9,310,715,313l0-0.5c-161.8,13.9-284.2,148.9-285.4,308.2
			c0,1.1,0,2.3,0,3.4c0,0.9,0,1.9,0,2.8c1.2,137,93.1,261.8,231.9,298.7l0.1-0.5c33.8,9,69.7,12.4,106.6,9.2l-8.9-104.1
			c-24.1,2.1-48-0.1-70.8-6.2l0,0c-1.8-0.5-3.7-1-5.5-1.6c-0.3-0.1-0.6-0.2-0.9-0.3c-1.8-0.5-3.5-1.1-5.2-1.6c0,0-0.1,0-0.1,0
			c-1.8-0.6-3.7-1.2-5.5-1.9c-0.2-0.1-0.5-0.2-0.7-0.3c-1.7-0.6-3.4-1.3-5.1-1.9c-0.1,0-0.2-0.1-0.3-0.1c-1.8-0.7-3.6-1.5-5.4-2.2
			c-0.2-0.1-0.4-0.2-0.6-0.2c-1.7-0.7-3.3-1.5-4.9-2.2c-0.1-0.1-0.3-0.1-0.4-0.2c-1.8-0.8-3.5-1.7-5.2-2.5c-0.1-0.1-0.3-0.1-0.4-0.2
			c-1.6-0.8-3.2-1.7-4.8-2.5c-0.2-0.1-0.4-0.2-0.5-0.3c-1.7-0.9-3.4-1.9-5.1-2.9c-0.1,0-0.1-0.1-0.2-0.1c-1.6-0.9-3.2-1.9-4.7-2.8
			c-0.2-0.1-0.4-0.3-0.6-0.4c-3.3-2-6.5-4.1-9.6-6.3c-0.2-0.2-0.5-0.3-0.7-0.5c-3.1-2.2-6.2-4.5-9.2-6.9c-0.2-0.2-0.5-0.4-0.7-0.6
			c-3-2.4-5.9-4.8-8.7-7.4c-0.2-0.2-0.5-0.4-0.7-0.7c-2.8-2.5-5.6-5.2-8.2-7.9c-0.2-0.2-0.5-0.5-0.7-0.7c-1.2-1.3-2.5-2.5-3.7-3.8
			c-0.1-0.1-0.2-0.2-0.3-0.3c-1.3-1.4-2.6-2.8-3.8-4.2c-0.2-0.3-0.5-0.6-0.7-0.8c-1.1-1.3-2.2-2.5-3.3-3.8c-0.2-0.2-0.3-0.4-0.5-0.6
			c-1.2-1.5-2.4-2.9-3.5-4.4c-0.2-0.3-0.4-0.6-0.7-0.9c-1-1.3-2-2.6-2.9-3.9c-0.2-0.3-0.4-0.5-0.6-0.8c-1.1-1.5-2.2-3.1-3.2-4.6
			c-0.2-0.3-0.4-0.6-0.6-0.9c-0.9-1.3-1.8-2.7-2.6-4c-0.2-0.3-0.4-0.7-0.7-1c-1-1.6-2-3.2-3-4.8c-0.2-0.3-0.3-0.6-0.5-0.8
			c-0.8-1.4-1.6-2.8-2.4-4.2c-0.2-0.4-0.4-0.8-0.7-1.2c-0.9-1.7-1.8-3.3-2.7-5c-0.1-0.2-0.2-0.5-0.4-0.7c-0.8-1.5-1.5-3-2.2-4.5
			c-0.2-0.4-0.4-0.9-0.6-1.3c-0.8-1.7-1.6-3.5-2.4-5.2c-0.1-0.2-0.1-0.3-0.2-0.5c-0.7-1.6-1.4-3.3-2-4.9c-0.2-0.5-0.4-0.9-0.6-1.4
			c-0.7-1.8-1.4-3.6-2.1-5.5c-38.9-107.5,16.7-226.1,124.2-265c2-0.7,4-1.4,6-2c0.3-0.1,0.6-0.2,1-0.3c1.9-0.6,3.9-1.2,5.8-1.8
			c0.3-0.1,0.6-0.2,0.9-0.3c4.2-1.2,8.4-2.3,12.6-3.2c0.1,0,0.1,0,0.2,0c2.2-0.5,4.3-0.9,6.5-1.3c0.1,0,0.1,0,0.2,0
			c6.6-1.2,13.2-2.1,19.8-2.7v0C748.1,415.7,772,417.9,794.8,424z"/>
	</g>
</g>
</svg>
