<?xml version="1.0" encoding="utf-8"?>
<!-- Generator: Adobe Illustrator 21.1.0, SVG Export Plug-In . SVG Version: 6.00 Build 0)  -->
<svg version="1.1" xmlns="http://www.w3.org/2000/svg" xmlns:xlink="http://www.w3.org/1999/xlink" x="0px" y="0px"
	 viewBox="0 0 875 290.8" style="enable-background:new 0 0 875 290.8;" xml:space="preserve">
<style type="text/css">
	.st0{fill:#3374BA;}
	.st1{fill:#14499E;}
	.st2{fill:#BDBDBD;}
	.st3{fill:#757576;}
	.st4{fill:#E0E0E0;}
	.st5{fill:#EEEEEE;}
	.st6{fill:#1FA153;}
	.st7{fill:#20AD5C;}
	.st8{fill:#F2D8C2;}
	.st9{fill:#F8DFC5;}
	.st10{fill:#4E352E;}
	.st11{fill:#3E2723;}
	.st12{fill:#010101;}
	.st13{fill:#212121;}
	.st14{opacity:0.5;fill:#FFFFFF;}
	.st15{fill:#F4C5BE;}
	.st16{fill:#F280AA;}
	.st17{fill:#FFFFFF;}
	.st18{fill:#EE4481;}
	.st19{fill:#F5F5F5;}
	.st20{fill:#F0B6AF;}
	.st21{fill:#E6CDBB;}
	.st22{fill:#D0D8DC;}
	.st23{font-family:'OpenSans';}
	.st24{font-size:48px;}
</style>
<g id="Layer_3">
	<circle class="st0" cx="145.4" cy="145.4" r="145.4"/>
	<path class="st1" d="M145.4,0v290.8c80.3,0,145.4-65.1,145.4-145.4S225.7,0,145.4,0z"/>
	<path class="st2" d="M145.8,222.9c-0.1,0-0.2,0-0.3,0c-28.2,0-51.1,6.5-51.1,14.4c0,0.5,0.1,1,0.3,1.5h0c6.6-3.1,13.9-4.8,21.5-4.8
		h13.4h15.9h17.7h15c6.8,0,13.1,1.4,18.9,3.8c0-0.2,0-0.4,0-0.6C197.1,229.4,174.1,222.9,145.8,222.9z"/>
	<path class="st3" d="M197.1,237.4c0,0.2,0,0.4,0,0.6c-5.7-2.5-12.1-3.8-18.9-3.8h-15h-17.7v-11.2c0.1,0,0.2,0,0.3,0
		C174.1,222.9,197.1,229.4,197.1,237.4z"/>
	<path class="st3" d="M200.2,239.4c11,5.7,19.4,15.8,23.6,28.4c3.5-2.2,6.8-4.6,10.1-7.1C224,248.8,212.5,241.2,200.2,239.4z"/>
	<path class="st2" d="M94.3,239c-14.2,0-27.3,7.7-38.5,20.9c3.8,3,7.7,5.7,11.8,8.3C72.4,255.1,82.2,244.8,94.3,239z"/>
	<path class="st4" d="M94.6,239c-0.1,0-0.2,0-0.3,0h0c-12.1,5.7-21.9,16.1-26.7,29.2c5.3,3.4,10.9,6.4,16.6,9.1
		c0.2-2.3,0.4-4.6,0.7-6.9C86.6,257,89.6,245.9,94.6,239z"/>
	<path class="st5" d="M129.7,234.1h-13.4c-7.6,0-14.9,1.7-21.5,4.8c0,0.1,0,0.1,0.1,0.2c0,0-0.1,0-0.1,0c-0.1,0-0.1,0-0.1,0
		c-4.9,6.9-8,18-9.6,31.4c-0.3,2.2-0.5,4.5-0.7,6.9c5.5,2.5,11.1,4.8,16.9,6.6c0.4-14.5,4-27.2,9.3-36.1
		C115.7,239.2,122.5,234.1,129.7,234.1z"/>
	<path class="st6" d="M181.4,247.7c-0.4-0.7-0.8-1.4-1.2-2c-0.7-1.1-1.4-2.1-2.2-3.1c-4.2-5.4-9.3-8.5-14.9-8.5h-17.7h-15.9
		c-7.1,0-13.9,5.1-19.1,13.7c-5.3,8.9-8.9,21.5-9.3,36.1c13.9,4.4,28.8,6.8,44.2,6.8c0,0,0.1,0,0.1,0c15.5,0,30.3-2.4,44.3-6.9
		C189.5,269.3,186.3,256.6,181.4,247.7z"/>
	<path class="st4" d="M197.9,239.2c-0.4-0.1-0.8-0.1-1.2-0.1c0.2-0.4,0.3-0.8,0.3-1.2c-5.7-2.5-12.1-3.8-18.9-3.8h-15
		c5.6,0,10.7,3.1,14.9,8.5c0.8,1,1.5,2,2.2,3.1c0.8,0.5,1.7,1.1,2.5,1.6c-0.4,0.1-0.9,0.2-1.3,0.4c4.9,8.9,8.1,21.5,8.4,36.1
		c6.1-2,12.1-4.3,17.8-7.1c0,0,0-0.1,0-0.1C206.2,260.7,203.2,247.4,197.9,239.2z"/>
	<path class="st2" d="M200.2,239.4c-0.8-0.1-1.5-0.2-2.3-0.3c5.3,8.2,8.4,21.6,9.8,37.5c0,0,0,0,0,0.1c2.7-1.3,5.3-2.6,7.9-4
		c0.2-0.1,0.5-0.3,0.7-0.4c1-0.6,2-1.1,3-1.7c0.3-0.2,0.6-0.3,0.9-0.5c1.2-0.7,2.4-1.5,3.6-2.2c0,0,0,0,0,0
		C219.5,255.2,211.1,245.2,200.2,239.4z"/>
	<path class="st7" d="M145.5,234.1h-15.9c-7.1,0-13.9,5.1-19.1,13.7c-5.3,8.9-8.9,21.5-9.3,36.1c13.9,4.4,28.8,6.8,44.2,6.8
		c0,0,0.1,0,0.1,0v-39V234.1z"/>
	<path class="st2" d="M200.2,239.4c-0.8-0.1-1.5-0.2-2.3-0.3c-0.3-0.4-0.6-0.9-0.9-1.3C198.1,238.4,199.1,238.9,200.2,239.4z"/>
	<path class="st4" d="M197.9,239.2c-0.4-0.1-0.8-0.1-1.2-0.1c0.2-0.4,0.3-0.8,0.3-1.2C197.3,238.3,197.6,238.7,197.9,239.2z"/>
	<path class="st4" d="M182.7,247.4c-0.4,0.1-0.9,0.2-1.3,0.4c-0.4-0.7-0.8-1.4-1.2-2C181,246.2,181.9,246.8,182.7,247.4z"/>
	<path class="st5" d="M94.7,238.8c0,0.1,0,0.1,0.1,0.2c0,0-0.1,0-0.1,0L94.7,238.8L94.7,238.8L94.7,238.8z"/>
	<path class="st5" d="M94.7,238.9v0.2c-0.1,0-0.1,0-0.1,0C94.6,239,94.7,238.9,94.7,238.9C94.7,238.9,94.7,238.8,94.7,238.9z"/>
	<path class="st4" d="M94.7,238.9c0,0.1-0.1,0.1-0.1,0.2c-0.1,0-0.2,0-0.3,0C94.4,239,94.6,238.9,94.7,238.9z"/>
	<path class="st8" d="M161.4,217.4v10.2c-5.1,1-10.4,1.5-15.8,1.5h-0.1V204h7.7c1.4,0.7,2.7,1.6,3.8,2.7
		C159.7,209.4,161.4,213.2,161.4,217.4z"/>
	<path class="st8" d="M145.6,229.1L145.6,229.1h-0.1c-4.8,0-9.6-0.4-14.2-1.2v2.9c0,4.2,1.7,7.9,4.4,10.6c2.5,2.5,6,4.2,9.8,4.4
		c0.3,0,0.6,0,0.8,0c8.3,0,15.1-6.7,15.1-15.1v-3.2C156.3,228.5,151,229.1,145.6,229.1z"/>
	<path class="st9" d="M145.5,204v25.1h-0.1c-4.8,0-9.6-0.4-14.2-1.2v-10.5c0-5.8,3.3-10.9,8.2-13.4H145.5z"/>
	<path class="st9" d="M145.3,229.1L145.3,229.1c-44.6,0-81-36.5-81-81V99.2c0-44.6,36.5-81,81-81h0c44.6,0,81,36.5,81,81V148
		C226.3,192.6,189.9,229.1,145.3,229.1z"/>
	<path class="st8" d="M145.3,18.2L145.3,18.2l0,210.9h0c44.6,0,81-36.5,81-81V99.2C226.3,54.6,189.9,18.2,145.3,18.2z"/>
	<circle class="st9" cx="64.3" cy="130.7" r="13.4"/>
	<circle class="st8" cx="226.3" cy="130.7" r="13.4"/>
	<path class="st10" d="M212.4,53.6c-14.6-21.4-39.2-35.4-67.1-35.4h-0.1h-0.1c-13,0-25.3,3.1-36.2,8.5
		c-11.9,5.9-22.2,14.7-29.8,25.4c-8.9,13-15.1,30.1-15.1,47v15.6c0,1.3,0.3,2.4,0.9,3.5c1.2,2.3,3.6,3.8,6.4,3.8h0.4
		c0.6,0,1.2-0.1,1.8-0.2h0c3.2-0.8,5.5-3.7,5.5-7.1V96.2c0.7-3.5,3.8-6.1,7.5-6.1H94h0.5c7.3,0,13.4-4.6,14.6-10.5
		c0-0.2,0.1-0.3,0.1-0.4c1.5-7.9,8.7-14.2,16.9-14.2h19.2h49.4c9.2,0,16.7,7.5,16.7,16.7V91v23.6c0,3.2,2,5.9,4.9,6.9
		c0.8,0.3,1.6,0.4,2.5,0.4h0.4c2.8,0,5.2-1.6,6.5-3.9c0.5-1,0.9-2.2,0.9-3.4V99C226.5,82.2,221.3,66.5,212.4,53.6z"/>
	<path class="st11" d="M212.4,53.6c-14.6-21.4-39.2-35.4-67.1-35.4h-0.1V65h49.4c9.2,0,16.7,7.5,16.7,16.7V91v23.6
		c0,3.2,2,5.9,4.9,6.9c0.8,0.3,1.6,0.4,2.5,0.4h0.4c2.8,0,5.2-1.6,6.5-3.9c0.5-1,0.9-2.2,0.9-3.4V99
		C226.5,82.2,221.3,66.5,212.4,53.6z"/>
	<path class="st11" d="M195.6,98.2c0,0,6.2-0.2,5.8,8.6l-33-1.3c-0.3,0-0.5-0.1-0.5-0.1c0.2-3.9,0.3-4.3,0.5-8.2
		c0-0.1,0.2-0.1,0.5-0.1L195.6,98.2z"/>
	<path class="st10" d="M122.2,97.1c0.2,3.8,0.3,4.3,0.5,8.2c0,0-0.2,0.1-0.5,0.1l-33,1.3c-0.4-8.8,5.8-8.6,5.8-8.6l26.7-1.1
		C122.1,97.1,122.2,97.1,122.2,97.1z"/>
	<path class="st12" d="M184.6,114.7c6.5,0,11.7,4.9,11.7,10.9c0,6-5.2,10.9-11.7,10.9c-6.5,0-11.7-4.9-11.7-10.9
		C172.9,119.6,178.1,114.7,184.6,114.7z"/>
	<path class="st12" d="M106,114.7c6.5,0,11.7,4.9,11.7,10.9c0,6-5.2,10.9-11.7,10.9c-6.5,0-11.7-4.9-11.7-10.9
		C94.2,119.6,99.5,114.7,106,114.7z"/>
	<g>
		<path class="st13" d="M145.1,110.2c0.1,0,0.2,0,0.3,0h0.2c9.4,0,19.9-1.5,38.9-1.5c7.2,0,23.1,0.2,30.1,0.9c1,0.1,1.3,0.2,1.3,1.1
			c0.2,1.8,0.1,10.3,0.1,12.3c0,0.7-2.3,0.9-2.7,0.9h-0.3v-3.7c0-4.6-3.8-8.4-8.4-8.4H161c-3.4,0-6.3,2-7.6,4.9
			c-0.4-0.4-1.9-1.5-7.8-1.6c-0.2,0-0.4,0-0.5,0c-7,0.1-7.9,1.7-7.9,1.7l-0.3,0.1c-1.3-3-4.3-5.1-7.7-5.1H85.7
			c-4.6,0-8.4,3.8-8.4,8.4v3.7h0c-0.4,0-2.6-0.2-2.6-0.9c0-1.9,0-10.5,0.1-12.3c0-0.9,0.3-1,1.3-1.1c7-0.7,22.9-0.9,30.1-0.9
			C125.2,108.8,135.7,110.2,145.1,110.2z"/>
		<path class="st14" d="M212.9,120.3v13.4c0,4.6-3.8,8.4-8.4,8.4H161c-4.6,0-8.4-3.8-8.4-8.4v-13.4c0-4.6,3.8-8.4,8.4-8.4h43.5
			C209.1,111.9,212.9,115.6,212.9,120.3z"/>
		<path class="st14" d="M137.5,120.3v13.4c0,4.6-3.8,8.4-8.4,8.4H85.7c-4.6,0-8.4-3.8-8.4-8.4v-13.4c0-4.6,3.7-8.4,8.4-8.4h43.5
			C133.8,111.9,137.5,115.6,137.5,120.3z"/>
	</g>
	<path class="st15" d="M158.7,155.1c-0.6-5.5-5.7-19.8-9.1-19.8h-4.4h-4.4c-3.4,0-8.6,14.3-9.1,19.8c-1,10.3,2.8,18.7,6.2,18.7h7.3
		h7.3C156,173.8,159.8,165.3,158.7,155.1z"/>
	<path class="st16" d="M168.8,188.3c0,0,0,0.3-1.7,0.8c-0.1,0-0.1,0-0.2,0.1c-0.3,0.1-0.5,0.1-0.9,0.2c0,0,0,0-0.1,0
		c-0.2,0-0.3,0.1-0.5,0.1c-0.1,0-0.1,0-0.2,0c-0.3,0.1-0.6,0.1-0.9,0.2c-0.1,0-0.2,0-0.3,0c-0.1,0-0.2,0.1-0.2,0.1
		c-0.6,0.1-1.2,0.2-1.9,0.3c-0.7,0.1-1.4,0.2-2.2,0.3c-0.4,0.1-0.8,0.1-1.2,0.2c-3.3,0.4-7.6,0.8-13.3,1.3c-0.2,0-0.4,0-0.7,0.1
		c-0.6,0.1-1.2,0.1-1.8,0.1c-0.7,0-1.3,0.1-2,0.1c-0.7,0-1.4,0.1-2.1,0.1c-0.1,0-0.1,0-0.1,0c-1.4,0.1-2.9,0.2-4.4,0.2
		c-2.3,0.1-4.8,0.3-7.5,0.4c-0.8,0-1.5,0.1-2.3,0.1c-0.2,0-0.3,0-0.5,0c-0.1,0-0.1,0-0.2,0c-0.5,0-1.6-0.2-2-0.5
		c-0.1-0.1,0.1,1.5,0.2,1.9c0.1,1.6,1.2,2.9,3,4c3.9,2.4,11.1,3.8,18.6,4.1c0.6,0,1.3,0,1.9,0c1.2,0,2.4,0,3.6,0
		c0.8,0,1.6-0.1,2.4-0.1c5-0.4,8.9-1,11.7-2.2C167.6,198.3,169.5,194.8,168.8,188.3z"/>
	<path class="st17" d="M167,189.2c-0.3,0.1-0.5,0.1-0.9,0.2c0,0,0,0-0.1,0c-0.2,0-0.3,0.1-0.5,0.1c-0.1,0-0.1,0-0.2,0
		c-0.3,0.1-0.6,0.1-0.9,0.2c-0.1,0-0.2,0-0.3,0c-0.1,0-0.2,0.1-0.2,0.1c-0.6,0.1-1.2,0.2-1.9,0.3c-0.7,0.1-1.4,0.2-2.2,0.3
		c-0.4,0.1-0.8,0.1-1.2,0.2c-3.3,0.4-7.6,0.8-13.3,1.3c-0.2,0-0.4,0-0.7,0.1c-0.6,0.1-1.2,0.1-1.8,0.1c-0.7,0-1.3,0.1-2,0.1
		c-0.7,0-1.4,0.1-2.1,0.1c-0.1,0-0.1,0-0.1,0c-1.4,0.1-2.9,0.2-4.4,0.2c-2.3,0.1-4.8,0.3-7.5,0.4c-0.8,0-1.5,0.1-2.3,0.1
		c-0.2,0-0.3,0-0.5,0c0.2,0.2,0.3,0.5,0.5,0.7c1.3,1.6,3.1,2.7,5.2,2.7h15.7h15.2c1.5,0,2.9-0.6,4.1-1.5c1.6-1.3,2.7-3.4,2.7-5.5
		c0-0.1,0-0.2,0-0.4C167.1,189.2,167,189.2,167,189.2z"/>
	<path class="st18" d="M168.8,188.3c0,0,0,0.3-1.7,0.8c-0.1,0-0.1,0-0.2,0.1c-0.3,0.1-0.5,0.1-0.9,0.2c0,0,0,0-0.1,0
		c-0.2,0-0.3,0.1-0.5,0.1c-0.1,0-0.1,0-0.2,0c-0.3,0.1-0.6,0.1-0.9,0.2c-0.1,0-0.2,0-0.3,0c-0.1,0-0.2,0.1-0.2,0.1
		c-0.6,0.1-1.2,0.2-1.9,0.3c-0.7,0.1-1.4,0.2-2.2,0.3c-0.4,0.1-0.8,0.1-1.2,0.2c-3.2,0.4-7.5,0.8-13,1.2v10.8c1.1,0,2.3,0,3.4,0
		c0.8,0,1.6-0.1,2.4-0.1c5-0.4,8.9-1,11.7-2.2C167.6,198.2,169.5,194.7,168.8,188.3z"/>
	<path class="st19" d="M167,189.2c-0.3,0.1-0.5,0.1-0.9,0.2c0,0,0,0-0.1,0c-0.2,0-0.3,0.1-0.5,0.1c-0.1,0-0.1,0-0.2,0
		c-0.3,0.1-0.6,0.1-0.9,0.2c-0.1,0-0.2,0-0.3,0c-0.1,0-0.2,0.1-0.2,0.1c-0.6,0.1-1.2,0.2-1.9,0.3c-0.7,0.1-1.4,0.2-2.2,0.3
		c-0.4,0.1-0.8,0.1-1.2,0.2c-3.2,0.4-7.5,0.8-13,1.2v4.6h14.9c1.5,0,2.9-0.6,4.1-1.5c1.6-1.3,2.7-3.4,2.7-5.5c0-0.1,0-0.2,0-0.4
		C167.1,189.1,167,189.1,167,189.2z"/>
	<path class="st20" d="M158.7,155c-0.6-5.5-5.7-19.8-9.1-19.8h-4.2v38.5h7.1C156,173.8,159.8,165.3,158.7,155z"/>
	<path class="st21" d="M145.6,229.1L145.6,229.1l-0.1,16.7c0.3,0,0.6,0,0.8,0c8.3,0,15.1-6.7,15.1-15.1v-3.2
		C156.3,228.5,151,229.1,145.6,229.1z"/>
</g>
<g id="Layer_2">
	<g id="XMLID_1_">
		<g>
			<path class="st22" d="M620,230.8h-205c-24.7,0-45.4-18.2-49.3-41.8h25.1v-81h-1l-24.8,25.1V50c0-27.5,22.5-50,50-50h205V230.8z"
				/>
			<path class="st22" d="M875,50v130.8c0,27.5-22.5,50-50,50H620V0h205C852.5,0,875,22.5,875,50z"/>
			<path class="st22" d="M364.9,133.1l24.8-25.1h1v81h-25.1c-0.5-2.7-0.7-5.4-0.7-8.2V133.1z"/>
			<path class="st22" d="M365.6,189h-55.9l55.2-55.9v47.7C364.9,183.5,365.2,186.3,365.6,189z"/>
		</g>
		<g>
		</g>
	</g>
	<text transform="matrix(1 0 0 1 408.979 87.9719)"><tspan x="0" y="0" class="st23 st24">Hi, </tspan><tspan x="0" y="80" class="st23 st24">How can we help?</tspan></text>
</g>
</svg>
