<?xml version="1.0" encoding="utf-8"?>
<!-- Generator: Adobe Illustrator 21.1.0, SVG Export Plug-In . SVG Version: 6.00 Build 0)  -->
<svg version="1.1" xmlns="http://www.w3.org/2000/svg" xmlns:xlink="http://www.w3.org/1999/xlink" x="0px" y="0px"
	 viewBox="0 0 1363.9 616.9" style="enable-background:new 0 0 1363.9 616.9;" xml:space="preserve">
<style type="text/css">
	.st0{fill:#E0E0E0;}
	.st1{fill:#BDBDBD;}
	.st2{fill:#3374BA;}
	.st3{fill:#EEEEEE;}
	.st4{fill:#57A0D7;}
	.st5{fill:#3D82C4;}
	.st6{opacity:0.1;}
	.st7{fill:#F1F2F2;}
	.st8{fill:#00AEEF;}
	.st9{fill:#FFFFFF;}
	.st10{fill:#8DC63F;}
	.st11{fill:#662D91;}
	.st12{fill:#757576;}
	.st13{fill:#FBB040;}
	.st14{fill:#FFF200;}
	.st15{fill:#ED1C24;}
	.st16{fill:#37484F;}
	.st17{fill:#F2F2F2;}
	.st18{fill:#374850;}
	.st19{fill:#66BB6A;}
	.st20{fill:#29ABE2;}
	.st21{fill:#3375BA;}
	.st22{fill:#EF4136;}
</style>
<g id="ap">
	<g id="XMLID_11_">
		<g>
			<path class="st0" d="M1253.9,81.5v176c0,45-36.5,81.5-81.5,81.5h-88V0h88C1217.4,0,1253.9,36.5,1253.9,81.5z M1240.9,59.3
				c0-3.8-3.1-6.8-6.8-6.8h-12.4c-3.8,0-6.8,3.1-6.8,6.8c0,3.8,3.1,6.8,6.8,6.8h12.4c1.9,0,3.6-0.8,4.8-2
				C1240.1,62.9,1240.9,61.2,1240.9,59.3z M1240.9,83.8c0-3.8-3.1-6.8-6.8-6.8h-28.7c-3.8,0-6.8,3.1-6.8,6.8c0,3.8,3.1,6.8,6.8,6.8
				h28.7c1.9,0,3.6-0.8,4.8-2C1240.1,87.4,1240.9,85.7,1240.9,83.8z M1240.9,108.2c0-3.8-3.1-6.8-6.8-6.8h-45
				c-3.8,0-6.8,3.1-6.8,6.8c0,3.8,3.1,6.8,6.8,6.8h45c1.9,0,3.6-0.8,4.8-2C1240.1,111.8,1240.9,110.1,1240.9,108.2z M1240.9,132.7
				c0-3.8-3.1-6.8-6.8-6.8h-53.2c-3.8,0-6.8,3.1-6.8,6.8c0,3.8,3.1,6.8,6.8,6.8h53.2c1.9,0,3.6-0.8,4.8-2
				C1240.1,136.3,1240.9,134.6,1240.9,132.7z M1240.9,157.1c0-3.8-3.1-6.8-6.8-6.8h-69.5c-3.8,0-6.8,3.1-6.8,6.8
				c0,3.8,3.1,6.8,6.8,6.8h69.5c1.9,0,3.6-0.8,4.8-2C1240.1,160.7,1240.9,159,1240.9,157.1z M1240.9,181.6c0-3.8-3.1-6.8-6.8-6.8
				h-69.5c-3.8,0-6.8,3.1-6.8,6.8c0,3.8,3.1,6.8,6.8,6.8h69.5c1.9,0,3.6-0.8,4.8-2C1240.1,185.2,1240.9,183.5,1240.9,181.6z
				 M1240.9,206c0-3.8-3.1-6.8-6.8-6.8h-53.2c-3.8,0-6.8,3.1-6.8,6.8c0,3.8,3.1,6.8,6.8,6.8h53.2c1.9,0,3.6-0.8,4.8-2
				C1240.1,209.6,1240.9,207.9,1240.9,206z M1240.9,230.5c0-3.8-3.1-6.8-6.8-6.8h-45c-3.8,0-6.8,3.1-6.8,6.8c0,3.8,3.1,6.8,6.8,6.8
				h45c1.9,0,3.6-0.8,4.8-2C1240.1,234.1,1240.9,232.4,1240.9,230.5z M1240.9,254.9c0-3.8-3.1-6.8-6.8-6.8h-28.7
				c-3.8,0-6.8,3.1-6.8,6.8c0,3.8,3.1,6.8,6.8,6.8h28.7c1.9,0,3.6-0.8,4.8-2C1240.1,258.5,1240.9,256.8,1240.9,254.9z M1240.9,279.4
				c0-3.8-3.1-6.8-6.8-6.8h-12.4c-3.8,0-6.8,3.1-6.8,6.8c0,3.8,3.1,6.8,6.8,6.8h12.4c1.9,0,3.6-0.8,4.8-2
				C1240.1,283,1240.9,281.3,1240.9,279.4z M1202.1,318.2v-12.4c0-3.8-3.1-6.8-6.8-6.8c-3.8,0-6.8,3.1-6.8,6.8v12.4
				c0,1.9,0.8,3.6,2,4.8c1.2,1.2,2.9,2,4.8,2C1199,325,1202.1,322,1202.1,318.2z M1202.1,33V20.5c0-1.9-0.8-3.6-2-4.8
				c-1.2-1.2-2.9-2-4.8-2c-3.8,0-6.8,3.1-6.8,6.8V33c0,3.8,3.1,6.8,6.8,6.8C1199,39.8,1202.1,36.7,1202.1,33z M1177.6,318.2v-28.7
				c0-3.8-3.1-6.8-6.8-6.8c-3.8,0-6.8,3.1-6.8,6.8v28.7c0,1.9,0.8,3.6,2,4.8c1.2,1.2,2.9,2,4.8,2
				C1174.6,325,1177.6,322,1177.6,318.2z M1177.6,49.3V20.5c0-1.9-0.8-3.6-2-4.8c-1.2-1.2-2.9-2-4.8-2c-3.8,0-6.8,3.1-6.8,6.8v28.7
				c0,3.8,3.1,6.8,6.8,6.8C1174.6,56.1,1177.6,53,1177.6,49.3z M1153.2,318.2v-45c0-3.8-3.1-6.8-6.8-6.8c-3.8,0-6.8,3.1-6.8,6.8v45
				c0,1.9,0.8,3.6,2,4.8c1.2,1.2,2.9,2,4.8,2C1150.1,325,1153.2,322,1153.2,318.2z M1153.2,65.6v-45c0-1.9-0.8-3.6-2-4.8
				c-1.2-1.2-2.9-2-4.8-2c-3.8,0-6.8,3.1-6.8,6.8v45c0,3.8,3.1,6.8,6.8,6.8C1150.1,72.4,1153.2,69.3,1153.2,65.6z M1128.7,318.2V265
				c0-3.8-3.1-6.8-6.8-6.8c-3.8,0-6.8,3.1-6.8,6.8v53.2c0,1.9,0.8,3.6,2,4.8c1.2,1.2,2.9,2,4.8,2
				C1125.7,325,1128.7,322,1128.7,318.2z M1128.7,73.7V20.5c0-1.9-0.8-3.6-2-4.8c-1.2-1.2-2.9-2-4.8-2c-3.8,0-6.8,3.1-6.8,6.8v53.2
				c0,3.8,3.1,6.8,6.8,6.8C1125.7,80.5,1128.7,77.5,1128.7,73.7z M1104.3,318.2v-69.5c0-3.8-3.1-6.8-6.8-6.8c-3.8,0-6.8,3.1-6.8,6.8
				v69.5c0,1.9,0.8,3.6,2,4.8c1.2,1.2,2.9,2,4.8,2C1101.2,325,1104.3,322,1104.3,318.2z M1104.3,228.5v-4.3c0-3.8-3.1-6.8-6.8-6.8
				c-3.8,0-6.8,3.1-6.8,6.8v4.3c0,1.9,0.8,3.6,2,4.8c1.2,1.2,2.9,2,4.8,2C1101.2,235.4,1104.3,232.3,1104.3,228.5z M1104.3,90V20.5
				c0-1.9-0.8-3.6-2-4.8c-1.2-1.2-2.9-2-4.8-2c-3.8,0-6.8,3.1-6.8,6.8V90c0,3.8,3.1,6.8,6.8,6.8C1101.2,96.8,1104.3,93.8,1104.3,90z
				"/>
			<path class="st1" d="M1234.1,52.5c3.8,0,6.8,3.1,6.8,6.8c0,1.9-0.8,3.6-2,4.8c-1.2,1.2-2.9,2-4.8,2h-12.4c-3.8,0-6.8-3.1-6.8-6.8
				c0-3.8,3.1-6.8,6.8-6.8H1234.1z"/>
			<path class="st1" d="M1234.1,77c3.8,0,6.8,3.1,6.8,6.8c0,1.9-0.8,3.6-2,4.8c-1.2,1.2-2.9,2-4.8,2h-28.7c-3.8,0-6.8-3.1-6.8-6.8
				c0-3.8,3.1-6.8,6.8-6.8H1234.1z"/>
			<path class="st1" d="M1234.1,101.4c3.8,0,6.8,3.1,6.8,6.8c0,1.9-0.8,3.6-2,4.8c-1.2,1.2-2.9,2-4.8,2h-45c-3.8,0-6.8-3.1-6.8-6.8
				c0-3.8,3.1-6.8,6.8-6.8H1234.1z"/>
			<path class="st1" d="M1234.1,125.9c3.8,0,6.8,3.1,6.8,6.8c0,1.9-0.8,3.6-2,4.8c-1.2,1.2-2.9,2-4.8,2h-53.2
				c-3.8,0-6.8-3.1-6.8-6.8c0-3.8,3.1-6.8,6.8-6.8H1234.1z"/>
			<path class="st1" d="M1234.1,150.3c3.8,0,6.8,3.1,6.8,6.8c0,1.9-0.8,3.6-2,4.8c-1.2,1.2-2.9,2-4.8,2h-69.5
				c-3.8,0-6.8-3.1-6.8-6.8c0-3.8,3.1-6.8,6.8-6.8H1234.1z"/>
			<path class="st1" d="M1234.1,174.8c3.8,0,6.8,3.1,6.8,6.8c0,1.9-0.8,3.6-2,4.8c-1.2,1.2-2.9,2-4.8,2h-69.5
				c-3.8,0-6.8-3.1-6.8-6.8c0-3.8,3.1-6.8,6.8-6.8H1234.1z"/>
			<path class="st1" d="M1234.1,199.2c3.8,0,6.8,3.1,6.8,6.8c0,1.9-0.8,3.6-2,4.8c-1.2,1.2-2.9,2-4.8,2h-53.2
				c-3.8,0-6.8-3.1-6.8-6.8c0-3.8,3.1-6.8,6.8-6.8H1234.1z"/>
			<path class="st1" d="M1234.1,223.7c3.8,0,6.8,3.1,6.8,6.8c0,1.9-0.8,3.6-2,4.8c-1.2,1.2-2.9,2-4.8,2h-45c-3.8,0-6.8-3.1-6.8-6.8
				c0-3.8,3.1-6.8,6.8-6.8H1234.1z"/>
			<path class="st1" d="M1234.1,248.1c3.8,0,6.8,3.1,6.8,6.8c0,1.9-0.8,3.6-2,4.8c-1.2,1.2-2.9,2-4.8,2h-28.7
				c-3.8,0-6.8-3.1-6.8-6.8c0-3.8,3.1-6.8,6.8-6.8H1234.1z"/>
			<path class="st1" d="M1234.1,272.6c3.8,0,6.8,3.1,6.8,6.8c0,1.9-0.8,3.6-2,4.8c-1.2,1.2-2.9,2-4.8,2h-12.4
				c-3.8,0-6.8-3.1-6.8-6.8c0-3.8,3.1-6.8,6.8-6.8H1234.1z"/>
			<path class="st1" d="M1202.1,305.8v12.4c0,3.8-3.1,6.8-6.8,6.8c-1.9,0-3.6-0.8-4.8-2c-1.2-1.2-2-3-2-4.8v-12.4
				c0-3.8,3.1-6.8,6.8-6.8C1199,298.9,1202.1,302,1202.1,305.8z"/>
			<path class="st1" d="M1202.1,20.5V33c0,3.8-3.1,6.8-6.8,6.8c-3.8,0-6.8-3.1-6.8-6.8V20.5c0-3.8,3.1-6.8,6.8-6.8
				c1.9,0,3.6,0.8,4.8,2C1201.3,16.9,1202.1,18.6,1202.1,20.5z"/>
			<path class="st1" d="M1177.6,289.5v28.7c0,3.8-3.1,6.8-6.8,6.8c-1.9,0-3.6-0.8-4.8-2c-1.2-1.2-2-3-2-4.8v-28.7
				c0-3.8,3.1-6.8,6.8-6.8C1174.6,282.6,1177.6,285.7,1177.6,289.5z"/>
			<path class="st1" d="M1177.6,20.5v28.7c0,3.8-3.1,6.8-6.8,6.8c-3.8,0-6.8-3.1-6.8-6.8V20.5c0-3.8,3.1-6.8,6.8-6.8
				c1.9,0,3.6,0.8,4.8,2C1176.9,16.9,1177.6,18.6,1177.6,20.5z"/>
			<path class="st1" d="M1153.2,273.2v45c0,3.8-3.1,6.8-6.8,6.8c-1.9,0-3.6-0.8-4.8-2c-1.2-1.2-2-3-2-4.8v-45c0-3.8,3.1-6.8,6.8-6.8
				C1150.1,266.3,1153.2,269.4,1153.2,273.2z"/>
			<path class="st1" d="M1153.2,20.5v45c0,3.8-3.1,6.8-6.8,6.8c-3.8,0-6.8-3.1-6.8-6.8v-45c0-3.8,3.1-6.8,6.8-6.8
				c1.9,0,3.6,0.8,4.8,2C1152.4,16.9,1153.2,18.6,1153.2,20.5z"/>
			<path class="st1" d="M1128.7,265v53.2c0,3.8-3.1,6.8-6.8,6.8c-1.9,0-3.6-0.8-4.8-2c-1.2-1.2-2-3-2-4.8V265c0-3.8,3.1-6.8,6.8-6.8
				C1125.7,258.2,1128.7,261.3,1128.7,265z"/>
			<path class="st1" d="M1128.7,20.5v53.2c0,3.8-3.1,6.8-6.8,6.8c-3.8,0-6.8-3.1-6.8-6.8V20.5c0-3.8,3.1-6.8,6.8-6.8
				c1.9,0,3.6,0.8,4.8,2C1128,16.9,1128.7,18.6,1128.7,20.5z"/>
			<path class="st1" d="M1104.3,248.7v69.5c0,3.8-3.1,6.8-6.8,6.8c-1.9,0-3.6-0.8-4.8-2c-1.2-1.2-2-3-2-4.8v-69.5
				c0-3.8,3.1-6.8,6.8-6.8C1101.2,241.9,1104.3,245,1104.3,248.7z"/>
			<path class="st2" d="M1104.3,224.3v4.3c0,3.8-3.1,6.8-6.8,6.8c-1.9,0-3.6-0.8-4.8-2c-1.2-1.2-2-3-2-4.8v-4.3
				c0-3.8,3.1-6.8,6.8-6.8C1101.2,217.5,1104.3,220.5,1104.3,224.3z"/>
			<path class="st1" d="M1104.3,20.5V90c0,3.8-3.1,6.8-6.8,6.8c-3.8,0-6.8-3.1-6.8-6.8V20.5c0-3.8,3.1-6.8,6.8-6.8
				c1.9,0,3.6,0.8,4.8,2C1103.5,16.9,1104.3,18.6,1104.3,20.5z"/>
			<path class="st3" d="M1084.4,0v339h-88c-45,0-81.5-36.5-81.5-81.5v-176c0-45,36.5-81.5,81.5-81.5H1084.4z M1079.8,318.2v-69.5
				c0-3.8-3.1-6.8-6.8-6.8c-3.8,0-6.8,3.1-6.8,6.8v69.5c0,1.9,0.8,3.6,2,4.8c1.2,1.2,2.9,2,4.8,2
				C1076.8,325,1079.8,322,1079.8,318.2z M1079.8,228.5v-4.3c0-3.8-3.1-6.8-6.8-6.8c-3.8,0-6.8,3.1-6.8,6.8v4.3c0,1.9,0.8,3.6,2,4.8
				c1.2,1.2,2.9,2,4.8,2C1076.8,235.4,1079.8,232.3,1079.8,228.5z M1079.8,90V20.5c0-1.9-0.8-3.6-2-4.8c-1.2-1.2-2.9-2-4.8-2
				c-3.8,0-6.8,3.1-6.8,6.8V90c0,3.8,3.1,6.8,6.8,6.8C1076.8,96.8,1079.8,93.8,1079.8,90z M1055.4,318.2V265c0-3.8-3.1-6.8-6.8-6.8
				c-3.8,0-6.8,3.1-6.8,6.8v53.2c0,1.9,0.8,3.6,2,4.8c1.2,1.2,2.9,2,4.8,2C1052.3,325,1055.4,322,1055.4,318.2z M1055.4,73.7V20.5
				c0-1.9-0.8-3.6-2-4.8c-1.2-1.2-2.9-2-4.8-2c-3.8,0-6.8,3.1-6.8,6.8v53.2c0,3.8,3.1,6.8,6.8,6.8
				C1052.3,80.5,1055.4,77.5,1055.4,73.7z M1030.9,318.2v-45c0-3.8-3.1-6.8-6.8-6.8c-3.8,0-6.8,3.1-6.8,6.8v45c0,1.9,0.8,3.6,2,4.8
				c1.2,1.2,2.9,2,4.8,2C1027.9,325,1030.9,322,1030.9,318.2z M1030.9,65.6v-45c0-1.9-0.8-3.6-2-4.8c-1.2-1.2-2.9-2-4.8-2
				c-3.8,0-6.8,3.1-6.8,6.8v45c0,3.8,3.1,6.8,6.8,6.8C1027.9,72.4,1030.9,69.3,1030.9,65.6z M1009.4,157.1c0-3.8-3.1-6.8-6.8-6.8
				h-69.5c-1.9,0-3.6,0.8-4.8,2c-1.2,1.2-2,3-2,4.8c0,3.8,3.1,6.8,6.8,6.8h69.5C1006.4,164,1009.4,160.9,1009.4,157.1z
				 M1009.4,181.6c0-3.8-3.1-6.8-6.8-6.8h-69.5c-1.9,0-3.6,0.8-4.8,2c-1.2,1.2-2,3-2,4.8c0,3.8,3.1,6.8,6.8,6.8h69.5
				C1006.4,188.4,1009.4,185.4,1009.4,181.6z M1006.5,318.2v-28.7c0-3.8-3.1-6.8-6.8-6.8c-3.8,0-6.8,3.1-6.8,6.8v28.7
				c0,1.9,0.8,3.6,2,4.8c1.2,1.2,2.9,2,4.8,2C1003.4,325,1006.5,322,1006.5,318.2z M1006.5,49.3V20.5c0-1.9-0.8-3.6-2-4.8
				c-1.2-1.2-2.9-2-4.8-2c-3.8,0-6.8,3.1-6.8,6.8v28.7c0,3.8,3.1,6.8,6.8,6.8C1003.4,56.1,1006.5,53,1006.5,49.3z M993.1,132.7
				c0-3.8-3.1-6.8-6.8-6.8h-53.2c-1.9,0-3.6,0.8-4.8,2c-1.2,1.2-2,3-2,4.8c0,3.8,3.1,6.8,6.8,6.8h53.2
				C990.1,139.5,993.1,136.5,993.1,132.7z M993.1,206c0-3.8-3.1-6.8-6.8-6.8h-53.2c-1.9,0-3.6,0.8-4.8,2c-1.2,1.2-2,3-2,4.8
				c0,3.8,3.1,6.8,6.8,6.8h53.2C990.1,212.9,993.1,209.8,993.1,206z M985,108.2c0-3.8-3.1-6.8-6.8-6.8h-45c-1.9,0-3.6,0.8-4.8,2
				c-1.2,1.2-2,3-2,4.8c0,3.8,3.1,6.8,6.8,6.8h45C981.9,115.1,985,112,985,108.2z M985,230.5c0-3.8-3.1-6.8-6.8-6.8h-45
				c-1.9,0-3.6,0.8-4.8,2c-1.2,1.2-2,3-2,4.8c0,3.8,3.1,6.8,6.8,6.8h45C981.9,237.3,985,234.3,985,230.5z M982,318.2v-12.4
				c0-3.8-3.1-6.8-6.8-6.8c-3.8,0-6.8,3.1-6.8,6.8v12.4c0,1.9,0.8,3.6,2,4.8c1.2,1.2,2.9,2,4.8,2C979,325,982,322,982,318.2z
				 M982,33V20.5c0-1.9-0.8-3.6-2-4.8c-1.2-1.2-2.9-2-4.8-2c-3.8,0-6.8,3.1-6.8,6.8V33c0,3.8,3.1,6.8,6.8,6.8
				C979,39.8,982,36.7,982,33z M968.7,83.8c0-3.8-3.1-6.8-6.8-6.8h-28.7c-1.9,0-3.6,0.8-4.8,2c-1.2,1.2-2,3-2,4.8
				c0,3.8,3.1,6.8,6.8,6.8h28.7C965.6,90.6,968.7,87.6,968.7,83.8z M968.7,254.9c0-3.8-3.1-6.8-6.8-6.8h-28.7c-1.9,0-3.6,0.8-4.8,2
				c-1.2,1.2-2,3-2,4.8c0,3.8,3.1,6.8,6.8,6.8h28.7C965.6,261.8,968.7,258.7,968.7,254.9z M952.4,59.3c0-3.8-3.1-6.8-6.8-6.8h-12.4
				c-1.9,0-3.6,0.8-4.8,2c-1.2,1.2-2,3-2,4.8c0,3.8,3.1,6.8,6.8,6.8h12.4C949.3,66.2,952.4,63.1,952.4,59.3z M952.4,279.4
				c0-3.8-3.1-6.8-6.8-6.8h-12.4c-1.9,0-3.6,0.8-4.8,2c-1.2,1.2-2,3-2,4.8c0,3.8,3.1,6.8,6.8,6.8h12.4
				C949.3,286.2,952.4,283.2,952.4,279.4z"/>
			<path class="st0" d="M1079.8,248.7v69.5c0,3.8-3.1,6.8-6.8,6.8c-1.9,0-3.6-0.8-4.8-2c-1.2-1.2-2-3-2-4.8v-69.5
				c0-3.8,3.1-6.8,6.8-6.8C1076.8,241.9,1079.8,245,1079.8,248.7z"/>
			<path class="st4" d="M1079.8,224.3v4.3c0,3.8-3.1,6.8-6.8,6.8c-1.9,0-3.6-0.8-4.8-2c-1.2-1.2-2-3-2-4.8v-4.3
				c0-3.8,3.1-6.8,6.8-6.8C1076.8,217.5,1079.8,220.5,1079.8,224.3z"/>
			<path class="st0" d="M1079.8,20.5V90c0,3.8-3.1,6.8-6.8,6.8c-3.8,0-6.8-3.1-6.8-6.8V20.5c0-3.8,3.1-6.8,6.8-6.8
				c1.9,0,3.6,0.8,4.8,2C1079.1,16.9,1079.8,18.6,1079.8,20.5z"/>
			<path class="st0" d="M1055.4,265v53.2c0,3.8-3.1,6.8-6.8,6.8c-1.9,0-3.6-0.8-4.8-2c-1.2-1.2-2-3-2-4.8V265c0-3.8,3.1-6.8,6.8-6.8
				C1052.3,258.2,1055.4,261.3,1055.4,265z"/>
			<path class="st0" d="M1055.4,20.5v53.2c0,3.8-3.1,6.8-6.8,6.8c-3.8,0-6.8-3.1-6.8-6.8V20.5c0-3.8,3.1-6.8,6.8-6.8
				c1.9,0,3.6,0.8,4.8,2C1054.6,16.9,1055.4,18.6,1055.4,20.5z"/>
			<path class="st0" d="M1030.9,273.2v45c0,3.8-3.1,6.8-6.8,6.8c-1.9,0-3.6-0.8-4.8-2c-1.2-1.2-2-3-2-4.8v-45c0-3.8,3.1-6.8,6.8-6.8
				C1027.9,266.3,1030.9,269.4,1030.9,273.2z"/>
			<path class="st0" d="M1030.9,20.5v45c0,3.8-3.1,6.8-6.8,6.8c-3.8,0-6.8-3.1-6.8-6.8v-45c0-3.8,3.1-6.8,6.8-6.8
				c1.9,0,3.6,0.8,4.8,2C1030.2,16.9,1030.9,18.6,1030.9,20.5z"/>
			<path class="st0" d="M1002.6,150.3c3.8,0,6.8,3.1,6.8,6.8c0,3.8-3.1,6.8-6.8,6.8h-69.5c-3.8,0-6.8-3.1-6.8-6.8
				c0-1.9,0.8-3.6,2-4.8c1.2-1.2,2.9-2,4.8-2H1002.6z"/>
			<path class="st0" d="M1002.6,174.8c3.8,0,6.8,3.1,6.8,6.8c0,3.8-3.1,6.8-6.8,6.8h-69.5c-3.8,0-6.8-3.1-6.8-6.8
				c0-1.9,0.8-3.6,2-4.8c1.2-1.2,2.9-2,4.8-2H1002.6z"/>
			<path class="st0" d="M1006.5,289.5v28.7c0,3.8-3.1,6.8-6.8,6.8c-1.9,0-3.6-0.8-4.8-2c-1.2-1.2-2-3-2-4.8v-28.7
				c0-3.8,3.1-6.8,6.8-6.8C1003.4,282.6,1006.5,285.7,1006.5,289.5z"/>
			<path class="st0" d="M1006.5,20.5v28.7c0,3.8-3.1,6.8-6.8,6.8c-3.8,0-6.8-3.1-6.8-6.8V20.5c0-3.8,3.1-6.8,6.8-6.8
				c1.9,0,3.6,0.8,4.8,2C1005.7,16.9,1006.5,18.6,1006.5,20.5z"/>
			<path class="st0" d="M986.3,125.9c3.8,0,6.8,3.1,6.8,6.8c0,3.8-3.1,6.8-6.8,6.8h-53.2c-3.8,0-6.8-3.1-6.8-6.8
				c0-1.9,0.8-3.6,2-4.8c1.2-1.2,2.9-2,4.8-2H986.3z"/>
			<path class="st0" d="M986.3,199.2c3.8,0,6.8,3.1,6.8,6.8c0,3.8-3.1,6.8-6.8,6.8h-53.2c-3.8,0-6.8-3.1-6.8-6.8
				c0-1.9,0.8-3.6,2-4.8c1.2-1.2,2.9-2,4.8-2H986.3z"/>
			<path class="st0" d="M978.2,101.4c3.8,0,6.8,3.1,6.8,6.8c0,3.8-3.1,6.8-6.8,6.8h-45c-3.8,0-6.8-3.1-6.8-6.8c0-1.9,0.8-3.6,2-4.8
				c1.2-1.2,2.9-2,4.8-2H978.2z"/>
			<path class="st0" d="M978.2,223.7c3.8,0,6.8,3.1,6.8,6.8c0,3.8-3.1,6.8-6.8,6.8h-45c-3.8,0-6.8-3.1-6.8-6.8c0-1.9,0.8-3.6,2-4.8
				c1.2-1.2,2.9-2,4.8-2H978.2z"/>
			<path class="st0" d="M982,305.8v12.4c0,3.8-3.1,6.8-6.8,6.8c-1.9,0-3.6-0.8-4.8-2c-1.2-1.2-2-3-2-4.8v-12.4
				c0-3.8,3.1-6.8,6.8-6.8C979,298.9,982,302,982,305.8z"/>
			<path class="st0" d="M982,20.5V33c0,3.8-3.1,6.8-6.8,6.8c-3.8,0-6.8-3.1-6.8-6.8V20.5c0-3.8,3.1-6.8,6.8-6.8c1.9,0,3.6,0.8,4.8,2
				C981.3,16.9,982,18.6,982,20.5z"/>
			<path class="st0" d="M961.9,77c3.8,0,6.8,3.1,6.8,6.8c0,3.8-3.1,6.8-6.8,6.8h-28.7c-3.8,0-6.8-3.1-6.8-6.8c0-1.9,0.8-3.6,2-4.8
				c1.2-1.2,2.9-2,4.8-2H961.9z"/>
			<path class="st0" d="M961.9,248.1c3.8,0,6.8,3.1,6.8,6.8c0,3.8-3.1,6.8-6.8,6.8h-28.7c-3.8,0-6.8-3.1-6.8-6.8
				c0-1.9,0.8-3.6,2-4.8c1.2-1.2,2.9-2,4.8-2H961.9z"/>
			<path class="st0" d="M945.6,52.5c3.8,0,6.8,3.1,6.8,6.8c0,3.8-3.1,6.8-6.8,6.8h-12.4c-3.8,0-6.8-3.1-6.8-6.8c0-1.9,0.8-3.6,2-4.8
				c1.2-1.2,2.9-2,4.8-2H945.6z"/>
			<path class="st0" d="M945.6,272.6c3.8,0,6.8,3.1,6.8,6.8c0,3.8-3.1,6.8-6.8,6.8h-12.4c-3.8,0-6.8-3.1-6.8-6.8
				c0-1.9,0.8-3.6,2-4.8c1.2-1.2,2.9-2,4.8-2H945.6z"/>
		</g>
		<g>
		</g>
	</g>
	<g id="XMLID_1_">
		<g>
			<path class="st0" d="M450.2,81.5v176c0,45-36.5,81.5-81.5,81.5h-88V0h88C413.8,0,450.2,36.5,450.2,81.5z M437.2,59.3
				c0-3.8-3.1-6.8-6.8-6.8H418c-3.8,0-6.8,3.1-6.8,6.8c0,3.8,3.1,6.8,6.8,6.8h12.4c1.9,0,3.6-0.8,4.8-2
				C436.4,62.9,437.2,61.2,437.2,59.3z M437.2,83.8c0-3.8-3.1-6.8-6.8-6.8h-28.7c-3.8,0-6.8,3.1-6.8,6.8c0,3.8,3.1,6.8,6.8,6.8h28.7
				c1.9,0,3.6-0.8,4.8-2C436.4,87.4,437.2,85.7,437.2,83.8z M437.2,108.2c0-3.8-3.1-6.8-6.8-6.8h-45c-3.8,0-6.8,3.1-6.8,6.8
				c0,3.8,3.1,6.8,6.8,6.8h45c1.9,0,3.6-0.8,4.8-2C436.4,111.8,437.2,110.1,437.2,108.2z M437.2,132.7c0-3.8-3.1-6.8-6.8-6.8h-53.2
				c-3.8,0-6.8,3.1-6.8,6.8c0,3.8,3.1,6.8,6.8,6.8h53.2c1.9,0,3.6-0.8,4.8-2C436.4,136.3,437.2,134.6,437.2,132.7z M437.2,157.1
				c0-3.8-3.1-6.8-6.8-6.8h-69.5c-3.8,0-6.8,3.1-6.8,6.8c0,3.8,3.1,6.8,6.8,6.8h69.5c1.9,0,3.6-0.8,4.8-2
				C436.4,160.7,437.2,159,437.2,157.1z M437.2,181.6c0-3.8-3.1-6.8-6.8-6.8h-69.5c-3.8,0-6.8,3.1-6.8,6.8c0,3.8,3.1,6.8,6.8,6.8
				h69.5c1.9,0,3.6-0.8,4.8-2C436.4,185.2,437.2,183.5,437.2,181.6z M437.2,206c0-3.8-3.1-6.8-6.8-6.8h-53.2c-3.8,0-6.8,3.1-6.8,6.8
				c0,3.8,3.1,6.8,6.8,6.8h53.2c1.9,0,3.6-0.8,4.8-2C436.4,209.6,437.2,207.9,437.2,206z M437.2,230.5c0-3.8-3.1-6.8-6.8-6.8h-45
				c-3.8,0-6.8,3.1-6.8,6.8c0,3.8,3.1,6.8,6.8,6.8h45c1.9,0,3.6-0.8,4.8-2C436.4,234.1,437.2,232.4,437.2,230.5z M437.2,254.9
				c0-3.8-3.1-6.8-6.8-6.8h-28.7c-3.8,0-6.8,3.1-6.8,6.8c0,3.8,3.1,6.8,6.8,6.8h28.7c1.9,0,3.6-0.8,4.8-2
				C436.4,258.5,437.2,256.8,437.2,254.9z M437.2,279.4c0-3.8-3.1-6.8-6.8-6.8H418c-3.8,0-6.8,3.1-6.8,6.8c0,3.8,3.1,6.8,6.8,6.8
				h12.4c1.9,0,3.6-0.8,4.8-2C436.4,283,437.2,281.3,437.2,279.4z M398.4,318.2v-12.4c0-3.8-3.1-6.8-6.8-6.8c-3.8,0-6.8,3.1-6.8,6.8
				v12.4c0,1.9,0.8,3.6,2,4.8c1.2,1.2,2.9,2,4.8,2C395.3,325,398.4,322,398.4,318.2z M398.4,33V20.5c0-1.9-0.8-3.6-2-4.8
				c-1.2-1.2-2.9-2-4.8-2c-3.8,0-6.8,3.1-6.8,6.8V33c0,3.8,3.1,6.8,6.8,6.8C395.3,39.8,398.4,36.7,398.4,33z M373.9,318.2v-28.7
				c0-3.8-3.1-6.8-6.8-6.8c-3.8,0-6.8,3.1-6.8,6.8v28.7c0,1.9,0.8,3.6,2,4.8c1.2,1.2,2.9,2,4.8,2C370.9,325,373.9,322,373.9,318.2z
				 M373.9,49.3V20.5c0-1.9-0.8-3.6-2-4.8c-1.2-1.2-2.9-2-4.8-2c-3.8,0-6.8,3.1-6.8,6.8v28.7c0,3.8,3.1,6.8,6.8,6.8
				C370.9,56.1,373.9,53,373.9,49.3z M349.5,318.2v-45c0-3.8-3.1-6.8-6.8-6.8c-3.8,0-6.8,3.1-6.8,6.8v45c0,1.9,0.8,3.6,2,4.8
				c1.2,1.2,2.9,2,4.8,2C346.4,325,349.5,322,349.5,318.2z M349.5,65.6v-45c0-1.9-0.8-3.6-2-4.8c-1.2-1.2-2.9-2-4.8-2
				c-3.8,0-6.8,3.1-6.8,6.8v45c0,3.8,3.1,6.8,6.8,6.8C346.4,72.4,349.5,69.3,349.5,65.6z M325,318.2V265c0-3.8-3.1-6.8-6.8-6.8
				c-3.8,0-6.8,3.1-6.8,6.8v53.2c0,1.9,0.8,3.6,2,4.8c1.2,1.2,2.9,2,4.8,2C322,325,325,322,325,318.2z M325,73.7V20.5
				c0-1.9-0.8-3.6-2-4.8c-1.2-1.2-2.9-2-4.8-2c-3.8,0-6.8,3.1-6.8,6.8v53.2c0,3.8,3.1,6.8,6.8,6.8C322,80.5,325,77.5,325,73.7z
				 M300.6,318.2v-69.5c0-3.8-3.1-6.8-6.8-6.8c-3.8,0-6.8,3.1-6.8,6.8v69.5c0,1.9,0.8,3.6,2,4.8c1.2,1.2,2.9,2,4.8,2
				C297.5,325,300.6,322,300.6,318.2z M300.6,228.5v-4.3c0-3.8-3.1-6.8-6.8-6.8c-3.8,0-6.8,3.1-6.8,6.8v4.3c0,1.9,0.8,3.6,2,4.8
				c1.2,1.2,2.9,2,4.8,2C297.5,235.4,300.6,232.3,300.6,228.5z M300.6,90V20.5c0-1.9-0.8-3.6-2-4.8c-1.2-1.2-2.9-2-4.8-2
				c-3.8,0-6.8,3.1-6.8,6.8V90c0,3.8,3.1,6.8,6.8,6.8C297.5,96.8,300.6,93.8,300.6,90z"/>
			<path class="st1" d="M430.4,52.5c3.8,0,6.8,3.1,6.8,6.8c0,1.9-0.8,3.6-2,4.8c-1.2,1.2-2.9,2-4.8,2H418c-3.8,0-6.8-3.1-6.8-6.8
				c0-3.8,3.1-6.8,6.8-6.8H430.4z"/>
			<path class="st1" d="M430.4,77c3.8,0,6.8,3.1,6.8,6.8c0,1.9-0.8,3.6-2,4.8c-1.2,1.2-2.9,2-4.8,2h-28.7c-3.8,0-6.8-3.1-6.8-6.8
				c0-3.8,3.1-6.8,6.8-6.8H430.4z"/>
			<path class="st1" d="M430.4,101.4c3.8,0,6.8,3.1,6.8,6.8c0,1.9-0.8,3.6-2,4.8c-1.2,1.2-2.9,2-4.8,2h-45c-3.8,0-6.8-3.1-6.8-6.8
				c0-3.8,3.1-6.8,6.8-6.8H430.4z"/>
			<path class="st1" d="M430.4,125.9c3.8,0,6.8,3.1,6.8,6.8c0,1.9-0.8,3.6-2,4.8c-1.2,1.2-2.9,2-4.8,2h-53.2c-3.8,0-6.8-3.1-6.8-6.8
				c0-3.8,3.1-6.8,6.8-6.8H430.4z"/>
			<path class="st1" d="M430.4,150.3c3.8,0,6.8,3.1,6.8,6.8c0,1.9-0.8,3.6-2,4.8c-1.2,1.2-2.9,2-4.8,2h-69.5c-3.8,0-6.8-3.1-6.8-6.8
				c0-3.8,3.1-6.8,6.8-6.8H430.4z"/>
			<path class="st1" d="M430.4,174.8c3.8,0,6.8,3.1,6.8,6.8c0,1.9-0.8,3.6-2,4.8c-1.2,1.2-2.9,2-4.8,2h-69.5c-3.8,0-6.8-3.1-6.8-6.8
				c0-3.8,3.1-6.8,6.8-6.8H430.4z"/>
			<path class="st1" d="M430.4,199.2c3.8,0,6.8,3.1,6.8,6.8c0,1.9-0.8,3.6-2,4.8c-1.2,1.2-2.9,2-4.8,2h-53.2c-3.8,0-6.8-3.1-6.8-6.8
				c0-3.8,3.1-6.8,6.8-6.8H430.4z"/>
			<path class="st1" d="M430.4,223.7c3.8,0,6.8,3.1,6.8,6.8c0,1.9-0.8,3.6-2,4.8c-1.2,1.2-2.9,2-4.8,2h-45c-3.8,0-6.8-3.1-6.8-6.8
				c0-3.8,3.1-6.8,6.8-6.8H430.4z"/>
			<path class="st1" d="M430.4,248.1c3.8,0,6.8,3.1,6.8,6.8c0,1.9-0.8,3.6-2,4.8c-1.2,1.2-2.9,2-4.8,2h-28.7c-3.8,0-6.8-3.1-6.8-6.8
				c0-3.8,3.1-6.8,6.8-6.8H430.4z"/>
			<path class="st1" d="M430.4,272.6c3.8,0,6.8,3.1,6.8,6.8c0,1.9-0.8,3.6-2,4.8c-1.2,1.2-2.9,2-4.8,2H418c-3.8,0-6.8-3.1-6.8-6.8
				c0-3.8,3.1-6.8,6.8-6.8H430.4z"/>
			<path class="st1" d="M398.4,305.8v12.4c0,3.8-3.1,6.8-6.8,6.8c-1.9,0-3.6-0.8-4.8-2c-1.2-1.2-2-3-2-4.8v-12.4
				c0-3.8,3.1-6.8,6.8-6.8C395.3,298.9,398.4,302,398.4,305.8z"/>
			<path class="st1" d="M398.4,20.5V33c0,3.8-3.1,6.8-6.8,6.8c-3.8,0-6.8-3.1-6.8-6.8V20.5c0-3.8,3.1-6.8,6.8-6.8
				c1.9,0,3.6,0.8,4.8,2C397.6,16.9,398.4,18.6,398.4,20.5z"/>
			<path class="st1" d="M373.9,289.5v28.7c0,3.8-3.1,6.8-6.8,6.8c-1.9,0-3.6-0.8-4.8-2c-1.2-1.2-2-3-2-4.8v-28.7
				c0-3.8,3.1-6.8,6.8-6.8C370.9,282.6,373.9,285.7,373.9,289.5z"/>
			<path class="st1" d="M373.9,20.5v28.7c0,3.8-3.1,6.8-6.8,6.8c-3.8,0-6.8-3.1-6.8-6.8V20.5c0-3.8,3.1-6.8,6.8-6.8
				c1.9,0,3.6,0.8,4.8,2C373.2,16.9,373.9,18.6,373.9,20.5z"/>
			<path class="st1" d="M349.5,273.2v45c0,3.8-3.1,6.8-6.8,6.8c-1.9,0-3.6-0.8-4.8-2c-1.2-1.2-2-3-2-4.8v-45c0-3.8,3.1-6.8,6.8-6.8
				C346.4,266.3,349.5,269.4,349.5,273.2z"/>
			<path class="st1" d="M349.5,20.5v45c0,3.8-3.1,6.8-6.8,6.8c-3.8,0-6.8-3.1-6.8-6.8v-45c0-3.8,3.1-6.8,6.8-6.8
				c1.9,0,3.6,0.8,4.8,2C348.7,16.9,349.5,18.6,349.5,20.5z"/>
			<path class="st1" d="M325,265v53.2c0,3.8-3.1,6.8-6.8,6.8c-1.9,0-3.6-0.8-4.8-2c-1.2-1.2-2-3-2-4.8V265c0-3.8,3.1-6.8,6.8-6.8
				C322,258.2,325,261.3,325,265z"/>
			<path class="st1" d="M325,20.5v53.2c0,3.8-3.1,6.8-6.8,6.8c-3.8,0-6.8-3.1-6.8-6.8V20.5c0-3.8,3.1-6.8,6.8-6.8
				c1.9,0,3.6,0.8,4.8,2C324.3,16.9,325,18.6,325,20.5z"/>
			<path class="st1" d="M300.6,248.7v69.5c0,3.8-3.1,6.8-6.8,6.8c-1.9,0-3.6-0.8-4.8-2c-1.2-1.2-2-3-2-4.8v-69.5
				c0-3.8,3.1-6.8,6.8-6.8C297.5,241.9,300.6,245,300.6,248.7z"/>
			<path class="st2" d="M300.6,224.3v4.3c0,3.8-3.1,6.8-6.8,6.8c-1.9,0-3.6-0.8-4.8-2c-1.2-1.2-2-3-2-4.8v-4.3
				c0-3.8,3.1-6.8,6.8-6.8C297.5,217.5,300.6,220.5,300.6,224.3z"/>
			<path class="st1" d="M300.6,20.5V90c0,3.8-3.1,6.8-6.8,6.8c-3.8,0-6.8-3.1-6.8-6.8V20.5c0-3.8,3.1-6.8,6.8-6.8
				c1.9,0,3.6,0.8,4.8,2C299.8,16.9,300.6,18.6,300.6,20.5z"/>
			<path class="st3" d="M280.7,0v339h-88c-45,0-81.5-36.5-81.5-81.5v-176c0-45,36.5-81.5,81.5-81.5H280.7z M276.1,318.2v-69.5
				c0-3.8-3.1-6.8-6.8-6.8c-3.8,0-6.8,3.1-6.8,6.8v69.5c0,1.9,0.8,3.6,2,4.8c1.2,1.2,2.9,2,4.8,2C273.1,325,276.1,322,276.1,318.2z
				 M276.1,228.5v-4.3c0-3.8-3.1-6.8-6.8-6.8c-3.8,0-6.8,3.1-6.8,6.8v4.3c0,1.9,0.8,3.6,2,4.8c1.2,1.2,2.9,2,4.8,2
				C273.1,235.4,276.1,232.3,276.1,228.5z M276.1,90V20.5c0-1.9-0.8-3.6-2-4.8c-1.2-1.2-2.9-2-4.8-2c-3.8,0-6.8,3.1-6.8,6.8V90
				c0,3.8,3.1,6.8,6.8,6.8C273.1,96.8,276.1,93.8,276.1,90z M251.7,318.2V265c0-3.8-3.1-6.8-6.8-6.8c-3.8,0-6.8,3.1-6.8,6.8v53.2
				c0,1.9,0.8,3.6,2,4.8c1.2,1.2,2.9,2,4.8,2C248.6,325,251.7,322,251.7,318.2z M251.7,73.7V20.5c0-1.9-0.8-3.6-2-4.8
				c-1.2-1.2-2.9-2-4.8-2c-3.8,0-6.8,3.1-6.8,6.8v53.2c0,3.8,3.1,6.8,6.8,6.8C248.6,80.5,251.7,77.5,251.7,73.7z M227.3,318.2v-45
				c0-3.8-3.1-6.8-6.8-6.8c-3.8,0-6.8,3.1-6.8,6.8v45c0,1.9,0.8,3.6,2,4.8c1.2,1.2,2.9,2,4.8,2C224.2,325,227.3,322,227.3,318.2z
				 M227.3,65.6v-45c0-1.9-0.8-3.6-2-4.8c-1.2-1.2-2.9-2-4.8-2c-3.8,0-6.8,3.1-6.8,6.8v45c0,3.8,3.1,6.8,6.8,6.8
				C224.2,72.4,227.3,69.3,227.3,65.6z M205.8,157.1c0-3.8-3.1-6.8-6.8-6.8h-69.5c-1.9,0-3.6,0.8-4.8,2c-1.2,1.2-2,3-2,4.8
				c0,3.8,3.1,6.8,6.8,6.8h69.5C202.7,164,205.8,160.9,205.8,157.1z M205.8,181.6c0-3.8-3.1-6.8-6.8-6.8h-69.5c-1.9,0-3.6,0.8-4.8,2
				c-1.2,1.2-2,3-2,4.8c0,3.8,3.1,6.8,6.8,6.8h69.5C202.7,188.4,205.8,185.4,205.8,181.6z M202.8,318.2v-28.7c0-3.8-3.1-6.8-6.8-6.8
				c-3.8,0-6.8,3.1-6.8,6.8v28.7c0,1.9,0.8,3.6,2,4.8c1.2,1.2,2.9,2,4.8,2C199.7,325,202.8,322,202.8,318.2z M202.8,49.3V20.5
				c0-1.9-0.8-3.6-2-4.8c-1.2-1.2-2.9-2-4.8-2c-3.8,0-6.8,3.1-6.8,6.8v28.7c0,3.8,3.1,6.8,6.8,6.8C199.7,56.1,202.8,53,202.8,49.3z
				 M189.5,132.7c0-3.8-3.1-6.8-6.8-6.8h-53.2c-1.9,0-3.6,0.8-4.8,2c-1.2,1.2-2,3-2,4.8c0,3.8,3.1,6.8,6.8,6.8h53.2
				C186.4,139.5,189.5,136.5,189.5,132.7z M189.5,206c0-3.8-3.1-6.8-6.8-6.8h-53.2c-1.9,0-3.6,0.8-4.8,2c-1.2,1.2-2,3-2,4.8
				c0,3.8,3.1,6.8,6.8,6.8h53.2C186.4,212.9,189.5,209.8,189.5,206z M181.3,108.2c0-3.8-3.1-6.8-6.8-6.8h-45c-1.9,0-3.6,0.8-4.8,2
				c-1.2,1.2-2,3-2,4.8c0,3.8,3.1,6.8,6.8,6.8h45C178.2,115.1,181.3,112,181.3,108.2z M181.3,230.5c0-3.8-3.1-6.8-6.8-6.8h-45
				c-1.9,0-3.6,0.8-4.8,2c-1.2,1.2-2,3-2,4.8c0,3.8,3.1,6.8,6.8,6.8h45C178.2,237.3,181.3,234.3,181.3,230.5z M178.4,318.2v-12.4
				c0-3.8-3.1-6.8-6.8-6.8c-3.8,0-6.8,3.1-6.8,6.8v12.4c0,1.9,0.8,3.6,2,4.8c1.2,1.2,2.9,2,4.8,2C175.3,325,178.4,322,178.4,318.2z
				 M178.4,33V20.5c0-1.9-0.8-3.6-2-4.8c-1.2-1.2-2.9-2-4.8-2c-3.8,0-6.8,3.1-6.8,6.8V33c0,3.8,3.1,6.8,6.8,6.8
				C175.3,39.8,178.4,36.7,178.4,33z M165,83.8c0-3.8-3.1-6.8-6.8-6.8h-28.7c-1.9,0-3.6,0.8-4.8,2c-1.2,1.2-2,3-2,4.8
				c0,3.8,3.1,6.8,6.8,6.8h28.7C161.9,90.6,165,87.6,165,83.8z M165,254.9c0-3.8-3.1-6.8-6.8-6.8h-28.7c-1.9,0-3.6,0.8-4.8,2
				c-1.2,1.2-2,3-2,4.8c0,3.8,3.1,6.8,6.8,6.8h28.7C161.9,261.8,165,258.7,165,254.9z M148.7,59.3c0-3.8-3.1-6.8-6.8-6.8h-12.4
				c-1.9,0-3.6,0.8-4.8,2c-1.2,1.2-2,3-2,4.8c0,3.8,3.1,6.8,6.8,6.8h12.4C145.6,66.2,148.7,63.1,148.7,59.3z M148.7,279.4
				c0-3.8-3.1-6.8-6.8-6.8h-12.4c-1.9,0-3.6,0.8-4.8,2c-1.2,1.2-2,3-2,4.8c0,3.8,3.1,6.8,6.8,6.8h12.4
				C145.6,286.2,148.7,283.2,148.7,279.4z"/>
			<path class="st0" d="M276.1,248.7v69.5c0,3.8-3.1,6.8-6.8,6.8c-1.9,0-3.6-0.8-4.8-2c-1.2-1.2-2-3-2-4.8v-69.5
				c0-3.8,3.1-6.8,6.8-6.8C273.1,241.9,276.1,245,276.1,248.7z"/>
			<path class="st4" d="M276.1,224.3v4.3c0,3.8-3.1,6.8-6.8,6.8c-1.9,0-3.6-0.8-4.8-2c-1.2-1.2-2-3-2-4.8v-4.3
				c0-3.8,3.1-6.8,6.8-6.8C273.1,217.5,276.1,220.5,276.1,224.3z"/>
			<path class="st0" d="M276.1,20.5V90c0,3.8-3.1,6.8-6.8,6.8c-3.8,0-6.8-3.1-6.8-6.8V20.5c0-3.8,3.1-6.8,6.8-6.8
				c1.9,0,3.6,0.8,4.8,2C275.4,16.9,276.1,18.6,276.1,20.5z"/>
			<path class="st0" d="M251.7,265v53.2c0,3.8-3.1,6.8-6.8,6.8c-1.9,0-3.6-0.8-4.8-2c-1.2-1.2-2-3-2-4.8V265c0-3.8,3.1-6.8,6.8-6.8
				C248.6,258.2,251.7,261.3,251.7,265z"/>
			<path class="st0" d="M251.7,20.5v53.2c0,3.8-3.1,6.8-6.8,6.8c-3.8,0-6.8-3.1-6.8-6.8V20.5c0-3.8,3.1-6.8,6.8-6.8
				c1.9,0,3.6,0.8,4.8,2C250.9,16.9,251.7,18.6,251.7,20.5z"/>
			<path class="st0" d="M227.3,273.2v45c0,3.8-3.1,6.8-6.8,6.8c-1.9,0-3.6-0.8-4.8-2c-1.2-1.2-2-3-2-4.8v-45c0-3.8,3.1-6.8,6.8-6.8
				C224.2,266.3,227.3,269.4,227.3,273.2z"/>
			<path class="st0" d="M227.3,20.5v45c0,3.8-3.1,6.8-6.8,6.8c-3.8,0-6.8-3.1-6.8-6.8v-45c0-3.8,3.1-6.8,6.8-6.8
				c1.9,0,3.6,0.8,4.8,2C226.5,16.9,227.3,18.6,227.3,20.5z"/>
			<path class="st0" d="M198.9,150.3c3.8,0,6.8,3.1,6.8,6.8c0,3.8-3.1,6.8-6.8,6.8h-69.5c-3.8,0-6.8-3.1-6.8-6.8
				c0-1.9,0.8-3.6,2-4.8c1.2-1.2,2.9-2,4.8-2H198.9z"/>
			<path class="st0" d="M198.9,174.8c3.8,0,6.8,3.1,6.8,6.8c0,3.8-3.1,6.8-6.8,6.8h-69.5c-3.8,0-6.8-3.1-6.8-6.8
				c0-1.9,0.8-3.6,2-4.8c1.2-1.2,2.9-2,4.8-2H198.9z"/>
			<path class="st0" d="M202.8,289.5v28.7c0,3.8-3.1,6.8-6.8,6.8c-1.9,0-3.6-0.8-4.8-2c-1.2-1.2-2-3-2-4.8v-28.7
				c0-3.8,3.1-6.8,6.8-6.8C199.7,282.6,202.8,285.7,202.8,289.5z"/>
			<path class="st0" d="M202.8,20.5v28.7c0,3.8-3.1,6.8-6.8,6.8c-3.8,0-6.8-3.1-6.8-6.8V20.5c0-3.8,3.1-6.8,6.8-6.8
				c1.9,0,3.6,0.8,4.8,2C202,16.9,202.8,18.6,202.8,20.5z"/>
			<path class="st0" d="M182.6,125.9c3.8,0,6.8,3.1,6.8,6.8c0,3.8-3.1,6.8-6.8,6.8h-53.2c-3.8,0-6.8-3.1-6.8-6.8
				c0-1.9,0.8-3.6,2-4.8c1.2-1.2,2.9-2,4.8-2H182.6z"/>
			<path class="st0" d="M182.6,199.2c3.8,0,6.8,3.1,6.8,6.8c0,3.8-3.1,6.8-6.8,6.8h-53.2c-3.8,0-6.8-3.1-6.8-6.8
				c0-1.9,0.8-3.6,2-4.8c1.2-1.2,2.9-2,4.8-2H182.6z"/>
			<path class="st0" d="M174.5,101.4c3.8,0,6.8,3.1,6.8,6.8c0,3.8-3.1,6.8-6.8,6.8h-45c-3.8,0-6.8-3.1-6.8-6.8c0-1.9,0.8-3.6,2-4.8
				c1.2-1.2,2.9-2,4.8-2H174.5z"/>
			<path class="st0" d="M174.5,223.7c3.8,0,6.8,3.1,6.8,6.8c0,3.8-3.1,6.8-6.8,6.8h-45c-3.8,0-6.8-3.1-6.8-6.8c0-1.9,0.8-3.6,2-4.8
				c1.2-1.2,2.9-2,4.8-2H174.5z"/>
			<path class="st0" d="M178.4,305.8v12.4c0,3.8-3.1,6.8-6.8,6.8c-1.9,0-3.6-0.8-4.8-2c-1.2-1.2-2-3-2-4.8v-12.4
				c0-3.8,3.1-6.8,6.8-6.8C175.3,298.9,178.4,302,178.4,305.8z"/>
			<path class="st0" d="M178.4,20.5V33c0,3.8-3.1,6.8-6.8,6.8c-3.8,0-6.8-3.1-6.8-6.8V20.5c0-3.8,3.1-6.8,6.8-6.8
				c1.9,0,3.6,0.8,4.8,2C177.6,16.9,178.4,18.6,178.4,20.5z"/>
			<path class="st0" d="M158.2,77c3.8,0,6.8,3.1,6.8,6.8c0,3.8-3.1,6.8-6.8,6.8h-28.7c-3.8,0-6.8-3.1-6.8-6.8c0-1.9,0.8-3.6,2-4.8
				c1.2-1.2,2.9-2,4.8-2H158.2z"/>
			<path class="st0" d="M158.2,248.1c3.8,0,6.8,3.1,6.8,6.8c0,3.8-3.1,6.8-6.8,6.8h-28.7c-3.8,0-6.8-3.1-6.8-6.8
				c0-1.9,0.8-3.6,2-4.8c1.2-1.2,2.9-2,4.8-2H158.2z"/>
			<path class="st0" d="M141.9,52.5c3.8,0,6.8,3.1,6.8,6.8c0,3.8-3.1,6.8-6.8,6.8h-12.4c-3.8,0-6.8-3.1-6.8-6.8c0-1.9,0.8-3.6,2-4.8
				c1.2-1.2,2.9-2,4.8-2H141.9z"/>
			<path class="st0" d="M141.9,272.6c3.8,0,6.8,3.1,6.8,6.8c0,3.8-3.1,6.8-6.8,6.8h-12.4c-3.8,0-6.8-3.1-6.8-6.8
				c0-1.9,0.8-3.6,2-4.8c1.2-1.2,2.9-2,4.8-2H141.9z"/>
		</g>
		<g>
		</g>
	</g>
	<g>
		<circle class="st3" cx="177.1" cy="405.2" r="177.1"/>
		<circle class="st4" cx="177.1" cy="405.2" r="91.1"/>
		<circle class="st3" cx="177.1" cy="405.2" r="77.1"/>
		<path class="st0" d="M177.1,228.1v354.3c97.8,0,177.1-79.3,177.1-177.1S275,228.1,177.1,228.1z"/>
		<path class="st5" d="M177.1,314.1v182.2c50.3,0,91.1-40.8,91.1-91.1S227.4,314.1,177.1,314.1z"/>
		<path class="st0" d="M177.1,328.1v154.2c42.6,0,77.1-34.5,77.1-77.1S219.7,328.1,177.1,328.1z"/>
	</g>
	<g>
		<circle class="st3" cx="1186.8" cy="405.2" r="177.1"/>
		<circle class="st4" cx="1186.8" cy="405.2" r="91.1"/>
		<circle class="st3" cx="1186.8" cy="405.2" r="77.1"/>
		<path class="st0" d="M1186.8,228.1v354.3c97.8,0,177.1-79.3,177.1-177.1S1284.6,228.1,1186.8,228.1z"/>
		<path class="st5" d="M1186.8,314.1v182.2c50.3,0,91.1-40.8,91.1-91.1S1237.1,314.1,1186.8,314.1z"/>
		<path class="st0" d="M1186.8,328.1v154.2c42.6,0,77.1-34.5,77.1-77.1S1229.4,328.1,1186.8,328.1z"/>
	</g>
</g>
<g id="Layer_3">
	<g class="st6">
		<path d="M368.7,0h-176c-45,0-81.5,36.5-81.5,81.5v159.2C46,266.9,0,330.7,0,405.2C0,503,79.3,582.3,177.1,582.3
			c1.5,0,3.1,0,4.6-0.1c6.1-0.2,12.1-0.6,18-1.4c7.4-0.9,14.6-2.3,21.7-4.2c11.3-2.9,22.2-6.9,32.5-11.9c1.3-0.6,2.6-1.3,3.8-1.9
			c5.1-2.6,10-5.5,14.8-8.5c1.2-0.8,2.4-1.5,3.6-2.3c10.6-7.2,20.4-15.4,29.2-24.7c2.9-3.1,5.8-6.3,8.5-9.5c1.8-2.2,3.6-4.4,5.3-6.7
			c0.9-1.1,1.7-2.3,2.5-3.4c1.6-2.3,3.2-4.7,4.8-7.1c3.8-6,7.3-12.2,10.4-18.7c1.2-2.6,2.4-5.2,3.5-7.8c9-21.2,13.9-44.5,13.9-68.9
			c0-21.4-3.8-41.9-10.7-60.9c-0.6-1.8-1.3-3.5-2-5.3h27.3c45,0,81.5-36.5,81.5-81.5v-176C450.2,36.5,413.8,0,368.7,0z"/>
		<path d="M1353.2,344.3c-2-5.4-4.2-10.7-6.7-15.9c-1.9-3.9-3.9-7.7-6-11.4c-1.4-2.5-2.9-4.9-4.4-7.3c-0.8-1.2-1.6-2.4-2.3-3.6
			c-8-11.8-17.3-22.6-27.8-32.1c-1-1-2.1-1.9-3.2-2.8c-14.4-12.5-30.9-22.7-48.8-30V81.5c0-45-36.5-81.5-81.5-81.5h-176
			c-45,0-81.5,36.5-81.5,81.5v176c0,45,36.5,81.5,81.5,81.5h26c-8.2,20.4-12.8,42.8-12.8,66.2c0,97.8,79.3,177.1,177.1,177.1
			s177.1-79.3,177.1-177.1C1363.9,383.8,1360.1,363.3,1353.2,344.3z"/>
	</g>
</g>
<g id="Layer_2">
	<g id="XMLID_20_">
		<g>
			<path class="st0" d="M1095.7,595.4v2.1c0,9.8-12.7,17.8-28.5,17.8H682V595h57.1c5.2,0,9.5-4.3,9.5-9.5v-7.9h272.3h46.4h19
				c5.2,0,9.5,2.6,9.5,5.9V595.4z"/>
			<path class="st1" d="M748.6,577.6H682v-25.3h318.2c5.2,0,9.5-4.3,9.5-9.5V189.5v-41c0-5.2-4.3-9.5-9.5-9.5H682v-9.8
				c4.2,0,7.5-3.4,7.5-7.5c0-4.2-3.4-7.5-7.5-7.5V96.7h338.9c15.7,0,28.5,12.7,28.5,28.5v424c0,15.7-12.8,28.5-28.5,28.5H748.6z"/>
			<path class="st7" d="M1009.7,189.5v353.4c0,5.2-4.3,9.5-9.5,9.5H682v-17.1h22c10.5,0,19-8.5,19-19V398.5c0-10.5-8.5-19-19-19h-22
				v-16.1h285.9c10.5,0,19-8.5,19-19V226.7c0-10.5-8.5-19-19-19H682v-18.2H1009.7z M986.9,516.3V398.5c0-10.5-8.5-19-19-19H758.1
				c-10.5,0-19,8.5-19,19v117.7c0,10.5,8.5,19,19,19h209.8C978.4,535.2,986.9,526.7,986.9,516.3z"/>
			<path class="st8" d="M1009.7,148.5v41H682V139h318.2C1005.4,139,1009.7,143.3,1009.7,148.5z"/>
			<path class="st9" d="M986.9,398.5v117.7c0,10.5-8.5,19-19,19H758.1c-10.5,0-19-8.5-19-19V398.5c0-10.5,8.5-19,19-19h209.8
				C978.4,379.6,986.9,388.1,986.9,398.5z M923.1,457.4c0-16.6-6.7-31.6-17.6-42.5c-10.9-10.9-25.9-17.6-42.5-17.6
				c-33.2,0-60.1,26.9-60.1,60.1c0,16.6,6.7,31.6,17.6,42.5c10.9,10.9,25.9,17.6,42.5,17.6C896.2,517.5,923.1,490.6,923.1,457.4z"/>
			<path class="st9" d="M986.9,226.7v117.7c0,10.5-8.5,19-19,19H682V207.7h285.9C978.4,207.7,986.9,216.2,986.9,226.7z"/>
			<path class="st10" d="M905.5,414.9c10.9,10.9,17.6,25.9,17.6,42.5c0,33.2-26.9,60.1-60.1,60.1v-60.1L905.5,414.9z"/>
			<path class="st8" d="M905.5,414.9L863,457.4v-60.1C879.6,397.3,894.6,404,905.5,414.9z"/>
			<path class="st11" d="M863,457.4v60.1c-16.6,0-31.6-6.7-42.5-17.6L863,457.4z"/>
			<path class="st8" d="M863,397.3v60.1l-42.5,42.5c-10.9-10.9-17.6-25.9-17.6-42.5C802.9,424.2,829.8,397.3,863,397.3z"/>
			<path class="st12" d="M748.6,577.6v7.9c0,5.2-4.3,9.5-9.5,9.5H682v-17.4H748.6z"/>
			<path class="st9" d="M723,398.5v117.7c0,10.5-8.5,19-19,19h-22V379.6h22C714.5,379.6,723,388.1,723,398.5z"/>
			<path class="st12" d="M682,114.1c4.2,0,7.5,3.4,7.5,7.5c0,4.2-3.4,7.5-7.5,7.5V114.1z"/>
			<path class="st3" d="M682,595v20.2H296.7c-15.7,0-28.5-8-28.5-17.8v-2.1v-11.8c0-3.3,4.3-5.9,9.5-5.9h19h46.4h272.3v7.9
				c0,5.2,4.3,9.5,9.5,9.5H682z"/>
			<path class="st1" d="M682,577.6V595h-57.1c-5.2,0-9.5-4.3-9.5-9.5v-7.9H682z"/>
			<path class="st0" d="M615.3,577.6H343.1c-15.7,0-28.5-12.8-28.5-28.5v-424c0-15.7,12.7-28.5,28.5-28.5H682v17.5
				c-4.2,0-7.5,3.4-7.5,7.5c0,4.2,3.4,7.5,7.5,7.5v9.8H363.8c-5.2,0-9.5,4.3-9.5,9.5v41v353.4c0,5.2,4.3,9.5,9.5,9.5h88.7H682v25.3
				H615.3z"/>
			<path class="st7" d="M682,535.2v17.1H452.5V189.5H682v18.2H491.3c-10.5,0-19,8.5-19,19v117.7c0,10.5,8.5,19,19,19H682v16.1H491.3
				c-10.5,0-19,8.5-19,19v117.7c0,10.5,8.5,19,19,19H682z"/>
			<path class="st9" d="M682,379.6v155.7H491.3c-10.5,0-19-8.5-19-19V398.5c0-10.5,8.5-19,19-19H682z M657.8,457.4
				c0-16.6-6.7-31.6-17.6-42.5c-10.9-10.9-25.9-17.6-42.5-17.6c-33.2,0-60.1,26.9-60.1,60.1c0,16.6,6.7,31.6,17.6,42.5
				c10.9,10.9,25.9,17.6,42.5,17.6C630.9,517.5,657.8,490.6,657.8,457.4z"/>
			<path class="st9" d="M682,207.7v155.7H491.3c-10.5,0-19-8.5-19-19V226.7c0-10.5,8.5-19,19-19H682z"/>
			<path class="st8" d="M682,139v50.5H452.5h-98.2v-41c0-5.2,4.3-9.5,9.5-9.5H682z"/>
			<path class="st1" d="M682,114.1v15.1c-4.2,0-7.5-3.4-7.5-7.5C674.4,117.5,677.8,114.1,682,114.1z"/>
			<path class="st13" d="M640.2,414.9c10.9,10.9,17.6,25.9,17.6,42.5c0,33.2-26.9,60.1-60.1,60.1v-60.1L640.2,414.9z"/>
			<path class="st14" d="M640.2,414.9l-42.5,42.5v-60.1C614.2,397.3,629.3,404,640.2,414.9z"/>
			<path class="st13" d="M597.7,457.4v60.1c-16.6,0-31.6-6.7-42.5-17.6L597.7,457.4z"/>
			<path class="st15" d="M597.7,397.3v60.1l-42.5,42.5c-10.9-10.9-17.6-25.9-17.6-42.5C537.5,424.2,564.4,397.3,597.7,397.3z"/>
			<path class="st16" d="M452.5,189.5v362.8h-88.7c-5.2,0-9.5-4.3-9.5-9.5V189.5H452.5z"/>
		</g>
		<g>
		</g>
	</g>
</g>
<g id="Layer_4">
	<g>
		<path class="st17" d="M999.8,552.4H364.3c-5.5,0-10-4.5-10-10V185.3c0-16.5,13.5-30,30-30h595.5c16.5,0,30,13.5,30,30v357.1
			C1009.8,547.9,1005.3,552.4,999.8,552.4z"/>
		<path class="st18" d="M446.2,552.4h-81.9c-5.5,0-10-4.5-10-10V178.1h91.9V552.4z"/>
		<path class="st9" d="M979.4,279.4H475c-5.5,0-10-4.5-10-10v-58.6c0-5.5,4.5-10,10-10h504.4c5.5,0,10,4.5,10,10v58.6
			C989.4,274.9,984.9,279.4,979.4,279.4z"/>
		<path class="st19" d="M630.2,535.2H478.8c-5.5,0-10-4.5-10-10V315.2c0-5.5,4.5-10,10-10h151.3c5.5,0,10,4.5,10,10v210.1
			C640.2,530.7,635.7,535.2,630.2,535.2z"/>
		<path class="st9" d="M979.4,535.2h-295c-5.5,0-10-4.5-10-10v-209c0-5.5,4.5-10,10-10h295c5.5,0,10,4.5,10,10v209
			C989.4,530.7,984.9,535.2,979.4,535.2z"/>
		<path class="st20" d="M999.8,139.5H364.3c-5.5,0-10,4.5-10,10v36.4h655.5v-36.4C1009.8,144,1005.3,139.5,999.8,139.5z"/>
		<circle class="st21" cx="831.9" cy="420.7" r="81.7"/>
		<path class="st19" d="M831.9,339v163.4c45.1,0,81.7-36.6,81.7-81.7C913.7,375.6,877.1,339,831.9,339z"/>
		<path class="st19" d="M889.7,363L774.1,478.5c31.9,31.9,83.7,31.9,115.6,0C921.6,446.6,921.6,394.9,889.7,363z"/>
		<circle class="st9" cx="831.9" cy="420.7" r="61.9"/>
		<path class="st19" d="M970.2,248.1H487.9c-2.8,0-5-2.2-5-5v-7.6c0-2.8,2.2-5,5-5h482.3c2.8,0,5,2.2,5,5v7.6
			C975.2,245.9,973,248.1,970.2,248.1z"/>
		<rect x="715.6" y="230.5" class="st22" width="26.9" height="17.6"/>
		<rect x="516.9" y="230.5" class="st22" width="53.7" height="17.6"/>
		<rect x="576.9" y="230.5" class="st22" width="4.8" height="17.6"/>
		<path class="st9" d="M630.2,535.2H478.8c-5.5,0-10-4.5-10-10V312h171.3v213.2C640.2,530.7,635.7,535.2,630.2,535.2z"/>
		<path class="st1" d="M626.9,339h-145c-2.8,0-5-2.2-5-5v-4c0-2.8,2.2-5,5-5h145c2.8,0,5,2.2,5,5v4C631.9,336.8,629.7,339,626.9,339
			z"/>
		<path class="st12" d="M517.2,375.5h-35.2c-2.8,0-5-2.2-5-5V370c0-2.8,2.2-5,5-5h35.2c2.8,0,5,2.2,5,5v0.5
			C522.2,373.2,519.9,375.5,517.2,375.5z"/>
		<path class="st12" d="M517.2,435.5h-35.2c-2.8,0-5-2.2-5-5V430c0-2.8,2.2-5,5-5h35.2c2.8,0,5,2.2,5,5v0.5
			C522.2,433.2,519.9,435.5,517.2,435.5z"/>
		<path class="st20" d="M532.5,515h-50.6c-2.8,0-5-2.2-5-5v-18.1c0-2.8,2.2-5,5-5h50.6c2.8,0,5,2.2,5,5V510
			C537.5,512.8,535.3,515,532.5,515z"/>
		<path class="st1" d="M564.2,399h-82.2c-2.8,0-5-2.2-5-5v-4c0-2.8,2.2-5,5-5h82.2c2.8,0,5,2.2,5,5v4
			C569.2,396.8,566.9,399,564.2,399z"/>
		<path class="st1" d="M539.6,459h-57.7c-2.8,0-5-2.2-5-5v-4c0-2.8,2.2-5,5-5h57.7c2.8,0,5,2.2,5,5v4
			C544.6,456.8,542.4,459,539.6,459z"/>
	</g>
</g>
</svg>
