<svg xmlns="http://www.w3.org/2000/svg" viewBox="0 0 1500 1500"><defs><style>.cls-1{fill:#fff;}.cls-2{fill:#f78c6b;}.cls-2,.cls-3,.cls-4,.cls-5,.cls-6,.cls-7,.cls-8{opacity:0.5;}.cls-3{fill:#08b;}.cls-4{fill:#16ac5b;}.cls-5{fill:#ffd166;}.cls-6{fill:#8f2d56;}.cls-7{fill:#485b89;}.cls-8{fill:#ef476f;}</style></defs><title>mimo-bg</title><g id="Layer_2" data-name="Layer 2"><rect class="cls-1" width="1500" height="1500"/></g><g id="Layer_1" data-name="Layer 1"><path class="cls-2" d="M34.8,476a24.57,24.57,0,0,0,34.3-4.4l71.2-92.2a24.45,24.45,0,0,0-38.7-29.9L30.4,441.7A24.57,24.57,0,0,0,34.8,476Z" transform="translate(500 500)"/><path class="cls-3" d="M283.2,187.5a24.49,24.49,0,0,0-22,26.6L272.1,330a24.41,24.41,0,1,0,48.6-4.6L309.8,209.5A24.37,24.37,0,0,0,283.2,187.5Z" transform="translate(500 500)"/><path class="cls-4" d="M425.2,19.8l-70.1,93a24.42,24.42,0,0,1-39-29.4L379,0l7.2-9.6a24.51,24.51,0,0,1,34.2-4.8A24.28,24.28,0,0,1,429.6,0,24.14,24.14,0,0,1,425.2,19.8Z" transform="translate(500 500)"/><path class="cls-5" d="M302.2,474l-75.1,26-35,12.1A24.65,24.65,0,0,1,162.3,500a27.12,27.12,0,0,1-1.3-3,24.52,24.52,0,0,1,15.1-31.1l110.1-38.1a24.45,24.45,0,0,1,16,46.2Z" transform="translate(500 500)"/><path class="cls-6" d="M126.7,63.6a24.42,24.42,0,0,0-7.1,33.8l63.6,97.5a24.42,24.42,0,1,0,40.9-26.7L160.5,70.7A24.5,24.5,0,0,0,126.7,63.6Z" transform="translate(500 500)"/><path class="cls-5" d="M584.2,152a24.53,24.53,0,0,1-30.6,16.1L500,151.5l-57.7-17.9a24.45,24.45,0,1,1,14.5-46.7L500,100.3l68.1,21.1A24.57,24.57,0,0,1,584.2,152Z" transform="translate(500 500)"/><path class="cls-7" d="M426.2,311.7a24.42,24.42,0,1,0-45.4,18l43,108.2a24.42,24.42,0,0,0,45.4-18Z" transform="translate(500 500)"/><path class="cls-4" d="M534.8,476a24.57,24.57,0,0,0,34.3-4.4l71.2-92.2a24.45,24.45,0,0,0-38.7-29.9l-71.2,92.2A24.57,24.57,0,0,0,534.8,476Z" transform="translate(500 500)"/><path class="cls-3" d="M783.2,187.5a24.49,24.49,0,0,0-22,26.6L772.1,330a24.41,24.41,0,0,0,48.6-4.6L809.8,209.5A24.37,24.37,0,0,0,783.2,187.5Z" transform="translate(500 500)"/><path class="cls-5" d="M1000,255.7l-28-3.5a24.44,24.44,0,1,0-6.1,48.5l34,4.2V255.7Z" transform="translate(500 500)"/><path class="cls-3" d="M925.2,19.8l-70.1,93a24.42,24.42,0,0,1-39-29.4L879,0l7.2-9.6a24.51,24.51,0,0,1,34.2-4.8A24.28,24.28,0,0,1,929.6,0,24.14,24.14,0,0,1,925.2,19.8Z" transform="translate(500 500)"/><path class="cls-7" d="M802.2,474l-75.1,26-35,12.1A24.65,24.65,0,0,1,662.3,500a27.12,27.12,0,0,1-1.3-3,24.52,24.52,0,0,1,15.1-31.1l110.1-38.1a24.45,24.45,0,0,1,16,46.2Z" transform="translate(500 500)"/><path class="cls-6" d="M626.7,63.6a24.42,24.42,0,0,0-7.1,33.8l63.6,97.5a24.42,24.42,0,1,0,40.9-26.7L660.5,70.7A24.5,24.5,0,0,0,626.7,63.6Z" transform="translate(500 500)"/><path class="cls-2" d="M926.2,103a24.53,24.53,0,0,0,16.1,30.6l57.7,17.9V100.3L956.8,86.9A24.61,24.61,0,0,0,926.2,103Z" transform="translate(500 500)"/><path class="cls-8" d="M926.2,311.7a24.42,24.42,0,1,0-45.4,18l43,108.2a24.42,24.42,0,1,0,45.4-18Z" transform="translate(500 500)"/><path class="cls-7" d="M534.8-24a24.57,24.57,0,0,0,34.3-4.4l71.2-92.2a24.57,24.57,0,0,0-4.4-34.3,24.57,24.57,0,0,0-34.3,4.4L530.4-58.3A24.57,24.57,0,0,0,534.8-24Z" transform="translate(500 500)"/><path class="cls-6" d="M783.2-312.5a24.49,24.49,0,0,0-22,26.6L772.1-170a24.49,24.49,0,0,0,26.6,22,24.49,24.49,0,0,0,22-26.6L809.8-290.5A24.37,24.37,0,0,0,783.2-312.5Z" transform="translate(500 500)"/><path class="cls-7" d="M1000-244.3l-28-3.5a24.5,24.5,0,0,0-27.3,21.2,24.5,24.5,0,0,0,21.2,27.3l34,4.2v-49.2Z" transform="translate(500 500)"/><path class="cls-2" d="M816.1-416.6a24.51,24.51,0,0,0,4.8,34.2,24.51,24.51,0,0,0,34.2-4.8l70.1-93a24.14,24.14,0,0,0,4.4-19.8H879Z" transform="translate(500 500)"/><path class="cls-7" d="M802.2-26,727.1,0l-35,12.1A24.65,24.65,0,0,1,662.3,0,27.12,27.12,0,0,1,661-3a24.52,24.52,0,0,1,15.1-31.1L786.2-72.2a24.52,24.52,0,0,1,31.1,15.1A24.52,24.52,0,0,1,802.2-26Z" transform="translate(500 500)"/><path class="cls-4" d="M626.7-436.4a24.42,24.42,0,0,0-7.1,33.8l63.6,97.5A24.42,24.42,0,0,0,717-298a24.5,24.5,0,0,0,7.1-33.8l-63.6-97.5A24.5,24.5,0,0,0,626.7-436.4Z" transform="translate(500 500)"/><path class="cls-6" d="M926.2-397a24.53,24.53,0,0,0,16.1,30.6l57.7,17.9v-51.2l-43.2-13.4A24.61,24.61,0,0,0,926.2-397Z" transform="translate(500 500)"/><path class="cls-5" d="M692.1-487.9l35-12.1H662.3A24.65,24.65,0,0,0,692.1-487.9Z" transform="translate(500 500)"/><path class="cls-2" d="M926.2-188.3A24.45,24.45,0,0,0,894.5-202a24.49,24.49,0,0,0-13.7,31.7l43,108.2a24.49,24.49,0,0,0,31.7,13.7,24.49,24.49,0,0,0,13.7-31.7Z" transform="translate(500 500)"/><path class="cls-6" d="M34.8-24a24.57,24.57,0,0,0,34.3-4.4l71.2-92.2a24.57,24.57,0,0,0-4.4-34.3,24.57,24.57,0,0,0-34.3,4.4L30.4-58.3A24.57,24.57,0,0,0,34.8-24Z" transform="translate(500 500)"/><path class="cls-3" d="M283.2-312.5a24.49,24.49,0,0,0-22,26.6L272.1-170a24.49,24.49,0,0,0,26.6,22,24.49,24.49,0,0,0,22-26.6L309.8-290.5A24.37,24.37,0,0,0,283.2-312.5Z" transform="translate(500 500)"/><path class="cls-4" d="M316.1-416.6a24.51,24.51,0,0,0,4.8,34.2,24.51,24.51,0,0,0,34.2-4.8l70.1-93a24.14,24.14,0,0,0,4.4-19.8H379Z" transform="translate(500 500)"/><path class="cls-7" d="M302.2-26,227.1,0l-35,12.1A24.65,24.65,0,0,1,162.3,0,27.12,27.12,0,0,1,161-3a24.52,24.52,0,0,1,15.1-31.1L286.2-72.2a24.52,24.52,0,0,1,31.1,15.1A24.52,24.52,0,0,1,302.2-26Z" transform="translate(500 500)"/><path class="cls-2" d="M126.7-436.4a24.42,24.42,0,0,0-7.1,33.8l63.6,97.5A24.42,24.42,0,0,0,217-298a24.5,24.5,0,0,0,7.1-33.8l-63.6-97.5A24.5,24.5,0,0,0,126.7-436.4Z" transform="translate(500 500)"/><path class="cls-7" d="M584.2-348a24.53,24.53,0,0,1-30.6,16.1L500-348.5l-57.7-17.9A24.53,24.53,0,0,1,426.2-397a24.61,24.61,0,0,1,30.6-16.1L500-399.7l68.1,21.1A24.57,24.57,0,0,1,584.2-348Z" transform="translate(500 500)"/><path class="cls-2" d="M192.1-487.9l35-12.1H162.3A24.65,24.65,0,0,0,192.1-487.9Z" transform="translate(500 500)"/><path class="cls-6" d="M426.2-188.3A24.45,24.45,0,0,0,394.5-202a24.49,24.49,0,0,0-13.7,31.7l43,108.2a24.49,24.49,0,0,0,31.7,13.7,24.49,24.49,0,0,0,13.7-31.7Z" transform="translate(500 500)"/><path class="cls-8" d="M-465.2-24a24.57,24.57,0,0,0,34.3-4.4l71.2-92.2a24.57,24.57,0,0,0-4.4-34.3,24.57,24.57,0,0,0-34.3,4.4l-71.2,92.2A24.57,24.57,0,0,0-465.2-24Z" transform="translate(500 500)"/><path class="cls-6" d="M-216.8-312.5a24.49,24.49,0,0,0-22,26.6L-227.9-170a24.49,24.49,0,0,0,26.6,22,24.49,24.49,0,0,0,22-26.6l-10.9-115.9A24.37,24.37,0,0,0-216.8-312.5Z" transform="translate(500 500)"/><path class="cls-6" d="M-500-348.5l53.6,16.6A24.53,24.53,0,0,0-415.8-348a24.57,24.57,0,0,0-16.1-30.6L-500-399.7Z" transform="translate(500 500)"/><path class="cls-8" d="M-183.9-416.6a24.51,24.51,0,0,0,4.8,34.2,24.51,24.51,0,0,0,34.2-4.8l70.1-93A24.14,24.14,0,0,0-70.4-500H-121Z" transform="translate(500 500)"/><path class="cls-7" d="M-197.8-26-272.9,0l-35,12.1A24.65,24.65,0,0,1-337.7,0,27.12,27.12,0,0,1-339-3a24.52,24.52,0,0,1,15.1-31.1l110.1-38.1a24.52,24.52,0,0,1,31.1,15.1A24.52,24.52,0,0,1-197.8-26Z" transform="translate(500 500)"/><path class="cls-5" d="M-373.3-436.4a24.42,24.42,0,0,0-7.1,33.8l63.6,97.5A24.42,24.42,0,0,0-283-298a24.5,24.5,0,0,0,7.1-33.8l-63.6-97.5A24.5,24.5,0,0,0-373.3-436.4Z" transform="translate(500 500)"/><path class="cls-3" d="M84.2-348a24.53,24.53,0,0,1-30.6,16.1L0-348.5l-57.7-17.9A24.53,24.53,0,0,1-73.8-397a24.61,24.61,0,0,1,30.6-16.1L0-399.7l68.1,21.1A24.57,24.57,0,0,1,84.2-348Z" transform="translate(500 500)"/><path class="cls-7" d="M-391.2-206.2a24.5,24.5,0,0,0-21.2-27.3L-500-244.3V-195l81.5,10.1A24.58,24.58,0,0,0-391.2-206.2Z" transform="translate(500 500)"/><path class="cls-7" d="M-307.9-487.9l35-12.1h-64.8A24.65,24.65,0,0,0-307.9-487.9Z" transform="translate(500 500)"/><path class="cls-7" d="M-73.8-188.3A24.45,24.45,0,0,0-105.5-202a24.49,24.49,0,0,0-13.7,31.7l43,108.2A24.49,24.49,0,0,0-44.5-48.4,24.49,24.49,0,0,0-30.8-80.1Z" transform="translate(500 500)"/><path class="cls-2" d="M-465.2,476a24.57,24.57,0,0,0,34.3-4.4l71.2-92.2a24.57,24.57,0,0,0-4.4-34.3,24.57,24.57,0,0,0-34.3,4.4l-71.2,92.2A24.57,24.57,0,0,0-465.2,476Z" transform="translate(500 500)"/><path class="cls-8" d="M-216.8,187.5a24.49,24.49,0,0,0-22,26.6L-227.9,330a24.49,24.49,0,0,0,26.6,22,24.49,24.49,0,0,0,22-26.6l-10.9-115.9A24.37,24.37,0,0,0-216.8,187.5Z" transform="translate(500 500)"/><path class="cls-2" d="M-500,151.5l53.6,16.6A24.53,24.53,0,0,0-415.8,152a24.57,24.57,0,0,0-16.1-30.6L-500,100.3Z" transform="translate(500 500)"/><path class="cls-4" d="M-74.8,19.8l-70.1,93a24.51,24.51,0,0,1-34.2,4.8,24.51,24.51,0,0,1-4.8-34.2L-121,0l7.2-9.6a24.51,24.51,0,0,1,34.2-4.8A24.28,24.28,0,0,1-70.4,0,24.14,24.14,0,0,1-74.8,19.8Z" transform="translate(500 500)"/><path class="cls-6" d="M-197.8,474l-75.1,26-35,12.1A24.65,24.65,0,0,1-337.7,500a27.12,27.12,0,0,1-1.3-3,24.52,24.52,0,0,1,15.1-31.1l110.1-38.1a24.52,24.52,0,0,1,31.1,15.1A24.52,24.52,0,0,1-197.8,474Z" transform="translate(500 500)"/><path class="cls-8" d="M-373.3,63.6a24.42,24.42,0,0,0-7.1,33.8l63.6,97.5A24.42,24.42,0,0,0-283,202a24.5,24.5,0,0,0,7.1-33.8l-63.6-97.5A24.5,24.5,0,0,0-373.3,63.6Z" transform="translate(500 500)"/><path class="cls-3" d="M84.2,152a24.53,24.53,0,0,1-30.6,16.1L0,151.5l-57.7-17.9A24.53,24.53,0,0,1-73.8,103,24.61,24.61,0,0,1-43.2,86.9L0,100.3l68.1,21.1A24.57,24.57,0,0,1,84.2,152Z" transform="translate(500 500)"/><path class="cls-5" d="M-391.2,293.8a24.5,24.5,0,0,0-21.2-27.3L-500,255.7V305l81.5,10.1A24.58,24.58,0,0,0-391.2,293.8Z" transform="translate(500 500)"/><path class="cls-7" d="M-73.8,311.7A24.45,24.45,0,0,0-105.5,298a24.49,24.49,0,0,0-13.7,31.7l43,108.2a24.49,24.49,0,0,0,31.7,13.7,24.49,24.49,0,0,0,13.7-31.7Z" transform="translate(500 500)"/><path class="cls-6" d="M-465.2,976a24.57,24.57,0,0,0,34.3-4.4l71.2-92.2a24.57,24.57,0,0,0-4.4-34.3,24.57,24.57,0,0,0-34.3,4.4l-71.2,92.2A24.57,24.57,0,0,0-465.2,976Z" transform="translate(500 500)"/><path class="cls-5" d="M-216.8,687.5a24.49,24.49,0,0,0-22,26.6L-227.9,830a24.49,24.49,0,0,0,26.6,22,24.49,24.49,0,0,0,22-26.6l-10.9-115.9A24.37,24.37,0,0,0-216.8,687.5Z" transform="translate(500 500)"/><path class="cls-3" d="M-500,651.5l53.6,16.6A24.53,24.53,0,0,0-415.8,652a24.57,24.57,0,0,0-16.1-30.6L-500,600.3Z" transform="translate(500 500)"/><path class="cls-3" d="M87.6,766.5,0,755.7l-28-3.5a24.5,24.5,0,0,0-27.3,21.2,24.5,24.5,0,0,0,21.2,27.3L0,805H0l.12,0h0L81.5,815.1a24.49,24.49,0,0,0,6.1-48.6Z" transform="translate(500 500)"/><path class="cls-8" d="M-74.8,519.8l-70.1,93a24.51,24.51,0,0,1-34.2,4.8,24.51,24.51,0,0,1-4.8-34.2L-121,500l7.2-9.6a24.51,24.51,0,0,1,34.2-4.8A24.28,24.28,0,0,1-70.4,500,24.14,24.14,0,0,1-74.8,519.8Z" transform="translate(500 500)"/><path class="cls-7" d="M-197.8,974a24.52,24.52,0,0,0,15.1-31.1,24.52,24.52,0,0,0-31.1-15.1l-110.1,38.1A24.52,24.52,0,0,0-339,997a27.11,27.11,0,0,0,1.3,3h64.8Z" transform="translate(500 500)"/><path class="cls-2" d="M-373.3,563.6a24.42,24.42,0,0,0-7.1,33.8l63.6,97.5A24.42,24.42,0,0,0-283,702a24.5,24.5,0,0,0,7.1-33.8l-63.6-97.5A24.5,24.5,0,0,0-373.3,563.6Z" transform="translate(500 500)"/><path class="cls-8" d="M84.2,652a24.53,24.53,0,0,1-30.6,16.1L0,651.5l-57.7-17.9A24.53,24.53,0,0,1-73.8,603a24.61,24.61,0,0,1,30.6-16.1L0,600.3l68.1,21.1A24.57,24.57,0,0,1,84.2,652Z" transform="translate(500 500)"/><path class="cls-8" d="M-391.2,793.8a24.5,24.5,0,0,0-21.2-27.3L-500,755.7V805l81.5,10.1A24.58,24.58,0,0,0-391.2,793.8Z" transform="translate(500 500)"/><path class="cls-2" d="M-73.8,811.7A24.45,24.45,0,0,0-105.5,798a24.49,24.49,0,0,0-13.7,31.7l43,108.2a24.49,24.49,0,0,0,31.7,13.7,24.49,24.49,0,0,0,13.7-31.7Z" transform="translate(500 500)"/><path class="cls-8" d="M-79.6,985.6a24.51,24.51,0,0,0-34.2,4.8l-7.2,9.6h50.6A24.28,24.28,0,0,0-79.6,985.6Z" transform="translate(500 500)"/><path class="cls-2" d="M34.8,976a24.57,24.57,0,0,0,34.3-4.4l71.2-92.2a24.45,24.45,0,0,0-38.7-29.9L30.4,941.7A24.57,24.57,0,0,0,34.8,976Z" transform="translate(500 500)"/><path class="cls-6" d="M283.2,687.5a24.49,24.49,0,0,0-22,26.6L272.1,830a24.41,24.41,0,0,0,48.6-4.6L309.8,709.5A24.37,24.37,0,0,0,283.2,687.5Z" transform="translate(500 500)"/><path class="cls-6" d="M425.2,519.8l-70.1,93a24.42,24.42,0,0,1-39-29.4L379,500l7.2-9.6a24.44,24.44,0,0,1,43.4,9.6A24.14,24.14,0,0,1,425.2,519.8Z" transform="translate(500 500)"/><path class="cls-2" d="M302.2,974a24.45,24.45,0,0,0-16-46.2L176.1,965.9A24.52,24.52,0,0,0,161,997a27.11,27.11,0,0,0,1.3,3h64.8Z" transform="translate(500 500)"/><path class="cls-7" d="M126.7,563.6a24.42,24.42,0,0,0-7.1,33.8l63.6,97.5a24.42,24.42,0,0,0,40.9-26.7l-63.6-97.5A24.5,24.5,0,0,0,126.7,563.6Z" transform="translate(500 500)"/><path class="cls-2" d="M584.2,652a24.53,24.53,0,0,1-30.6,16.1L500,651.5l-57.7-17.9a24.45,24.45,0,0,1,14.5-46.7L500,600.3l68.1,21.1A24.57,24.57,0,0,1,584.2,652Z" transform="translate(500 500)"/><path class="cls-6" d="M426.2,811.7a24.42,24.42,0,1,0-45.4,18l43,108.2a24.42,24.42,0,1,0,45.4-18Z" transform="translate(500 500)"/><path class="cls-4" d="M420.4,985.6a24.51,24.51,0,0,0-34.2,4.8L379,1000h50.6A24.28,24.28,0,0,0,420.4,985.6Z" transform="translate(500 500)"/><path class="cls-3" d="M534.8,976a24.57,24.57,0,0,0,34.3-4.4l71.2-92.2a24.45,24.45,0,0,0-38.7-29.9l-71.2,92.2A24.57,24.57,0,0,0,534.8,976Z" transform="translate(500 500)"/><path class="cls-2" d="M783.2,687.5a24.49,24.49,0,0,0-22,26.6L772.1,830a24.41,24.41,0,0,0,48.6-4.6L809.8,709.5A24.37,24.37,0,0,0,783.2,687.5Z" transform="translate(500 500)"/><path class="cls-8" d="M1000,755.7l-28-3.5a24.44,24.44,0,1,0-6.1,48.5l34,4.2V755.7Z" transform="translate(500 500)"/><path class="cls-8" d="M925.2,519.8l-70.1,93a24.42,24.42,0,0,1-39-29.4L879,500l7.2-9.6a24.44,24.44,0,0,1,43.4,9.6A24.14,24.14,0,0,1,925.2,519.8Z" transform="translate(500 500)"/><path class="cls-5" d="M802.2,974a24.45,24.45,0,1,0-16-46.2L676.1,965.9A24.52,24.52,0,0,0,661,997a27.11,27.11,0,0,0,1.3,3h64.8Z" transform="translate(500 500)"/><path class="cls-5" d="M626.7,563.6a24.42,24.42,0,0,0-7.1,33.8l63.6,97.5a24.42,24.42,0,0,0,40.9-26.7l-63.6-97.5A24.5,24.5,0,0,0,626.7,563.6Z" transform="translate(500 500)"/><path class="cls-3" d="M926.2,603a24.53,24.53,0,0,0,16.1,30.6l57.7,17.9V600.3l-43.2-13.4A24.61,24.61,0,0,0,926.2,603Z" transform="translate(500 500)"/><path class="cls-6" d="M926.2,811.7a24.42,24.42,0,1,0-45.4,18l43,108.2a24.42,24.42,0,1,0,45.4-18Z" transform="translate(500 500)"/><path class="cls-2" d="M920.4,985.6a24.51,24.51,0,0,0-34.2,4.8L879,1000h50.6A24.28,24.28,0,0,0,920.4,985.6Z" transform="translate(500 500)"/><path class="cls-4" d="M87.6,266.5,0,255.7l-28-3.5a24.5,24.5,0,0,0-27.3,21.2,24.5,24.5,0,0,0,21.2,27.3L0,305H0l.12,0h0L81.5,315.1a24.49,24.49,0,0,0,6.1-48.6Z" transform="translate(500 500)"/><path class="cls-8" d="M87.6-233.5,0-244.3l-28-3.5a24.5,24.5,0,0,0-27.3,21.2,24.5,24.5,0,0,0,21.2,27.3L0-195H0l.12,0h0L81.5-184.9a24.58,24.58,0,0,0,27.3-21.3A24.5,24.5,0,0,0,87.6-233.5Z" transform="translate(500 500)"/><path class="cls-2" d="M587.6-233.5,500-244.3l-28-3.5a24.5,24.5,0,0,0-27.3,21.2,24.5,24.5,0,0,0,21.2,27.3L500-195h0l.12,0h0L581.5-184.9a24.58,24.58,0,0,0,27.3-21.3A24.5,24.5,0,0,0,587.6-233.5Z" transform="translate(500 500)"/><path class="cls-8" d="M587.6,266.5,500,255.7l-28-3.5a24.44,24.44,0,1,0-6.1,48.5L500,305h0l.12,0h0L581.5,315.1a24.49,24.49,0,0,0,6.1-48.6Z" transform="translate(500 500)"/><path class="cls-4" d="M587.6,766.5,500,755.7l-28-3.5a24.44,24.44,0,1,0-6.1,48.5L500,805h0l.12,0h0L581.5,815.1a24.49,24.49,0,0,0,6.1-48.6Z" transform="translate(500 500)"/></g></svg>
