<?xml version="1.0" encoding="utf-8"?>
<!-- Generator: Adobe Illustrator 21.1.0, SVG Export Plug-In . SVG Version: 6.00 Build 0)  -->
<svg version="1.1" id="Layer_4" xmlns="http://www.w3.org/2000/svg" xmlns:xlink="http://www.w3.org/1999/xlink" x="0px" y="0px"
	 viewBox="0 0 748.4 594" style="enable-background:new 0 0 748.4 594;" xml:space="preserve">
<style type="text/css">
	.st0{fill:#679F42;}
	.st1{fill:#7CB342;}
	.st2{fill:#434343;}
	.st3{fill:#F5F5F5;}
	.st4{fill:#BDBDBD;}
	.st5{fill:#00579B;}
	.st6{fill:#C62828;}
	.st7{fill:#3D82C4;}
	.st8{fill:#616262;}
	.st9{fill:#3374BA;}
	.st10{fill:#FFD181;}
	.st11{fill:#FAFBFB;}
	.st12{fill:#E0E0E0;}
	.st13{fill:#757576;}
	.st14{fill:#0277BD;}
	.st15{fill:#D32E2E;}
	.st16{fill:#57A0D7;}
</style>
<g>
	<path class="st0" d="M418.2,329c-8.8-8-19.8-15.1-33-21.1v104.6c14.7-3.5,26-9.5,34.1-18c8.1-8.5,12.1-19.6,12.1-33.1
		C431.4,347.9,427,337.1,418.2,329z"/>
	<path class="st1" d="M313.1,181.6c0,13.3,4.2,23.9,12.7,31.9c8.4,8,19.1,15.1,31.9,21.1v-99.4c-13.9,1.6-24.9,6.4-32.7,14.4
		C317.1,157.7,313.1,168.4,313.1,181.6z"/>
	<path class="st1" d="M373.9,0C221.1,0,97.2,123.9,97.2,276.8s123.9,276.8,276.8,276.8s276.8-123.9,276.8-276.8S526.8,0,373.9,0z
		 M474.3,414c-19.1,16.1-47,26.2-83.6,30.3v28.9h-38.5v-27.4c-11,0-22-0.7-33-2.1c-11-1.4-21.3-3.2-30.8-5.4
		c-9.5-2.2-18-4.7-25.3-7.3c-7.3-2.7-12.8-5.4-16.5-8.3c0.7-12.3,2.7-24.5,5.8-36.7c3.1-12.1,6.1-21.7,9.1-28.6h23.1l28.1,45.9
		c3.7,2.5,8.5,5,14.6,7.3c6.1,2.4,14.4,3.9,25,4.5V295.2c-0.7-0.3-1.6-0.5-2.5-0.7c-0.9-0.2-1.7-0.5-2.5-1.2l-12.7-4.7
		c-11.4-4.1-22.4-9.1-33-14.9c-10.6-5.8-20.2-12.6-28.6-20.4c-8.4-7.7-15.2-16.8-20.4-27.2c-5.1-10.4-7.7-22.2-7.7-35.5
		c0-12.9,2.7-24.5,8-34.8c5.3-10.2,12.7-19,22.3-26.3c9.5-7.3,20.9-13.1,34.1-17.5c13.2-4.4,27.5-7.1,42.9-8V80.3h38.5v23.2
		c17.6,0.6,33.5,2.4,47.6,5.2c14.1,2.8,27.6,6.6,40.4,11.4c0,4.7-0.5,9.7-1.4,14.9c-0.9,5.2-2.1,10.3-3.6,15.1
		c-1.5,4.9-3.1,9.4-5,13.5c-1.8,4.1-3.5,7.3-5,9.5h-22.6l-28.1-36.4c-2.9-0.6-6.1-1.2-9.6-1.7c-3.5-0.5-7.8-0.7-12.9-0.7v113.6
		l20.9,7.6c11,4.4,22,9.4,33,14.9c11,5.5,20.8,12.1,29.4,19.6c8.6,7.6,15.6,16.4,20.9,26.5c5.3,10.1,8,22.1,8,36
		C502.9,377.4,493.4,397.9,474.3,414z"/>
</g>
<path class="st0" d="M373.9,0v80.3h16.8v23.2c17.6,0.6,33.5,2.4,47.6,5.2c14.1,2.8,27.6,6.6,40.4,11.4c0,4.7-0.5,9.7-1.4,14.9
	c-0.9,5.2-2.1,10.3-3.6,15.1c-1.5,4.9-3.1,9.4-5,13.5c-1.8,4.1-3.5,7.3-5,9.5h-22.6l-28.1-36.4c-2.9-0.6-6.1-1.2-9.6-1.7
	c-3.5-0.5-7.8-0.7-12.9-0.7v113.6l20.9,7.6c11,4.4,22,9.4,33,14.9c11,5.5,20.8,12.1,29.4,19.6c8.6,7.6,15.6,16.4,20.9,26.5
	c5.3,10.1,8,22.1,8,36c0,24.9-9.5,45.4-28.6,61.5c-19.1,16.1-47,26.2-83.6,30.3v28.9h-16.8v80.3c152.8,0,276.8-123.9,276.8-276.8
	S526.8,0,373.9,0z"/>
<g>
	<g id="XMLID_19_">
		<g>
			<circle class="st2" cx="147.6" cy="258.6" r="4.3"/>
			<path class="st3" d="M122.7,318.8h7.9c-0.4,2.2-2.3,3.8-4.6,3.8h-4.6C121.9,321.4,122.3,320.1,122.7,318.8z"/>
			<path class="st3" d="M125.9,310.5c2.6,0,4.7,2.1,4.7,4.7v2.7c0,0.3,0,0.6-0.1,0.9h-7.9c0.5-2,0.8-4.2,0.8-6.4
				c0-0.7,0-1.3-0.1-1.9H125.9z"/>
			<path class="st4" d="M97.7,572.9l0-14.7h18.1c4,0,7.3,3.3,7.3,7.3c0,4-3.3,7.3-7.3,7.3H97.7z"/>
			<path class="st3" d="M97.7,338.2c10.6,0,19.7-6.4,23.6-15.5h4.6c2.3,0,4.2-1.7,4.6-3.8h2.2c4.3,0,7.7,3.5,7.7,7.7v4.4
				c0,4.3-3.5,7.7-7.7,7.7l-35,0V338.2z"/>
			<path class="st3" d="M121.4,322.6H97.7v-3.8l24.9,0C122.3,320.1,121.9,321.4,121.4,322.6z"/>
			<path class="st3" d="M97.7,318.8v-6.6h12.7c1.1,0,2-0.7,2.2-1.7h10.7c0,0.6,0.1,1.3,0.1,1.9c0,2.2-0.3,4.3-0.8,6.4L97.7,318.8z"
				/>
			<path class="st5" d="M97.7,508.4l0-20.5l23.8,0c4.3,0,7.7,3.5,7.7,7.7v5.1c0,4.3-3.5,7.7-7.7,7.7H97.7z"/>
			<path class="st6" d="M97.7,477.6V457l23.8,0c4.3,0,7.7,3.5,7.7,7.7v5.1c0,4.3-3.5,7.7-7.7,7.7H97.7z"/>
			<path class="st7" d="M97.7,446.7v-20.5h23.8c4.3,0,7.7,3.5,7.7,7.7v5.1c0,4.3-3.5,7.7-7.7,7.7H97.7z"/>
			<path class="st3" d="M159.9,525.8H97.7v-17.4h23.8c4.3,0,7.7-3.5,7.7-7.7v-5.1c0-4.3-3.5-7.7-7.7-7.7l-23.8,0v-10.3h23.8
				c4.3,0,7.7-3.5,7.7-7.7v-5.1c0-4.3-3.5-7.7-7.7-7.7l-23.8,0l0-10.3h23.8c4.3,0,7.7-3.5,7.7-7.7v-5.1c0-4.3-3.5-7.7-7.7-7.7H97.7
				l0-20h35.4c1.9,0,3.5-1.6,3.5-3.5s-1.6-3.5-3.5-3.5l-35.4,0v-4.6l50.7,0c1.9,0,3.5-1.6,3.5-3.5s-1.6-3.5-3.5-3.5l-50.7,0V383
				l50.7,0c1.9,0,3.5-1.6,3.5-3.5c0-1.9-1.6-3.5-3.5-3.5H97.7v-6.3v-10.6l62.2,0c4.3,0,7.7,3.5,7.7,7.7l0,151.1
				C167.6,522.3,164.2,525.8,159.9,525.8z"/>
			<path class="st8" d="M97.7,406.2v-6.9l35.4,0c1.9,0,3.5,1.6,3.5,3.5s-1.6,3.5-3.5,3.5H97.7z"/>
			<path class="st8" d="M148.4,394.6l-50.7,0v-6.9l50.7,0c1.9,0,3.5,1.6,3.5,3.5S150.4,394.6,148.4,394.6z"/>
			<path class="st8" d="M97.7,383l0-6.9h50.7c1.9,0,3.5,1.6,3.5,3.5c0,1.9-1.6,3.5-3.5,3.5L97.7,383z"/>
			<path class="st9" d="M123.4,310.5c-1-13.3-12.1-23.8-25.7-23.8v-14.6h86.9c1.3,0,2.4,1.1,2.4,2.4l0,271.5c0,1.3-1.1,2.4-2.4,2.4
				H97.7l0-22.5h62.2c4.3,0,7.7-3.5,7.7-7.7l0-151.1c0-4.3-3.5-7.7-7.7-7.7l-62.2,0l0-20.5l35,0c4.3,0,7.7-3.5,7.7-7.7v-4.4
				c0-4.3-3.5-7.7-7.7-7.7h-2.2c0.1-0.3,0.1-0.6,0.1-0.9v-2.7c0-2.6-2.1-4.7-4.7-4.7H123.4z"/>
			<path class="st2" d="M133.3,261.7l-35.6,0v-6.1l35.6,0c1.3,0,2.4,1.1,2.4,2.4v1.3C135.7,260.6,134.6,261.7,133.3,261.7z"/>
			<path class="st3" d="M121.4,322.6c-4,9.1-13,15.5-23.6,15.5v-12.7v-2.8H121.4z"/>
			<path class="st3" d="M112.7,310.5c-0.3,1-1.2,1.7-2.2,1.7H97.7v-1.7H112.7z"/>
			<path class="st8" d="M184.6,272.1H97.7l0-10.4l35.6,0c1.3,0,2.4-1.1,2.4-2.4V258c0-1.3-1.1-2.4-2.4-2.4l-35.6,0v-8.5l73.9,0
				c13.2,0,23.8,10.7,23.8,23.8l0,290c0,13.2-10.7,23.8-23.8,23.8H97.7v-11.9h18.1c4,0,7.3-3.3,7.3-7.3c0-4-3.3-7.3-7.3-7.3H97.7
				v-9.9h86.9c1.3,0,2.4-1.1,2.4-2.4l0-271.5C187,273.1,186,272.1,184.6,272.1z M151.9,258.6c0-2.4-1.9-4.3-4.3-4.3
				c-2.4,0-4.3,1.9-4.3,4.3c0,2.4,1.9,4.3,4.3,4.3C150,262.9,151.9,261,151.9,258.6z"/>
			<path class="st3" d="M97.7,306.2h12.7c1.3,0,2.3,1,2.3,2.3v1.3c0,0.2,0,0.4-0.1,0.6h-15V306.2z"/>
			<path class="st10" d="M97.7,286.7c13.6,0,24.7,10.5,25.7,23.8h-10.7c0.1-0.2,0.1-0.4,0.1-0.6v-1.3c0-1.3-1-2.3-2.3-2.3H97.7
				L97.7,286.7z"/>
			<path class="st11" d="M97.7,338.2c-12,0-22.1-8.2-24.9-19.3h5.6c0.4,2.2,2.3,3.8,4.6,3.8h14.7v2.8V338.2z"/>
			<path class="st12" d="M74.4,560.4c1.3-1.3,3.2-2.1,5.2-2.1h18.1l0,14.7H79.6c-4,0-7.3-3.3-7.3-7.3
				C72.3,563.5,73.1,561.7,74.4,560.4z"/>
			<path class="st13" d="M97.7,272.1l-86.9,0c-1.3,0-2.4,1.1-2.4,2.4l0,271.5c0,1.3,1.1,2.4,2.4,2.4l86.9,0v9.9H79.6
				c-2,0-3.9,0.8-5.2,2.1c-1.3,1.3-2.1,3.2-2.1,5.2c0,4,3.3,7.3,7.3,7.3h18.1v11.9H23.8C10.7,584.7,0,574.1,0,560.9l0-290
				c0-13.2,10.7-23.8,23.8-23.8l73.9,0v8.5H62.2c-1.3,0-2.4,1.1-2.4,2.4v1.3c0,1.3,1.1,2.4,2.4,2.4h35.6L97.7,272.1z"/>
			<path class="st14" d="M66.2,500.7v-5.1c0-4.3,3.5-7.7,7.7-7.7h23.8l0,20.5H73.9C69.7,508.4,66.2,505,66.2,500.7z"/>
			<path class="st11" d="M36.5,359.2h61.3v10.6v6.3l-50.7,0c-1,0-1.8,0.4-2.5,1c-0.6,0.6-1,1.5-1,2.5c0,1.9,1.6,3.5,3.5,3.5h50.7
				v4.6H47c-1,0-1.8,0.4-2.5,1c-0.6,0.6-1,1.5-1,2.5c0,1.9,1.6,3.5,3.5,3.5h50.7v4.6H62.3c-1,0-1.8,0.4-2.5,1c-0.6,0.6-1,1.5-1,2.5
				c0,1.9,1.6,3.5,3.5,3.5h35.4l0,20H73.9c-4.3,0-7.7,3.5-7.7,7.7v5.1c0,4.3,3.5,7.7,7.7,7.7h23.8l0,10.3H73.9
				c-4.3,0-7.7,3.5-7.7,7.7v5.1c0,4.3,3.5,7.7,7.7,7.7h23.8v10.3H73.9c-4.3,0-7.7,3.5-7.7,7.7v5.1c0,4.3,3.5,7.7,7.7,7.7h23.8v17.4
				H36.5c-4.3,0-7.7-3.5-7.7-7.7l0-151.1C28.8,362.7,32.2,359.2,36.5,359.2z"/>
			<path class="st15" d="M97.7,477.6H73.9c-4.3,0-7.7-3.5-7.7-7.7v-5.1c0-4.3,3.5-7.7,7.7-7.7h23.8V477.6z"/>
			<path class="st16" d="M97.7,446.7H73.9c-4.3,0-7.7-3.5-7.7-7.7v-5.1c0-4.3,3.5-7.7,7.7-7.7h23.8V446.7z"/>
			<path class="st13" d="M97.7,406.2H62.3c-1.9,0-3.5-1.6-3.5-3.5c0-1,0.4-1.8,1-2.5c0.6-0.6,1.5-1,2.5-1h35.4V406.2z"/>
			<path class="st13" d="M47,376.1l50.7,0l0,6.9H47c-1.9,0-3.5-1.6-3.5-3.5c0-1,0.4-1.8,1-2.5C45.2,376.5,46.1,376.1,47,376.1z"/>
			<path class="st11" d="M97.7,318.8v3.8H83c-2.3,0-4.2-1.7-4.6-3.8H97.7z"/>
			<path class="st11" d="M78.3,315.2c0-2.6,2.1-4.7,4.7-4.7h4.2c0.3,1,1.2,1.7,2.2,1.7h8.3v6.6H78.4c-0.1-0.3-0.1-0.6-0.1-0.9V315.2
				z"/>
			<path class="st11" d="M97.7,310.5v1.7h-8.3c-1.1,0-2-0.7-2.2-1.7H97.7z"/>
			<path class="st11" d="M97.7,306.2v4.3H87.3c-0.1-0.2-0.1-0.4-0.1-0.6v-1.3c0-1.3,1-2.3,2.3-2.3H97.7z"/>
			<path class="st10" d="M83,310.5c-2.6,0-4.7,2.1-4.7,4.7v2.7c0,0.3,0,0.6,0.1,0.9h-5.6c-0.5-2-0.8-4.2-0.8-6.4
				c0-14.2,11.5-25.7,25.7-25.7l0,19.5h-8.3c-1.3,0-2.3,1-2.3,2.3v1.3c0,0.2,0,0.4,0.1,0.6H83z"/>
			<path class="st8" d="M97.7,255.6v6.1H62.2c-1.3,0-2.4-1.1-2.4-2.4V258c0-1.3,1.1-2.4,2.4-2.4H97.7z"/>
			<path class="st11" d="M97.7,338.7h-35c-4.3,0-7.7-3.5-7.7-7.7v-4.4c0-4.3,3.5-7.7,7.7-7.7h10.1c2.8,11.1,12.9,19.3,24.9,19.3
				V338.7z"/>
			<path class="st7" d="M97.7,359.2H36.5c-4.3,0-7.7,3.5-7.7,7.7l0,151.1c0,4.3,3.5,7.7,7.7,7.7h61.3l0,22.5l-86.9,0
				c-1.3,0-2.4-1.1-2.4-2.4l0-271.5c0-1.3,1.1-2.4,2.4-2.4l86.9,0v14.6c-14.2,0-25.7,11.5-25.7,25.7c0,2.2,0.3,4.3,0.8,6.4H62.7
				c-4.3,0-7.7,3.5-7.7,7.7v4.4c0,4.3,3.5,7.7,7.7,7.7h35L97.7,359.2z"/>
			<path class="st13" d="M47,387.7h50.7v6.9H47c-1.9,0-3.5-1.6-3.5-3.5c0-1,0.4-1.8,1-2.5C45.2,388,46.1,387.7,47,387.7z"/>
		</g>
		<g>
		</g>
	</g>
</g>
<g>
	<g id="XMLID_1_">
		<g>
			<path class="st8" d="M748.4,270.9l0,290c0,13.2-10.7,23.8-23.8,23.8h-73.9v-11.9h18.1c4,0,7.3-3.3,7.3-7.3c0-4-3.3-7.3-7.3-7.3
				h-18.1v-9.9h86.9c1.3,0,2.4-1.1,2.4-2.4l0-271.5c0-1.3-1.1-2.4-2.4-2.4h-86.9v-10.4l35.6,0c1.3,0,2.4-1.1,2.4-2.4V258
				c0-1.3-1.1-2.4-2.4-2.4l-35.6,0v-8.5l73.9,0C737.7,247.1,748.4,257.8,748.4,270.9z M704.8,258.6c0-2.4-1.9-4.3-4.3-4.3
				c-2.4,0-4.3,1.9-4.3,4.3c0,2.4,1.9,4.3,4.3,4.3C702.9,262.9,704.8,261,704.8,258.6z"/>
			<path class="st9" d="M740,274.5l0,271.5c0,1.3-1.1,2.4-2.4,2.4h-86.9v-22.5h62.2c4.3,0,7.7-3.5,7.7-7.7l0-151.1
				c0-4.3-3.5-7.7-7.7-7.7l-62.2,0v-20.5l35,0c4.3,0,7.7-3.5,7.7-7.7v-4.4c0-4.3-3.5-7.7-7.7-7.7h-2.2c0.1-0.3,0.1-0.6,0.1-0.9v-2.7
				c0-2.6-2.1-4.7-4.7-4.7h-2.5c-1-13.3-12.1-23.8-25.7-23.8v-14.6h86.9C738.9,272.1,740,273.1,740,274.5z"/>
			<path class="st3" d="M720.6,366.9l0,151.1c0,4.3-3.5,7.7-7.7,7.7h-62.2v-17.4h23.8c4.3,0,7.7-3.5,7.7-7.7v-5.1
				c0-4.3-3.5-7.7-7.7-7.7l-23.8,0v-10.3h23.8c4.3,0,7.7-3.5,7.7-7.7l0-5.1c0-4.3-3.5-7.7-7.7-7.7l-23.8,0v-10.3h23.8
				c4.3,0,7.7-3.5,7.7-7.7v-5.1c0-4.3-3.5-7.7-7.7-7.7h-23.8v-20h35.4c1.9,0,3.5-1.6,3.5-3.5s-1.6-3.5-3.5-3.5l-35.4,0v-4.6l50.7,0
				c1.9,0,3.5-1.6,3.5-3.5s-1.6-3.5-3.5-3.5l-50.7,0V383l50.7,0c1.9,0,3.5-1.6,3.5-3.5c0-1.9-1.6-3.5-3.5-3.5h-50.7v-6.3v-10.6
				l62.2,0C717.1,359.2,720.6,362.7,720.6,366.9z"/>
			<path class="st8" d="M701.4,376.1c1.9,0,3.5,1.6,3.5,3.5c0,1.9-1.6,3.5-3.5,3.5l-50.7,0v-6.9H701.4z"/>
			<path class="st8" d="M701.4,387.7c1.9,0,3.5,1.6,3.5,3.5s-1.6,3.5-3.5,3.5l-50.7,0v-6.9L701.4,387.7z"/>
			<circle class="st2" cx="700.5" cy="258.6" r="4.3"/>
			<path class="st3" d="M693.4,326.5v4.4c0,4.3-3.5,7.7-7.7,7.7l-35,0v-0.5c10.6,0,19.7-6.4,23.6-15.5h4.6c2.3,0,4.2-1.7,4.6-3.8
				h2.2C689.9,318.8,693.4,322.3,693.4,326.5z"/>
			<path class="st8" d="M686.1,399.2c1.9,0,3.5,1.6,3.5,3.5s-1.6,3.5-3.5,3.5h-35.4v-6.9L686.1,399.2z"/>
			<path class="st2" d="M688.6,258v1.3c0,1.3-1.1,2.4-2.4,2.4l-35.6,0v-6.1l35.6,0C687.6,255.6,688.6,256.7,688.6,258z"/>
			<path class="st3" d="M683.6,315.2v2.7c0,0.3,0,0.6-0.1,0.9h-7.9c0.5-2,0.8-4.2,0.8-6.4c0-0.7,0-1.3-0.1-1.9h2.5
				C681.4,310.5,683.6,312.6,683.6,315.2z"/>
			<path class="st3" d="M675.6,318.8h7.9c-0.4,2.2-2.3,3.8-4.6,3.8h-4.6C674.8,321.4,675.3,320.1,675.6,318.8z"/>
			<path class="st5" d="M682.2,495.6v5.1c0,4.3-3.5,7.7-7.7,7.7h-23.8v-20.5l23.8,0C678.7,487.9,682.2,491.4,682.2,495.6z"/>
			<path class="st6" d="M682.2,464.8l0,5.1c0,4.3-3.5,7.7-7.7,7.7h-23.8l0-20.5l23.8,0C678.7,457,682.2,460.5,682.2,464.8z"/>
			<path class="st7" d="M682.2,433.9v5.1c0,4.3-3.5,7.7-7.7,7.7h-23.8v-20.5h23.8C678.7,426.2,682.2,429.6,682.2,433.9z"/>
			<path class="st3" d="M676.3,310.5c0,0.6,0.1,1.3,0.1,1.9c0,2.2-0.3,4.3-0.8,6.4l-24.9,0v-6.6h12.7c1.1,0,2-0.7,2.2-1.7H676.3z"/>
			<path class="st10" d="M676.3,310.5h-10.7c0.1-0.2,0.1-0.4,0.1-0.6v-1.3c0-1.3-1-2.3-2.3-2.3h-12.7v-19.5
				C664.2,286.7,675.3,297.2,676.3,310.5z"/>
			<path class="st3" d="M650.7,318.8l24.9,0c-0.3,1.3-0.8,2.6-1.3,3.8h-23.6V318.8z"/>
			<path class="st3" d="M650.7,322.6h23.6c-4,9.1-13,15.5-23.6,15.5v-12.7V322.6z"/>
			<path class="st4" d="M668.8,558.2c4,0,7.3,3.3,7.3,7.3c0,4-3.3,7.3-7.3,7.3h-18.1v-14.7H668.8z"/>
			<path class="st3" d="M665.7,308.5v1.3c0,0.2,0,0.4-0.1,0.6h-15v-4.3h12.7C664.7,306.2,665.7,307.3,665.7,308.5z"/>
			<path class="st3" d="M650.7,310.5h15c-0.3,1-1.2,1.7-2.2,1.7h-12.7V310.5z"/>
			<path class="st11" d="M650.7,359.2v10.6v6.3l-50.7,0c-1,0-1.8,0.4-2.5,1c-0.6,0.6-1,1.5-1,2.5c0,1.9,1.6,3.5,3.5,3.5h50.7v4.6
				H600c-1,0-1.8,0.4-2.5,1c-0.6,0.6-1,1.5-1,2.5c0,1.9,1.6,3.5,3.5,3.5h50.7v4.6h-35.4c-1,0-1.8,0.4-2.5,1c-0.6,0.6-1,1.5-1,2.5
				c0,1.9,1.6,3.5,3.5,3.5h35.4v20h-23.8c-4.3,0-7.7,3.5-7.7,7.7v5.1c0,4.3,3.5,7.7,7.7,7.7h23.8V457h-23.8c-4.3,0-7.7,3.5-7.7,7.7
				v5.1c0,4.3,3.5,7.7,7.7,7.7h23.8v10.3h-23.8c-4.3,0-7.7,3.5-7.7,7.7v5.1c0,4.3,3.5,7.7,7.7,7.7h23.8v17.4h-61.3
				c-4.3,0-7.7-3.5-7.7-7.7l0-151.1c0-4.3,3.5-7.7,7.7-7.7H650.7z"/>
			<path class="st7" d="M650.7,338.7v20.5h-61.3c-4.3,0-7.7,3.5-7.7,7.7l0,151.1c0,4.3,3.5,7.7,7.7,7.7h61.3v22.5l-86.9,0
				c-1.3,0-2.4-1.1-2.4-2.4l0-271.5c0-1.3,1.1-2.4,2.4-2.4l86.9,0v14.6c-14.2,0-25.7,11.5-25.7,25.7c0,2.2,0.3,4.3,0.8,6.4h-10.1
				c-4.3,0-7.7,3.5-7.7,7.7v4.4c0,4.3,3.5,7.7,7.7,7.7H650.7z"/>
			<path class="st11" d="M650.7,338.2v0.5h-35c-4.3,0-7.7-3.5-7.7-7.7v-4.4c0-4.3,3.5-7.7,7.7-7.7h10.1
				C628.6,329.9,638.7,338.2,650.7,338.2z"/>
			<path class="st11" d="M650.7,325.4v12.7c-12,0-22.1-8.2-24.9-19.3h5.6c0.4,2.2,2.3,3.8,4.6,3.8h14.7V325.4z"/>
			<path class="st13" d="M650.7,572.9v11.9h-73.9c-13.2,0-23.8-10.7-23.8-23.8l0-290c0-13.2,10.7-23.8,23.8-23.8l73.9,0v8.5h-35.6
				c-1.3,0-2.4,1.1-2.4,2.4v1.3c0,1.3,1.1,2.4,2.4,2.4h35.6v10.4l-86.9,0c-1.3,0-2.4,1.1-2.4,2.4l0,271.5c0,1.3,1.1,2.4,2.4,2.4
				l86.9,0v9.9h-18.1c-2,0-3.9,0.8-5.2,2.1s-2.1,3.2-2.1,5.2c0,4,3.3,7.3,7.3,7.3H650.7z"/>
			<path class="st12" d="M650.7,558.2v14.7h-18.1c-4,0-7.3-3.3-7.3-7.3c0-2,0.8-3.9,2.1-5.2s3.2-2.1,5.2-2.1H650.7z"/>
			<path class="st14" d="M650.7,487.9v20.5h-23.8c-4.3,0-7.7-3.5-7.7-7.7v-5.1c0-4.3,3.5-7.7,7.7-7.7H650.7z"/>
			<path class="st15" d="M650.7,457l0,20.5h-23.8c-4.3,0-7.7-3.5-7.7-7.7v-5.1c0-4.3,3.5-7.7,7.7-7.7H650.7z"/>
			<path class="st16" d="M650.7,426.2v20.5h-23.8c-4.3,0-7.7-3.5-7.7-7.7v-5.1c0-4.3,3.5-7.7,7.7-7.7H650.7z"/>
			<path class="st13" d="M650.7,399.2v6.9h-35.4c-1.9,0-3.5-1.6-3.5-3.5c0-1,0.4-1.8,1-2.5c0.6-0.6,1.5-1,2.5-1H650.7z"/>
			<path class="st13" d="M650.7,387.7v6.9H600c-1.9,0-3.5-1.6-3.5-3.5c0-1,0.4-1.8,1-2.5c0.6-0.6,1.5-1,2.5-1H650.7z"/>
			<path class="st13" d="M650.7,376.1v6.9H600c-1.9,0-3.5-1.6-3.5-3.5c0-1,0.4-1.8,1-2.5c0.6-0.6,1.5-1,2.5-1L650.7,376.1z"/>
			<path class="st11" d="M650.7,318.8v3.8H636c-2.3,0-4.2-1.7-4.6-3.8H650.7z"/>
			<path class="st11" d="M650.7,312.2v6.6h-19.3c-0.1-0.3-0.1-0.6-0.1-0.9v-2.7c0-2.6,2.1-4.7,4.7-4.7h4.2c0.3,1,1.2,1.7,2.2,1.7
				H650.7z"/>
			<path class="st11" d="M650.7,310.5v1.7h-8.3c-1.1,0-2-0.7-2.2-1.7H650.7z"/>
			<path class="st11" d="M650.7,306.2v4.3h-10.5c-0.1-0.2-0.1-0.4-0.1-0.6v-1.3c0-1.3,1-2.3,2.3-2.3H650.7z"/>
			<path class="st10" d="M650.7,286.7v19.5h-8.3c-1.3,0-2.3,1-2.3,2.3v1.3c0,0.2,0,0.4,0.1,0.6H636c-2.6,0-4.7,2.1-4.7,4.7v2.7
				c0,0.3,0,0.6,0.1,0.9h-5.6c-0.5-2-0.8-4.2-0.8-6.4C624.9,298.2,636.5,286.7,650.7,286.7z"/>
			<path class="st8" d="M650.7,255.6v6.1h-35.6c-1.3,0-2.4-1.1-2.4-2.4V258c0-1.3,1.1-2.4,2.4-2.4H650.7z"/>
		</g>
		<g>
		</g>
	</g>
</g>
</svg>
