<?xml version="1.0" encoding="utf-8"?>
<!-- Generator: Adobe Illustrator 21.1.0, SVG Export Plug-In . SVG Version: 6.00 Build 0)  -->
<svg version="1.1" id="Layer_1" xmlns="http://www.w3.org/2000/svg" xmlns:xlink="http://www.w3.org/1999/xlink" x="0px" y="0px"
	 viewBox="0 0 500 500" style="enable-background:new 0 0 500 500;" xml:space="preserve">
<style type="text/css">
	.st0{fill:#8F2D56;}
	.st1{fill:#EF476F;}
	.st2{fill:#16AC5B;}
	.st3{fill:#F78C6B;}
	.st4{fill:#0088BB;}
	.st5{fill:#FFD166;}
	.st6{fill:#485B89;}
</style>
<g>
	<path class="st0" d="M34.8,476c10.7,8.2,26.1,6.2,34.3-4.4l71.2-92.2c8.2-10.7,6.2-26.1-4.4-34.3c-10.7-8.2-26.1-6.2-34.3,4.4
		l-71.2,92.2C22.2,452.4,24.2,467.8,34.8,476z"/>
	<path class="st1" d="M283.2,187.5c-13.4,1.3-23.3,13.3-22,26.6l10.9,115.9c1.3,13.4,13.3,23.3,26.6,22c13.4-1.3,23.3-13.3,22-26.6
		l-10.9-115.9C308.6,196.1,296.6,186.2,283.2,187.5z"/>
	<path class="st2" d="M0,151.5l53.6,16.6c12.9,4,26.6-3.3,30.6-16.1s-3.3-26.6-16.1-30.6L0,100.3V151.5z"/>
	<path class="st3" d="M500,255.7l-28-3.5c-13.4-1.7-25.6,7.9-27.3,21.2c-1.7,13.4,7.9,25.6,21.2,27.3l34,4.2V255.7z"/>
	<path class="st4" d="M316.1,83.4c-8.1,10.7-5.9,26.1,4.8,34.2c10.7,8.1,26.1,5.9,34.2-4.8l70.1-93C429.7,14,431,6.7,429.6,0H379
		L316.1,83.4z"/>
	<path class="st5" d="M302.2,474c12.7-4.4,19.5-18.4,15.1-31.1c-4.4-12.7-18.4-19.5-31.1-15.1l-110.1,38.1
		c-12.7,4.4-19.5,18.4-15.1,31.1c0.4,1,0.8,2.1,1.3,3h64.8L302.2,474z"/>
	<path class="st6" d="M126.7,63.6c-11.3,7.4-14.5,22.6-7.1,33.8l63.6,97.5c7.4,11.3,22.6,14.5,33.8,7.1s14.5-22.6,7.1-33.8
		l-63.6-97.5C153.1,59.4,137.9,56.3,126.7,63.6z"/>
	<path class="st2" d="M426.2,103c-4,12.9,3.3,26.6,16.1,30.6l57.7,17.9v-51.2l-43.2-13.4C443.9,83,430.2,90.2,426.2,103z"/>
	<path class="st3" d="M108.8,293.8c1.7-13.4-7.9-25.6-21.2-27.3L0,255.7v49.3l81.5,10.1C94.9,316.7,107.1,307.2,108.8,293.8z"/>
	<path class="st5" d="M192.1,12.1l35-12.1h-64.8C167.8,10.7,180.5,16.1,192.1,12.1z"/>
	<path class="st6" d="M426.2,311.7c-5-12.5-19.2-18.7-31.7-13.7c-12.5,5-18.7,19.3-13.7,31.7l43,108.2c5,12.5,19.3,18.7,31.7,13.7
		c12.5-5,18.7-19.3,13.7-31.7L426.2,311.7z"/>
	<path class="st4" d="M420.4,485.6c-10.7-8.1-26.1-5.9-34.2,4.8L379,500h50.6C428.4,494.4,425.3,489.3,420.4,485.6z"/>
</g>
</svg>
