<?xml version="1.0" encoding="utf-8"?>
<!-- Generator: Adobe Illustrator 21.1.0, SVG Export Plug-In . SVG Version: 6.00 Build 0)  -->
<svg version="1.1" id="Layer_2" xmlns="http://www.w3.org/2000/svg" xmlns:xlink="http://www.w3.org/1999/xlink" x="0px" y="0px"
	 viewBox="0 0 634.6 351.9" style="enable-background:new 0 0 634.6 351.9;" xml:space="preserve">
<style type="text/css">
	.st0{fill:#E0E0E0;}
	.st1{fill:#BDBDBD;}
	.st2{fill:#F1F2F2;}
	.st3{fill:#00AEEF;}
	.st4{fill:#FFFFFF;}
	.st5{fill:#8DC63F;}
	.st6{fill:#662D91;}
	.st7{fill:#757576;}
	.st8{fill:#EEEEEE;}
	.st9{fill:#FBB040;}
	.st10{fill:#FFF200;}
	.st11{fill:#ED1C24;}
	.st12{fill:#37484F;}
	.st13{fill:#616262;}
	.st14{fill:#434343;}
	.st15{fill:#8BC249;}
	.st16{fill:#EF4438;}
</style>
<g>
	<g id="XMLID_20_">
		<g>
			<path class="st0" d="M435.9,304.7v1.8c0,8.3-6.7,15-15,15H217.9v-0.6v-22H248c2.8,0,5-2.2,5-5v-4.2h143.4h24.4h10
				c2.8,0,5,2.2,5,5V304.7z"/>
			<path class="st1" d="M253,289.7h-35.1v-13.3h167.6c2.8,0,5-2.2,5-5V85.3V63.7c0-2.8-2.2-5-5-5H217.9v-5.2c2.2,0,4-1.8,4-4
				s-1.8-4-4-4v-9.2h178.5c8.3,0,15,6.7,15,15v223.3c0,8.3-6.7,15-15,15H253z"/>
			<path class="st2" d="M390.5,85.3v186.1c0,2.8-2.2,5-5,5H217.9v-9h11.6c5.5,0,10-4.5,10-10v-62c0-5.5-4.5-10-10-10h-11.6v-8.5
				h150.6c5.5,0,10-4.5,10-10v-62c0-5.5-4.5-10-10-10H217.9v-9.6H390.5z M378.5,257.4v-62c0-5.5-4.5-10-10-10H258
				c-5.5,0-10,4.5-10,10v62c0,5.5,4.5,10,10,10h110.5C374.1,267.4,378.5,262.9,378.5,257.4z"/>
			<path class="st3" d="M390.5,63.7v21.6H217.9V58.7h167.6C388.3,58.7,390.5,60.9,390.5,63.7z"/>
			<path class="st4" d="M378.5,195.4v62c0,5.5-4.5,10-10,10H258c-5.5,0-10-4.5-10-10v-62c0-5.5,4.5-10,10-10h110.5
				C374.1,185.4,378.5,189.9,378.5,195.4z M345,226.4c0-8.7-3.5-16.7-9.3-22.4c-5.7-5.7-13.6-9.3-22.4-9.3
				c-17.5,0-31.7,14.2-31.7,31.7c0,8.7,3.5,16.7,9.3,22.4c5.7,5.7,13.6,9.3,22.4,9.3C330.8,258,345,243.9,345,226.4z"/>
			<path class="st4" d="M378.5,104.9v62c0,5.5-4.5,10-10,10H217.9v-82h150.6C374.1,94.9,378.5,99.4,378.5,104.9z"/>
			<path class="st5" d="M335.7,204c5.7,5.7,9.3,13.6,9.3,22.4c0,17.5-14.2,31.7-31.7,31.7v-31.7L335.7,204z"/>
			<path class="st3" d="M335.7,204l-22.4,22.4v-31.7C322,194.7,329.9,198.3,335.7,204z"/>
			<path class="st6" d="M313.3,226.4V258c-8.8,0-16.7-3.6-22.4-9.3L313.3,226.4z"/>
			<path class="st3" d="M313.3,194.7v31.7l-22.4,22.4c-5.7-5.7-9.3-13.6-9.3-22.4C281.6,208.9,295.8,194.7,313.3,194.7z"/>
			<path class="st7" d="M253,289.7v4.2c0,2.8-2.2,5-5,5h-30.1v-9.2H253z"/>
			<path class="st4" d="M239.5,195.4v62c0,5.5-4.5,10-10,10h-11.6v-82h11.6C235.1,185.4,239.5,189.9,239.5,195.4z"/>
			<path class="st7" d="M217.9,45.6c2.2,0,4,1.8,4,4s-1.8,4-4,4V45.6z"/>
			<path class="st8" d="M217.9,320.9v0.6H15c-8.3,0-15-6.7-15-15v-1.8v-10c0-2.8,2.2-5,5-5h10h24.4h143.4v4.2c0,2.8,2.2,5,5,5h30.1
				V320.9z"/>
			<path class="st1" d="M217.9,289.7v9.2h-30.1c-2.8,0-5-2.2-5-5v-4.2H217.9z"/>
			<path class="st0" d="M182.8,289.7H39.4c-8.3,0-15-6.7-15-15V51.4c0-8.3,6.7-15,15-15h178.5v9.2c-2.2,0-4,1.8-4,4s1.8,4,4,4v5.2
				H50.3c-2.8,0-5,2.2-5,5v21.6v186.1c0,2.8,2.2,5,5,5h46.7h120.9v13.3H182.8z"/>
			<path class="st2" d="M217.9,267.4v9H97.1V85.3h120.9v9.6H117.5c-5.5,0-10,4.5-10,10v62c0,5.5,4.5,10,10,10h100.4v8.5H117.5
				c-5.5,0-10,4.5-10,10v62c0,5.5,4.5,10,10,10H217.9z"/>
			<path class="st4" d="M217.9,185.4v82H117.5c-5.5,0-10-4.5-10-10v-62c0-5.5,4.5-10,10-10H217.9z M205.2,226.4
				c0-8.7-3.6-16.7-9.3-22.4s-13.6-9.3-22.4-9.3c-17.5,0-31.7,14.2-31.7,31.7c0,8.7,3.6,16.7,9.3,22.4s13.7,9.3,22.4,9.3
				C191,258,205.2,243.9,205.2,226.4z"/>
			<path class="st4" d="M217.9,94.9v82H117.5c-5.5,0-10-4.5-10-10v-62c0-5.5,4.5-10,10-10H217.9z"/>
			<path class="st3" d="M217.9,58.7v26.6H97.1H45.3V63.7c0-2.8,2.2-5,5-5H217.9z"/>
			<path class="st1" d="M217.9,45.6v7.9c-2.2,0-4-1.8-4-4S215.7,45.6,217.9,45.6z"/>
			<path class="st9" d="M195.9,204c5.7,5.7,9.3,13.6,9.3,22.4c0,17.5-14.2,31.7-31.7,31.7v-31.7L195.9,204z"/>
			<path class="st10" d="M195.9,204l-22.4,22.4v-31.7C182.3,194.7,190.2,198.3,195.9,204z"/>
			<path class="st9" d="M173.5,226.4V258c-8.7,0-16.7-3.6-22.4-9.3L173.5,226.4z"/>
			<path class="st11" d="M173.5,194.7v31.7l-22.4,22.4c-5.7-5.7-9.3-13.6-9.3-22.4C141.9,208.9,156,194.7,173.5,194.7z"/>
			<path class="st12" d="M97.1,85.3v191.1H50.3c-2.8,0-5-2.2-5-5V85.3H97.1z"/>
		</g>
		<g>
		</g>
	</g>
	<g>
		<path class="st7" d="M596.9,332.7c0,4.9-4,8.9-8.9,8.9H299.7c-4.9,0-8.9-4-8.9-8.9V149.5c0-4.9,4-8.9,8.9-8.9h288.3
			c4.9,0,8.9,4,8.9,8.9V332.7z"/>
		<path class="st13" d="M444,140.7h144.2c2.4,0,4.7,1,6.3,2.6c1.6,1.6,2.6,3.8,2.6,6.3v91.6v91.6c0,2.4-1,4.7-2.6,6.3
			c-1.6,1.6-3.8,2.6-6.3,2.6H444"/>
		<path class="st2" d="M582.6,324.2c0,4.4-3.6,8-8,8H313.2c-4.4,0-8-3.6-8-8V158.1c0-4.4,3.6-8,8-8h261.4c4.4,0,8,3.6,8,8V324.2z"/>
		<g>
			<path class="st3" d="M582.6,153.9c0-3.1-2.6-5.7-5.7-5.7H310.8c-3.1,0-5.7,2.6-5.7,5.7v4.4c0,3.1,2.6,5.7,5.7,5.7H577
				c3.1,0,5.7-2.6,5.7-5.7V153.9z"/>
		</g>
		<rect x="305.2" y="156.2" class="st3" width="277.5" height="14.3"/>
		<path class="st4" d="M574,237.6c0,5.9-5.6,10.6-12.5,10.6H326.4c-6.9,0-12.5-4.8-12.5-10.6v-49.9c0-5.9,5.6-10.6,12.5-10.6h235.2
			c6.9,0,12.5,4.8,12.5,10.6V237.6z"/>
		<path class="st4" d="M571.7,313.2c0,5.9-5.4,10.6-12.2,10.6h-96.2c-6.7,0-12.2-4.8-12.2-10.6v-43.4c0-5.9,5.4-10.6,12.2-10.6h96.2
			c6.7,0,12.2,4.8,12.2,10.6V313.2z"/>
		<path class="st4" d="M440.3,313.2c0,5.9-5.7,10.6-12.8,10.6H326.7c-7,0-12.8-4.8-12.8-10.6v-43.4c0-5.9,5.7-10.6,12.8-10.6h100.8
			c7,0,12.8,4.8,12.8,10.6V313.2z"/>
		<circle class="st11" cx="375.9" cy="293.6" r="24.3"/>
		<path class="st10" d="M375.9,269.4c13.4,0,24.3,10.9,24.3,24.3c0,13.4-10.9,24.3-24.3,24.3"/>
		<path class="st9" d="M393,276.5c9.5,9.5,9.5,24.8,0,34.3c-9.5,9.5-24.8,9.5-34.3,0"/>
		<circle class="st5" cx="511" cy="293.6" r="24.3"/>
		<path class="st6" d="M511,317.9c-13.4,0-24.3-10.9-24.3-24.3c0-13.4,10.9-24.3,24.3-24.3"/>
		<path class="st3" d="M493.9,310.8c-9.5-9.5-9.5-24.8,0-34.3c9.5-9.5,24.8-9.5,34.3,0"/>
	</g>
	<g>
		<g id="XMLID_19_">
			<g>
				<path class="st13" d="M323,222.2v119.8c0,5.4-4.4,9.9-9.9,9.9h-30.5V347h7.5c1.7,0,3-1.4,3-3c0-1.7-1.4-3-3-3h-7.5v-4.1h35.9
					c0.5,0,1-0.4,1-1V234.1v-10.4c0-0.5-0.4-1-1-1h-35.9v-4.3h14.7c0.5,0,1-0.4,1-1v-0.5c0-0.5-0.4-1-1-1h-14.7v-3.5h30.5
					C318.6,212.4,323,216.8,323,222.2z M305,217.2c0-1-0.8-1.8-1.8-1.8s-1.8,0.8-1.8,1.8c0,1,0.8,1.8,1.8,1.8S305,218.1,305,217.2z"
					/>
				<path class="st2" d="M319.5,234.1v101.8c0,0.5-0.4,1-1,1h-35.9v-4.2h32.7c0.5,0,1-0.4,1-1v-39.4c0-0.5-0.4-1-1-1h-32.7v-4.1
					h32.7c0.5,0,1-0.4,1-1V240c0-0.5-0.4-1-1-1h-32.7v-5H319.5z"/>
				<path class="st3" d="M319.5,223.7v10.4h-36.9v-11.4h35.9C319.1,222.7,319.5,223.1,319.5,223.7z"/>
				<path class="st4" d="M316.4,292.3v39.4c0,0.5-0.4,1-1,1h-32.7v-41.4h32.7C315.9,291.3,316.4,291.7,316.4,292.3z"/>
				<path class="st4" d="M295.6,250.1c-3.3-3.3-7.9-5.4-13-5.4c0,0,0,0,0,0V239h32.7c0.5,0,1,0.4,1,1v46.2c0,0.5-0.4,1-1,1h-32.7
					v-5.7c0,0,0,0,0,0c10.1,0,18.3-8.2,18.3-18.3C301,258,298.9,253.4,295.6,250.1z"/>
				<circle class="st14" cx="303.3" cy="217.2" r="1.8"/>
				<path class="st14" d="M298.3,216.9v0.5c0,0.5-0.4,1-1,1h-14.7v-2.5h14.7C297.9,215.9,298.3,216.3,298.3,216.9z"/>
				<path class="st9" d="M295.6,250.1c3.3,3.3,5.4,7.9,5.4,13c0,10.1-8.2,18.3-18.3,18.3c0,0,0,0,0,0v-18.3L295.6,250.1z"/>
				<path class="st10" d="M295.6,250.1l-13,13v-18.3c0,0,0,0,0,0C287.7,244.8,292.3,246.8,295.6,250.1z"/>
				<path class="st1" d="M290.1,341c1.7,0,3,1.4,3,3c0,1.7-1.4,3-3,3h-7.5V341H290.1z"/>
				<path class="st11" d="M282.6,244.8v18.3L269.7,276c-3.3-3.3-5.4-7.9-5.4-13C264.3,253,272.5,244.8,282.6,244.8z"/>
				<path class="st7" d="M282.6,347v4.9h-30.5c-5.4,0-9.9-4.4-9.9-9.9V222.2c0-5.4,4.4-9.9,9.9-9.9h30.5v3.5h-14.7c-0.5,0-1,0.4-1,1
					v0.5c0,0.5,0.4,1,1,1h14.7v4.3h-35.9c-0.5,0-1,0.4-1,1v10.4v101.8c0,0.5,0.4,1,1,1h35.9v4.1h-7.5c-0.8,0-1.6,0.3-2.1,0.9
					c-0.5,0.5-0.9,1.3-0.9,2.1c0,1.7,1.4,3,3,3H282.6z"/>
				<path class="st0" d="M282.6,341v6.1h-7.5c-1.7,0-3-1.4-3-3c0-0.8,0.3-1.6,0.9-2.1c0.5-0.5,1.3-0.9,2.1-0.9H282.6z"/>
				<path class="st2" d="M282.6,332.7v4.2h-35.9c-0.5,0-1-0.4-1-1V234.1h36.9v5h-32.7c-0.5,0-1,0.4-1,1v46.2c0,0.5,0.4,1,1,1h32.7
					v4.1h-32.7c-0.5,0-1,0.4-1,1v39.4c0,0.5,0.4,1,1,1H282.6z"/>
				<path class="st4" d="M282.6,291.3v41.4h-32.7c-0.5,0-1-0.4-1-1v-39.4c0-0.5,0.4-1,1-1H282.6z"/>
				<path class="st4" d="M282.6,281.4v5.7h-32.7c-0.5,0-1-0.4-1-1V240c0-0.5,0.4-1,1-1h32.7v5.7c-10.1,0-18.3,8.2-18.3,18.3
					c0,5.1,2.1,9.6,5.4,13C273,279.4,277.6,281.4,282.6,281.4z"/>
				<path class="st9" d="M282.6,263.1v18.3c-5.1,0-9.6-2.1-12.9-5.4L282.6,263.1z"/>
				<path class="st3" d="M282.6,222.7v11.4h-36.9v-10.4c0-0.5,0.4-1,1-1H282.6z"/>
				<path class="st13" d="M282.6,215.9v2.5h-14.7c-0.5,0-1-0.4-1-1v-0.5c0-0.5,0.4-1,1-1H282.6z"/>
			</g>
			<g>
			</g>
		</g>
	</g>
</g>
<g>
	<path class="st15" d="M374.4,76.1c2.7-5.7,6-12,9.8-18.8c3.8-6.8,8-13.7,12.8-20.5c4.8-6.8,8.2-11.3,10.4-13.5c2.2-2.2,4-4,5.5-5.3
		c1.5-1.3,4.2-2.3,8-2.9c3.8-0.6,6.8-0.9,8.7-0.9c1.3,0,2.4,0.4,3.2,1.2c0.8,0.8,1.3,1.9,1.3,3.2c0,1-0.2,1.9-0.7,2.6
		c-0.5,0.7-1.5,1.8-3,3.3c-7.4,6.8-15,16.4-23,28.9c-8,12.5-14.3,24.6-18.9,36.4c-2.2,5.4-3.6,8.5-4.3,9.5c-0.6,0.9-1.6,1.8-2.9,2.6
		c-1.3,0.8-4,1.2-8.1,1.2c-3.2,0-5.3-0.2-6.2-0.6c-0.9-0.4-1.6-0.8-2.1-1.3c-0.5-0.4-1.9-2.4-4.1-5.8c-2.4-3.6-5.8-7.9-10.3-12.8
		c-2.6-2.8-3.9-5.2-3.9-7.1c0-2.8,1.5-5.2,4.4-7.2c2.9-2.1,5.5-3.1,7.8-3.1c2.5,0,5.1,1,7.9,3C369.7,70.2,372.2,72.8,374.4,76.1z"/>
</g>
<g>
	<path class="st16" d="M331.5,259.3l-17.6-17.4l-17.4,17.4L281,243.8l17.6-17.4L281,208.9l15.5-15.4l17.4,17.4l17.6-17.4l15.3,15.4
		l-17.4,17.5l17.4,17.4L331.5,259.3z"/>
</g>
<g>
	<path class="st15" d="M574.8,162.2c2.7-5.7,6-12,9.8-18.8c3.8-6.8,8-13.7,12.8-20.5c4.8-6.8,8.2-11.3,10.4-13.5
		c2.2-2.2,4-4,5.5-5.3c1.5-1.3,4.2-2.3,8-2.9c3.8-0.6,6.8-0.9,8.7-0.9c1.3,0,2.4,0.4,3.2,1.2c0.8,0.8,1.3,1.9,1.3,3.2
		c0,1-0.2,1.9-0.7,2.6c-0.5,0.7-1.5,1.8-3,3.3c-7.4,6.8-15,16.4-23,28.9c-8,12.5-14.3,24.6-18.9,36.4c-2.2,5.4-3.6,8.5-4.3,9.5
		c-0.6,0.9-1.6,1.8-2.9,2.6c-1.3,0.8-4,1.2-8.1,1.2c-3.2,0-5.3-0.2-6.2-0.6c-0.9-0.4-1.6-0.8-2.1-1.3c-0.5-0.4-1.9-2.4-4.1-5.8
		c-2.4-3.6-5.8-7.9-10.3-12.8c-2.6-2.8-3.9-5.2-3.9-7.1c0-2.8,1.5-5.2,4.4-7.2c2.9-2.1,5.5-3.1,7.8-3.1c2.5,0,5.1,1,7.9,3
		C570.1,156.2,572.6,158.9,574.8,162.2z"/>
</g>
</svg>
