<?xml version="1.0" encoding="utf-8"?>
<!-- Generator: Adobe Illustrator 21.1.0, SVG Export Plug-In . SVG Version: 6.00 Build 0)  -->
<svg version="1.1" xmlns="http://www.w3.org/2000/svg" xmlns:xlink="http://www.w3.org/1999/xlink" x="0px" y="0px"
	 viewBox="0 0 1023.1 840.1" style="enable-background:new 0 0 1023.1 840.1;" xml:space="preserve">
<style type="text/css">
	.st0{fill:#E0B999;}
	.st1{fill:#E6C09C;}
	.st2{fill:#E6CDB8;}
	.st3{fill:#F7DEC5;}
	.st4{fill:#F2D8C2;}
	.st5{fill:#FAFBFB;}
	.st6{fill:#F5F5F5;}
	.st7{fill:#90A4AE;}
	.st8{fill:#78909C;}
	.st9{fill:#2B66B1;}
	.st10{fill:#3374BA;}
</style>
<g id="Layer_4">
	<path class="st0" d="M586.9,718.9l24.7-24.7l14-14l190.2-190.2c14-14,9.6-41.4-9.8-60.9L599.5,222.8c-19.4-19.4-46.8-23.9-60.9-9.8
		L350.9,400.6c-1,0.6-2,1.4-2.8,2.2l-38.6,38.6c-8.4,8.4-5.8,24.9,5.9,36.5l25,25c11.3,11.3,27,14.1,35.6,6.7l2.6,2.6
		c-7.4,8.7-4.5,24.4,6.7,35.6l25,25c11.3,11.3,27,14.1,35.6,6.7l2.6,2.6c-7.4,8.7-4.5,24.4,6.7,35.6l25,25
		c11.3,11.3,27,14.1,35.6,6.7l2.6,2.6c-7.4,8.7-4.5,24.4,6.7,35.6l25,25C562,724.7,578.5,727.4,586.9,718.9z"/>
	<path class="st1" d="M702.6,325.8L599.5,222.8c-19.4-19.4-46.8-23.9-60.9-9.8L350.9,400.6c-1,0.6-2,1.4-2.8,2.2l-38.6,38.6
		c-8.4,8.4-5.8,24.9,5.9,36.5l25,25c11.3,11.3,27,14.1,35.6,6.7l2.6,2.6c-7.4,8.7-4.5,24.4,6.7,35.6l25,25
		c11.3,11.3,27,14.1,35.6,6.7l1.3,1.3L702.6,325.8z"/>
</g>
<g id="Layer_3">
	<path class="st2" d="M815.2,536.3l-34.1-34.1l-19.3-19.3L498.2,219.3c-19.4-19.4-51.3-19.4-70.7,0L221.1,425.8
		c-19.4,19.4-19.4,51.3,0,70.7l260,260c1,1.3,2,2.6,3.2,3.8l53.5,53.5c11.7,11.7,30.8,11.7,42.4,0l25-25
		c11.3-11.3,11.6-29.4,1.2-41.2l2.6-2.6c11.7,10.5,29.9,10.1,41.2-1.2l25-25c11.3-11.3,11.6-29.4,1.2-41.2l2.6-2.6
		c11.7,10.5,29.9,10.1,41.2-1.2l25-25c11.3-11.3,11.6-29.4,1.2-41.2l2.6-2.6c11.7,10.5,29.9,10.1,41.2-1.2l25-25
		C826.9,567,826.9,548,815.2,536.3z"/>
	<path class="st3" d="M324.1,322.7L221.1,425.8c-19.4,19.4-19.4,51.3,0,70.7l260,260c1,1.3,2,2.6,3.2,3.8l53.5,53.5
		c11.7,11.7,30.8,11.7,42.4,0l25-25c11.3-11.3,11.6-29.4,1.2-41.2l2.6-2.6c11.7,10.5,29.9,10.1,41.2-1.2l25-25
		c11.3-11.3,11.6-29.4,1.2-41.2l1.3-1.3L324.1,322.7z"/>
	<path class="st3" d="M815.2,536.3l-34.1-34.1l-19.3-19.3L498.2,219.3c-19.4-19.4-51.3-19.4-70.7,0L221.1,425.8
		c-19.4,19.4-19.4,51.3,0,70.7l260,260c1,1.3,2,2.6,3.2,3.8l53.5,53.5c11.7,11.7,30.8,11.7,42.4,0l25-25
		c11.3-11.3,11.6-29.4,1.2-41.2l2.6-2.6c11.7,10.5,29.9,10.1,41.2-1.2l25-25c11.3-11.3,11.6-29.4,1.2-41.2l2.6-2.6
		c11.7,10.5,29.9,10.1,41.2-1.2l25-25c11.3-11.3,11.6-29.4,1.2-41.2l2.6-2.6c11.7,10.5,29.9,10.1,41.2-1.2l25-25
		C826.9,567,826.9,548,815.2,536.3z"/>
	<path class="st4" d="M324.1,322.7L221.1,425.8c-19.4,19.4-19.4,51.3,0,70.7l260,260c1,1.3,2,2.6,3.2,3.8l53.5,53.5
		c11.7,11.7,30.8,11.7,42.4,0l25-25c11.3-11.3,11.6-29.4,1.2-41.2l2.6-2.6c11.7,10.5,29.9,10.1,41.2-1.2l25-25
		c11.3-11.3,11.6-29.4,1.2-41.2l1.3-1.3L324.1,322.7z"/>
</g>
<g id="Layer_5">
	<path class="st0" d="M322.2,496.6L322.2,496.6c-18.3-18.3-48.3-18.3-66.6,0L215.2,537c-11.7,11.7-11.7,30.8,0,42.4l24.2,24.2
		c11.7,11.7,30.8,11.7,42.4,0l40.4-40.4C340.5,544.9,340.5,514.9,322.2,496.6z"/>
	<path class="st0" d="M392.2,566.6L392.2,566.6c-18.3-18.3-48.3-18.3-66.6,0L285.2,607c-11.7,11.7-11.7,30.8,0,42.4l24.2,24.2
		c11.7,11.7,30.8,11.7,42.4,0l40.4-40.4C410.5,614.9,410.5,584.9,392.2,566.6z"/>
	<path class="st0" d="M462.2,636.6L462.2,636.6c-18.3-18.3-48.3-18.3-66.6,0L355.2,677c-11.7,11.7-11.7,30.8,0,42.4l24.2,24.2
		c11.7,11.7,30.8,11.7,42.4,0l40.4-40.4C480.5,684.9,480.5,654.9,462.2,636.6z"/>
	<path class="st0" d="M532.2,706.6L532.2,706.6c-18.3-18.3-48.3-18.3-66.6,0L425.2,747c-11.7,11.7-11.7,30.8,0,42.4l24.2,24.2
		c11.7,11.7,30.8,11.7,42.4,0l40.4-40.4C550.5,754.9,550.5,724.9,532.2,706.6z"/>
	<path class="st1" d="M402.3,385.2L402.3,385.2c26.9,26.9,70.9,26.9,97.8,0l80-80c13.6-13.6,13.6-35.9,0-49.5l-17.1-17.1
		c-13.6-13.6-35.9-13.6-49.5,0L402.3,349.9C392.6,359.6,392.6,375.5,402.3,385.2z"/>
</g>
<g id="Layer_6">
	<path class="st5" d="M873.4,435.9l-24.9,24.9c-4.7,4.7-12.3,4.7-17,0L567.7,197c-4.7-4.7-4.7-12.3,0-17l24.9-24.9
		c4.7-4.7,12.3-4.7,17,0l263.8,263.8C878.1,423.6,878.1,431.2,873.4,435.9z"/>
	<path class="st6" d="M873.4,435.9l-24.9,24.9c-4.7,4.7-12.3,4.7-17,0L699.6,328.9l41.9-41.9l131.9,131.9
		C878.1,423.6,878.1,431.2,873.4,435.9z"/>
	<path class="st6" d="M432.5,155.1l24.9,24.9c4.7,4.7,4.7,12.3,0,17L193.5,460.8c-4.7,4.7-12.3,4.7-17,0l-24.9-24.9
		c-4.7-4.7-4.7-12.3,0-17l263.8-263.8C420.1,150.5,427.8,150.5,432.5,155.1z"/>
	<path class="st5" d="M432.5,155.1l24.9,24.9c4.7,4.7,4.7,12.3,0,17L325.4,328.9L283.6,287l131.9-131.9
		C420.1,150.5,427.8,150.5,432.5,155.1z"/>
	<path class="st7" d="M1013.7,319.7L900.6,432.9c-4.7,4.7-12.3,4.7-17,0L595.7,144.9c-4.7-4.7-4.7-12.3,0-17L708.8,14.8
		c4.7-4.7,12.3-4.7,17,0l287.9,287.9C1018.4,307.4,1018.4,315,1013.7,319.7z"/>
	<path class="st8" d="M1013.7,319.7L900.6,432.9c-4.7,4.7-12.3,4.7-17,0l-144-144l130.1-130.1l144,144
		C1018.4,307.4,1018.4,315,1013.7,319.7z"/>
	<path class="st9" d="M316.3,14.8L429.4,128c4.7,4.7,4.7,12.3,0,17L141.5,432.9c-4.7,4.7-12.3,4.7-17,0L11.4,319.7
		c-4.7-4.7-4.7-12.3,0-17L299.3,14.8C304,10.1,311.6,10.1,316.3,14.8z"/>
	<path class="st10" d="M316.3,14.8L429.4,128c4.7,4.7,4.7,12.3,0,17l-144,144L155.3,158.8l144-144C304,10.1,311.6,10.1,316.3,14.8z"
		/>
</g>
</svg>
