<?xml version="1.0" encoding="utf-8"?>
<!-- Generator: Adobe Illustrator 21.1.0, SVG Export Plug-In . SVG Version: 6.00 Build 0)  -->
<svg version="1.1" xmlns="http://www.w3.org/2000/svg" xmlns:xlink="http://www.w3.org/1999/xlink" x="0px" y="0px"
	 viewBox="0 0 1149.3 776.7" style="enable-background:new 0 0 1149.3 776.7;" xml:space="preserve">
<style type="text/css">
	.st0{fill:#9E9E9E;}
	.st1{fill:#767677;}
	.st2{fill:#BDBDBD;}
	.st3{fill:#F2F2F2;}
	.st4{fill:#374850;}
	.st5{fill:#FFFFFF;}
	.st6{fill:#3375BA;}
	.st7{fill:#66BB6A;}
	.st8{fill:#29ABE2;}
	.st9{fill:none;stroke:#000000;stroke-width:2;stroke-linecap:round;stroke-linejoin:round;}
	.st10{fill:none;stroke:#000000;stroke-width:0.5;stroke-linecap:round;stroke-linejoin:round;}
	.st11{fill:none;stroke:#3374BA;stroke-width:5;stroke-miterlimit:10;}
	.st12{fill:#EEEEEE;}
	.st13{fill:#57A0D7;}
	.st14{fill:#E0E0E0;}
	.st15{fill:#3D82C4;}
</style>
<g id="pc">
	<rect x="408.6" y="611.2" class="st0" width="85.4" height="120.8"/>
	<rect x="478.6" y="611.2" class="st1" width="70" height="120.8"/>
	<path class="st2" d="M487.9,775.9H322c-14.2,0-25.7-11.6-25.7-25.7v0c0-14.2,11.6-25.7,25.7-25.7h165.9c14.2,0,25.7,11.6,25.7,25.7
		v0C513.6,764.3,502,775.9,487.9,775.9z"/>
	<path class="st0" d="M478.6,776.7h156.1c14.4,0,26.2-11.8,26.2-26.2v0c0-14.4-11.8-26.2-26.2-26.2H478.6V776.7z"/>
	<path class="st2" d="M558.7,628.2H30c-16.5,0-30-13.5-30-30V30C0,13.5,13.5,0,30,0h528.7c16.5,0,30,13.5,30,30v568.2
		C588.7,614.8,575.2,628.2,558.7,628.2z"/>
	<path class="st0" d="M927.2,628.2H478.6V0h448.6c16.5,0,30,13.5,30,30v568.2C957.2,614.8,943.7,628.2,927.2,628.2z"/>
	<path class="st3" d="M882.5,599H93.6c-16.5,0-30-13.5-30-30V81.1c0-16.5,13.5-30,30-30h788.9c16.5,0,30,13.5,30,30V569
		C912.5,585.5,899,599,882.5,599z"/>
	<path class="st4" d="M166.3,599H74.6c-16.6,0-30-13.4-30-30V83.6h121.7V599z"/>
	<path class="st5" d="M514,572.9H208.3c-6.6,0-12-5.4-12-12V369.7c0-6.6,5.4-12,12-12H514c6.6,0,12,5.4,12,12v191.3
		C526,567.5,520.6,572.9,514,572.9z"/>
	<path class="st5" d="M873.6,572.9h-313c-6.6,0-12-5.4-12-12V369.7c0-6.6,5.4-12,12-12h313c6.6,0,12,5.4,12,12v191.3
		C885.6,567.5,880.2,572.9,873.6,572.9z"/>
	<circle class="st6" cx="359.7" cy="471.5" r="75.9"/>
	<path class="st7" d="M359.7,395.7v151.7c41.9,0,75.9-34,75.9-75.9S401.6,395.7,359.7,395.7z"/>
	<path class="st7" d="M413.3,417.9L306,525.2c29.6,29.6,77.7,29.6,107.3,0C442.9,495.5,442.9,447.5,413.3,417.9z"/>
	
		<ellipse transform="matrix(0.7071 -0.7071 0.7071 0.7071 -123.1453 645.7289)" class="st6" cx="717.9" cy="471.5" rx="75.9" ry="75.9"/>
	<path class="st6" d="M664.3,525.2l107.3-107.3c-29.6-29.6-77.7-29.6-107.3,0C634.6,447.5,634.6,495.5,664.3,525.2z"/>
	<path class="st7" d="M717.9,395.7v151.7c41.9,0,75.9-34,75.9-75.9C793.8,429.6,759.8,395.7,717.9,395.7z"/>
	<path class="st8" d="M882.5,29.3H74.6c-16.5,0-30,13.5-30,30v34h867.9v-34C912.5,42.8,899,29.3,882.5,29.3z"/>
	<path class="st5" d="M514,331.8H208.3c-6.6,0-12-5.4-12-12V122.9c0-6.6,5.4-12,12-12H514c6.6,0,12,5.4,12,12v196.9
		C526,326.4,520.6,331.8,514,331.8z"/>
	<path class="st5" d="M873.6,331.8h-313c-6.6,0-12-5.4-12-12V122.9c0-6.6,5.4-12,12-12h313c6.6,0,12,5.4,12,12v196.9
		C885.6,326.4,880.2,331.8,873.6,331.8z"/>
	<circle class="st6" cx="359.7" cy="225.5" r="75.9"/>
	<path class="st7" d="M359.7,149.6v151.7c41.9,0,75.9-34,75.9-75.9C435.5,183.6,401.6,149.6,359.7,149.6z"/>
	<path class="st6" d="M413.3,171.8L306,279.1c29.6,29.6,77.7,29.6,107.3,0C442.9,249.5,442.9,201.5,413.3,171.8z"/>
	<circle class="st3" cx="359.7" cy="225.5" r="57.4"/>
	<circle class="st3" cx="359.7" cy="471.5" r="57.4"/>
	<circle class="st3" cx="717.9" cy="471.5" r="57.4"/>
	<line class="st9" x1="574.6" y1="285.5" x2="859.6" y2="285.5"/>
	<line class="st10" x1="574.6" y1="245.5" x2="859.6" y2="245.5"/>
	<line class="st10" x1="574.6" y1="205.5" x2="859.6" y2="205.5"/>
	<line class="st10" x1="574.6" y1="165.5" x2="859.6" y2="165.5"/>
	<path class="st11" d="M572,247c47.5-11.8,54.4,15.9,101.9,4.1c47.5-11.8,40.6-39.5,88.1-51.3c47.5-11.8,54.4,15.9,101.9,4.1"/>
</g>
<g id="ap">
	<g>
		<circle class="st12" cx="937" cy="563.5" r="212.3"/>
		<circle class="st13" cx="937" cy="563.5" r="109.2"/>
		<circle class="st12" cx="937" cy="563.5" r="92.5"/>
		<path class="st14" d="M937,351.2v424.7c117.3,0,212.3-95.1,212.3-212.3S1054.2,351.2,937,351.2z"/>
		<path class="st15" d="M937,454.3v218.4c60.3,0,109.2-48.9,109.2-109.2C1046.2,503.2,997.3,454.3,937,454.3z"/>
		<path class="st14" d="M937,471.1V656c51.1,0,92.5-41.4,92.5-92.5S988,471.1,937,471.1z"/>
	</g>
</g>
</svg>
