<?xml version="1.0" encoding="utf-8"?>
<!-- Generator: Adobe Illustrator 21.1.0, SVG Export Plug-In . SVG Version: 6.00 Build 0)  -->
<svg version="1.1" id="Layer_4" xmlns="http://www.w3.org/2000/svg" xmlns:xlink="http://www.w3.org/1999/xlink" x="0px" y="0px"
	 viewBox="0 0 507.4 875.7" style="enable-background:new 0 0 507.4 875.7;" xml:space="preserve">
<style type="text/css">
	.st0{fill:none;}
	.st1{fill:#757576;}
	.st2{fill:#FAFBFB;}
	.st3{fill:#616262;}
	.st4{fill:#F5F5F5;}
	.st5{fill:#0277BD;}
	.st6{fill:#C62828;}
	.st7{fill:#3374BA;}
	.st8{fill:#00579B;}
	.st9{fill:#3D82C4;}
	.st10{fill:#57A0D7;}
	.st11{fill:#D32E2E;}
	.st12{fill:#FFD181;}
	.st13{fill:#434343;}
	.st14{fill:#E0E0E0;}
	.st15{fill:#BDBDBD;}
</style>
<g>
	<path class="st0" d="M232.3,169.3c-3.5,0-6.3-2.8-6.3-6.3l0-3.4c0-3.5,2.8-6.3,6.3-6.3h54.4c3.5,0,6.3,2.8,6.3,6.3v3.4
		c0,3.5-2.8,6.3-6.3,6.3H232.3z"/>
	<path class="st0" d="M215.5,196.4c-6.9,0-12.5-5.6-12.5-12.5l0-7c0-6.9,5.6-12.5,12.5-12.5h111.1c6.9,0,12.5,5.6,12.5,12.5v7
		c0,6.9-5.6,12.5-12.5,12.5L215.5,196.4z"/>
	<path class="st0" d="M161.8,412.9c-2.5,0-4.8-1-6.6-2.7c-1.8-1.8-2.7-4.1-2.7-6.6c0-5.1,4.2-9.3,9.3-9.3l183.7,0
		c5.1,0,9.3,4.2,9.3,9.3s-4.2,9.3-9.3,9.3H161.8z"/>
	<path class="st0" d="M122.2,382.9c-2.5,0-4.8-1-6.6-2.7c-1.8-1.8-2.7-4.1-2.7-6.6s1-4.8,2.7-6.6s4.1-2.7,6.6-2.7h262.8
		c2.5,0,4.8,1,6.6,2.7c1.8,1.8,2.7,4.1,2.7,6.6c0,5.1-4.2,9.3-9.3,9.3H122.2z"/>
	<path class="st0" d="M122.2,352.9c-2.5,0-4.8-1-6.6-2.7c-1.8-1.8-2.7-4.1-2.7-6.6c0-2.5,1-4.8,2.7-6.6c1.8-1.8,4.1-2.7,6.6-2.7
		h262.8c2.5,0,4.8,1,6.6,2.7c1.8,1.8,2.7,4.1,2.7,6.6c0,5.1-4.2,9.3-9.3,9.3H122.2z"/>
	<path class="st0" d="M192,677.9c-11.2,0-20.3-9.1-20.3-20.3v-13.2c0-11.2,9.1-20.3,20.3-20.3h123.4c11.2,0,20.3,9.1,20.3,20.3v13.2
		c0,11.2-9.1,20.3-20.3,20.3L192,677.9z"/>
	<path class="st0" d="M192,597.9c-11.2,0-20.3-9.1-20.3-20.3l0-13.2c0-11.2,9.1-20.3,20.3-20.3h123.4c11.2,0,20.3,9.1,20.3,20.3
		v13.2c0,11.2-9.1,20.3-20.3,20.3H192z"/>
	<path class="st0" d="M192,517.9c-11.2,0-20.3-9.1-20.3-20.3l0-13.2c0-11.2,9.1-20.3,20.3-20.3h123.4c11.2,0,20.3,9.1,20.3,20.3
		v13.2c0,11.2-9.1,20.3-20.3,20.3H192z"/>
	<path class="st0" d="M162.9,237.9c-11.2,0-20.3-9.1-20.3-20.3v-11.4c0-11.2,9.1-20.3,20.3-20.3l181.5,0c5.4,0,10.5,2.1,14.3,5.9
		c3.8,3.8,5.9,8.9,5.9,14.3v11.4c0,5.4-2.1,10.5-5.9,14.3c-3.8,3.8-8.9,5.9-14.3,5.9L162.9,237.9z"/>
	<path class="st0" d="M253.7,236.6c-36.9,0-67-30-67-67c0-36.9,30-67,67-67c36.9,0,67,30,67,67C320.6,206.6,290.6,236.6,253.7,236.6
		z"/>
	<path class="st0" d="M94.9,722.9c-11.2,0-20.3-9.1-20.3-20.3l0-391.7c0-11.2,9.1-20.3,20.3-20.3h320c11.2,0,20.3,9.1,20.3,20.3
		v391.7c0,11.2-9.1,20.3-20.3,20.3L94.9,722.9z"/>
	<path class="st0" d="M382.9,41.6c-6.3,0-11.4-5.1-11.4-11.4c0-6.3,5.1-11.4,11.4-11.4c6.3,0,11.4,5.1,11.4,11.4
		C394.3,36.5,389.2,41.6,382.9,41.6z"/>
	<path class="st0" d="M161.4,38.4c-3.6,0-6.5-2.9-6.5-6.5v-3.4c0-3.6,2.9-6.5,6.5-6.5h184.4c3.6,0,6.5,2.9,6.5,6.5v3.4
		c0,1.7-0.7,3.3-1.9,4.6c-1.2,1.2-2.8,1.9-4.6,1.9H161.4z"/>
	<rect x="253.4" y="203.3" class="st0" width="0.6" height="115.1"/>
	<path class="st0" d="M28.4,781.3c-3.6,0-6.5-2.9-6.5-6.5l0-703.6c0-3.6,2.9-6.5,6.5-6.5h450.5c3.6,0,6.5,2.9,6.5,6.5v703.6
		c0,3.6-2.9,6.5-6.5,6.5H28.4z"/>
	<path class="st0" d="M62.1,875.7c-34.2,0-62.1-27.9-62.1-62.1V62.1C0.1,27.9,27.9,0,62.1,0h383c34.2,0,62.1,27.9,62.1,62.1l0,751.5
		c0,34.2-27.9,62.1-62.1,62.1H62.1z"/>
	<rect x="253.4" y="-21" class="st0" width="0.6" height="920.4"/>
	<path class="st0" d="M206.6,845c-10.6,0-19.3-8.7-19.3-19.3c0-10.6,8.7-19.3,19.3-19.3h94.1c10.6,0,19.3,8.6,19.3,19.3
		c0,10.6-8.7,19.3-19.3,19.3H206.6z"/>
	<g id="XMLID_19_">
		<g>
			<path class="st1" d="M113.3,343.6c0-2.5,1-4.7,2.6-6.4c1.6-1.6,3.9-2.6,6.4-2.6l131.4,0v18l-131.4,0
				C117.3,352.6,113.3,348.6,113.3,343.6z"/>
			<path class="st2" d="M155.4,397.3c-1.6,1.6-2.6,3.9-2.6,6.4c0,5,4,9,9,9h91.9l0,51.8l-61.7,0c-11.1,0-20,9-20,20v13.2
				c0,11.1,9,20,20,20h61.7l0,26.8H192c-11.1,0-20,9-20,20v13.2c0,11.1,9,20,20,20h61.7l0,26.8H192c-11.1,0-20,9-20,20v13.2
				c0,11,9,20,20,20l61.7,0v45l-158.8,0c-11.1,0-20-9-20-20l0-391.7c0-11.1,9-20,20-20l158.8,0l0,27.5v16.2l-131.4,0
				c-2.5,0-4.7,1-6.4,2.6c-1.6,1.6-2.6,3.9-2.6,6.4c0,5,4,9,9,9l131.4,0v12l-131.4,0c-2.5,0-4.7,1-6.4,2.6c-1.6,1.6-2.6,3.9-2.6,6.4
				c0,5,4,9,9,9l131.4,0v12h-91.9C159.3,394.6,157.1,395.6,155.4,397.3z"/>
			<path class="st3" d="M385.1,334.6c5,0,9,4,9,9c0,5-4,9-9,9l-131.4,0v-18L385.1,334.6z"/>
			<path class="st1" d="M113.3,373.6c0-2.5,1-4.7,2.6-6.4c1.6-1.6,3.9-2.6,6.4-2.6l131.4,0l0,18l-131.4,0
				C117.3,382.6,113.3,378.6,113.3,373.6z"/>
			<path class="st1" d="M152.8,403.6c0-2.5,1-4.7,2.6-6.4c1.6-1.6,3.9-2.6,6.4-2.6h91.9v18h-91.9
				C156.8,412.6,152.8,408.6,152.8,403.6z"/>
			<path class="st4" d="M394.1,373.6c0-5-4-9-9-9l-131.4,0v-12l131.4,0c5,0,9-4,9-9c0-5-4-9-9-9l-131.4,0v-16.2l0-27.5l161.2,0
				c11.1,0,20,9,20,20l0,391.7c0,11.1-9,20-20,20H253.7v-45h61.7c11.1,0,20-9,20-20v-13.2c0-11.1-9-20-20-20h-61.7l0-26.8h61.7
				c11.1,0,20-9,20-20v-13.2c0-11-9-20-20-20l-61.7,0l0-26.8h61.7c11.1,0,20-9,20-20v-13.2c0-11-9-20-20-20h-61.7l0-51.8l91.9,0
				c5,0,9-4,9-9c0-5-4-9-9-9l-91.9,0v-12l131.4,0C390,382.6,394.1,378.6,394.1,373.6z"/>
			<path class="st3" d="M253.7,412.6v-18l91.9,0c5,0,9,4,9,9c0,5-4,9-9,9L253.7,412.6z"/>
			<path class="st3" d="M385.1,364.6c5,0,9,4,9,9c0,5-4,9-9,9l-131.4,0l0-18L385.1,364.6z"/>
			<path class="st5" d="M172,657.6v-13.2c0-11.1,9-20,20-20h61.7l0,53.2l-61.7,0C180.9,677.6,172,668.7,172,657.6z"/>
			<path class="st6" d="M335.4,564.4v13.2c0,11.1-9,20-20,20h-61.7v-53.2l61.7,0C326.4,544.5,335.4,553.4,335.4,564.4z"/>
			<path class="st7" d="M434.8,702.6l0-391.7c0-11.1-9-20-20-20l-161.2,0v-53.2l90.8,0c11.1,0,20-9,20-20v-11.4c0-11-9-20-20-20
				h-5.7c0.1-0.8,0.2-1.5,0.2-2.3l0-7c0-6.8-5.5-12.3-12.2-12.3h-6.5c-2.6-34.5-31.4-61.7-66.5-61.7l0-37.9l225.2,0
				c3.4,0,6.2,2.8,6.2,6.2l0,703.6c0,3.4-2.8,6.2-6.2,6.2l-225.2,0l0-58.4h161.2C425.9,722.6,434.8,713.7,434.8,702.6z"/>
			<path class="st8" d="M253.7,677.6l0-53.2h61.7c11.1,0,20,9,20,20v13.2c0,11-9,20-20,20H253.7z"/>
			<path class="st9" d="M253.7,517.6v-53.2h61.7c11.1,0,20,9,20,20v13.2c0,11.1-9,20-20,20H253.7z"/>
			<path class="st9" d="M253.7,722.6l0,58.4l-225.2,0c-3.4,0-6.2-2.8-6.2-6.2l0-703.6c0-3.4,2.8-6.2,6.2-6.2l225.2,0l0,37.9
				c-36.8,0-66.7,29.9-66.7,66.7c0,5.7,0.7,11.3,2.1,16.6h-26.2c-11.1,0-20,9-20,20v11.4c0,11,9,20,20,20l90.8,0v53.2l-158.8,0
				c-11.1,0-20,9-20,20l0,391.7c0,11.1,9,20,20,20L253.7,722.6z"/>
			<path class="st10" d="M253.7,464.4v53.2H192c-11.1,0-20-9-20-20v-13.2c0-11.1,9-20,20-20L253.7,464.4z"/>
			<path class="st11" d="M172,577.6v-13.2c0-11,9-20,20-20h61.7v53.2H192C180.9,597.6,172,588.7,172,577.6z"/>
			<path class="st4" d="M320.4,169.6c0,5.7-0.7,11.3-2.1,16.6l-64.6,0V169h33c2.7,0,5.1-1.9,5.8-4.4l27.7,0
				C320.3,166.3,320.4,167.9,320.4,169.6z"/>
			<path class="st2" d="M203.5,186.2c-0.1-0.7-0.2-1.5-0.2-2.3v-7c0-6.8,5.5-12.3,12.3-12.3l11,0c0.7,2.5,3,4.4,5.8,4.4l21.4,0v17.2
				H203.5z"/>
			<path class="st4" d="M292.5,164.6c-0.7,2.5-3,4.4-5.8,4.4h-33v-4.4H292.5z"/>
			<path class="st2" d="M189,186.2l14.5,0c1.1,5.6,6.1,9.9,12,9.9h38.1v7.2l0,33C222.5,236.3,196.4,215,189,186.2z"/>
			<path class="st2" d="M162.9,186.2H189c7.4,28.8,33.5,50.1,64.6,50.1v1.3l-90.8,0c-11.1,0-20-9-20-20v-11.4
				C142.9,195.1,151.8,186.2,162.9,186.2z"/>
			<path class="st12" d="M253.7,103l0,50.6h-21.4c-3.3,0-6,2.7-6,6v3.4c0,0.6,0.1,1.1,0.2,1.6l-11,0c-6.8,0-12.3,5.5-12.3,12.3v7
				c0,0.8,0.1,1.6,0.2,2.3l-14.5,0c-1.4-5.3-2.1-10.8-2.1-16.6C187,132.8,216.8,103,253.7,103z"/>
			<path class="st4" d="M253.7,186.2l64.6,0c-0.9,3.4-2,6.7-3.4,9.9l-61.2,0V186.2z"/>
			<path class="st4" d="M314.9,196.1h11.8c6,0,10.9-4.3,12-9.9h5.7c11.1,0,20,9,20,20v11.4c0,11-9,20-20,20l-90.8,0v-1.3
				C281.1,236.3,304.6,219.8,314.9,196.1z"/>
			<path class="st2" d="M226.5,164.6h27.2v4.4l-21.4,0C229.5,169,227.2,167.1,226.5,164.6z"/>
			<path class="st2" d="M253.7,186.2v9.9h-38.1c-6,0-11-4.3-12-9.9H253.7z"/>
			<path class="st4" d="M318.3,186.2c1.4-5.3,2.1-10.8,2.1-16.6c0-1.7-0.1-3.4-0.2-5h6.5c6.8,0,12.2,5.5,12.2,12.3l0,7
				c0,0.8-0.1,1.6-0.2,2.3H318.3z"/>
			<path class="st2" d="M253.7,164.6h-27.2c-0.2-0.5-0.2-1.1-0.2-1.6v-3.4c0-3.3,2.7-6,6-6h21.4V164.6z"/>
			<path class="st4" d="M314.9,196.1c-10.2,23.7-33.8,40.2-61.2,40.2l0-33v-7.2L314.9,196.1z"/>
			<path class="st4" d="M326.7,196.1h-11.8c1.4-3.2,2.5-6.5,3.4-9.9h20.4C337.6,191.8,332.7,196.1,326.7,196.1z"/>
			<path class="st12" d="M320.2,164.6l-27.7,0c0.2-0.5,0.2-1.1,0.2-1.6v-3.4c0-3.3-2.7-6-6-6h-33l0-50.6
				C288.8,103,317.6,130.1,320.2,164.6z"/>
			<path class="st4" d="M292.5,164.6h-38.8v-11.1h33c3.3,0,6,2.7,6,6v3.4C292.7,163.5,292.6,164.1,292.5,164.6z"/>
			<path class="st13" d="M345.9,22.4c3.4,0,6.2,2.8,6.2,6.2v3.4c0,3.4-2.8,6.2-6.2,6.2l-92.2,0V22.4L345.9,22.4z"/>
			<path class="st1" d="M155.3,31.9c0,3.4,2.8,6.2,6.2,6.2l92.2,0V65L28.4,65c-3.4,0-6.2,2.8-6.2,6.2l0,703.6c0,3.4,2.8,6.2,6.2,6.2
				l225.2,0v25.7h-47c-5.3,0-10,2.1-13.4,5.6s-5.6,8.2-5.6,13.4c0,10.5,8.5,19,19,19h47v30.8l-191.5,0c-34.1,0-61.8-27.7-61.8-61.8
				l0-751.6C0.3,28,28,0.3,62.1,0.3l191.5,0v22.1l-92.2,0c-3.4,0-6.2,2.8-6.2,6.2V31.9z"/>
			<path class="st13" d="M382.9,41.4c-6.1,0-11.1-5-11.1-11.1c0-6.2,5-11.1,11.1-11.1c6.1,0,11.1,5,11.1,11.1
				C394.1,36.4,389.1,41.4,382.9,41.4z"/>
			<path class="st14" d="M206.6,844.7c-10.5,0-19-8.5-19-19c0-5.2,2.1-10,5.6-13.4s8.2-5.6,13.4-5.6h47l0,38H206.6z"/>
			<path class="st3" d="M371.8,30.2c0,6.1,5,11.1,11.1,11.1s11.1-5,11.1-11.1c0-6.2-5-11.1-11.1-11.1
				C376.8,19.1,371.8,24.1,371.8,30.2z M352,28.5c0-3.4-2.8-6.2-6.2-6.2l-92.2,0V0.3l191.5,0C479.3,0.3,507,28,507,62.1l0,751.6
				c0,34.1-27.7,61.8-61.8,61.8H253.7v-30.8l47,0c10.5,0,19-8.5,19-19c0-10.5-8.5-19-19-19l-47,0V781l225.2,0c3.4,0,6.2-2.8,6.2-6.2
				l0-703.6c0-3.4-2.8-6.2-6.2-6.2l-225.2,0V38.1l92.2,0c3.4,0,6.2-2.8,6.2-6.2V28.5z"/>
			<path class="st3" d="M161.5,38.1c-3.4,0-6.2-2.8-6.2-6.2v-3.4c0-3.4,2.8-6.2,6.2-6.2l92.2,0v15.7L161.5,38.1z"/>
			<path class="st15" d="M300.7,806.7c10.5,0,19,8.5,19,19c0,10.5-8.5,19-19,19l-47,0l0-38L300.7,806.7z"/>
		</g>
		<g>
		</g>
	</g>
</g>
<g>
	<path class="st0" d="M232.4,169.3c-3.5,0-6.3-2.8-6.3-6.3l0-3.4c0-3.5,2.8-6.3,6.3-6.3h54.4c3.5,0,6.3,2.8,6.3,6.3v3.4
		c0,3.5-2.8,6.3-6.3,6.3H232.4z"/>
	<path class="st0" d="M215.6,196.4c-6.9,0-12.5-5.6-12.5-12.5l0-7c0-6.9,5.6-12.5,12.5-12.5h111.1c6.9,0,12.5,5.6,12.5,12.5v7
		c0,6.9-5.6,12.5-12.5,12.5L215.6,196.4z"/>
	<path class="st0" d="M161.9,412.9c-2.5,0-4.8-1-6.6-2.7c-1.8-1.8-2.7-4.1-2.7-6.6c0-5.1,4.2-9.3,9.3-9.3l183.7,0
		c5.1,0,9.3,4.2,9.3,9.3s-4.2,9.3-9.3,9.3H161.9z"/>
	<path class="st0" d="M122.3,382.9c-2.5,0-4.8-1-6.6-2.7c-1.8-1.8-2.7-4.1-2.7-6.6s1-4.8,2.7-6.6s4.1-2.7,6.6-2.7h262.8
		c2.5,0,4.8,1,6.6,2.7c1.8,1.8,2.7,4.1,2.7,6.6c0,5.1-4.2,9.3-9.3,9.3H122.3z"/>
	<path class="st0" d="M122.3,352.9c-2.5,0-4.8-1-6.6-2.7c-1.8-1.8-2.7-4.1-2.7-6.6c0-2.5,1-4.8,2.7-6.6c1.8-1.8,4.1-2.7,6.6-2.7
		h262.8c2.5,0,4.8,1,6.6,2.7c1.8,1.8,2.7,4.1,2.7,6.6c0,5.1-4.2,9.3-9.3,9.3H122.3z"/>
	<path class="st0" d="M192.1,677.9c-11.2,0-20.3-9.1-20.3-20.3v-13.2c0-11.2,9.1-20.3,20.3-20.3h123.4c11.2,0,20.3,9.1,20.3,20.3
		v13.2c0,11.2-9.1,20.3-20.3,20.3L192.1,677.9z"/>
	<path class="st0" d="M192.1,597.9c-11.2,0-20.3-9.1-20.3-20.3l0-13.2c0-11.2,9.1-20.3,20.3-20.3h123.4c11.2,0,20.3,9.1,20.3,20.3
		v13.2c0,11.2-9.1,20.3-20.3,20.3H192.1z"/>
	<path class="st0" d="M192.1,517.9c-11.2,0-20.3-9.1-20.3-20.3l0-13.2c0-11.2,9.1-20.3,20.3-20.3h123.4c11.2,0,20.3,9.1,20.3,20.3
		v13.2c0,11.2-9.1,20.3-20.3,20.3H192.1z"/>
	<path class="st0" d="M163,237.9c-11.2,0-20.3-9.1-20.3-20.3v-11.4c0-11.2,9.1-20.3,20.3-20.3l181.5,0c5.4,0,10.5,2.1,14.3,5.9
		c3.8,3.8,5.9,8.9,5.9,14.3v11.4c0,5.4-2.1,10.5-5.9,14.3c-3.8,3.8-8.9,5.9-14.3,5.9L163,237.9z"/>
	<path class="st0" d="M253.8,236.6c-36.9,0-67-30-67-67c0-36.9,30-67,67-67c36.9,0,67,30,67,67C320.7,206.6,290.7,236.6,253.8,236.6
		z"/>
	<path class="st0" d="M95,722.9c-11.2,0-20.3-9.1-20.3-20.3l0-391.7c0-11.2,9.1-20.3,20.3-20.3h320c11.2,0,20.3,9.1,20.3,20.3v391.7
		c0,11.2-9.1,20.3-20.3,20.3L95,722.9z"/>
	<path class="st0" d="M383,41.6c-6.3,0-11.4-5.1-11.4-11.4c0-6.3,5.1-11.4,11.4-11.4c6.3,0,11.4,5.1,11.4,11.4
		C394.4,36.5,389.3,41.6,383,41.6z"/>
	<path class="st0" d="M161.5,38.4c-3.6,0-6.5-2.9-6.5-6.5v-3.4c0-3.6,2.9-6.5,6.5-6.5H346c3.6,0,6.5,2.9,6.5,6.5v3.4
		c0,1.7-0.7,3.3-1.9,4.6c-1.2,1.2-2.8,1.9-4.6,1.9H161.5z"/>
	<rect x="253.5" y="203.3" class="st0" width="0.6" height="115.1"/>
	<path class="st0" d="M28.5,781.3c-3.6,0-6.5-2.9-6.5-6.5l0-703.6c0-3.6,2.9-6.5,6.5-6.5H479c3.6,0,6.5,2.9,6.5,6.5v703.6
		c0,3.6-2.9,6.5-6.5,6.5H28.5z"/>
	<path class="st0" d="M62.2,875.7c-34.2,0-62.1-27.9-62.1-62.1V62.1C0.2,27.9,28,0,62.2,0h383c34.2,0,62.1,27.9,62.1,62.1l0,751.5
		c0,34.2-27.9,62.1-62.1,62.1H62.2z"/>
	<rect x="253.5" y="-21" class="st0" width="0.6" height="920.4"/>
	<path class="st0" d="M206.7,845c-10.6,0-19.3-8.7-19.3-19.3c0-10.6,8.7-19.3,19.3-19.3h94.1c10.6,0,19.3,8.6,19.3,19.3
		c0,10.6-8.7,19.3-19.3,19.3H206.7z"/>
	<g id="XMLID_1_">
		<g>
			<path class="st3" d="M507.1,62.1l0,751.6c0,34.1-27.7,61.8-61.8,61.8H253.8v-30.8l47,0c10.5,0,19-8.5,19-19c0-10.5-8.5-19-19-19
				l-47,0l0-25.7l225.2,0c3.4,0,6.2-2.8,6.2-6.2l0-703.6c0-3.4-2.8-6.2-6.2-6.2l-225.2,0l0-26.9l92.2,0c3.4,0,6.2-2.8,6.2-6.2v-3.4
				c0-3.4-2.8-6.2-6.2-6.2l-92.2,0V0.3l191.5,0C479.4,0.3,507.1,28,507.1,62.1z M394.2,30.2c0-6.2-5-11.1-11.1-11.1
				c-6.1,0-11.1,5-11.1,11.1c0,6.1,5,11.1,11.1,11.1C389.2,41.4,394.2,36.4,394.2,30.2z"/>
			<path class="st7" d="M485.2,71.2l0,703.6c0,3.4-2.8,6.2-6.2,6.2l-225.2,0l0-58.4h161.2c11.1,0,20-9,20-20l0-391.7
				c0-11.1-9-20-20-20l-161.2,0l0-53.2l90.8,0c11.1,0,20-9,20-20l0-11.4c0-11-9-20-20-20h-5.7c0.1-0.8,0.2-1.5,0.2-2.3v-7
				c0-6.8-5.5-12.3-12.2-12.3h-6.5c-2.6-34.5-31.4-61.7-66.5-61.7V65L479,65C482.4,65,485.2,67.8,485.2,71.2z"/>
			<path class="st4" d="M434.9,310.9l0,391.7c0,11.1-9,20-20,20H253.8v-45h61.7c11.1,0,20-9,20-20v-13.2c0-11.1-9-20-20-20h-61.7
				v-26.8h61.7c11.1,0,20-9,20-20v-13.2c0-11-9-20-20-20l-61.7,0v-26.8h61.7c11.1,0,20-9,20-20v-13.2c0-11-9-20-20-20h-61.7l0-51.8
				l91.9,0c5,0,9-4,9-9c0-5-4-9-9-9l-91.9,0v-12l131.4,0c5,0,9-4,9-9c0-5-4-9-9-9l-131.4,0v-12l131.4,0c5,0,9-4,9-9c0-5-4-9-9-9
				l-131.4,0v-16.2v-27.5l161.2,0C426,290.9,434.9,299.8,434.9,310.9z"/>
			<path class="st3" d="M385.2,334.6c5,0,9,4,9,9c0,5-4,9-9,9l-131.4,0l0-18L385.2,334.6z"/>
			<path class="st3" d="M385.2,364.6c5,0,9,4,9,9c0,5-4,9-9,9l-131.4,0v-18L385.2,364.6z"/>
			<path class="st13" d="M383,19.1c6.1,0,11.1,5,11.1,11.1c0,6.1-5,11.1-11.1,11.1c-6.1,0-11.1-5-11.1-11.1
				C371.9,24.1,376.9,19.1,383,19.1z"/>
			<path class="st4" d="M364.5,206.2l0,11.4c0,11-9,20-20,20l-90.8,0v-1.3c27.4,0,51-16.6,61.2-40.2h11.8c6,0,10.9-4.3,12-9.9h5.7
				C355.6,186.2,364.5,195.1,364.5,206.2z"/>
			<path class="st3" d="M345.6,394.6c5,0,9,4,9,9c0,5-4,9-9,9l-91.9,0v-18L345.6,394.6z"/>
			<path class="st13" d="M352.1,28.5v3.4c0,3.4-2.8,6.2-6.2,6.2l-92.2,0V22.4l92.2,0C349.4,22.4,352.1,25.1,352.1,28.5z"/>
			<path class="st4" d="M339,176.9v7c0,0.8-0.1,1.6-0.2,2.3h-20.4c1.4-5.3,2.1-10.8,2.1-16.6c0-1.7-0.1-3.4-0.2-5h6.5
				C333.5,164.6,339,170.1,339,176.9z"/>
			<path class="st4" d="M318.4,186.2h20.4c-1.1,5.6-6,9.9-12,9.9H315C316.4,192.9,317.5,189.6,318.4,186.2z"/>
			<path class="st8" d="M335.5,644.4v13.2c0,11-9,20-20,20h-61.7l0-53.2h61.7C326.5,624.4,335.5,633.4,335.5,644.4z"/>
			<path class="st6" d="M335.5,564.4v13.2c0,11.1-9,20-20,20h-61.7l0-53.2l61.7,0C326.5,544.5,335.5,553.4,335.5,564.4z"/>
			<path class="st9" d="M335.5,484.4v13.2c0,11.1-9,20-20,20h-61.7l0-53.2h61.7C326.5,464.4,335.5,473.4,335.5,484.4z"/>
			<path class="st4" d="M320.3,164.6c0.1,1.7,0.2,3.3,0.2,5c0,5.7-0.7,11.3-2.1,16.6l-64.6,0V169h33c2.7,0,5.1-1.9,5.8-4.4
				L320.3,164.6z"/>
			<path class="st12" d="M320.3,164.6l-27.7,0c0.2-0.5,0.2-1.1,0.2-1.6v-3.4c0-3.3-2.7-6-6-6h-33l0-50.6
				C288.9,103,317.7,130.1,320.3,164.6z"/>
			<path class="st4" d="M253.8,186.2l64.6,0c-0.9,3.4-2,6.7-3.4,9.9l-61.2,0V186.2z"/>
			<path class="st4" d="M253.8,196.1l61.2,0c-10.2,23.7-33.8,40.2-61.2,40.2v-33L253.8,196.1z"/>
			<path class="st15" d="M300.8,806.7c10.5,0,19,8.5,19,19c0,10.5-8.5,19-19,19l-47,0v-38L300.8,806.7z"/>
			<path class="st4" d="M292.8,159.5v3.4c0,0.6-0.1,1.1-0.2,1.6h-38.8v-11.1h33C290.1,153.5,292.8,156.2,292.8,159.5z"/>
			<path class="st4" d="M253.8,164.6h38.8c-0.7,2.5-3,4.4-5.8,4.4h-33V164.6z"/>
			<path class="st2" d="M253.8,290.9v27.5v16.2l-131.4,0c-2.5,0-4.7,1-6.4,2.6c-1.6,1.6-2.6,3.9-2.6,6.4c0,5,4,9,9,9l131.4,0v12
				l-131.4,0c-2.5,0-4.7,1-6.4,2.6c-1.6,1.6-2.6,3.9-2.6,6.4c0,5,4,9,9,9l131.4,0v12h-91.9c-2.5,0-4.7,1-6.4,2.6
				c-1.6,1.6-2.6,3.9-2.6,6.4c0,5,4,9,9,9h91.9l0,51.8l-61.7,0c-11.1,0-20,9-20,20v13.2c0,11.1,9,20,20,20h61.7v26.8h-61.7
				c-11.1,0-20,9-20,20v13.2c0,11.1,9,20,20,20h61.7v26.8h-61.7c-11.1,0-20,9-20,20v13.2c0,11,9,20,20,20l61.7,0v45l-158.8,0
				c-11.1,0-20-9-20-20l0-391.7c0-11.1,9-20,20-20L253.8,290.9z"/>
			<path class="st9" d="M253.8,237.6l0,53.2l-158.8,0c-11.1,0-20,9-20,20l0,391.7c0,11.1,9,20,20,20l158.8,0l0,58.4l-225.2,0
				c-3.4,0-6.2-2.8-6.2-6.2l0-703.6c0-3.4,2.8-6.2,6.2-6.2l225.2,0V103c-36.8,0-66.7,29.9-66.7,66.7c0,5.7,0.7,11.3,2.1,16.6H163
				c-11.1,0-20,9-20,20v11.4c0,11,9,20,20,20L253.8,237.6z"/>
			<path class="st2" d="M253.8,236.3v1.3l-90.8,0c-11.1,0-20-9-20-20v-11.4c0-11,9-20,20-20h26.2C196.5,215,222.6,236.3,253.8,236.3
				z"/>
			<path class="st2" d="M253.8,203.3v33c-31.1,0-57.3-21.3-64.6-50.1l14.5,0c1.1,5.6,6.1,9.9,12,9.9h38.1L253.8,203.3z"/>
			<path class="st1" d="M253.8,844.7v30.8l-191.5,0c-34.1,0-61.8-27.7-61.8-61.8l0-751.6C0.4,28,28.1,0.3,62.2,0.3l191.5,0v22.1
				l-92.2,0c-3.4,0-6.2,2.8-6.2,6.2v3.4c0,3.4,2.8,6.2,6.2,6.2l92.2,0l0,26.9L28.5,65c-3.4,0-6.2,2.8-6.2,6.2l0,703.6
				c0,3.4,2.8,6.2,6.2,6.2l225.2,0l0,25.7h-47c-5.3,0-10,2.1-13.4,5.6s-5.6,8.2-5.6,13.4c0,10.5,8.5,19,19,19H253.8z"/>
			<path class="st14" d="M253.8,806.7v38h-47c-10.5,0-19-8.5-19-19c0-5.2,2.1-10,5.6-13.4s8.2-5.6,13.4-5.6H253.8z"/>
			<path class="st5" d="M253.8,624.4l0,53.2l-61.7,0c-11.1,0-20-9-20-20v-13.2c0-11.1,9-20,20-20H253.8z"/>
			<path class="st11" d="M253.8,544.5l0,53.2h-61.7c-11.1,0-20-9-20-20v-13.2c0-11,9-20,20-20H253.8z"/>
			<path class="st10" d="M253.8,464.4l0,53.2h-61.7c-11.1,0-20-9-20-20v-13.2c0-11.1,9-20,20-20L253.8,464.4z"/>
			<path class="st1" d="M253.8,394.6v18h-91.9c-5,0-9-4-9-9c0-2.5,1-4.7,2.6-6.4c1.6-1.6,3.9-2.6,6.4-2.6H253.8z"/>
			<path class="st1" d="M253.8,364.6v18l-131.4,0c-5,0-9-4-9-9c0-2.5,1-4.7,2.6-6.4c1.6-1.6,3.9-2.6,6.4-2.6L253.8,364.6z"/>
			<path class="st1" d="M253.8,334.6l0,18l-131.4,0c-5,0-9-4-9-9c0-2.5,1-4.7,2.6-6.4c1.6-1.6,3.9-2.6,6.4-2.6L253.8,334.6z"/>
			<path class="st2" d="M253.8,186.2v9.9h-38.1c-6,0-11-4.3-12-9.9H253.8z"/>
			<path class="st2" d="M253.8,169v17.2h-50.2c-0.1-0.7-0.2-1.5-0.2-2.3v-7c0-6.8,5.5-12.3,12.3-12.3l11,0c0.7,2.5,3,4.4,5.8,4.4
				L253.8,169z"/>
			<path class="st2" d="M253.8,164.6v4.4l-21.4,0c-2.8,0-5.1-1.9-5.8-4.4H253.8z"/>
			<path class="st2" d="M253.8,153.5v11.1h-27.2c-0.2-0.5-0.2-1.1-0.2-1.6v-3.4c0-3.3,2.7-6,6-6H253.8z"/>
			<path class="st12" d="M253.8,103l0,50.6h-21.4c-3.3,0-6,2.7-6,6v3.4c0,0.6,0.1,1.1,0.2,1.6l-11,0c-6.8,0-12.3,5.5-12.3,12.3v7
				c0,0.8,0.1,1.6,0.2,2.3l-14.5,0c-1.4-5.3-2.1-10.8-2.1-16.6C187.1,132.8,216.9,103,253.8,103z"/>
			<path class="st3" d="M253.8,22.4v15.7l-92.2,0c-3.4,0-6.2-2.8-6.2-6.2v-3.4c0-3.4,2.8-6.2,6.2-6.2L253.8,22.4z"/>
		</g>
		<g>
		</g>
	</g>
</g>
<g>
	<path class="st0" d="M232.3,169.3c-3.5,0-6.3-2.8-6.3-6.3l0-3.4c0-3.5,2.8-6.3,6.3-6.3h54.4c3.5,0,6.3,2.8,6.3,6.3v3.4
		c0,3.5-2.8,6.3-6.3,6.3H232.3z"/>
	<path class="st0" d="M215.5,196.4c-6.9,0-12.5-5.6-12.5-12.5l0-7c0-6.9,5.6-12.5,12.5-12.5h111.2c6.9,0,12.5,5.6,12.5,12.5v7
		c0,6.9-5.6,12.5-12.5,12.5L215.5,196.4z"/>
	<path class="st0" d="M161.8,412.9c-2.5,0-4.8-1-6.6-2.7c-1.8-1.8-2.7-4.1-2.7-6.6c0-5.1,4.2-9.3,9.3-9.3l183.7,0
		c5.1,0,9.3,4.2,9.3,9.3s-4.2,9.3-9.3,9.3H161.8z"/>
	<path class="st0" d="M122.2,382.9c-2.5,0-4.8-1-6.6-2.7c-1.8-1.8-2.7-4.1-2.7-6.6s1-4.8,2.7-6.6c1.8-1.8,4.1-2.7,6.6-2.7h262.9
		c2.5,0,4.8,1,6.6,2.7c1.8,1.8,2.7,4.1,2.7,6.6c0,5.1-4.2,9.3-9.3,9.3H122.2z"/>
	<path class="st0" d="M122.2,352.9c-2.5,0-4.8-1-6.6-2.7c-1.8-1.8-2.7-4.1-2.7-6.6c0-2.5,1-4.8,2.7-6.6c1.8-1.8,4.1-2.7,6.6-2.7
		h262.9c2.5,0,4.8,1,6.6,2.7c1.8,1.8,2.7,4.1,2.7,6.6c0,5.1-4.2,9.3-9.3,9.3H122.2z"/>
	<path class="st0" d="M191.9,677.9c-11.2,0-20.3-9.1-20.3-20.3v-13.2c0-11.2,9.1-20.3,20.3-20.3h123.4c11.2,0,20.3,9.1,20.3,20.3
		v13.2c0,11.2-9.1,20.3-20.3,20.3L191.9,677.9z"/>
	<path class="st0" d="M191.9,597.9c-11.2,0-20.3-9.1-20.3-20.3l0-13.2c0-11.2,9.1-20.3,20.3-20.3h123.4c11.2,0,20.3,9.1,20.3,20.3
		v13.2c0,11.2-9.1,20.3-20.3,20.3H191.9z"/>
	<path class="st0" d="M191.9,517.9c-11.2,0-20.3-9.1-20.3-20.3l0-13.2c0-11.2,9.1-20.3,20.3-20.3h123.4c11.2,0,20.3,9.1,20.3,20.3
		v13.2c0,11.2-9.1,20.3-20.3,20.3H191.9z"/>
	<path class="st0" d="M162.9,237.9c-11.2,0-20.3-9.1-20.3-20.3v-11.4c0-11.2,9.1-20.3,20.3-20.3l181.6,0c5.4,0,10.5,2.1,14.3,5.9
		c3.8,3.8,5.9,8.9,5.9,14.3v11.4c0,5.4-2.1,10.5-5.9,14.3c-3.8,3.8-8.9,5.9-14.3,5.9L162.9,237.9z"/>
	<path class="st0" d="M253.7,236.6c-36.9,0-67-30-67-67c0-36.9,30.1-67,67-67c36.9,0,67,30,67,67
		C320.6,206.6,290.6,236.6,253.7,236.6z"/>
	<path class="st0" d="M94.8,722.9c-11.2,0-20.3-9.1-20.3-20.3l0-391.7c0-11.2,9.1-20.3,20.3-20.3h320c11.2,0,20.3,9.1,20.3,20.3
		v391.7c0,11.2-9.1,20.3-20.3,20.3L94.8,722.9z"/>
	<path class="st0" d="M383,41.6c-6.3,0-11.4-5.1-11.4-11.4c0-6.3,5.1-11.4,11.4-11.4c6.3,0,11.4,5.1,11.4,11.4
		C394.4,36.5,389.3,41.6,383,41.6z"/>
	<path class="st0" d="M161.4,38.4c-3.6,0-6.5-2.9-6.5-6.5v-3.4c0-3.6,2.9-6.5,6.5-6.5h184.5c3.6,0,6.5,2.9,6.5,6.5v3.4
		c0,1.7-0.7,3.3-1.9,4.6c-1.2,1.2-2.8,1.9-4.6,1.9H161.4z"/>
	<rect x="253.4" y="203.3" class="st0" width="0.6" height="115.1"/>
	<path class="st0" d="M28.4,781.3c-3.6,0-6.5-2.9-6.5-6.5l0-703.6c0-3.6,2.9-6.5,6.5-6.5h450.6c3.6,0,6.5,2.9,6.5,6.5v703.6
		c0,3.6-2.9,6.5-6.5,6.5H28.4z"/>
	<path class="st0" d="M62.1,875.7C27.9,875.7,0,847.9,0,813.6V62.1C0,27.9,27.9,0,62.1,0h383.1c34.2,0,62.1,27.9,62.1,62.1l0,751.5
		c0,34.2-27.9,62.1-62.1,62.1H62.1z"/>
	<rect x="253.4" y="-21" class="st0" width="0.6" height="920.4"/>
	<path class="st0" d="M206.6,845c-10.6,0-19.3-8.7-19.3-19.3c0-10.6,8.7-19.3,19.3-19.3h94.1c10.6,0,19.3,8.6,19.3,19.3
		c0,10.6-8.7,19.3-19.3,19.3H206.6z"/>
	<g id="XMLID_2_">
		<g>
			<path class="st3" d="M507,62.1l0,751.6c0,34.1-27.7,61.8-61.8,61.8H253.7v-30.8l47,0c10.5,0,19-8.5,19-19c0-10.5-8.5-19-19-19
				l-47,0V781l225.3,0c3.4,0,6.2-2.8,6.2-6.2l0-703.6c0-3.4-2.8-6.2-6.2-6.2l-225.3,0V38.1l92.2,0c3.4,0,6.2-2.8,6.2-6.2v-3.4
				c0-3.4-2.8-6.2-6.2-6.2l-92.2,0V0.3l191.6,0C479.4,0.3,507,28,507,62.1z M394.1,30.2c0-6.2-5-11.1-11.1-11.1
				c-6.1,0-11.1,5-11.1,11.1c0,6.1,5,11.1,11.1,11.1S394.1,36.4,394.1,30.2z"/>
			<path class="st7" d="M485.1,71.2l0,703.6c0,3.4-2.8,6.2-6.2,6.2l-225.3,0l0-58.4h161.2c11.1,0,20-9,20-20l0-391.7
				c0-11.1-9-20-20-20l-161.2,0v-53.2l90.8,0c11.1,0,20-9,20-20v-11.4c0-11-9-20-20-20h-5.7c0.1-0.8,0.2-1.5,0.2-2.3v-7
				c0-6.8-5.5-12.3-12.2-12.3h-6.5c-2.6-34.5-31.4-61.7-66.5-61.7l0-37.9L479,65C482.4,65,485.1,67.8,485.1,71.2z"/>
			<path class="st4" d="M434.9,310.9l0,391.7c0,11.1-9,20-20,20H253.7v-45h61.7c11.1,0,20-9,20-20v-13.2c0-11.1-9-20-20-20h-61.7
				v-26.8h61.7c11.1,0,20-9,20-20v-13.2c0-11-9-20-20-20l-61.7,0l0-26.8h61.7c11.1,0,20-9,20-20l0-13.2c0-11-9-20-20-20h-61.7
				l0-51.8l91.9,0c5,0,9-4,9-9c0-5-4-9-9-9l-91.9,0v-12l131.4,0c5,0,9-4,9-9c0-5-4-9-9-9l-131.4,0v-12l131.4,0c5,0,9-4,9-9
				c0-5-4-9-9-9l-131.4,0v-16.2l0-27.5l161.2,0C425.9,290.9,434.9,299.8,434.9,310.9z"/>
			<path class="st3" d="M385.1,334.6c5,0,9,4,9,9c0,5-4,9-9,9l-131.4,0v-18L385.1,334.6z"/>
			<path class="st3" d="M385.1,364.6c5,0,9,4,9,9c0,5-4,9-9,9l-131.4,0l0-18L385.1,364.6z"/>
			<path class="st13" d="M383,19.1c6.1,0,11.1,5,11.1,11.1c0,6.1-5,11.1-11.1,11.1s-11.1-5-11.1-11.1
				C371.8,24.1,376.8,19.1,383,19.1z"/>
			<path class="st4" d="M364.5,206.2v11.4c0,11-9,20-20,20l-90.8,0v-1.3c27.4,0,51-16.6,61.2-40.2h11.8c6,0,10.9-4.3,12-9.9h5.7
				C355.5,186.2,364.5,195.1,364.5,206.2z"/>
			<path class="st3" d="M345.5,394.6c5,0,9,4,9,9c0,5-4,9-9,9l-91.9,0v-18L345.5,394.6z"/>
			<path class="st13" d="M352.1,28.5v3.4c0,3.4-2.8,6.2-6.2,6.2l-92.2,0V22.4l92.2,0C349.3,22.4,352.1,25.1,352.1,28.5z"/>
			<path class="st4" d="M338.9,176.9v7c0,0.8-0.1,1.6-0.2,2.3h-20.4c1.4-5.3,2.1-10.8,2.1-16.6c0-1.7-0.1-3.4-0.2-5h6.5
				C333.5,164.6,338.9,170.1,338.9,176.9z"/>
			<path class="st4" d="M318.3,186.2h20.4c-1.1,5.6-6,9.9-12,9.9h-11.8C316.3,192.9,317.4,189.6,318.3,186.2z"/>
			<path class="st8" d="M335.4,644.4v13.2c0,11-9,20-20,20h-61.7l0-53.2h61.7C326.4,624.4,335.4,633.4,335.4,644.4z"/>
			<path class="st6" d="M335.4,564.4v13.2c0,11.1-9,20-20,20h-61.7l0-53.2l61.7,0C326.4,544.5,335.4,553.4,335.4,564.4z"/>
			<path class="st9" d="M335.4,484.4l0,13.2c0,11.1-9,20-20,20h-61.7v-53.2h61.7C326.4,464.4,335.4,473.4,335.4,484.4z"/>
			<path class="st4" d="M320.2,164.6c0.1,1.7,0.2,3.3,0.2,5c0,5.7-0.7,11.3-2.1,16.6l-64.6,0V169h33.1c2.7,0,5.1-1.9,5.8-4.4
				L320.2,164.6z"/>
			<path class="st12" d="M320.2,164.6l-27.7,0c0.2-0.5,0.2-1.1,0.2-1.6v-3.4c0-3.3-2.7-6-6-6h-33.1l0-50.6
				C288.8,103,317.6,130.1,320.2,164.6z"/>
			<path class="st4" d="M253.7,186.2l64.6,0c-0.9,3.4-2,6.7-3.4,9.9l-61.2,0V186.2z"/>
			<path class="st4" d="M253.7,196.1l61.2,0c-10.3,23.7-33.8,40.2-61.2,40.2l0-33V196.1z"/>
			<path class="st15" d="M300.7,806.7c10.5,0,19,8.5,19,19c0,10.5-8.5,19-19,19l-47,0l0-38L300.7,806.7z"/>
			<path class="st4" d="M292.7,159.5v3.4c0,0.6-0.1,1.1-0.2,1.6h-38.8v-11.1h33.1C290,153.5,292.7,156.2,292.7,159.5z"/>
			<path class="st4" d="M253.7,164.6h38.8c-0.7,2.5-3,4.4-5.8,4.4h-33.1V164.6z"/>
			<path class="st2" d="M253.7,290.9l0,27.5v16.2l-131.4,0c-2.5,0-4.7,1-6.4,2.6c-1.6,1.6-2.6,3.9-2.6,6.4c0,5,4,9,9,9l131.4,0v12
				l-131.4,0c-2.5,0-4.7,1-6.4,2.6c-1.6,1.6-2.6,3.9-2.6,6.4c0,5,4,9,9,9l131.4,0v12h-91.9c-2.5,0-4.7,1-6.4,2.6
				c-1.6,1.6-2.6,3.9-2.6,6.4c0,5,4,9,9,9h91.9l0,51.8l-61.7,0c-11.1,0-20,9-20,20v13.2c0,11.1,9,20,20,20h61.7l0,26.8h-61.7
				c-11.1,0-20,9-20,20v13.2c0,11.1,9,20,20,20h61.7v26.8h-61.7c-11.1,0-20,9-20,20v13.2c0,11,9,20,20,20l61.7,0v45l-158.8,0
				c-11.1,0-20-9-20-20l0-391.7c0-11.1,9-20,20-20L253.7,290.9z"/>
			<path class="st9" d="M253.7,237.6v53.2l-158.8,0c-11.1,0-20,9-20,20l0,391.7c0,11.1,9,20,20,20l158.8,0l0,58.4l-225.3,0
				c-3.4,0-6.2-2.8-6.2-6.2l0-703.6c0-3.4,2.8-6.2,6.2-6.2l225.3,0l0,37.9c-36.8,0-66.7,29.9-66.7,66.7c0,5.7,0.7,11.3,2.1,16.6
				h-26.2c-11.1,0-20,9-20,20l0,11.4c0,11,9,20,20,20L253.7,237.6z"/>
			<path class="st2" d="M253.7,236.3v1.3l-90.8,0c-11.1,0-20-9-20-20l0-11.4c0-11,9-20,20-20H189C196.4,215,222.5,236.3,253.7,236.3
				z"/>
			<path class="st2" d="M253.7,203.3l0,33c-31.1,0-57.3-21.3-64.6-50.1l14.5,0c1.1,5.6,6.1,9.9,12,9.9h38.1V203.3z"/>
			<path class="st1" d="M253.7,844.7v30.8l-191.6,0c-34.2,0-61.8-27.7-61.8-61.8l0-751.6C0.3,28,28,0.3,62.1,0.3l191.6,0v22.1
				l-92.2,0c-3.4,0-6.2,2.8-6.2,6.2v3.4c0,3.4,2.8,6.2,6.2,6.2l92.2,0V65L28.4,65c-3.4,0-6.2,2.8-6.2,6.2l0,703.6
				c0,3.4,2.8,6.2,6.2,6.2l225.3,0v25.7h-47c-5.3,0-10,2.1-13.4,5.6s-5.6,8.2-5.6,13.4c0,10.5,8.5,19,19,19H253.7z"/>
			<path class="st14" d="M253.7,806.7l0,38h-47c-10.5,0-19-8.5-19-19c0-5.2,2.1-10,5.6-13.4s8.2-5.6,13.4-5.6H253.7z"/>
			<path class="st5" d="M253.7,624.4l0,53.2l-61.7,0c-11.1,0-20-9-20-20v-13.2c0-11.1,9-20,20-20H253.7z"/>
			<path class="st11" d="M253.7,544.5l0,53.2h-61.7c-11.1,0-20-9-20-20v-13.2c0-11,9-20,20-20H253.7z"/>
			<path class="st10" d="M253.7,464.4v53.2h-61.7c-11.1,0-20-9-20-20v-13.2c0-11.1,9-20,20-20L253.7,464.4z"/>
			<path class="st1" d="M253.7,394.6v18h-91.9c-5,0-9-4-9-9c0-2.5,1-4.7,2.6-6.4c1.6-1.6,3.9-2.6,6.4-2.6H253.7z"/>
			<path class="st1" d="M253.7,364.6l0,18l-131.4,0c-5,0-9-4-9-9c0-2.5,1-4.7,2.6-6.4c1.6-1.6,3.9-2.6,6.4-2.6L253.7,364.6z"/>
			<path class="st1" d="M253.7,334.6v18l-131.4,0c-5,0-9-4-9-9c0-2.5,1-4.7,2.6-6.4c1.6-1.6,3.9-2.6,6.4-2.6L253.7,334.6z"/>
			<path class="st2" d="M253.7,186.2v9.9h-38.1c-6,0-11-4.3-12-9.9H253.7z"/>
			<path class="st2" d="M253.7,169v17.2h-50.2c-0.1-0.7-0.2-1.5-0.2-2.3l0-7c0-6.8,5.5-12.3,12.3-12.3l11,0c0.7,2.5,3,4.4,5.8,4.4
				L253.7,169z"/>
			<path class="st2" d="M253.7,164.6v4.4l-21.4,0c-2.8,0-5.1-1.9-5.8-4.4H253.7z"/>
			<path class="st2" d="M253.7,153.5v11.1h-27.2c-0.2-0.5-0.2-1.1-0.2-1.6v-3.4c0-3.3,2.7-6,6-6H253.7z"/>
			<path class="st12" d="M253.7,103l0,50.6h-21.4c-3.3,0-6,2.7-6,6v3.4c0,0.6,0.1,1.1,0.2,1.6l-11,0c-6.8,0-12.3,5.5-12.3,12.3l0,7
				c0,0.8,0.1,1.6,0.2,2.3l-14.5,0c-1.4-5.3-2.1-10.8-2.1-16.6C187,132.8,216.8,103,253.7,103z"/>
			<path class="st3" d="M253.7,22.4v15.7l-92.2,0c-3.4,0-6.2-2.8-6.2-6.2v-3.4c0-3.4,2.8-6.2,6.2-6.2L253.7,22.4z"/>
		</g>
		<g>
		</g>
	</g>
</g>
</svg>
